<?xml version="1.0" encoding="UTF-8"?>
<svg width="94px" height="66px" viewBox="0 0 94 66" version="1.1" xmlns="http://www.w3.org/2000/svg" xmlns:xlink="http://www.w3.org/1999/xlink">
    <!-- Generator: Sketch 47.1 (45422) - http://www.bohemiancoding.com/sketch -->
    <title>Combined Shape</title>
    <desc>Created with Sketch.</desc>
    <defs>
        <linearGradient x1="100%" y1="100%" x2="0%" y2="0%" id="linearGradient-1">
            <stop stop-color="#2D8FE2" stop-opacity="0" offset="0%"></stop>
            <stop stop-color="#2D8FE2" stop-opacity="0.5" offset="100%"></stop>
        </linearGradient>
    </defs>
    <g id="Page-1" stroke="none" stroke-width="1" fill="none" fill-rule="evenodd">
        <g id="Cloud-3" transform="translate(-1295.000000, -207.000000)" fill="url(#linearGradient-1)">
            <g id="Group-5" transform="translate(911.000000, 207.000000)">
                <path d="M414.192631,21.1470256 C411.929828,20.4026861 409.51194,20 407,20 C394.297451,20 384,30.2974508 384,43 C384,55.7025492 394.297451,66 407,66 C407.673827,66 408.340887,65.9710236 409,65.9142488 L409,66 L446,66 L446,65.9851378 C463.762782,65.4564747 478,50.8908775 478,33 C478,14.7746033 463.225397,0 445,0 C430.952384,0 418.954846,8.77742424 414.192631,21.1470256 Z" id="Combined-Shape"></path>
            </g>
        </g>
    </g>
</svg>