<?xml version="1.0" encoding="UTF-8"?>
<svg width="279px" height="222px" viewBox="0 0 279 222" version="1.1" xmlns="http://www.w3.org/2000/svg" xmlns:xlink="http://www.w3.org/1999/xlink">
    <!-- Generator: Sketch 44.1 (41455) - http://www.bohemiancoding.com/sketch -->
    <title>Page 1</title>
    <desc>Created with Sketch.</desc>
    <defs>
        <polygon id="path-1" points="0 0.0633251805 0 221.738014 278.903708 221.738014 278.903708 0.0633251805 0 0.0633251805"></polygon>
    </defs>
    <g id="Page-1" stroke="none" stroke-width="1" fill="none" fill-rule="evenodd">
        <g id="Superhero-LP-Copy" transform="translate(-1235.000000, -2727.000000)">
            <g id="Group-11" transform="translate(0.000000, 2676.000000)">
                <g id="Page-1" transform="translate(1235.000000, 51.000000)">
                    <g id="Group-3">
                        <mask id="mask-2" fill="white">
                            <use xlink:href="#path-1"></use>
                        </mask>
                        <g id="Clip-2"></g>
                        <path d="M166.217157,182.1392 C166.217157,182.1392 155.128077,138.602639 173.928478,126.553875 C192.72788,114.49712 232.685723,140.662206 232.685723,140.662206 C232.685723,140.662206 198.030224,100.968105 217.062334,95.9200692 C236.09744,90.8740312 278.903708,91.7519938 278.903708,91.7519938 C278.903708,91.7519938 218.161954,79.8970007 221.073299,68.8640363 C223.983646,57.8260777 237.964097,46.9349458 237.964097,46.9349458 C237.964097,46.9349458 204.775757,70.118554 204.236434,55.0473608 C203.696112,39.9821606 241.501657,5.86047577 241.501657,5.86047577 C241.501657,5.86047577 193.746601,54.0185764 185.314186,45.1969992 C176.87378,36.3794173 182.635548,0.0633251805 182.635548,0.0633251805 C182.635548,0.0633251805 175.474537,37.7478005 158.118323,39.0732345 C140.760112,40.3936744 138.384094,9.91268803 138.384094,9.91268803 C138.384094,9.91268803 136.39559,31.9516487 128.294759,35.0230199 C120.196924,38.094391 78.0138736,0.587705618 78.0138736,0.587705618 C78.0138736,0.587705618 116.741261,47.2485752 97.0559712,52.129808 C77.3766735,57.0030502 -0.000199749266,27.9254058 -0.000199749266,27.9254058 C-0.000199749266,27.9254058 85.5693896,65.4131136 76.2001503,85.1587838 C66.8289135,104.904454 27.0238785,104.474961 27.0238785,104.474961 C27.0238785,104.474961 74.9936647,109.484043 65.3847263,122.226987 C55.7777853,134.968932 42.27074,153.277301 42.27074,153.277301 C42.27074,153.277301 94.8777054,101.193838 107.303109,122.522638 C119.730509,143.850439 86.0068405,221.738413 86.0068405,221.738413 C86.0068405,221.738413 123.152214,130.867778 136.514441,130.224538 C149.873672,129.582297 166.217157,182.1392 166.217157,182.1392" id="Fill-1" fill="#000000" mask="url(#mask-2)"></path>
                    </g>
                    <path d="M164.055787,170.400665 C164.055787,170.400665 154.334379,132.392257 170.822464,121.867893 C187.308549,111.344525 222.353232,134.183828 222.353232,134.183828 C222.353232,134.183828 191.9537,99.5315049 208.648836,95.1237803 C225.340972,90.7190433 262.885274,91.4828763 262.885274,91.4828763 C262.885274,91.4828763 209.613075,81.133786 212.166708,71.4987351 C214.71834,61.8646801 226.978377,52.3551089 226.978377,52.3551089 C226.978377,52.3551089 197.876167,72.5991724 197.40205,59.4417262 C196.926932,46.2812923 230.083147,16.4947939 230.083147,16.4947939 C230.083147,16.4947939 188.19977,58.5384713 180.804937,50.8403893 C173.409105,43.1393196 178.457356,11.4297945 178.457356,11.4297945 C178.457356,11.4297945 172.1788,44.3343647 156.958029,45.4875832 C141.734257,46.6427934 139.651741,20.0321273 139.651741,20.0321273 C139.651741,20.0321273 137.903308,39.272353 130.800548,41.9552291 C123.697788,44.6361136 86.7066231,11.8928745 86.7066231,11.8928745 C86.7066231,11.8928745 120.668038,52.6299693 103.405761,56.8893091 C86.141483,61.1446654 18.2876712,35.7559328 18.2876712,35.7559328 C18.2876712,35.7559328 93.3312644,68.491205 85.1142285,85.7267425 C76.8951921,102.967259 41.9855427,102.594804 41.9855427,102.594804 C41.9855427,102.594804 84.0559663,106.967673 75.6298786,118.090555 C67.2037909,129.216424 55.3608567,145.200152 55.3608567,145.200152 C55.3608567,145.200152 101.495287,99.7276914 112.393987,118.348485 C123.291688,136.970275 93.7103583,204.974315 93.7103583,204.974315 C93.7103583,204.974315 126.292431,125.634277 138.009334,125.072606 C149.726237,124.510934 164.055787,170.400665 164.055787,170.400665" id="Fill-4" fill="#F72828"></path>
                    <path d="M153.640926,131.220221 C153.640926,131.220221 147.916851,108.773045 157.624891,102.556904 C167.331931,96.346752 187.965387,109.832025 187.965387,109.832025 C187.965387,109.832025 170.070531,89.3660696 179.898509,86.7660299 C189.725488,84.1629959 211.832192,84.6121391 211.832192,84.6121391 C211.832192,84.6121391 180.466219,78.5037924 181.968452,72.8106536 C183.472683,67.1245015 190.689995,61.5052219 190.689995,61.5052219 C190.689995,61.5052219 173.55675,73.4594159 173.275893,65.6902378 C172.998035,57.9200615 192.517061,40.3316163 192.517061,40.3316163 C192.517061,40.3316163 167.858661,65.1582527 163.503887,60.6139223 C159.148112,56.0665975 162.120593,37.3373288 162.120593,37.3373288 C162.120593,37.3373288 158.426481,56.7712532 149.461062,57.4519546 C140.498642,58.132656 139.273268,42.4196329 139.273268,42.4196329 C139.273268,42.4196329 138.244793,53.7819561 134.061931,55.363938 C129.880068,56.9489143 108.101196,37.6118051 108.101196,37.6118051 C108.101196,37.6118051 128.095979,61.6709058 117.931173,64.1851092 C107.766367,66.6993127 67.8167808,51.7059167 67.8167808,51.7059167 C67.8167808,51.7059167 111.999204,71.0350411 107.160677,81.2136227 C102.322149,91.3981928 81.7686517,91.1766155 81.7686517,91.1766155 C81.7686517,91.1766155 106.539994,93.7586895 101.578529,100.330153 C96.6130665,106.897623 89.6426282,116.335618 89.6426282,116.335618 C89.6426282,116.335618 116.807747,89.4808506 123.22247,100.479867 C129.64019,111.475889 112.225089,151.635274 112.225089,151.635274 C112.225089,151.635274 131.407287,104.783656 138.304763,104.452289 C145.207236,104.121919 153.640926,131.220221 153.640926,131.220221" id="Fill-6" fill="#FFD200"></path>
                </g>
            </g>
        </g>
    </g>
</svg>