<?xml version="1.0" encoding="UTF-8"?>
<svg width="216px" height="413px" viewBox="0 0 216 413" version="1.1" xmlns="http://www.w3.org/2000/svg" xmlns:xlink="http://www.w3.org/1999/xlink">
    <!-- Generator: Sketch 44.1 (41455) - http://www.bohemiancoding.com/sketch -->
    <title>Page 1</title>
    <desc>Created with Sketch.</desc>
    <defs>
        <polygon id="path-1" points="188.408842 0.00136563048 188.408842 274.880407 0.289045146 274.880407 0.289045146 0.00136563048"></polygon>
    </defs>
    <g id="Page-1" stroke="none" stroke-width="1" fill="none" fill-rule="evenodd">
        <g id="Superhero-LP" transform="translate(-1148.000000, -3167.000000)">
            <g id="Group-9" transform="translate(0.000000, 3167.000000)">
                <g id="Page-1" transform="translate(1148.000000, 0.000000)">
                    <g id="Group-3" transform="translate(27.000000, 85.000000)">
                        <mask id="mask-2" fill="white">
                            <use xlink:href="#path-1"></use>
                        </mask>
                        <g id="Clip-2"></g>
                        <path d="M63.9657711,4.05088501 C63.9657711,4.05088501 86.2507184,113.967745 134.347666,147.251983 C186.978482,183.674916 188.409482,185.856441 188.409482,185.856441 C188.409482,185.856441 145.886613,169.107733 146.781876,193.067552 C147.905929,223.1598 170.851666,244.773236 129.112508,241.50095 C82.6099816,237.85489 117.987797,274.880407 74.0715868,270.954373 C37.7800342,267.7098 65.3328237,222.003663 29.4221132,250.105536 C17.1634026,259.698559 14.4605605,274.880407 14.4605605,274.880407 C14.4605605,274.880407 -8.07733421,31.7676163 3.69182368,9.98861111 C3.69182368,9.98861111 28.8252711,-7.7471124 63.9657711,4.05088501" id="Fill-1" fill="#122F56" mask="url(#mask-2)"></path>
                    </g>
                    <path d="M2.74252187,185.992047 L0,194.943099 L13.1238634,205 L20.6741231,196.61841 C20.6741231,196.61841 24.4496072,184.505118 19.2585823,180.096821 C14.0682658,175.688523 2.74252187,185.992047 2.74252187,185.992047" id="Fill-4" fill="#000000"></path>
                    <path d="M13.860831,198.722471 C10.8062539,198.722471 8.86710418,196.556537 6,196.193676 C9.13854172,198.546304 12.2618829,200.150752 14.3566569,201 C14.8372822,200.656791 15.3179076,200.312881 15.798533,199.96897 C15.4662935,196.812013 9.89060464,191.744598 9.5279641,188.296369 C15.0884524,188.577112 18.0416928,185.321894 21,182 C16.7605076,184.450888 11.5901655,184.81024 8.19321527,187.006354 C3.5266612,189.591297 12.5275298,194.197592 13.860831,198.722471" id="Fill-6" fill="#2D8FE2"></path>
                    <path d="M58.5094803,378.046689 C56.4604982,380.21108 54.4115161,384.539861 57.8264863,387.425715 C59.1924744,388.147179 61.2414565,388.147179 61.9244505,388.868642 C64.3231256,393.935481 62.0029948,398.643752 58.2806773,402 C61.1034917,401.559186 63.9092312,400.879567 66.6343774,400.005153 C67.3310313,399.782221 68.1806759,397.8689 67.9662157,397.011801 C66.0135358,389.21783 65.1372544,381.558052 65.070321,374 C62.5705629,374.505746 60.1937436,375.971038 58.5094803,378.046689" id="Fill-8" fill="#2D8FE2"></path>
                    <path d="M53.9442861,15.4327014 C53.9442861,14.0098863 48.2446566,12.5870712 44.6823881,11.1642561 C46.1072955,9.741441 47.5322029,9.03003345 48.9571103,8.31862589 C47.5322029,8.31862589 46.8197492,7.60721834 48.2446566,6.18440324 C46.161442,5.76822982 44.3233115,6.08551759 42.5849245,6.84458945 C43.6065831,7.12346121 44.6667142,7.41229267 45.7874038,7.71748651 C42.8870048,9.19081155 40.5579937,10.3724595 37,12.1808575 C43.791821,14.0411882 43.6194072,14.2595904 48.6507552,15.6795598 C54.0126817,17.1927237 51.5354802,17.1742271 52.0626959,21.6589403 C53.3557994,32.6893144 54.4009689,42.0350754 55.369906,50.2817117 C55.468937,51.1225955 55.8016529,51.9371571 56.0909091,53 C56.3865774,53 56.6943574,52.9822148 57,52.9686981 C52.5286406,25.6513595 55.9598176,28.1789905 53.9442861,15.4327014" id="Fill-10" fill="#2D8FE2"></path>
                    <path d="M104.236286,181.920216 C103.157403,178.946529 102.274873,181.223536 101.173307,178.25909 C98.4626301,170.97025 95.0799553,165.441594 89.8783486,155.604894 C85.720891,147.741648 84.8908172,138.629354 86.5382054,131.137196 C86.7295973,130.26919 87.5072155,129.379145 88.2486819,128.806161 C95.3663343,123.305941 102.535733,117.871834 108.450452,113.364028 C108.594351,113.569478 108.738958,113.780614 108.882856,113.986775 C108.883565,113.929192 108.889236,113.870188 108.890654,113.811894 C110.928623,124.095749 114.431095,133.427 125.912483,134.755669 C106.064433,139.731957 113.153022,164.613397 107.482151,178.120465 C106.879621,179.733493 105.705042,180.945575 104.236286,181.920216 M165.802809,393.528337 C164.095168,389.707259 162.327274,385.906796 160.82662,382.003965 C158.773056,376.657298 155.858228,371.343334 155.230179,365.797616 C153.560816,351.014486 151.355556,336.07638 152.162237,321.268368 C153.135501,303.403494 151.344214,292.62201 137.457668,276.449074 C133.491602,272.361409 130.617179,266.592469 128.867007,261.073055 C124.567777,247.519068 123.781653,240.327621 119.491639,226.769368 C115.977116,215.66798 112.279708,204.61991 108.419971,193.629422 C110.965484,188.438443 113.827856,183.383245 116.978025,178.571175 C121.161001,172.181621 126.822658,166.773817 131.106292,160.439713 C133.439147,156.989013 135.565723,152.486183 135.494838,148.499466 C135.341724,139.988591 132.015049,138.569638 133.690083,130.365161 C134.92775,124.305464 133.965829,101.337761 125.2497,88.1847211 C125.227016,88.1911192 117.95625,77.4608203 108.049947,70.2153448 C97.7339231,62.6684485 89.801083,57.7078001 86.3836741,45.4391173 C86.067523,44.3031018 85.7265619,42.8486039 85.7804352,42.0268054 C86.9762802,23.751032 85.5918787,13.9114886 85.464993,8.14112711 C85.3778033,4.20985951 83.8225669,3.19043135 79.7976659,2.37787459 C51.0669052,-3.42234463 44.8204404,3.03403372 33.8558107,4.45227583 C36.652968,5.2172024 39.270784,5.93307699 42.2082953,6.73781386 L47.1306116,6.07738934 C45.7128938,7.49918594 46.4217527,8.21008424 47.8394705,8.21008424 C46.4217527,8.92098254 44.5730487,9.90913118 43.1553308,11.3309278 C46.6996254,12.7527244 53.5103419,13.8972706 53.5103419,15.3190672 C52.9475079,27.6218732 53.4500889,37.2858247 56.5513466,52.8281942 C58.071849,52.7592371 59.6774145,52.5616073 61.056145,52.5616073 C61.392853,53.0777195 62.6886471,57.4717819 61.9493073,59.8724855 C58.7842522,62.853282 44.9154275,67.0795724 37.7857245,71.1494652 C31.0139953,75.0117756 21.7853611,83.8205165 19.8941255,92.2005856 C18.7266349,97.3688163 22.3226761,111.992705 22.3014104,116.063309 C22.2744737,121.063767 23.5468755,126.057828 23.941001,131.078192 C24.1082917,133.225816 24.0806462,135.763723 23.1066741,137.559452 C19.0101784,145.121988 17.459904,153.217698 16.8198044,161.668857 C16.2520084,169.154616 13.4498891,175.421184 6.48180593,179.413589 C3.98804026,180.843205 2.14075393,183.408127 0,185.455514 L0,189.686069 C1.87351412,192.241038 4.12626775,194.382974 6.37122394,196.123254 C9.17901411,196.490788 11.0780471,198.685331 14.0694318,198.685331 C12.7637136,194.10217 3.94905302,189.436544 8.51977532,186.817595 C11.8457414,184.593905 16.9091206,184.229925 21.0616161,181.747468 C23.4199897,179.009088 25.7819076,176.226632 29.5268093,175.293222 C29.5268093,183.17353 29.513341,191.173269 29.5303536,199.173718 C29.5679231,216.695229 33.4134827,233.37859 39.9647568,249.593469 C42.93842,256.956243 45.7759822,264.572096 43.3438873,272.914488 C42.898015,274.447185 43.5175577,276.367321 43.8953795,278.05215 C45.7185647,286.167765 48.5114688,294.177456 49.319568,302.388331 C50.3523754,312.870527 51.0775381,323.386845 51.6687264,333.911695 C55.9693735,361.35308 56.2302335,389.058919 23.8367988,397.181643 C20.2925042,398.60344 16.0393507,402.86883 18.8747864,405.001525 C19.7594423,405.508395 20.6674906,405.956972 21.5939692,406.352231 C24.6767966,406.331615 27.7539532,406.241331 30.8204768,406.003891 C36.8039549,405.538964 42.6201423,403.199397 48.5816458,402.066225 C51.3823474,401.534474 54.3779852,402.11741 57.2297246,401.756274 C57.5983312,401.709355 57.9655202,401.643952 58.3334179,401.589924 C62.196699,398.282825 64.6046928,393.643502 62.1151803,388.650864 C61.4063213,387.939965 59.2797446,387.939965 57.8620268,387.229067 C54.3177322,384.385474 56.4443089,380.120084 58.5708857,377.987389 C60.3189318,375.942135 62.7857608,374.4983 65.3808933,373.99925 C65.1944634,353.908553 71.1708529,334.562877 78.1942271,315.425495 C80.9559414,307.901348 79.9557415,301.488334 76.6347374,294.835748 C73.5171759,288.589084 70.2422477,282.4128 67.3706603,276.053104 C64.3466681,269.35502 64.2445924,262.341297 67.5967863,255.799611 C73.0110507,245.232819 72.8614814,234.317686 70.7682211,223.102555 C70.5144496,221.746161 70.0246281,217.456601 70.0246281,214.67841 C71.6904465,217.059208 74.1714527,221.330285 75.1390451,222.820328 C86.6721797,240.602027 94.7453739,247.922147 106.282053,265.702425 C109.576829,270.782504 110.063106,274.757136 113.153022,285.21445 C116.75119,297.390005 112.089734,304.408704 124.915827,319.128564 C133.350539,328.808867 138.427387,340.469021 141.449252,352.475382 C145.589697,363.559708 147.867261,375.547586 146.469391,387.229067 C152.849122,386.518169 159.228852,387.229067 163.482005,392.205355 C158.519993,391.494457 152.849122,389.361762 148.595968,391.494457 C141.507379,394.33805 144.342815,404.290626 150.722545,407.845118 C156.663491,411.418803 163.101348,405.511239 167.951361,406.013844 C170.012723,403.387785 168.898396,400.452486 165.802809,393.528337" id="Fill-12" fill="#000000"></path>
                    <path d="M23.9863371,396.880424 C56.5368781,388.807708 56.2747528,361.273148 51.9532479,334 C52.3279161,340.600325 52.6505865,347.20277 52.9618602,353.801681 C53.8529436,372.756243 40.2979347,390.772545 25.0896849,395.125424 C17.7822316,397.217435 11.013987,401.161239 4,404.264282 C4.03846403,404.784988 4.07764036,405.304988 4.11539209,405.824988 C9.98400576,405.824988 15.86829,406.036238 21.7326299,405.994553 C20.8016579,405.601727 19.8892056,405.155912 19.0002592,404.652162 C16.1510718,402.532597 20.4248529,398.293467 23.9863371,396.880424" id="Fill-14" fill="#4BBDE6"></path>
                    <path d="M151.466172,406.978211 C144.973498,403.448853 142.087865,393.566653 149.301947,390.743167 C153.630397,388.625553 159.401663,390.743167 164.451521,391.449038 C160.123071,386.507938 153.630397,385.802067 147.137722,386.507938 C148.56034,374.909058 146.242455,363.005948 142.028709,352 C143.048059,355.950057 143.838001,359.936819 144.446148,363.903816 C146.418478,376.7775 142.676534,387.522981 137.221244,398.274815 C134.958187,402.7331 135.785642,405.053299 140.161704,407.165972 C143.428241,408.741477 146.339845,411.028501 149.407273,413 L156.921461,413 C158.218553,412.222836 159.49256,411.402613 160.815623,410.67133 C165.051733,408.339131 167.671887,406.810213 169,405.159886 C164.064125,404.660835 157.512295,410.526626 151.466172,406.978211" id="Fill-16" fill="#4BBDE6"></path>
                    <path d="M110.678297,131.50788 C112.644173,135.789431 112.922464,139.28962 111.129985,143.321106 C110.072479,145.696361 108.50406,148.04328 108.217206,150.523377 C107.379479,157.736274 107.026977,165.007968 106.56958,172.261243 C106.178546,178.434922 104.068529,180.063526 97.7299169,180.399306 C94.5845151,180.565071 91.5161786,182.148338 88.4121637,183.083422 C83.0361526,184.702817 85.4430129,188.314933 86.1530117,191.545931 C86.2921572,192.183488 86.0024491,192.919513 85.8918463,193.607366 C85.4080481,196.610969 87.3196932,200.431353 90.0233972,203 C87.3881956,197.072843 87.2747385,190.425956 91.7488013,186.619031 C96.0302011,183.785443 105.306567,183.077047 107.447267,177.409872 C113.1558,163.950331 106.020134,139.156441 126,134.197663 C108.612522,132.206359 109.400299,112.171479 106.043682,98 C104.239072,100.814461 102.900421,104.03625 101.879307,107.448597 C104.612267,115.234587 107.059801,123.634049 110.678297,131.50788" id="Fill-18" fill="#4BBDE6"></path>
                    <path d="M36.064651,83 L24.562857,96.182553 L22,102.239096 L25.6404138,108.652363 C25.6404138,108.652363 26.6729831,117.915894 29.0323255,125.040489 C31.3916678,132.166499 32.8291243,138.579059 34.2665807,142.854099 C35.7047513,147.129847 32.4699387,171 32.4699387,171 C32.4699387,171 36.4245506,147.84259 36.064651,143.923567 C35.7047513,140.004544 26.6958339,110.789883 29.0437509,109.721123 C31.3916678,108.652363 66.2576634,112.927403 74.5246447,117.915894 C82.7930542,122.902969 104,97.251313 104,97.251313 C104,97.251313 82.0796816,112.764612 73.8069876,112.753288 C65.5335795,112.741963 30.6725826,106.870861 27.0785844,105.089358 C23.483158,103.307856 36.064651,83 36.064651,83" id="Fill-20" fill="#4BBDE6"></path>
                    <path d="M45.4702706,122 C45.4702706,122 42.1621617,134.666349 45.4702706,140.542461 C45.4702706,140.542461 44.1478631,159.759804 46.5739025,163.82909 C48.9999419,167.89909 51.4266781,179 51.4266781,179 C51.4266781,179 49.2939651,164.733217 47.7130681,160.211153 C46.1321711,155.68909 45.9851595,140.770993 47.7130681,140.542461 C49.4409767,140.314644 52.5296133,147.323414 64,145.967224 C64,145.967224 42.3823307,145.514446 45.4702706,122" id="Fill-22" fill="#4BBDE6"></path>
                    <path d="M61.7984113,162.071583 C57.4213345,162.246094 53.2988234,162.481684 50.0934765,159.016182 C50.0556553,158.975462 49.9880136,159.018363 50.0018329,159.069989 C51.1757448,163.490941 58.4446889,163.429135 61.8536884,162.477321 C62.0755243,162.415515 62.0355211,162.06213 61.7984113,162.071583" id="Fill-24" fill="#4BBDE6"></path>
                    <path d="M93.9759366,74.7955491 C90.2084143,72.8133542 85.4683324,72.2365976 81.2938726,71.8662896 C79.0067002,71.6634502 76.7089489,71.6547881 74.4161344,71.7327477 C72.1952568,71.8085417 69.8946845,72.287127 70.3185483,71.9456928 C72.6607313,70.0558945 78.3832465,60.0720136 79.5737328,57.5404923 C80.8855245,54.7498276 82.1091582,51.1405872 80.9010403,48.1174874 C80.8220507,47.9182573 80.5237239,47.9882766 80.5787345,48.2084402 C81.9490632,53.7248033 77.893793,59.3848142 74.8364719,63.5758642 C72.0288145,67.4254801 68.2725764,72.4618142 63.200315,72.7714871 C62.9541777,72.7866459 62.933725,73.0992061 63.1453044,73.1901589 C64.3936223,73.7236047 67.0849112,73.0457893 67.273922,73.0479549 C69.4503679,73.0717759 71.6543191,72.6993022 73.833586,72.5996872 C75.940916,72.5036814 78.0524775,72.5332772 80.1583969,72.6516603 C82.4053692,72.7772618 84.637531,73.0869347 86.8478296,73.5193217 C89.188602,73.9769734 91.4701323,74.691603 93.7749363,75.2842403 C100.766222,77.0830857 94.2552213,74.9420843 93.9759366,74.7955491" id="Fill-26" fill="#4BBDE6"></path>
                    <path d="M54.2123719,69.1823223 C52.1365219,68.9096848 49.0151203,68.8389758 47.0633776,69.7207983 C46.9635371,69.7649914 46.9878039,69.9336051 47.0931911,69.9533221 C48.8348528,70.2687929 50.8677158,69.7255576 52.6468177,69.7384756 C55.0083224,69.7561528 57.2900933,70.2715125 58.9693547,71.9950437 C58.9811414,72.0072818 59.0047149,71.9950437 58.9991682,71.9780464 C58.2711647,70.0063538 56.1447011,69.4359227 54.2123719,69.1823223" id="Fill-28" fill="#4BBDE6"></path>
                    <path d="M85.6722756,26.6753975 C87.0725425,23.3416866 83.7324693,19.9651818 80.4487449,21.298105 C80.1775665,21.4082465 80.2867422,21.8488127 80.574121,21.7463881 C83.0372664,20.8666588 84.9474896,22.6506712 84.9749596,25.1228928 C84.9939774,26.8465729 83.4796042,28.2047514 82.4815267,29.4443699 C80.4628321,31.95237 80.9009438,34.4687886 81.416535,37.4412072 C81.7567407,39.4034104 81.8321072,42.5119274 79.9895025,43.8160875 C78.5244346,44.8522598 70.6961821,46.7913122 68.4859017,47.4086661 C66.3171786,48.0119892 64.1400031,47.8793984 62.0663685,48.7675461 C61.9262009,48.8271769 62.0318549,49.0236077 62.1635701,48.9976508 C64.9486079,48.4588692 67.7230803,47.7917061 70.4538824,47.0249245 C72.9233671,46.331103 81.8229505,44.9111891 82.7667923,43.2864259 C83.6401982,41.7816258 82.7252351,38.7650103 82.4533523,37.1563826 C82.0941289,35.0398409 81.827881,31.6001977 82.9788046,29.6295761 C83.8775674,28.0911022 84.9693248,28.3457607 85.6722756,26.6753975" id="Fill-30" fill="#4BBDE6"></path>
                    <path d="M110.231586,264.660162 C104.671732,257.818457 75.2310066,220.067233 70.6502204,201.672978 C73.6731426,194.738472 78.0123501,185.34866 85.2809654,183.635046 C85.2809654,183.635046 83.7308942,179.755152 70.0487531,197.337584 L70.0487531,197.336875 L70.0487531,197.337584 C68.784184,198.962648 67.4183078,200.766229 65.9390808,202.778078 C61.9066287,208.258952 45.0797134,199.25805 35,179 C35,179 43.5849006,204.615662 66.0248023,209.308797 C66.0248023,209.308797 78.7002473,228.619719 91.3898611,245.436373 C104.079475,262.253027 113.628565,284.124807 113.296306,289.269191 C112.964047,294.413575 111.636426,305.434827 120.949605,314.602911 C123.930729,317.537803 130.717604,326.542955 139,344 C133.928972,331.469152 122.60736,313.540314 118.356707,291.933475 C116.355359,281.759467 116.275305,272.098338 110.231586,264.660162" id="Fill-32" fill="#4BBDE6"></path>
                    <path d="M121,260 C121,260 126.002349,270.909091 124.818828,273.818182 C123.635307,276.727273 123.00015,280 123.00015,280 C123.00015,280 124.282298,266.181818 121,260" id="Fill-34" fill="#4BBDE6"></path>
                </g>
            </g>
        </g>
    </g>
</svg>