<?xml version="1.0" encoding="UTF-8"?>
<svg width="400px" height="263px" viewBox="0 0 400 263" version="1.1" xmlns="http://www.w3.org/2000/svg" xmlns:xlink="http://www.w3.org/1999/xlink">
    <!-- Generator: Sketch 44.1 (41455) - http://www.bohemiancoding.com/sketch -->
    <title>Page 1</title>
    <desc>Created with Sketch.</desc>
    <defs>
        <linearGradient x1="26.6760314%" y1="82.6601565%" x2="75.2463054%" y2="82.6601565%" id="linearGradient-1">
            <stop stop-color="#E1E9FF" stop-opacity="0.219344429" offset="3.20073342%"></stop>
            <stop stop-color="#E1E9FF" stop-opacity="0.343721694" offset="100%"></stop>
        </linearGradient>
        <path d="M398.937817,323.557747 C396.822094,311.08697 385.486878,301.44916 375.576572,299.501771 C378.793439,293.945986 377.90352,285.235608 373.673807,280.91126 C369.447556,276.586912 363.218122,273.646003 359.644594,278.840507 C362.345516,268.920722 365.030856,257.868631 361.77763,248.219805 C358.526135,238.57098 349.08849,229.59625 344.986897,238.707561 C350.918538,216.87434 353.271456,193.023236 349.16467,170.520324 C345.059614,148.017412 333.984102,127.071971 317.861675,116.447248 C301.739247,105.824728 280.604532,106.994483 266.611678,121.714449 C252.620555,136.436619 251.732367,163.578897 261.874676,182.739967 C253.669759,179.964277 244.213069,185.535483 240.570287,195.296658 C236.927505,205.053427 239.5055,217.898701 246.382464,224.240932 C242.485171,223.509559 238.348952,226.542991 236.892878,231.199982 C235.790001,234.724667 236.788996,241.141797 238.740239,245.298722 C226.629373,228.741514 206.216635,222.67465 189.689069,231.219808 C172.152121,240.287061 163.07633,258.952471 165.037961,282.907113 C153.179874,267.808243 133.071855,264.6162 118.661743,275.544927 C104.251631,286.469248 98.5381419,312.477018 103.335741,332.931207 C99.6444812,326.520686 90.5825412,328.981356 87.1319401,335.605562 C86.5207699,332.287952 83.705578,329.893369 81.0617907,330.444101 C78.4180035,330.99263 78.3158532,334.411574 78.5651691,337.804084 C75.7049619,329.882354 68.8020282,324.634979 61.9614235,325.183508 C55.1225502,325.732037 46.7341094,330.701843 44.680716,339.017897 C30.001853,323.557747 17.423728,319.273052 5.85880827,331.175473 C-5.70611145,343.077894 2.89002061,365.997159 15.7557593,367.122855 C29.8178679,368.352089 26.0997569,367.852025 39.4017984,361.917336 C41.4811621,365.955304 46.4744053,367.737472 50.2401141,367.122855 C54.0040914,366.506036 57.3802441,362.98135 58.5887336,358.403666 C65.562653,366.959839 76.7472408,369.394074 85.5615962,364.276672 C109.836999,375.368416 137.194224,373.872628 160.854994,360.811466 C179.029084,372.62577 202.090803,372.905542 220.786032,362.490097 C228.514825,372.647799 242.587322,370.277449 250.523877,360.384098 C266.587439,363.829478 283.267364,368.257363 299.420956,365.585212 C309.899149,371.526509 325.282285,367.785937 335.014262,360.058065 C345.087316,369.378654 359.310441,370.427248 370.685479,363.974871 C375.884754,366.770387 382.391206,368.089941 387.85711,366.305569 C393.321284,364.516791 398.247004,359.071153 399.316985,352.01958 C399.936812,347.930945 399.20964,343.800454 397.658341,340.117158 C399.278895,334.726593 399.853706,328.948312 398.937817,323.557747 Z" id="path-2"></path>
    </defs>
    <g id="Page-1" stroke="none" stroke-width="1" fill="none" fill-rule="evenodd">
        <g id="clouds" transform="translate(0.000000, -109.000000)">
            <g id="Page-1" transform="translate(199.981395, 240.560242) scale(-1, 1) translate(-199.981395, -240.560242) ">
                <use fill="#0B1625" xlink:href="#path-2"></use>
                <use fill-opacity="0.700000048" fill="url(#linearGradient-1)" xlink:href="#path-2"></use>
            </g>
        </g>
    </g>
</svg>