<?xml version="1.0" encoding="UTF-8"?>
<svg width="795px" height="158px" viewBox="0 0 795 158" version="1.1" xmlns="http://www.w3.org/2000/svg" xmlns:xlink="http://www.w3.org/1999/xlink">
    <!-- Generator: Sketch 44.1 (41455) - http://www.bohemiancoding.com/sketch -->
    <title>Fill 1</title>
    <desc>Created with Sketch.</desc>
    <defs>
        <linearGradient x1="92.3089359%" y1="66.200132%" x2="18.7114826%" y2="68.3848443%" id="linearGradient-1">
            <stop stop-color="#E1E9FF" stop-opacity="0.0814085145" offset="0%"></stop>
            <stop stop-color="#E1E9FF" stop-opacity="0.156561368" offset="100%"></stop>
        </linearGradient>
        <path d="M1438.98123,285.404016 C1427.71044,277.386419 1416.11842,269.225118 1403.34417,266.823198 C1390.56993,264.421279 1376.0502,266.403282 1368.46105,279.695024 C1351.16029,266.078547 1327.02872,265.16593 1308.28465,275.223385 C1304.70422,261.647967 1288.9832,255.056219 1279.09999,261.903649 C1280.18101,247.085279 1273.00108,231.888052 1262.20847,226.151066 C1251.41731,220.415947 1237.87447,224.600176 1230.34985,235.993898 C1227.67003,230.930644 1222.3412,228.405549 1217.71055,230.006828 C1213.07844,231.609974 1210.88999,233.578914 1210.59223,239.674228 C1203.96089,221.444274 1192.24566,205.791671 1177.44872,198.789338 C1162.65177,191.787006 1144.83031,194.371822 1132.76598,207.329497 C1120.70313,220.285306 1114.90345,242.678961 1121.9587,260.6495 C1112.12242,245.401883 1096.37793,236.6471 1080.90186,237.826598 C1065.42579,239.004229 1050.24895,250.827198 1041.91173,267.457738 C1035.18505,256.991565 1021.81382,254.819199 1013.23458,262.79947 C1009.74949,252.807335 998.330558,249.918313 992.346068,257.760478 C995.394051,245.924445 992.948917,232.072815 986.213431,223.030624 C979.479412,213.988432 971.344612,211.920579 961.889703,215.158598 C962.819646,208.042421 963.748122,200.726551 962.571759,193.670096 C961.395396,186.61364 957.619886,179.773675 952.113568,178.051086 C946.608717,176.328497 943.481527,181.022225 943.796886,188.224251 C935.109107,169.682626 917.979969,158.10041 901.040046,159.311634 C884.100123,160.522858 868.098944,174.473402 861.09797,194.138535 C855.96715,208.54632 856.206236,225.001429 860.803146,239.459604 C857.868105,233.96337 854.438757,229.015827 850.083867,225.391485 C842.003338,218.665363 829.807004,218.301436 823.752107,227.871789 C819.689108,234.293704 819.367881,243.544921 821.309907,251.409481 C823.251933,259.275908 826.263247,266.923978 830.090094,273.577314 C827.262129,268.045621 821.942092,264.74788 816.774602,265.322699 C811.608578,265.897517 807.013135,269.742081 804.983102,275.815 C798.964875,270.038822 790.592455,271.231384 783.142644,272.694558 C755.974816,278.035889 729.846939,287.962704 702.919664,291.937909 L702.582303,291.937909 C702.652709,291.945374 702.723115,291.950973 702.793521,291.958438 C695.597464,293.016626 688.347136,293.671695 681,293.671695 L721.508256,293.671695 C796.386263,300.162664 871.528292,301.722885 946.53391,298.313167 C970.576016,297.219519 994.610787,306.455805 1017.84029,298.486732 C1073.08682,322.379021 1134.47919,322.171862 1189.4573,297.292305 C1225.39065,307.9843 1262.82452,310.755745 1299.53086,305.907115 C1323.30161,302.76801 1347.37012,312.388752 1368.49625,298.173195 C1381.38197,304.583913 1396.48841,304.221852 1408.63781,295.791805 C1416.82835,302.586979 1436.88519,293.671695 1476,293.671695 C1462.19167,288.739082 1451.50026,294.308102 1438.98123,285.404016" id="path-2"></path>
    </defs>
    <g id="Page-1" stroke="none" stroke-width="1" fill="none" fill-rule="evenodd">
        <g id="clouds" transform="translate(-681.000000, -159.000000)">
            <g id="Fill-1">
                <use fill="#0B1625" xlink:href="#path-2"></use>
                <use fill-opacity="0.700000048" fill="url(#linearGradient-1)" xlink:href="#path-2"></use>
            </g>
        </g>
    </g>
</svg>