<?xml version="1.0" encoding="UTF-8"?>
<svg width="406px" height="128px" viewBox="0 0 406 128" version="1.1" xmlns="http://www.w3.org/2000/svg" xmlns:xlink="http://www.w3.org/1999/xlink">
    <!-- Generator: Sketch 44.1 (41455) - http://www.bohemiancoding.com/sketch -->
    <title>Fill 1</title>
    <desc>Created with Sketch.</desc>
    <defs>
        <linearGradient x1="26.6760314%" y1="82.6601565%" x2="75.2463054%" y2="82.6601565%" id="linearGradient-1">
            <stop stop-color="#E1E9FF" stop-opacity="0.306810462" offset="0%"></stop>
            <stop stop-color="#E1E9FF" stop-opacity="0.176177536" offset="100%"></stop>
        </linearGradient>
        <path d="M534.261893,284.378482 C531.35727,282.461464 526.407188,277.936763 523.201813,277.121441 C522.743652,277.004645 522.257349,276.921541 521.758735,276.857528 C523.082216,272.37101 523.681081,267.535229 523.43749,262.751107 C523.23611,258.802521 522.382222,254.66639 520.112519,251.973356 C517.843694,249.279199 514.326136,248.883891 512.208567,251.773456 C513.751016,241.836857 509.02078,230.91985 501.610166,227.309298 C494.199552,223.698746 485.203399,229.084814 481.171399,237.807413 C482.596009,233.082812 483.639845,227.859584 482.545005,222.993481 C481.451044,218.127378 477.536003,214.003599 473.681639,215.192891 C472.559539,212.395415 471.29058,209.40927 469.064845,208.066122 C466.839111,206.722974 462.95221,207.670814 462.842286,210.811939 C462.732362,207.596694 460.826726,204.617287 458.382903,203.835656 C455.9382,203.054024 453.913846,205.161958 452.630817,207.931358 C451.065504,201.817565 448.761504,195.871103 445.167439,191.365494 C441.573375,186.857638 436.546785,183.937751 431.535145,184.582372 C426.523505,185.226993 421.758094,189.928011 420.778455,196.237212 C419.319548,195.239958 417.44381,195.328678 416.04734,196.462942 C414.650869,197.594959 414.970088,199.5131 415.058027,201.62328 C407.01689,199.836534 398.338197,203.871593 393.07769,211.84176 C387.817182,219.811928 386.29408,231.539765 389.035137,241.358445 C386.309909,238.866434 382.591851,238.258873 379.463863,239.794059 C376.335875,241.329246 373.892052,244.961136 373.176229,249.142189 C372.691685,246.640071 370.660296,244.788189 368.650891,245.017287 C366.640607,245.245263 365.501798,245.895499 365.369889,248.466123 C357.82209,233.857705 342.149613,227.075707 329.202364,232.816653 C316.255993,238.5576 307.769007,256.317249 308.934197,273.75571 C304.240017,269.962104 298.341073,268.686338 292.93019,270.292275 C287.519308,271.899336 282.665958,276.367886 279.763093,282.416543 C278.188107,285.698046 277.20407,289.99028 278.712223,293.324566 C275.372302,290.49003 270.180387,291.30086 267.414708,295.009116 C260.501828,291.427762 259.312014,293.683936 252.508179,297.592092 C242.308141,303.450957 232.460739,303.450957 225,303.450957 L247.144783,303.450957 C271.327991,303.450957 282.213952,311.495245 297.318343,306.496624 C318.092158,313.840138 339.875512,313.32242 360.605358,305.781251 C367.525273,310.374458 375.589273,310.143113 382.653408,305.92163 C399.535925,311.221225 417.293434,310.645109 434.00535,304.527946 C437.654816,306.94696 442.239073,306.440472 445.934267,304.136007 C457.886048,309.56812 470.938824,309.545659 483.279295,305.794728 C490.119185,310.145359 498.031931,309.655716 504.885892,305.341022 C516.295089,309.592826 528.451768,309.386188 539.954181,305.56226 C545.083659,307.510723 551.18838,307.365851 556.302908,305.35113 C558.825877,304.356122 561.563416,303.780006 564.569169,303.450957 L631,303.450957 C609.716139,302.364984 588.402379,300.425505 567.217889,297.23946 C562.044442,296.171455 544.616703,291.216632 534.261893,284.378482 Z" id="path-2"></path>
    </defs>
    <g id="Page-1" stroke="none" stroke-width="1" fill="none" fill-rule="evenodd">
        <g id="clouds" transform="translate(-225.000000, -184.000000)">
            <g id="Fill-1">
                <use fill="#0B1625" xlink:href="#path-2"></use>
                <use fill-opacity="0.700000048" fill="url(#linearGradient-1)" xlink:href="#path-2"></use>
            </g>
        </g>
    </g>
</svg>