<?xml version="1.0" encoding="UTF-8"?>
<svg width="320px" height="118px" viewBox="0 0 320 118" version="1.1" xmlns="http://www.w3.org/2000/svg" xmlns:xlink="http://www.w3.org/1999/xlink">
    <!-- Generator: Sketch 44.1 (41455) - http://www.bohemiancoding.com/sketch -->
    <title>Fill 1</title>
    <desc>Created with Sketch.</desc>
    <defs>
        <linearGradient x1="82.6313148%" y1="65.0357345%" x2="25.7680819%" y2="65.0357366%" id="linearGradient-1">
            <stop stop-color="#E1E9FF" stop-opacity="0.219344429" offset="0%"></stop>
            <stop stop-color="#E1E9FF" stop-opacity="0.343721694" offset="100%"></stop>
        </linearGradient>
        <path d="M537.968939,481.538671 C535.708034,478.476547 530.458999,479.806888 528.973423,483.562085 C529.966636,479.949103 528.179701,475.509834 525.294854,474.424319 C522.410007,473.338804 518.567317,474.971577 517.857071,478.69077 C519.52799,472.868955 520.790022,466.762709 520.723525,460.566454 C520.657027,454.368398 519.157303,448.037129 515.876303,443.459245 C512.593887,438.87956 507.384468,436.353893 502.674485,437.925459 C497.963087,439.497026 494.273199,444.939001 494.932512,451.07945 C492.408448,447.686092 488.079055,446.735591 484.807958,448.856215 C481.534032,450.97684 479.594294,455.99217 480.26917,460.586256 C479.471204,459.000288 477.926205,458.07859 476.457607,458.312615 C474.989009,458.54844 474.232073,460.172212 473.766592,461.959801 C473.656235,458.348619 473.23037,454.622225 471.705179,451.572703 C470.181402,448.52138 467.327682,446.317947 464.536214,446.984017 C461.743331,447.650088 459.372069,451.198263 460.651079,454.426004 C455.929777,449.822917 449.268738,448.668995 443.752299,451.498895 C438.235861,454.328794 434.172457,461.041704 433.278282,468.525095 C433.182073,464.710492 431.385234,461.038103 428.738079,459.241513 C426.090924,457.444923 422.609017,456.789654 420.065145,458.809468 C420.472617,456.65284 419.901024,454.242385 418.623429,452.733825 C417.343004,451.225266 415.410341,450.679808 413.75074,451.36028 C414.52041,447.437665 413.462114,442.571751 410.861649,440.245905 C412.122266,436.991161 411.796854,432.839922 410.056608,429.966818 C408.316362,427.091914 405.077806,424.566247 402.283509,425.288123 C402.664099,419.307891 399.920736,413.201645 395.677648,410.585968 C391.43456,407.968492 385.595539,409.226825 382.141929,413.313257 C380.349334,403.025169 371.523598,396.355464 363.259552,397.025134 C354.99409,397.693005 347.602997,404.351909 342.550624,412.697592 C337.598704,420.877657 334.952964,431.140542 338.259431,440.568139 C334.746398,438.946167 330.428324,442.838179 330.46511,447.590681 C328.645633,446.555572 325.963107,450.199157 326.677599,452.566408 C321.263028,449.102841 314.24828,450.197357 309.651484,455.223489 C305.054688,460.24782 303.528081,468.883333 305.405566,476.217309 C303.178617,473.000368 299.419403,471.661027 296.203485,472.937362 C292.988981,474.215497 290.350316,478.346934 289.955577,482.602584 C288.372377,480.95541 286.04922,480.555767 284.177394,481.608879 C282.306983,482.66199 280.759155,486.015745 280.653042,488.61522 C277.771025,473.360406 262.081928,467.131748 250.450576,472.343299 C238.820639,477.55305 237.949203,494.942866 245.647316,506.861949 C253.345429,518.781033 274.214132,511.132001 293.652539,508.242695 C295.955889,511.110398 300.42535,510.591944 303.06826,508.248096 C304.215691,507.229188 305.148067,505.758432 306.462448,505.151768 C308.744575,504.102257 311.124326,505.994257 313.356935,507.198585 C318.879033,510.1797 325.694289,508.802554 330.218929,503.792625 C339.705392,514.483955 354.784695,517.55688 365.45396,508.85296 C367.279096,511.400229 372.219697,510.699955 374.87817,510.030284 C377.536644,509.360613 380.09042,507.947464 382.796997,507.785447 C385.84455,507.603628 388.790235,509.018577 391.77978,509.787258 C394.769324,510.55594 398.194638,510.537938 400.488084,507.979867 C410.12735,514.618969 422.998096,514.113116 432.743474,507.733241 C437.804336,510.536138 443.762203,510.08249 448.748079,507.068971 C451.396649,510.633348 456.29339,511.382227 459.318305,508.343506 C461.542425,510.55774 464.979057,510.496533 467.150827,508.204891 C480.123442,516.849405 497.397153,515.916907 510.345716,507.212986 C518.595614,513.376838 529.771389,514.555963 538.676356,510.111293 C540.283607,509.308408 541.937549,508.064476 543.178358,506.498311 C544.631393,507.324598 546.172147,507.765645 548.308547,506.861949 C553.513722,504.658516 557.92942,499.054524 558.979227,492.201199 C560.029034,485.347874 557.240395,477.598055 552.188022,474.876167 C547.13565,472.154279 539.604487,474.876167 537.968939,481.538671 Z" id="path-2"></path>
    </defs>
    <g id="Page-1" stroke="none" stroke-width="1" fill="none" fill-rule="evenodd">
        <g id="clouds" transform="translate(-240.000000, -397.000000)">
            <g id="Fill-1" transform="translate(399.921314, 455.606762) scale(-1, 1) translate(-399.921314, -455.606762) ">
                <use fill="#0B1625" xlink:href="#path-2"></use>
                <use fill-opacity="0.700000048" fill="url(#linearGradient-1)" xlink:href="#path-2"></use>
            </g>
        </g>
    </g>
</svg>