<?xml version="1.0" encoding="UTF-8"?>
<svg width="329px" height="137px" viewBox="0 0 329 137" version="1.1" xmlns="http://www.w3.org/2000/svg" xmlns:xlink="http://www.w3.org/1999/xlink">
    <!-- Generator: Sketch 44.1 (41455) - http://www.bohemiancoding.com/sketch -->
    <title>Fill 1</title>
    <desc>Created with Sketch.</desc>
    <defs>
        <linearGradient x1="14.8239803%" y1="77.5776923%" x2="98.0226038%" y2="77.5776915%" id="linearGradient-1">
            <stop stop-color="#E1E9FF" stop-opacity="0.306810462" offset="0%"></stop>
            <stop stop-color="#E1E9FF" stop-opacity="0.176177536" offset="100%"></stop>
        </linearGradient>
        <path d="M641.251607,472.713789 C640.271442,464.509791 634.152142,458.548231 627.782416,456.773468 C621.41269,454.998704 615.306854,457.761922 608.898083,459.295139 C614.328036,452.379386 619.857621,445.292325 623.238382,436.512728 C626.619143,427.733131 627.525258,416.798465 623.62614,408.373478 C619.727022,399.948491 611.348496,395.496165 605.040703,401.079132 C601.868631,383.355482 587.522946,370.063601 573.293051,371.661916 C559.063155,373.260231 546.770701,389.54317 546.08674,407.69852 C541.533281,405.180275 535.982154,405.836389 531.870308,409.379063 C527.759808,412.923451 526.433624,419.268744 526.581725,425.583201 C515.456583,412.526013 497.380079,410.295567 484.489832,420.389106 C471.600931,430.480931 465.290446,452.389665 469.437298,470.90819 C467.493124,466.622034 463.587274,463.90507 459.702966,464.134624 C455.817312,464.364178 452.126883,467.529972 450.503148,472.026839 C447.423976,469.537716 443.783363,469.931728 442.090963,474.044862 C438.535172,468.967257 432.66226,467.4289 427.362907,468.306003 C422.063553,469.184819 417.134454,472.11592 412.209394,474.757508 C381.00164,491.492704 346.866855,493.219501 313,493.219501 L396.518676,493.219501 C413.694452,495.957022 430.868882,498.696256 448.044658,501.43549 C453.75735,502.346855 460.269793,502.961855 464.547244,498.05556 C467.719316,500.919849 474.134819,501.092872 476.571768,497.236702 C482.105392,499.181061 487.839626,499.98964 493.544241,500.793081 C506.694339,502.641507 520.580907,504.354599 532.644477,497.447412 C546.582208,510.569697 568.116218,510.204808 582.993722,498.88127 C586.58048,500.793081 591.304929,501.86205 595.171734,501.351549 C599.239149,500.815351 603.306565,500.27744 607.373981,499.741242 C614.325343,498.824738 622.04145,503.313039 628.755849,500.844473 C632.023515,499.643596 635.025943,496.782732 636.952614,493.219501 L637.006469,493.219501 C640.361649,487.458372 642.097134,479.800851 641.251607,472.713789" id="path-2"></path>
    </defs>
    <g id="Page-1" stroke="none" stroke-width="1" fill="none" fill-rule="evenodd">
        <g id="clouds" transform="translate(-313.000000, -371.000000)">
            <g id="Fill-1">
                <use fill="#0B1625" xlink:href="#path-2"></use>
                <use fill-opacity="0.700000048" fill="url(#linearGradient-1)" xlink:href="#path-2"></use>
            </g>
        </g>
    </g>
</svg>