<?xml version="1.0" encoding="UTF-8"?>
<svg width="1075px" height="410px" viewBox="0 0 1075 410" version="1.1" xmlns="http://www.w3.org/2000/svg" xmlns:xlink="http://www.w3.org/1999/xlink">
    <!-- Generator: Sketch 44.1 (41455) - http://www.bohemiancoding.com/sketch -->
    <title>Fill 1</title>
    <desc>Created with Sketch.</desc>
    <defs>
        <linearGradient x1="26.6760314%" y1="82.6601565%" x2="75.2463054%" y2="82.6601565%" id="linearGradient-1">
            <stop stop-color="#E1E9FF" stop-opacity="0.181017889" offset="0%"></stop>
            <stop stop-color="#E1E9FF" stop-opacity="0.176177536" offset="100%"></stop>
        </linearGradient>
        <path d="M2050.31818,359.587259 C2054.35981,352.608105 2055.91407,341.38227 2054.47236,333.086808 C2052.22717,320.172468 2042.86033,310.237522 2032.59883,308.249443 C2022.33734,306.257734 2013.26255,309.966998 2005.80754,319.168443 C2012.98475,307.118326 2013.24688,289.1185 2006.42298,276.734314 C1999.59765,264.353759 1986.22765,259.981802 1974.89627,264.497191 C1977.15428,255.373817 1975.65416,244.879668 1971.01705,237.355835 C1966.3785,229.832001 1958.8366,227.664179 1951.34455,228.296006 C1961.06754,216.460131 1970.95436,204.348285 1977.27965,189.22981 C1983.60778,174.111335 1985.88432,155.194632 1979.85678,139.876442 C1973.83066,124.560067 1956.48028,118.437875 1944.58761,126.431947 C1947.42116,119.921217 1946.1675,110.97214 1941.7398,106.117235 C1937.31353,101.260513 1930.9626,97.9416021 1926.3326,102.48241 C1933.41009,80.4410645 1933.39157,54.2855768 1924.36521,33.4316318 C1915.33743,12.581318 1896.826,-1.75463443 1878.2006,0.173529381 C1859.57519,2.10350879 1843.66225,20.5971779 1842.04532,44.3215815 C1840.20187,40.7775365 1836.3953,39.1235278 1833.2355,40.496119 C1830.07714,41.8687102 1827.44872,42.7111471 1827.68806,46.9541968 C1823.35866,34.4247632 1812.03582,27.0915677 1801.32558,28.1119331 C1790.61533,29.1286673 1780.8496,37.5366962 1774.6796,48.7425597 C1768.51102,59.9466076 1767.37845,75.0451107 1766.58921,88.6965832 C1762.6701,85.7662099 1757.29931,86.4289027 1753.8959,90.2634432 C1750.49108,94.0961681 1749.04937,97.8163259 1750.8515,103.132393 C1747.67889,98.3773454 1742.06591,96.5653797 1737.50002,98.820351 C1732.93413,101.075322 1733.25325,103.907653 1733.42562,110.144228 C1714.5039,113.604756 1696.9897,128.03875 1686.75242,148.611278 C1676.51372,169.18199 1672.4322,195.462754 1678.04091,218.751414 C1675.38685,217.554936 1672.14728,219.098193 1670.75543,222.215573 C1669.36643,225.332952 1671.1643,232.123285 1673.32828,234.418199 C1669.01028,230.442042 1662.64083,230.565502 1658.4197,234.705063 C1654.19714,238.844624 1650.71396,248.708761 1652.62294,255.04701 C1650.42619,246.039834 1640.78868,244.614591 1634.29956,249.148136 C1637.18583,244.131642 1637.05761,236.649567 1634.00466,231.798293 C1630.95314,226.945202 1625.2789,222.291828 1620.81131,224.791905 C1624.50819,194.565849 1615.90352,162.324481 1598.51326,141.238139 C1581.12299,120.153614 1555.42723,110.806921 1531.92395,117.018078 C1524.59716,118.95532 1517.35015,122.419478 1511.67164,128.630635 C1505.99455,134.843607 1498.73757,143.08097 1499.12506,152.605591 C1493.62178,149.589885 1486.79503,150.993341 1482.31747,156.064303 C1477.83848,161.133449 1478.5166,170.837814 1480.21758,178.156485 C1475.61608,172.047002 1466.24212,177.755238 1465.20358,186.119693 C1463.20342,174.538 1454.58166,165.378315 1445.28178,164.95528 C1435.98332,164.528615 1424.96108,172.633439 1422.317,184.002707 C1424.18039,178.570441 1422.89539,171.656648 1419.31819,167.865682 C1415.74098,164.076532 1409.57668,163.370264 1405.72737,166.698253 C1407.95689,160.931918 1406.12769,153.157532 1401.77691,149.905798 C1397.42472,146.654065 1390.73046,146.54876 1387.87126,151.846671 C1385.17161,109.928172 1355.93284,74.7273813 1323.21943,69.1861798 C1290.50601,63.6431627 1256.84239,85.3050483 1237.67563,119.541757 C1218.98612,152.928767 1210.99973,194.46236 1216.3919,234.803105 C1215.36902,229.670413 1212.43717,225.155024 1208.57931,223.141527 C1203.96071,220.728599 1198.9475,218.099615 1195.26202,222.393501 C1189.77441,210.347016 1176.98565,205.450352 1166.60876,209.829571 C1156.23187,214.206975 1148.59167,226.462254 1145.8963,239.9594 C1143.1995,253.460178 1145.38059,269.11607 1149.53619,281.999545 C1144.16397,275.545098 1133.76144,274.185216 1128.98613,281.364086 C1117.48807,267.707166 1098.5635,265.597443 1085.38012,276.503733 C1072.19674,287.410023 1065.96548,309.371482 1071.07272,328.313604 C1065.6022,319.93644 1053.02571,325.056423 1051.77633,335.839252 C1047.13066,325.243429 1034.62825,324.983799 1026.43672,331.174984 C1018.24376,337.362538 1012.73193,347.858503 1005.81258,356.199355 C998.893231,364.540207 989.523544,366.048968 980,366.048968 L1036.01582,366.048968 C1051.35607,375.35027 1069.04407,376.989754 1085.85737,371.479418 C1088.37323,380.021801 1095.43362,385.292478 1102.5111,386.657807 C1109.59001,388.02132 1116.77861,386.167596 1123.78914,384.319319 C1135.1077,381.338109 1145.33358,375.421079 1156.65213,372.439869 C1169.26852,387.734456 1192.34299,390.169171 1203.69716,373.345851 C1205.0249,382.594502 1213.9672,386.412702 1221.33673,385.98059 C1228.70768,385.548478 1236.37638,382.774246 1243.26012,386.160334 C1247.80748,388.395333 1251.33768,393.046892 1255.56451,396.137038 C1262.99672,401.567488 1274.05172,402.482549 1281.57511,397.260893 C1313.8241,411.2773 1350.26572,409.225676 1380.97897,390.416093 C1410.26904,406.465968 1442.83002,412.709806 1474.53053,408.352374 C1487.21529,406.607585 1501.70076,401.255206 1506.45328,386.16578 C1512.91817,396.527392 1529.91239,393.863911 1535.55671,382.750643 C1572.92434,397.767444 1612.1055,405.425631 1651.28523,405.372979 C1670.24399,405.345745 1692.58622,401.623772 1704.26093,382.589055 C1715.40711,401.139007 1740.19681,402.326408 1752.40433,384.893047 C1757.51015,389.960378 1766.79008,386.984615 1769.52392,379.509803 C1775.62269,393.016027 1786.77599,402.618719 1798.88379,404.786541 C1810.99301,406.954364 1822.19475,403.858771 1830.97607,393.014212 C1836.63463,402.540648 1845.73649,408.599295 1855.10333,409.074981 C1864.47017,409.552483 1873.92106,404.4325 1880.15517,395.510657 C1886.65141,404.298146 1900.80922,401.509389 1903.78239,390.045711 C1927.86976,415.128181 1965.32571,409.292853 1988.78911,383.266272 C1988.95579,384.878522 1989.12247,386.490772 1989.28914,388.104838 C1995.71985,392.787262 2003.93703,387.244245 2005.14225,377.932049 C2017.20873,389.225061 2035.17169,388.88736 2046.97034,377.142264 C2049.83809,374.289962 2052.50639,370.397322 2052.59614,365.762104 C2052.64173,363.432693 2051.69294,361.094204 2050.31818,359.587259" id="path-2"></path>
    </defs>
    <g id="Page-1" stroke="none" stroke-width="1" fill="none" fill-rule="evenodd">
        <g id="clouds" transform="translate(-980.000000, 0.000000)">
            <g id="Fill-1">
                <use fill="#0B1625" xlink:href="#path-2"></use>
                <use fill-opacity="0.700000048" fill="url(#linearGradient-1)" xlink:href="#path-2"></use>
            </g>
        </g>
    </g>
</svg>