<?xml version="1.0" encoding="UTF-8"?>
<svg width="160px" height="128px" viewBox="0 0 160 128" version="1.1" xmlns="http://www.w3.org/2000/svg" xmlns:xlink="http://www.w3.org/1999/xlink">
    <!-- Generator: Sketch 44.1 (41455) - http://www.bohemiancoding.com/sketch -->
    <title>Page 1</title>
    <desc>Created with Sketch.</desc>
    <defs></defs>
    <g id="Page-1" stroke="none" stroke-width="1" fill="none" fill-rule="evenodd">
        <g id="Superhero-LP-Copy" transform="translate(-715.000000, -2134.000000)">
            <g id="Group-7" transform="translate(-1.000000, 1920.000000)">
                <g id="Group-17" transform="translate(716.000000, 42.000000)">
                    <g id="Page-1" transform="translate(0.000000, 171.000000)">
                        <path d="M158.2197,66.2416 C159.4317,50.8666 150.0047,37.1366 136.1277,32.2116 C132.0207,21.7806 122.8157,13.7886 111.3157,11.6166 C105.9447,6.4226 98.8007,2.9896 90.7597,2.3566 C80.1247,1.5166 70.2817,5.7826 63.5797,13.0756 C61.3347,12.3996 58.9917,11.9346 56.5567,11.7416 C41.7587,10.5756 28.4707,19.2616 23.0997,32.2766 C11.4257,34.9976 2.3337,44.9996 1.3417,57.5856 C0.4127,69.3526 6.8417,79.9936 16.7597,85.0206 C17.7957,101.8026 31.0107,115.7006 48.2497,117.0586 C49.3927,117.1496 50.5227,117.1736 51.6457,117.1536 C57.2427,122.8946 64.8447,126.7276 73.4627,127.4086 C85.2437,128.3376 96.1037,123.1976 102.9637,114.6106 C105.6617,115.5706 108.5127,116.2296 111.5027,116.4656 C128.9267,117.8416 144.2477,105.5636 147.0157,88.6216 C153.2877,83.0916 157.5117,75.2336 158.2197,66.2416" id="Fill-1" fill="#FFFFFF"></path>
                        <path d="M73.5615,126.1616 C65.6105,125.5336 58.1435,122.0236 52.5405,116.2806 L52.1645,115.8936 L51.6245,115.9026 C50.5405,115.9236 49.4495,115.8976 48.3495,115.8096 C32.3815,114.5526 19.5655,101.7666 18.1135,85.9016 C28.8895,90.2536 40.5245,86.9156 45.2825,77.7476 C45.5095,77.3236 45.6845,76.8846 45.8765,76.4546 C40.3125,85.3886 27.8735,88.0186 16.9255,82.2886 C9.8065,78.5636 4.8205,72.0986 3.0495,65.1666 C2.5625,62.7476 2.3875,60.2346 2.5905,57.6846 C2.6865,56.4626 2.8795,55.2706 3.1325,54.0986 C3.2405,53.7276 3.3285,53.3486 3.4605,52.9816 C3.4075,53.0856 3.3565,53.1866 3.3005,53.2866 C5.6725,43.6686 13.1435,36.0576 22.9795,33.6046 C22.4155,35.4756 22.0315,37.4266 21.9035,39.4616 C21.8765,40.1986 21.8865,40.9386 21.9155,41.6816 C23.8635,27.1616 36.1855,16.8626 51.0635,14.5046 C54.7735,13.9136 58.7395,13.8076 62.7995,14.1696 C62.9395,14.2086 63.0805,14.2296 63.2205,14.2726 L63.9695,14.4986 L64.1365,14.3186 C76.2495,15.6896 89.0695,21.1716 98.5875,30.5346 C98.0145,29.8306 97.5025,29.1696 96.8455,28.4626 C88.8285,19.6736 77.3745,14.2496 66.0955,12.3706 C72.7085,6.0876 81.5225,2.8836 90.6625,3.6046 C97.6475,4.1556 104.2685,7.0186 109.4805,11.6616 C103.8265,11.7986 98.5895,14.0566 95.1455,18.4076 C94.8535,18.7706 94.6035,19.1586 94.3395,19.5386 C101.4505,11.9446 114.5355,11.8826 124.3445,19.6426 C134.1545,27.4106 137.0945,40.1676 131.3295,48.8276 C131.6455,48.4796 131.9635,48.1516 132.2575,47.7846 C135.4775,43.7206 136.5405,38.5616 135.7235,33.3956 C149.3735,38.2496 158.1095,51.7126 156.9725,66.1426 C156.4055,73.3166 153.4805,79.9736 148.6655,85.2316 C148.3205,85.4666 147.9765,85.7046 147.6175,85.9136 C138.6435,91.1496 123.9065,89.3276 110.8815,78.2886 C111.5015,78.9386 112.0595,79.5326 112.7465,80.1686 C123.5625,90.3176 136.4915,92.8476 145.5485,89.5136 C144.2575,95.9506 141.0575,101.6246 136.6015,106.0036 C130.3105,110.9876 121.3415,113.7656 111.6035,112.9976 C94.6665,111.6626 81.6595,100.1286 81.5515,86.8196 C81.4585,87.4016 81.3485,87.9836 81.3005,88.5796 C80.4135,99.8436 88.8995,110.1106 101.4165,114.4586 C94.5475,122.6186 84.2165,127.0016 73.5615,126.1616 M159.4675,66.3416 C160.6795,50.9666 151.4965,36.6106 137.0815,31.2266 C132.6365,20.4526 123.2865,12.7316 111.9145,10.4586 C106.1925,5.0456 98.7295,1.7296 90.8585,1.1086 C80.4595,0.2886 70.4235,4.1266 63.1925,11.6596 C61.0235,11.0566 58.8285,10.6676 56.6565,10.4946 C41.8525,9.3276 28.0835,17.6306 22.1935,31.2086 C9.9395,34.3406 1.0915,44.8236 0.0925,57.4856 C-0.8325,69.2166 5.2225,80.2576 15.5615,85.8076 C16.9735,103.0316 30.8625,116.9446 48.1525,118.3076 C49.1105,118.3846 50.0885,118.4176 51.1275,118.4116 C57.1105,124.3646 64.9875,127.9956 73.3655,128.6576 C84.8385,129.5616 95.9945,124.8676 103.3825,116.0736 C106.0445,116.9526 108.7385,117.5036 111.4055,117.7126 C121.6285,118.5196 131.3055,114.6466 138.2495,107.8826 C138.6175,107.5296 138.9725,107.1676 139.3175,106.8006 C139.6745,106.4216 140.0195,106.0326 140.3585,105.6386 C140.4505,105.5266 140.5425,105.4196 140.6295,105.3066 C144.4045,100.8086 147.1005,95.3486 148.1775,89.2636 C149.1415,88.3896 150.0355,87.4566 150.8885,86.4936 C155.4235,82.8156 158.3815,76.8786 158.9975,69.8646 C159.2095,68.7046 159.3735,67.5296 159.4675,66.3416" id="Fill-3" fill="#000000"></path>
                        <path d="M117.1406,53.2612 C116.6666,52.6162 116.2496,52.0662 115.7386,51.4542 C108.7566,42.8822 100.6736,39.5272 94.7206,39.6272 C89.3326,39.7022 82.7376,42.6382 77.2546,48.7322 C76.9416,49.1112 76.6036,49.4932 76.3046,49.8942 C82.4076,43.4862 89.0776,41.7132 94.5766,41.6732 C100.6766,41.6152 108.9686,43.9592 117.1406,53.2612" id="Fill-6" fill="#000000"></path>
                    </g>
                </g>
            </g>
        </g>
    </g>
</svg>