<?xml version="1.0" encoding="UTF-8"?>
<svg width="33px" height="38px" viewBox="0 0 33 38" version="1.1" xmlns="http://www.w3.org/2000/svg" xmlns:xlink="http://www.w3.org/1999/xlink">
    <!-- Generator: Sketch 44.1 (41455) - http://www.bohemiancoding.com/sketch -->
    <title>Fill 3</title>
    <desc>Created with Sketch.</desc>
    <defs></defs>
    <g id="Page-1" stroke="none" stroke-width="1" fill="none" fill-rule="evenodd">
        <g id="Superhero-LP" transform="translate(-703.000000, -3563.000000)" fill="#FFFFFF">
            <g id="Group-9" transform="translate(0.000000, 3167.000000)">
                <g id="Group-8" transform="translate(0.000000, 150.000000)">
                    <path d="M733.663933,264.0832 C733.663933,265.903557 732.198036,267.392993 730.40627,267.392993 L708.593475,267.392993 C706.80171,267.392993 705.335863,265.903557 705.335863,264.0832 L705.335863,250.84351 C705.335863,249.023152 706.80171,247.533717 708.593475,247.533717 L730.40627,247.533717 C732.198036,247.533717 733.663933,249.023152 733.663933,250.84351 L733.663933,264.0832 Z M734.850297,252.996032 L734.72555,252.975236 L734.72555,250.13728 C734.72555,247.861794 732.893051,246 730.653217,246 L708.346528,246 C706.106694,246 704.274246,247.861794 704.274246,250.13728 L704.274246,252.975236 L704.1495,252.996032 C703.504943,253.103373 703,253.707279 703,254.370883 L703,258.994175 C703,259.657778 703.504943,260.261685 704.1495,260.369078 L704.274246,260.389822 L704.274246,265.036031 C704.274246,267.311517 706.106694,269.173259 708.346528,269.173259 L714.716231,269.173259 L714.716231,270.267574 L714.165819,270.267574 L712.164786,271.087146 L712.164786,271.387858 L711.413252,271.387858 L711.413252,272.187307 C709.862833,272.269145 708.626062,273.576384 708.626062,275.171661 L708.626062,276.078917 L708.325143,276.078917 C707.953959,276.456087 707.745709,276.667149 707.375034,277.044267 L707.375034,279.707889 L708.325143,280.673187 L710.315484,280.673187 L710.722819,280.25934 L710.722819,278.893645 L711.50643,278.896749 L711.50643,276.696118 C711.50643,276.355211 711.234025,276.078917 710.898483,276.078917 L710.52628,276.078917 L710.52628,275.171661 C710.52628,274.641833 710.91223,274.203 711.413252,274.126801 L711.413252,275.194422 L712.277821,275.194422 L712.277821,278.394442 L713.325691,279.601841 L713.325691,281.256712 C712.520695,281.256712 711.638814,281.333791 710.48351,282.345129 L710.48351,284 L719.019217,284 L719.019217,280.769407 L720.062504,280.769407 L720.062504,284 L728.598212,284 L728.598212,282.345129 C727.442398,281.333791 726.560518,281.256712 725.756031,281.256712 L725.756031,279.601841 L726.846671,278.394442 L726.846671,275.194422 L727.668469,275.194422 L727.668469,274.123904 C728.178147,274.191826 728.573772,274.635212 728.573772,275.171661 L728.573772,276.078917 L728.201569,276.078917 C727.866027,276.078917 727.593622,276.355211 727.593622,276.696118 L727.593622,278.896749 L728.377232,278.893645 L728.377232,280.25934 L728.784568,280.673187 L730.774909,280.673187 C731.146093,280.296069 731.354343,280.085007 731.725527,279.707889 L731.725527,277.044267 L730.774909,276.078917 L730.47399,276.078917 L730.47399,275.171661 C730.47399,273.570021 729.227544,272.259006 727.668469,272.186634 L727.668469,271.387858 L726.916936,271.387858 L726.916936,271.087146 L724.915393,270.267574 L724.364982,270.267574 L724.364982,269.173259 L730.653217,269.173259 C732.893051,269.173259 734.72555,267.311517 734.72555,265.036031 L734.72555,260.389874 L734.850297,260.369078 C735.494904,260.261736 736,259.657778 736,258.994175 L736,254.370935 C736,253.707331 735.494904,253.103425 734.850297,252.996032 Z M714.166329,255.917067 C713.309397,255.917067 712.6154,256.966687 712.6154,258.26151 C712.6154,259.556334 713.309397,260.605954 714.166329,260.605954 C715.022751,260.605954 715.716748,259.556334 715.716748,258.26151 C715.716748,256.966687 715.022751,255.917067 714.166329,255.917067 Z M724.833926,255.917067 C723.976995,255.917067 723.282998,256.966687 723.282998,258.26151 C723.282998,259.556334 723.976995,260.605954 724.833926,260.605954 C725.690348,260.605954 726.384855,259.556334 726.384855,258.26151 C726.384855,256.966687 725.690348,255.917067 724.833926,255.917067 L724.833926,255.917067 Z" id="Fill-3"></path>
                </g>
            </g>
        </g>
    </g>
</svg>