<?xml version="1.0" encoding="UTF-8"?>
<svg width="1920px" height="904px" viewBox="0 0 1920 904" version="1.1" xmlns="http://www.w3.org/2000/svg" xmlns:xlink="http://www.w3.org/1999/xlink">
    <!-- Generator: Sketch 44.1 (41455) - http://www.bohemiancoding.com/sketch -->
    <title>Page 1</title>
    <desc>Created with Sketch.</desc>
    <defs>
        <rect id="path-1" x="0" y="0" width="1920" height="920"></rect>
        <radialGradient cx="40.0658659%" cy="0%" fx="40.0658659%" fy="0%" r="51.7171433%" gradientTransform="translate(0.400659,0.000000),scale(0.470693,1.000000),rotate(-179.323855),translate(-0.400659,-0.000000)" id="radialGradient-3">
            <stop stop-color="#84FFFE" offset="0%"></stop>
            <stop stop-color="#00C2FF" offset="100%"></stop>
        </radialGradient>
        <path d="M0,0.26953125 L1920,0.26953125 L1920,537 L0,817.778281 L0,0.26953125 Z M1920,540.344727 L1920,551.292969 L0,852.936652 L0,824.46437 L1920,540.344727 Z M1920,560.392578 L1920,575.657227 L0,862.9819 L0,856.181236 L1920,560.392578 Z M1920,593.399414 L1920,595.799805 L0,882.235294 L0,865.180312 L1920,593.399414 Z M1860.06451,622.733032 L0,904 L0,889.3599 L1860.06451,622.733032 Z M1243.87727,724.020454 C1243.87727,724.020454 1469.25151,691.666305 1920,626.958008 L1920,631.30957 C1556.21132,682.790173 1330.83708,713.693801 1243.87727,724.020454 Z" id="path-4"></path>
        <radialGradient cx="-5.35749532%" cy="0%" fx="-5.35749532%" fy="0%" r="263.915028%" gradientTransform="translate(-0.053575,0.000000),scale(0.999434,1.000000),rotate(90.000000),translate(0.053575,-0.000000)" id="radialGradient-6">
            <stop stop-color="#FFFFFF" stop-opacity="0.459352355" offset="3.24457908%"></stop>
            <stop stop-color="#FFFFFF" stop-opacity="0" offset="64.8078763%"></stop>
        </radialGradient>
    </defs>
    <g id="Page-1" stroke="none" stroke-width="1" fill="none" fill-rule="evenodd">
        <g id="Superhero-LP-Copy" transform="translate(0.000000, -2692.000000)">
            <g id="Group-11" transform="translate(0.000000, 2676.000000)">
                <g id="Page-1" transform="translate(960.000000, 460.000000) scale(-1, -1) translate(-960.000000, -460.000000) ">
                    <mask id="mask-2" fill="white">
                        <use xlink:href="#path-1"></use>
                    </mask>
                    <g id="Rectangle-3"></g>
                    <mask id="mask-5" fill="white">
                        <use xlink:href="#path-4"></use>
                    </mask>
                    <use id="Combined-Shape" fill="url(#radialGradient-3)" xlink:href="#path-4"></use>
                    <path d="M973.058857,61.9621503 L966.196855,67.0092455 L974.490356,59.4460345 L1529.6152,-916.285657 L1629.88496,-851.309541 L979.679698,54.7136438 L1805.91983,-698.771344 L1881.20332,-605.990325 L976.064122,59.7517375 L967.630404,71.5036334 L973.058857,61.9621503 Z M935.465621,86.9532906 L943.267535,90.3724115 L932.570851,86.9716345 L-190,94.0852671 L-183.863915,-25.2389544 L925.87781,84.8437281 L-139.779397,-253.958722 L-97.0704217,-365.546646 L932.048715,85.4558613 L946.443014,86.8837279 L935.465621,86.9532906 Z M975.905202,107.014418 L974.96529,98.5482022 L977.368473,109.51219 L1544.81448,1078.13025 L1438.40864,1132.47835 L978.872172,116.372487 L1218.28925,1208.65993 L1100.29678,1227.46683 L976.316843,110.722261 L970.356262,97.5424981 L975.905202,107.014418 Z M977.636503,81.7882345 L2101.21459,252.454213 L2076.48763,369.34946 L977.636503,81.7882345 Z M977.202708,87.9416882 L2001.78787,579.652815 L1943.9645,684.210832 L977.202708,87.9416882 Z M974.646647,93.4195698 L1810.69989,863.20497 L1724.83332,946.288381 L974.646647,93.4195698 Z M969.041988,101.674255 L877.168588,1234.42042 L758.833226,1217.90789 L969.041988,101.674255 Z M962.599064,102.511185 L543.557168,1158.90054 L435.220294,1108.51162 L962.599064,102.511185 Z M956.446486,101.065733 L246.856371,988.779908 L157.985598,908.918109 L956.446486,101.065733 Z M951.334336,97.6133294 L13.207428,739.074545 L-48.430785,636.719027 L951.334336,97.6133294 Z M947.868382,92.6607746 L-136.811951,431.811422 L-165.83101,315.907084 L947.868382,92.6607746 Z M943.521945,83.6796548 L8.47169342,-562.258124 L81.9396416,-656.48329 L943.521945,83.6796548 Z M946.018604,77.6814537 L240.679531,-813.414152 L338.486052,-882.042178 L946.018604,77.6814537 Z M950.346691,73.0758915 L536.358722,-985.304262 L649.956456,-1022.33771 L950.346691,73.0758915 Z M955.892635,70.3748417 L869.434381,-1062.7975 L988.895967,-1065 L955.892635,70.3748417 Z M961.914651,69.8495149 L1210.54174,-1039.08653 L1325.42737,-1006.26561 L961.914651,69.8495149 Z M971.865747,70.5759497 L1998.7894,-416.232433 L2043.65681,-305.49474 L971.865747,70.5759497 Z M975.812012,75.7372205 L2100.19298,-89.5565323 L2110.72333,29.4604121 L975.812012,75.7372205 Z" id="Path-8" fill="url(#radialGradient-6)" mask="url(#mask-5)"></path>
                </g>
            </g>
        </g>
    </g>
</svg>