<?xml version="1.0" encoding="UTF-8"?>
<svg width="206px" height="329px" viewBox="0 0 206 329" version="1.1" xmlns="http://www.w3.org/2000/svg" xmlns:xlink="http://www.w3.org/1999/xlink">
    <!-- Generator: Sketch 44.1 (41455) - http://www.bohemiancoding.com/sketch -->
    <title>Page 1</title>
    <desc>Created with Sketch.</desc>
    <defs></defs>
    <g id="Page-1" stroke="none" stroke-width="1" fill="none" fill-rule="evenodd">
        <g id="Superhero-LP-Copy" transform="translate(-343.000000, -2809.000000)">
            <g id="Group-11" transform="translate(0.000000, 2676.000000)">
                <g id="Page-1" transform="translate(343.000000, 133.000000)">
                    <polygon id="Fill-1" fill="#46B0E2" points="146 240.277729 202.551596 329 206 327.806705 159.665231 219"></polygon>
                    <polygon id="Fill-2" fill="#46B0E2" points="128 199.706134 137.06606 214 156 154 145.990168 158.972811"></polygon>
                    <polygon id="Fill-3" fill="#46B0E2" points="110.067967 264 130 263.127752 22 47"></polygon>
                    <polygon id="Fill-4" fill="#FFFFFF" points="160.319715 218.58753 197 305 159.252683 157.374903 138.734942 222.365719 24 40 134.41389 259.043941"></polygon>
                    <path d="M3.31003825,0 L0,2.72346906 L131.961556,263.573743 L133.325817,266.261455 L158.800833,226.708579 L202.448658,329 L206,328.069474 L161.036516,149.764406 L156.800485,151.422836 L137.277058,214.134989 L3.31003825,0 Z M23.6264425,40.353996 L138.232893,222.807693 L158.726651,157.785827 L196.431414,305.480601 L159.793333,219.026847 L133.916712,259.502586 L23.6264425,40.353996 Z" id="Fill-5" fill="#000000"></path>
                    <path d="M146,240.277729 L202.551596,329 L206,327.806705 L159.665231,219 L146,240.277729 Z M150.157941,239.826948 L158.668968,226.673489 L193.742718,308.478393 L150.157941,239.826948 Z" id="Fill-6" fill="#000000"></path>
                    <path d="M128.076533,199.981223 L137.110918,214.332436 L155.978706,154.091716 L146.003846,159.084478 L128.076533,199.981223 Z M138.071968,223 L124,200.740177 L142.98867,156.994802 L161,150 L138.071968,223 Z" id="Fill-7" fill="#000000"></path>
                    <path d="M0,2.46017045 L107.71768,267 L133,266.101059 L3.43661342,0 L0,2.46017045 Z M22.4068555,46.8973183 L130.087976,263.099481 L110.214794,263.972032 L22.4068555,46.8973183 Z" id="Fill-8" fill="#000000"></path>
                    <polygon id="Fill-9" fill="#000000" points="104.936569 255 104 252.314864 125.084755 245 126 247.75022"></polygon>
                    <polygon id="Fill-10" fill="#000000" points="101.368994 248 101 245.261816 122.6784 241 123 243.793467"></polygon>
                    <polygon id="Fill-11" fill="#000000" points="93 225.738329 113.098303 222 120 236 96.7917944 235.266277"></polygon>
                    <polygon id="Fill-12" fill="#000000" points="89.198828 217 88 214.400466 104.811218 207 106 209.653673"></polygon>
                    <polygon id="Fill-13" fill="#000000" points="86.5391434 171.314041 70 172 70.4039066 168.718542 87 168"></polygon>
                    <polygon id="Fill-14" fill="#000000" points="89 176.113075 73.2023464 179 73 175.93083 88.8407061 173"></polygon>
                    <polygon id="Fill-15" fill="#000000" points="100 196.936101 82.2160482 200 82 197.11162 99.8304323 194"></polygon>
                    <polygon id="Fill-16" fill="#000000" points="79 155.077621 65.3260816 158 65 154.96159 78.7066126 152"></polygon>
                    <polygon id="Fill-17" fill="#000000" points="133 263.15894 108.826544 266 106 258.77667 129.0474 255"></polygon>
                    <polyline id="Fill-18" fill="#000000" points="62.4106344 148 67 128.561268 2 1 61.2122524 144.930414"></polyline>
                    <polygon id="Fill-19" fill="#000000" points="165 266.609618 204 328 172.424554 254"></polygon>
                    <polygon id="Fill-20" fill="#000000" points="162.726566 262 160 260.527693 169.230077 250 172 251.491496"></polygon>
                    <polygon id="Fill-21" fill="#000000" points="157.699262 254 156 251.738216 167.29555 246 169 248.297267"></polygon>
                    <polygon id="Fill-22" fill="#000000" points="154.480032 247 151 246.300598 160.429793 228 164 228.694241"></polygon>
                    <polygon id="Fill-23" fill="#000000" points="137.485801 174 126 199.731704 137.792777 218 143 201.84823"></polygon>
                    <g id="Group-30" transform="translate(138.000000, 154.000000)" fill="#000000">
                        <path d="M11.2657391,34.5990366 L9.36486957,34.5042805 L7.40921739,34.9755 C7.19443478,33.8614756 2.864,22.4198902 0.155304348,15.3814756 L3.95443478,13.733061 C11.570087,33.6361098 11.4561739,33.9997683 11.2657391,34.5990366" id="Fill-24"></path>
                        <polygon id="Fill-26" points="12.629913 20.7954634 2.09513043 12.401439 5.1186087 9.6535122 15.6916522 18.0859512"></polygon>
                        <polygon id="Fill-28" points="15.4972174 10.4807073 10.5728696 2.2744878 14.2833043 0.136926829 19.2102609 8.38156098"></polygon>
                    </g>
                </g>
            </g>
        </g>
    </g>
</svg>