<?xml version="1.0" encoding="UTF-8"?>
<svg width="195px" height="120px" viewBox="0 0 195 120" version="1.1" xmlns="http://www.w3.org/2000/svg" xmlns:xlink="http://www.w3.org/1999/xlink">
    <!-- Generator: Sketch 44.1 (41455) - http://www.bohemiancoding.com/sketch -->
    <title>Page 1</title>
    <desc>Created with Sketch.</desc>
    <defs></defs>
    <g id="Page-1" stroke="none" stroke-width="1" fill="none" fill-rule="evenodd">
        <g id="Superhero-LP-Copy" transform="translate(-1433.000000, -2011.000000)">
            <g id="Group-7" transform="translate(-1.000000, 1920.000000)">
                <g id="Page-1" transform="translate(1434.000000, 91.000000)">
                    <polygon id="Fill-1" fill="#46B0E2" points="0 4.3070077 54.6214642 51 60 34.8923713 1.62775582 2"></polygon>
                    <polygon id="Fill-2" fill="#46B0E2" points="79 53.0539002 70.2999034 48 67 82 72.5268748 77.7330209"></polygon>
                    <polygon id="Fill-3" fill="#46B0E2" points="83.4839944 3 67 13.3371645 176 103"></polygon>
                    <polygon id="Fill-4" fill="#FFFFFF" points="54.0653615 51.5065816 12 14 64.7123516 80.77204 68.1154112 42.4790738 175 106 64.8919468 17.7005873"></polygon>
                    <path d="M0,4.2365101 L64.2558376,85.0523132 L66.561307,83.4988599 L69.9576684,47.7571002 L191.654342,120 L191.656647,120 L195,118.422647 L65.4151023,14.8693772 L63.8440643,13.6173632 L53.1103026,47.662274 L1.74849997,2 L0,4.2365101 Z M11.9398887,14.8485617 L53.8654764,52.096747 L64.6568556,18.5236543 L174.398276,106.214741 L67.8688408,43.131433 L64.4778571,81.1605851 L11.9398887,14.8485617 Z" id="Fill-5" fill="#000000"></path>
                    <path d="M0,4.3070077 L54.6214642,51 L60,34.8923713 L1.62775582,2 L0,4.3070077 Z M12.8067804,11.5503943 L57.1500624,36.6043623 L53.8547733,46.667676 L12.8067804,11.5503943 Z" id="Fill-6" fill="#000000"></path>
                    <path d="M79.1534109,53.0107954 L70.6219757,47.7440368 L67.3860446,83.1760368 L72.8057746,78.7293425 L79.1534109,53.0107954 Z M68.56316,43 L82,51.2757701 L74.9895736,79.014823 L65,86 L68.56316,43 Z" id="Fill-7" fill="#000000"></path>
                    <path d="M84.2261967,0 L63,13.1429272 L191.520397,120 L195,118.504038 L84.2261967,0 Z M65.8721024,13.9160862 L82.463981,3.64577752 L175.585485,102.999025 L65.8721024,13.9160862 Z" id="Fill-8" fill="#000000"></path>
                    <polygon id="Fill-9" fill="#000000" points="89.8408426 9 91 10.3859285 75.1138435 24 74 22.7001495"></polygon>
                    <polygon id="Fill-10" fill="#000000" points="93.2702289 11 94 12.9247506 75.7337031 26 75 24.2042029"></polygon>
                    <polygon id="Fill-11" fill="#000000" points="102 23.6890819 85.433635 34 78 28.1503722 97.5452489 19"></polygon>
                    <polygon id="Fill-12" fill="#000000" points="107.653588 28 109 29.404626 95.2941966 42 94 40.6609793"></polygon>
                    <polygon id="Fill-13" fill="#000000" points="115.125745 55.6690776 130 49 129.803079 51.4414941 115 58"></polygon>
                    <polygon id="Fill-14" fill="#000000" points="113 53.192984 126.628144 46 127 47.8966652 113.400694 55"></polygon>
                    <polygon id="Fill-15" fill="#000000" points="101 45.0991686 115.571135 36 116 38.0053444 101.45163 47"></polygon>
                    <polygon id="Fill-16" fill="#000000" points="123 63.9991023 134.580235 57 135 59.0825853 123.441047 66"></polygon>
                    <polygon id="Fill-17" fill="#000000" points="65 15.430468 85.2783566 2 89 5.80277062 69.6628661 19"></polygon>
                    <polyline id="Fill-18" fill="#000000" points="138.424133 60 135 71.9577612 193 118 139.651971 61.3855976"></polyline>
                    <polygon id="Fill-19" fill="#000000" points="42 26.6499073 39.9407524 37 2 3"></polygon>
                    <polygon id="Fill-20" fill="#000000" points="44.5408188 28.2268041 47 28 42.376808 38.8229183 40 39"></polygon>
                    <polygon id="Fill-21" fill="#000000" points="50.1248135 31 52 31.8669918 44.8196917 40 43 39.1465153"></polygon>
                    <polygon id="Fill-22" fill="#000000" points="51.5845737 32.8093667 54 32 51.3184484 45.2943594 49 46"></polygon>
                    <polygon id="Fill-23" fill="#000000" points="76.7205462 69 81 51.8263688 69.9534455 45 69 55.8395333"></polygon>
                    <g id="Group-30" transform="translate(65.000000, 64.000000)" fill="#000000">
                        <path d="M1.46056,1.21261067 L2.74776,0.766397333 L3.99656,0.0216773333 C4.31816,0.520477333 9.00776,5.04447733 11.87736,7.77279733 L9.53496,9.45943733 C1.41256,1.76477067 1.43096,1.55597067 1.46056,1.21261067" id="Fill-24"></path>
                        <polygon id="Fill-26" points="2.7332 8.185448 10.9788 9.64859467 9.3412 11.630648 1.17 10.1582213"></polygon>
                        <polygon id="Fill-28" points="2.45896 13.5761227 6.82616 16.1768427 4.76536 17.8982827 0.43416 15.3114827"></polygon>
                    </g>
                </g>
            </g>
        </g>
    </g>
</svg>