<?xml version="1.0" encoding="UTF-8"?>
<svg width="48px" height="46px" viewBox="0 0 48 46" version="1.1" xmlns="http://www.w3.org/2000/svg" xmlns:xlink="http://www.w3.org/1999/xlink">
    <!-- Generator: Sketch 47 (45396) - http://www.bohemiancoding.com/sketch -->
    <title>Shape</title>
    <desc>Created with Sketch.</desc>
    <defs></defs>
    <g id="Superhero-pages" stroke="none" stroke-width="1" fill="none" fill-rule="evenodd">
        <g id="Superhero-Crest-Financial-1440" transform="translate(-696.000000, -5272.000000)" fill="#FFFFFF">
            <g id="Big-blue-button-Copy-5" transform="translate(420.000000, 5160.000000)">
                <path d="M312.325878,142.341072 L323.990207,154.005401 L319.992788,158.002819 L308.553125,146.563155 C305.100915,149.465715 300.640405,151.22158 295.786211,151.22158 C284.903795,151.22158 276,142.396724 276,131.61079 C276,120.824855 284.903795,112 295.786211,112 C306.668628,112 315.572423,120.824855 315.572423,131.61079 C315.572423,135.563534 314.376627,139.252901 312.325878,142.341072 Z M295.786211,147.299422 C304.492144,147.299422 311.61518,140.239537 311.61518,131.61079 C311.61518,122.982042 304.492144,115.922158 295.786211,115.922158 C287.080278,115.922158 279.957242,122.982042 279.957242,131.61079 C279.957242,140.239537 287.080278,147.299422 295.786211,147.299422 Z M297.764832,123.766474 L297.764832,129.649711 L303.700696,129.649711 L303.700696,133.571869 L297.764832,133.571869 L297.764832,139.455106 L293.80759,139.455106 L293.80759,133.571869 L287.871727,133.571869 L287.871727,129.649711 L293.80759,129.649711 L293.80759,123.766474 L297.764832,123.766474 Z" id="Shape"></path>
            </g>
        </g>
    </g>
</svg>