<?xml version="1.0" encoding="UTF-8"?>
<svg width="4px" height="20px" viewBox="0 0 4 20" version="1.1" xmlns="http://www.w3.org/2000/svg" xmlns:xlink="http://www.w3.org/1999/xlink">
    <!-- Generator: Sketch 47 (45396) - http://www.bohemiancoding.com/sketch -->
    <title>Combined Shape</title>
    <desc>Created with Sketch.</desc>
    <defs></defs>
    <g id="Superhero-pages" stroke="none" stroke-width="1" fill="none" fill-rule="evenodd">
        <g id="Superhero-Crest-Financial-1440" transform="translate(-716.000000, -1626.000000)" fill-rule="nonzero" fill="#FF5600">
            <g id="Group-10" transform="translate(420.000000, 1605.000000)">
                <path d="M298,41 C296.897467,41 296,40.0232262 296,38.9826125 C296,37.9419987 296.897467,36.9968351 298,36.9968351 C299.102533,36.9968351 300,37.9419987 300,38.9826125 C300,40.0232262 299.102533,41 298,41 Z M300,32.3260653 C300,33.366679 299.102533,34.2137429 298,34.2137429 C296.897467,34.2137429 296,33.366679 296,32.3260653 L296,22.8876776 C296,21.8470638 296.897467,21 298,21 C299.102533,21 300,21.8470638 300,22.8876776 L300,32.3260653 Z" id="Combined-Shape"></path>
            </g>
        </g>
    </g>
</svg>