<?xml version="1.0" encoding="UTF-8"?>
<svg width="54px" height="26px" viewBox="0 0 54 26" version="1.1" xmlns="http://www.w3.org/2000/svg" xmlns:xlink="http://www.w3.org/1999/xlink">
    <!-- Generator: Sketch 47 (45396) - http://www.bohemiancoding.com/sketch -->
    <title>rating</title>
    <desc>Created with Sketch.</desc>
    <defs>
        <linearGradient x1="116.529102%" y1="-68.2340494%" x2="213.133913%" y2="100%" id="linearGradient-1">
            <stop stop-color="#2D8FE2" stop-opacity="0" offset="0%"></stop>
            <stop stop-color="#2D8FE2" offset="100%"></stop>
        </linearGradient>
    </defs>
    <g id="Superhero-pages" stroke="none" stroke-width="1" fill="none" fill-rule="evenodd">
        <g id="Superhero-Crest-Financial-1440" transform="translate(-694.000000, -3835.000000)" fill-rule="nonzero" fill="url(#linearGradient-1)">
            <g id="Group-10-Copy" transform="translate(420.000000, 3815.000000)">
                <g id="rating" transform="translate(274.500000, 20.000000)">
                    <path d="M13.6316413,24.5705172 L12.8786901,20.1747931 L16.0682982,17.0617241 C16.3499318,16.7868621 16.4512827,16.3757586 16.3297856,16.0012759 C16.2082885,15.6267931 15.8849162,15.3537931 15.4957329,15.2971034 L11.087848,14.655931 L9.11661988,10.6565172 C8.94253606,10.3034483 8.58341715,10.0798966 8.19020468,10.0798966 C7.7969922,10.0798966 7.43776998,10.3034483 7.26378947,10.6565172 L5.2925614,14.655931 L0.884676413,15.2971034 C0.495493177,15.3537931 0.172224172,15.6267931 0.0506237817,16.0012759 C-0.0709766082,16.3757586 0.0304775828,16.7868621 0.312111111,17.0617241 L3.50161598,20.1747931 L2.74866472,24.5705172 C2.6821306,24.9586552 2.84154386,25.3508276 3.15964717,25.5822414 C3.33961988,25.7132069 3.55285965,25.7798276 3.76702924,25.7798276 C3.93150487,25.7798276 4.09649708,25.7405172 4.24764522,25.661069 L8.19010136,23.5855862 L12.1325575,25.661069 C12.4806218,25.8442759 12.9023489,25.8136552 13.2205556,25.5822414 C13.5387622,25.3508276 13.6980721,24.9586552 13.6316413,24.5705172 Z M11.0472456,19.0727586 C10.8037349,19.3104828 10.6925692,19.6527931 10.750115,19.9884828 L11.2409591,22.8543103 L8.67061404,21.5012069 C8.36966082,21.3428276 8.01002534,21.3428276 7.70907212,21.5012069 L5.13903704,22.8543103 L5.62988109,19.9884828 C5.6874269,19.6528966 5.57626121,19.3104828 5.33275049,19.0727586 L3.25335283,17.0432069 L6.12702729,16.6251724 C6.46352047,16.5761379 6.75445224,16.3644828 6.90487719,16.0592069 L8.18999805,13.4517931 L9.47511891,16.0592069 C9.62564717,16.3644828 9.91647563,16.5761379 10.2529688,16.6251724 L13.1266433,17.0432069 L11.0472456,19.0727586 Z" id="Shape"></path>
                    <path d="M52.8461657,16.0012759 C52.7246686,15.6267931 52.4012963,15.3537931 52.0121131,15.2971034 L47.6042281,14.655931 L45.633,10.6565172 C45.4589162,10.3034483 45.0997973,10.0798966 44.7065848,10.0798966 C44.3133723,10.0798966 43.9541501,10.3034483 43.7801696,10.6565172 L41.8089415,14.655931 L37.4010565,15.2971034 C37.0118733,15.3537931 36.6886043,15.6267931 36.5670039,16.0012759 C36.4454035,16.3757586 36.5468577,16.7868621 36.8284912,17.0617241 L40.0180994,20.1747931 L39.2651481,24.5705172 C39.198614,24.9586552 39.357924,25.3508276 39.6761306,25.5822414 C39.9943372,25.8136552 40.416271,25.844069 40.7641287,25.661069 L44.7065848,23.5855862 L48.6490409,25.661069 C48.8001891,25.7407241 48.9652846,25.7798276 49.1296569,25.7798276 C49.3438265,25.7798276 49.5570663,25.7131034 49.737039,25.5822414 C50.0551423,25.3508276 50.2145556,24.9586552 50.1480214,24.5705172 L49.3950702,20.1747931 L52.584575,17.0617241 C52.8664152,16.7868621 52.9677661,16.3757586 52.8461657,16.0012759 Z M47.564039,19.0728621 C47.3205283,19.3105862 47.2093626,19.6528966 47.2669084,19.9885862 L47.7577524,22.8544138 L45.1874074,21.5013103 C45.0368791,21.422069 44.8717836,21.3825517 44.7066881,21.3825517 C44.5415926,21.3825517 44.3763938,21.4221724 44.2259688,21.5013103 L41.6556238,22.8544138 L42.1464678,19.9885862 C42.2040136,19.653 42.092848,19.3105862 41.8493372,19.0728621 L39.7699396,17.0433103 L42.643614,16.6252759 C42.9801072,16.5762414 43.271039,16.3645862 43.4214639,16.0593103 L44.7065848,13.4518966 L45.9917057,16.0593103 C46.1422339,16.3645862 46.4330624,16.5762414 46.7695556,16.6252759 L49.64323,17.0433103 L47.564039,19.0728621 Z" id="Shape"></path>
                    <path d="M33.9197934,21.0843103 L32.7642281,14.3378276 L37.6593411,9.56006897 C37.9409747,9.2852069 38.0423255,8.87410345 37.9208285,8.49962069 C37.7993314,8.12513793 37.4759591,7.85213793 37.0867758,7.79544828 L30.3218889,6.81124138 L27.2964464,0.673034483 C27.1223626,0.319965517 26.7632437,0.0964137931 26.3700312,0.0964137931 C25.9767154,0.0964137931 25.6175965,0.319965517 25.443616,0.673034483 L22.4182768,6.81124138 L15.6532865,7.79544828 C15.2641033,7.85213793 14.9408343,8.12513793 14.8192339,8.49962069 C14.6976335,8.87410345 14.7990877,9.2852069 15.0807212,9.56006897 L19.9759376,14.3378276 L18.820269,21.0843103 C18.7537349,21.4724483 18.9130448,21.8646207 19.2312515,22.0960345 C19.5493548,22.3274483 19.9712885,22.3578621 20.3192495,22.1748621 L26.3700312,18.9895862 L32.4208129,22.1748621 C32.571961,22.2545172 32.7370565,22.2936207 32.9014288,22.2936207 C33.1155984,22.2936207 33.3288382,22.2268966 33.5088109,22.0960345 C33.8269142,21.8646207 33.9862242,21.4724483 33.9197934,21.0843103 Z M30.6357563,14.1516207 L31.5292144,19.3682069 L26.8505439,16.9052069 C26.7000156,16.8259655 26.5349201,16.7864483 26.3698246,16.7864483 C26.2048324,16.7863448 26.0397368,16.8259655 25.8892086,16.9052069 L21.210538,19.3682069 L22.1040994,14.1516207 C22.1616452,13.8160345 22.0504795,13.4736207 21.8069688,13.2358966 L18.0218596,9.54165517 L23.2527427,8.78068966 C23.5892359,8.73165517 23.8801676,8.52 24.0305926,8.21472414 L26.3699279,3.46851724 L28.7092632,8.21472414 C28.8597914,8.52 29.1506199,8.73165517 29.4871131,8.78068966 L34.7178928,9.54165517 L30.9328869,13.2358966 C30.6893762,13.4736207 30.5782105,13.815931 30.6357563,14.1516207 Z" id="Shape"></path>
                </g>
            </g>
        </g>
    </g>
</svg>