<?xml version="1.0" encoding="UTF-8"?>
<svg width="45px" height="41px" viewBox="0 0 45 41" version="1.1" xmlns="http://www.w3.org/2000/svg" xmlns:xlink="http://www.w3.org/1999/xlink">
    <!-- Generator: Sketch 47 (45396) - http://www.bohemiancoding.com/sketch -->
    <title>,,</title>
    <desc>Created with Sketch.</desc>
    <defs>
        <linearGradient x1="0%" y1="0%" x2="100%" y2="100%" id="linearGradient-1">
            <stop stop-color="#2D8FE2" stop-opacity="0" offset="0%"></stop>
            <stop stop-color="#2D8FE2" stop-opacity="0.5" offset="100%"></stop>
        </linearGradient>
    </defs>
    <g id="Superhero-pages" stroke="none" stroke-width="1" fill="none" fill-rule="evenodd">
        <g id="Superhero-Crest-Financial-1440" transform="translate(-420.000000, -5734.000000)" fill="url(#linearGradient-1)">
            <g id="Group-9-Copy" transform="translate(419.000000, 5734.000000)">
                <path d="M1,36.4807103 C2.40625703,36.104101 3.99999109,35.3744313 5.78125,34.2916794 C7.56250891,33.2089275 9.17968023,31.93789 10.6328125,30.4785288 C12.0859448,29.0191675 13.2812453,27.4421395 14.21875,25.7473974 C15.1562547,24.0526553 15.5312509,22.3579387 15.34375,20.6631966 C15.1562491,20.2865872 14.6406292,20.0512099 13.796875,19.9570576 C12.9531208,19.8629052 12.1562537,19.8158298 11.40625,19.8158298 C9.06248828,19.8158298 7.02344617,19.0390846 5.2890625,17.485571 C3.55467883,15.9320574 2.6875,13.7430484 2.6875,10.9184783 C2.6875,8.18806044 3.64842789,5.83428729 5.5703125,3.85708818 C7.49219711,1.87988907 9.67186281,0.891304348 12.109375,0.891304348 C15.8593937,0.891304348 18.6953029,2.25649278 20.6171875,4.98691059 C22.5390721,7.71732841 23.5,11.0596863 23.5,15.0140845 C23.5,18.0269593 22.8671938,20.9221003 21.6015625,23.6995943 C20.3359312,26.4770883 18.6718853,29.042701 16.609375,31.3965095 C14.5468647,33.750318 12.1562636,35.7745629 9.4375,37.469305 C6.71873641,39.1640471 3.90626453,40.3409336 1,41 L1,36.4807103 Z M23.5,36.4807103 C24.906257,36.104101 26.4999911,35.3744313 28.28125,34.2916794 C30.0625089,33.2089275 31.6796802,31.93789 33.1328125,30.4785288 C34.5859448,29.0191675 35.7812453,27.4421395 36.71875,25.7473974 C37.6562547,24.0526553 38.0312509,22.3579387 37.84375,20.6631966 C37.6562491,20.2865872 37.1406292,20.0512099 36.296875,19.9570576 C35.4531208,19.8629052 34.6562537,19.8158298 33.90625,19.8158298 C31.5624883,19.8158298 29.5234462,19.0390846 27.7890625,17.485571 C26.0546788,15.9320574 25.1875,13.7430484 25.1875,10.9184783 C25.1875,8.18806044 26.1484279,5.83428729 28.0703125,3.85708818 C29.9921971,1.87988907 32.1718628,0.891304348 34.609375,0.891304348 C38.3593938,0.891304348 41.1953029,2.25649278 43.1171875,4.98691059 C45.0390721,7.71732841 46,11.0596863 46,15.0140845 C46,18.0269593 45.3671938,20.9221003 44.1015625,23.6995943 C42.8359312,26.4770883 41.1718853,29.042701 39.109375,31.3965095 C37.0468647,33.750318 34.6562636,35.7745629 31.9375,37.469305 C29.2187364,39.1640471 26.4062645,40.3409336 23.5,41 L23.5,36.4807103 Z" id=",," transform="translate(23.500000, 20.945652) scale(-1, -1) translate(-23.500000, -20.945652) "></path>
            </g>
        </g>
    </g>
</svg>