<?xml version="1.0" encoding="UTF-8"?>
<svg width="49px" height="34px" viewBox="0 0 49 34" version="1.1" xmlns="http://www.w3.org/2000/svg" xmlns:xlink="http://www.w3.org/1999/xlink">
    <!-- Generator: Sketch 42 (36781) - http://www.bohemiancoding.com/sketch -->
    <title>Group 2</title>
    <desc>Created with Sketch.</desc>
    <defs></defs>
    <g id="Page-1" stroke="none" stroke-width="1" fill="none" fill-rule="evenodd">
        <g id="Group-2" fill="#7E91A2">
            <g id="Imported-Layers">
                <path d="M37.6655631,0.102971679 C38.1229546,0.103346576 38.5805931,0.103846439 39.038108,0.104221336 C42.9919565,0.55909623 46.0637545,2.3793456 47.4568036,6.27264981 C49.2274509,11.2220386 46.5799411,17.7424952 40.1240885,18.7569662 C37.4800373,19.1724769 34.9692633,18.8042032 32.7155326,17.2719996 C30.2760292,15.6134558 29.0444196,13.2214887 28.7285811,10.3001671 C28.4071842,7.32848442 29.3227082,4.80430366 31.460825,2.77111285 C33.1918225,1.12506557 35.302518,0.290919987 37.6655631,0.102971679 Z M38.3223145,14.5062603 C41.1011251,14.5135083 43.2806207,12.2260124 43.2991486,9.28307185 C43.3152061,6.71702759 41.0492471,4.51038449 38.3891384,4.50176187 C35.6438014,4.49288931 33.3574617,6.63267579 33.3531385,9.21509054 C33.3481978,12.2125162 35.4954549,14.4988873 38.3223145,14.5062603 Z" id="Fill-1"></path>
                <path d="M0.144270383,18.354202 C0.13735331,15.2801724 0.128212891,12.2061429 0.124136759,9.13211337 C0.120801742,6.51470824 0.137723867,3.89717815 0.11067317,1.28014792 C0.105608885,0.797155756 0.243456271,0.695183801 0.692077872,0.709554849 C1.9833472,0.750918473 3.27634581,0.743045638 4.56847977,0.754542476 C4.57008552,2.8370947 4.58243744,4.91964693 4.56378604,7.0020742 C4.56032751,7.40358877 4.65617838,7.52368074 5.066262,7.51855715 C6.93918307,7.49506361 8.81272174,7.49506361 10.6856428,7.51830722 C11.1073372,7.52355577 11.241232,7.42633251 11.2350561,6.97758093 C11.20887,5.06198279 11.237897,3.14563485 11.2133167,1.2300367 C11.2077583,0.792407062 11.3226311,0.67206516 11.7551953,0.68406186 C12.907135,0.716302993 14.0605569,0.705930846 15.2131142,0.688310692 C15.5560034,0.683187101 15.7149726,0.724175828 15.7137374,1.14630973 C15.6980505,6.72752471 15.6990386,12.3087397 15.7122552,17.8900796 C15.7132433,18.2805972 15.608005,18.3774456 15.2306539,18.3690729 C14.0578395,18.34333 12.8835428,18.3380814 11.7112224,18.3709474 C11.2823639,18.383069 11.212452,18.2297362 11.2157871,17.8420928 C11.2330797,15.7596656 11.2105993,13.6768634 11.2344385,11.5946861 C11.2396263,11.1456846 11.0998026,11.0398387 10.6779846,11.0445874 C8.82556774,11.0658315 6.97253325,11.0733295 5.12048691,11.0407134 C4.62542211,11.0320908 4.5589688,11.2111666 4.56353901,11.6485463 C4.58515486,13.7099793 4.5583512,15.7720372 4.5847843,17.8334702 C4.5905897,18.2868455 4.45508918,18.3798199 4.03438291,18.3699477 C2.73829633,18.3398309 1.44109808,18.3559515 0.144270383,18.354202" id="Fill-2"></path>
                <path d="M48.029315,31.1353118 C48.0290679,31.872609 48.0289444,32.6100312 48.0286974,33.3473284 C47.8644169,33.3534517 47.7001364,33.3650735 47.5359794,33.3650735 C31.9027765,33.3659483 16.2695736,33.3659483 0.636370729,33.3650735 C0.472090242,33.3650735 0.307809755,33.3534517 0.143529268,33.3472034 C0.143529268,32.6099062 0.143405749,31.872484 0.143405749,31.1351868 C9.1733977,31.1323126 18.2035132,31.1275639 27.2335051,31.127314 C34.1654006,31.127064 41.0974195,31.1324375 48.029315,31.1353118" id="Fill-3"></path>
                <path d="M24.0826548,23.9774054 C25.3306924,23.9774054 26.5186997,23.9892772 27.706213,23.9699075 C28.0449025,23.964284 28.1864555,24.0420126 28.1581696,24.4117859 C28.1002391,25.1722018 28.2325281,25.9398657 28.086652,26.698657 C27.3697468,26.7099039 26.6528415,26.7297734 25.9359363,26.7308981 C23.3642673,26.7347721 20.7928454,26.7323977 18.1629989,26.7323977 C18.3009698,26.3907417 18.5602365,26.1935459 18.7678722,25.96061 C20.3920257,24.1382362 22.1111654,22.4014639 23.6498436,20.503111 C24.2953548,19.70658 24.715814,18.7848335 24.5951358,17.7041308 C24.4971851,16.8273719 23.8832949,16.2297863 23.1210581,16.2507805 C22.3358468,16.2721496 21.7396198,16.8824818 21.7781578,17.7946059 C21.8015029,18.3475788 21.5944848,18.3798199 21.1699494,18.3669485 C20.3473118,18.3420803 19.5228214,18.339456 18.7004308,18.368823 C18.3286381,18.3820693 18.2482271,18.2502306 18.2873827,17.9088245 C18.6733801,14.5342526 21.2067581,13.21649 23.8351224,13.551023 C25.7880839,13.7995797 27.2831598,14.7748114 27.8144157,16.8156251 C28.2587142,18.5227806 27.8859333,20.0734791 26.6485184,21.353752 C25.9586638,22.0674307 25.2243424,22.7369966 24.5097841,23.426182 C24.364402,23.5663935 24.1766529,23.6691152 24.0826548,23.9774054" id="Fill-4"></path>
            </g>
        </g>
    </g>
</svg>