<?xml version="1.0" encoding="UTF-8"?>
<svg width="34px" height="34px" viewBox="0 0 34 34" version="1.1" xmlns="http://www.w3.org/2000/svg" xmlns:xlink="http://www.w3.org/1999/xlink">
    <!-- Generator: Sketch 42 (36781) - http://www.bohemiancoding.com/sketch -->
    <title>python-seeklogo.com</title>
    <desc>Created with Sketch.</desc>
    <defs></defs>
    <g id="Page-1" stroke="none" stroke-width="1" fill="none" fill-rule="evenodd">
        <g id="python-seeklogo.com" fill-rule="nonzero" fill="#7E91A2">
            <g id="Group">
                <path d="M16.7753075,0.00960016781 C8.20599686,0.00960078203 8.74111986,3.74406553 8.74111986,3.74406553 L8.75067299,7.61293322 L16.9281578,7.61293322 L16.9281578,8.77455356 L5.50260659,8.77455356 C5.50260659,8.77455356 0.0191062725,8.14961303 0.0191062725,16.8386946 C0.0191056613,25.5277744 4.80522763,25.2196413 4.80522763,25.2196413 L7.66161543,25.2196413 L7.66161543,21.1875708 C7.66161543,21.1875708 7.50764883,16.3778866 12.3713117,16.3778866 L20.4819245,16.3778866 C20.4819245,16.3778866 25.0387706,16.4519109 25.0387706,11.9522092 L25.0387706,4.51207897 C25.0387706,4.51207834 25.7306256,0.00960016781 16.7753075,0.00960016781 L16.7753075,0.00960016781 L16.7753075,0.00960016781 Z M12.2662272,2.61124569 C13.079827,2.61124509 13.7374103,3.27206627 13.7374103,4.08967157 C13.7374108,4.90727687 13.079827,5.56809744 12.2662272,5.56809744 C11.4526274,5.56809805 10.7950442,4.90727687 10.7950442,4.08967157 C10.7950436,3.27206627 11.4526274,2.61124569 12.2662272,2.61124569 L12.2662272,2.61124569 L12.2662272,2.61124569 Z" id="Shape"></path>
                <path d="M17.0186757,33.7549127 C25.5879889,33.7549127 25.0528634,30.0204472 25.0528634,30.0204472 L25.0433104,26.1515796 L16.8658255,26.1515796 L16.8658255,24.9899592 L28.2913767,24.9899592 C28.2913767,24.9899592 33.7748771,25.614898 33.7748771,16.9258151 C33.7748801,8.23673617 28.9887557,8.5448693 28.9887557,8.5448693 L26.1323678,8.5448693 L26.1323678,12.5769389 C26.1323678,12.5769389 26.2863369,17.3866231 21.4226716,17.3866231 L13.312058,17.3866231 C13.312058,17.3866231 8.75521203,17.312599 8.75521203,21.8123036 L8.75521203,29.2524339 C8.75521203,29.2524339 8.06335708,33.7549127 17.0186757,33.7549127 L17.0186757,33.7549127 L17.0186757,33.7549127 Z M21.527756,31.1532672 C20.714156,31.1532672 20.0565731,30.4924468 20.0565731,29.6748413 C20.0565731,28.8572355 20.714156,28.1964154 21.527756,28.1964154 C22.3413562,28.1964154 22.998939,28.8572355 22.998939,29.6748413 C22.9989421,30.4924468 22.3413562,31.1532672 21.527756,31.1532672 L21.527756,31.1532672 L21.527756,31.1532672 Z" id="Shape"></path>
            </g>
        </g>
    </g>
</svg>