<?xml version="1.0" encoding="UTF-8"?>
<svg width="44px" height="34px" viewBox="0 0 44 34" version="1.1" xmlns="http://www.w3.org/2000/svg" xmlns:xlink="http://www.w3.org/1999/xlink">
    <!-- Generator: Sketch 42 (36781) - http://www.bohemiancoding.com/sketch -->
    <title>Rlogo</title>
    <desc>Created with Sketch.</desc>
    <defs></defs>
    <g id="Page-1" stroke="none" stroke-width="1" fill="none" fill-rule="evenodd">
        <g id="Rlogo" fill="#7E91A2">
            <g id="Group">
                <path d="M22.0217854,29.3672236 C9.89001171,29.3672236 0.0551987052,22.7931546 0.0551987052,14.6836422 C0.0551987052,6.57406903 9.89001171,0 22.0217854,0 C34.15362,0 43.9883721,6.57406903 43.9883721,14.6836422 C43.9883721,22.7931546 34.15362,29.3672236 22.0217854,29.3672236 Z M25.3841542,5.74079458 C16.1629242,5.74079458 8.68764256,10.2351132 8.68764256,15.7791278 C8.68764256,21.3231424 16.1629242,25.8174611 25.3841542,25.8174611 C34.6053233,25.8174611 41.410422,22.7448109 41.410422,15.7791278 C41.410422,8.81563387 34.6053233,5.74079458 25.3841542,5.74079458 Z" id="Shape"></path>
                <path d="M33.5091477,22.7428042 C33.5091477,22.7428042 34.8386688,23.1432357 35.6110852,23.5333295 C35.8790974,23.6686917 36.3428031,23.9388081 36.6772853,24.2934499 C37.0049439,24.6407946 37.1646911,24.9927608 37.1646911,24.9927608 L42.4043033,33.8101581 L33.9356278,33.8139283 L29.9754558,26.3913824 C29.9754558,26.3913824 29.1645344,25.0007268 28.6655527,24.5974981 C28.2493082,24.26116 28.0718316,24.1414258 27.6602783,24.1414258 L25.6481454,24.1414258 L25.6497294,33.8085771 L18.1558655,33.8117392 L18.1558655,9.11767533 L33.2045191,9.11767533 C33.2045191,9.11767533 40.058663,9.24105809 40.058663,15.749696 C40.058663,22.2583338 33.5091477,22.7428042 33.5091477,22.7428042 Z M30.2496215,14.474153 L25.7129094,14.4712341 L25.7106552,18.6701396 L30.2496215,18.6686801 C30.2496215,18.6686801 32.351559,18.6621735 32.351559,16.5327416 C32.351559,14.3604998 30.2496215,14.474153 30.2496215,14.474153 Z" id="Shape"></path>
            </g>
        </g>
    </g>
</svg>