<?xml version="1.0" encoding="UTF-8"?>
<svg width="30px" height="34px" viewBox="0 0 30 34" version="1.1" xmlns="http://www.w3.org/2000/svg" xmlns:xlink="http://www.w3.org/1999/xlink">
    <!-- Generator: Sketch 42 (36781) - http://www.bohemiancoding.com/sketch -->
    <title>Combined-Shape</title>
    <desc>Created with Sketch.</desc>
    <defs></defs>
    <g id="Page-1" stroke="none" stroke-width="1" fill="none" fill-rule="evenodd">
        <path d="M4.96471081,33.2643611 C4.83332769,33.075126 4.80591955,32.7975135 4.80591955,32.7975135 L4.40268605,32.2346044 L3.98828852,31.6628453 L3.50286895,31.2310297 L3.24553246,30.842912 C3.24553246,30.842912 3.18336223,31.0755984 2.46427868,30.8534217 C1.74519514,30.6312451 1.15218226,30.1695601 0.748757011,29.4213505 C0.345329505,28.6731405 -0.20418451,27.1260168 0.0770207419,26.5052128 C0.358225994,25.8844087 0.783593545,25.4282553 1.11561101,25.4282553 C1.44763072,25.4282553 1.84008595,25.1572183 1.84008595,25.1572183 C1.84008595,25.1572183 1.18490284,22.4804045 4.28758766,18.6689226 C7.39027021,14.8574408 12.6740722,14.5655689 12.6740744,14.5655689 C12.6740744,14.5655689 14.993773,14.5427059 15.435502,14.5427059 C15.8772309,14.5427059 16.096072,14.4518071 16.4502257,14.2052925 C16.8043772,13.9587778 16.767806,13.1528574 16.7678082,13.1528574 C16.7678082,13.1528574 16.8444112,11.9289498 17.2641978,11.192909 C15.8242983,10.6683509 14.2546714,9.18760349 14.2546714,9.18760349 C14.2546714,9.18760349 12.9389183,7.75368833 12.5245207,6.95661809 C12.1101232,6.15954785 11.3927721,4.17323333 11.3927721,3.13831425 C11.3927721,2.10339515 12.2069382,2.16110577 12.2069382,2.16110577 C12.2069382,2.16110577 14.5907312,2.12588952 16.9541227,4.01595808 C19.3175141,5.90602665 20.7885935,9.41678654 20.7885935,9.41678654 C20.7885935,9.41678654 20.6688594,7.16852744 19.3065441,5.08683108 C17.9442265,3.00513471 15.709554,1.65572304 15.709554,1.65572304 C15.709554,1.65572304 16.2021245,1.04061423e-16 16.7331612,0 C17.2642001,-1.04061421e-16 18.1730607,0.625966564 19.3065418,1.65572304 C20.4400229,2.68547953 21.354275,5.34846482 21.5989112,6.15254145 C21.8435452,6.95661809 22.0335163,8.72776235 21.8162138,10.1072857 C23.8200623,10.5986557 25.3167429,11.4501177 25.3167429,11.4501177 C25.3167429,11.4501177 27.6528029,12.6284836 28.3208803,14.7370414 C28.9889576,16.8455991 28.7443236,16.5063418 28.7443236,16.5063418 C28.7443236,16.5063418 29.2680424,16.9940242 29.2680447,17.2178602 C29.2680469,17.4416963 29.532699,18.2321289 28.9267896,18.7006358 C28.320878,19.1691428 28.2444691,19.3892912 27.8756864,19.6603283 C27.5069059,19.9313654 25.6472197,20.5956828 25.3150105,20.5956828 C24.9828013,20.5956828 24.3258834,20.6150425 24.3258857,21.438479 C24.3258857,22.2619154 23.6576144,24.8705089 22.9367984,26.5052128 C22.2159823,28.1399167 21.6354802,29.6643618 21.354469,30.7973705 C21.0734554,31.9303792 21.3178977,32.2082383 21.3178977,32.2082383 L21.8545152,32.6874391 L22.037173,33.2136567 L22.0864467,33.6349627 L21.818138,33.8569549 L18.4561925,33.7870752 L18.0034912,33.6104402 L17.7827237,33.3167247 L17.6732062,32.31315 L17.5746587,30.3305231 L17.0855825,30.4476035 L15.0524783,30.9845153 L13.6616585,31.1487969 L13.0996337,31.3481104 L13.3204012,31.6294727 L14.5870746,32.0264406 L15.2678567,32.690758 L15.4995942,33.3097181 L15.1693092,33.6838232 L10.9185166,33.8709677 L7.40701738,33.8709677 L6.07663533,33.7887347 C6.07663533,33.7887347 5.69354173,33.8192892 5.42857382,33.6943327 L4.96471081,33.2643611 L4.96471081,33.2643611 Z M24.7106103,15.5291334 C25.3229013,15.5291334 25.8192616,15.0536496 25.8192616,14.4671106 C25.8192616,13.8805716 25.3229013,13.4050878 24.7106103,13.4050878 C24.0983192,13.4050878 23.6019589,13.8805716 23.6019589,14.4671106 C23.6019589,15.0536496 24.0983192,15.5291334 24.7106103,15.5291334 L24.7106103,15.5291334 Z" id="Combined-Shape" fill="#7E91A2"></path>
    </g>
</svg>