<?xml version="1.0" encoding="UTF-8"?>
<svg width="66px" height="34px" viewBox="0 0 66 34" version="1.1" xmlns="http://www.w3.org/2000/svg" xmlns:xlink="http://www.w3.org/1999/xlink">
    <!-- Generator: Sketch 42 (36781) - http://www.bohemiancoding.com/sketch -->
    <title>Slice 1</title>
    <desc>Created with Sketch.</desc>
    <defs></defs>
    <g id="Page-1" stroke="none" stroke-width="1" fill="none" fill-rule="evenodd">
        <g id="85dcf0c760992f4b30e95c303bf26a9c-spark_full_color" fill-rule="nonzero" fill="#7E91A2">
            <g id="Layer_2_xA0_Image_1_">
                <path d="M10.4502027,33.721537 C10.5172987,33.1902277 10.5843948,32.6921252 10.6514908,32.1940228 C10.8527788,30.7163188 11.0372928,29.2552182 11.2385808,27.7775142 C11.4230948,26.3828273 11.5405128,24.9549336 11.8256708,23.5768501 C12.3121169,21.2523719 13.721133,19.5588235 15.8514311,18.4962049 C17.4449612,17.699241 19.1391354,17.5 20.8500835,18.097723 C22.9132856,18.8282732 24.1377877,20.3225806 24.3893977,22.4810247 C24.6913298,25.0711575 23.6177937,27.129981 21.6216875,28.7405123 C20.4139595,29.7201139 19.0049434,30.2514231 17.4281872,30.3012334 C16.1533631,30.3344402 14.9791831,30.0355787 13.939195,29.3050285 C13.888873,29.2718216 13.838551,29.2386148 13.754681,29.1888046 C13.704359,29.5374763 13.654037,29.8529412 13.620489,30.1850095 C13.469523,31.3140417 13.3185569,32.443074 13.1675909,33.5721063 C13.1675909,33.6219165 13.0837209,33.7049336 13.0501729,33.7049336 C12.1946989,33.721537 11.3392248,33.721537 10.4502027,33.721537 Z M17.7468933,27.5782732 C18.9378473,27.528463 20.0113834,26.9805503 20.8165355,25.9345351 C21.5042695,25.0545541 21.8229756,24.0583491 21.5881395,22.9459203 C21.2526595,21.3187856 19.7765474,20.3059772 18.0991473,20.538425 C16.3043292,20.7708729 14.8617651,22.1323529 14.526285,23.892315 C14.140483,25.8681214 15.5662731,27.5782732 17.7468933,27.5782732 Z" id="Shape"></path>
                <path d="M3.01932021,25.3866224 C3.20383423,25.7685009 3.35480024,26.1171727 3.55608825,26.449241 C3.97543828,27.129981 4.57930233,27.5450664 5.43477639,27.4952562 C6.12251044,27.4620493 6.70960048,27.1631879 7.16249851,26.6650854 C7.64894454,26.1171727 7.69926655,25.370019 7.24636852,24.7390892 C6.96121049,24.3406072 6.64250447,23.9753321 6.30702445,23.6266603 C5.50187239,22.7466793 4.67994633,21.8999051 3.89156828,21.0033207 C3.35480024,20.3889943 2.98577221,19.6916509 2.8683542,18.8780835 C2.73416219,17.9648956 2.90190221,17.0849146 3.38834824,16.3211575 C4.57930233,14.4117647 6.30702445,13.4155598 8.60506261,13.5151803 C9.8966607,13.5649905 10.9198748,14.1627135 11.7250268,15.1589184 C11.9598629,15.4577799 12.1779249,15.7566414 12.4295349,16.0887097 C11.5069648,16.7694497 10.6179428,17.4335863 9.71214669,18.097723 C9.56118068,17.8652751 9.42698867,17.6328273 9.27602266,17.4169829 C8.89022063,16.8856736 8.4037746,16.4871917 7.69926655,16.4539848 C7.14572451,16.420778 6.65927847,16.6034156 6.27347645,17.0018975 C5.90444842,17.3837761 5.85412642,17.9482922 6.18960644,18.379981 C6.55863447,18.8448767 6.94443649,19.2931689 7.34701252,19.7248577 C8.01797257,20.4388046 8.72248062,21.136148 9.39344067,21.8666983 C10.0140787,22.5308349 10.5005247,23.2779886 10.6682648,24.2077799 C10.8527788,25.3036053 10.6347168,26.3496205 10.0979487,27.2960152 C9.14183065,29.0393738 7.64894454,30.0521822 5.6696124,30.3676471 C4.78059034,30.5170778 3.90834228,30.483871 3.03609422,30.2348197 C1.89546213,29.9027514 1.10708408,29.1555977 0.603864043,28.126186 C0.41935003,27.7609108 0.28515802,27.3624288 0.117418008,26.9805503 C1.09031008,26.3994307 2.06320215,25.9013283 3.01932021,25.3866224 Z" id="Shape"></path>
                <path d="M34.3699284,26.2333966 C34.2189624,27.3624288 34.0679964,28.4582543 33.9338044,29.5540797 C33.9338044,29.6038899 33.8834824,29.686907 33.8331604,29.7035104 C31.7364103,30.6665085 29.0190221,30.6000949 27.1738819,28.8899431 C25.8822838,27.6944972 25.3622898,26.2001898 25.4629338,24.4734345 C25.6642218,21.2855787 28.29774,18.4463947 31.5351222,17.898482 C33.6318724,17.5498102 35.4937865,18.0479127 36.9363506,19.6750474 C37.8589207,20.7210626 38.2614967,21.9663188 38.2111747,23.3277989 C38.1776267,24.2243833 38.0266607,25.1209677 37.9092427,26.0175522 C37.7415027,27.2960152 37.5737627,28.5910816 37.4060227,29.8695446 C37.4060227,29.9193548 37.3892487,29.9525617 37.3724747,30.0023719 L34.6886345,30.0023719 C34.7389565,29.5872865 34.7892785,29.1888046 34.8396005,28.7737192 C35.0241145,27.4122391 35.2254025,26.0341556 35.3763685,24.6726755 C35.4770125,23.7594877 35.4099165,22.8462998 34.9905665,22.016129 C34.5208945,21.0863378 33.7325164,20.6380455 32.7093023,20.538425 C30.5119082,20.3391841 28.566124,21.9995256 28.280966,24.0251423 C27.979034,26.1835863 29.6396601,27.7775142 31.7364103,27.5616698 C32.7260763,27.4620493 33.5480024,27.0303605 34.2525104,26.3496205 C34.2692844,26.3164137 34.3028324,26.2832068 34.3699284,26.2333966 Z" id="Shape"></path>
                <path d="M50.5400656,13.9468691 C50.2213596,16.3045541 49.9194275,18.6622391 49.6007215,21.0199241 C49.6174955,21.0199241 49.6174955,21.0365275 49.6342695,21.0365275 C51.2613476,19.2433586 52.8884258,17.4667932 54.5490519,15.6404175 C54.6161479,16.0056926 54.6664699,16.3211575 54.7167919,16.6366224 C54.8174359,17.2177419 54.9180799,17.7988615 55.0187239,18.379981 C55.0522719,18.5294118 55.0187239,18.6290323 54.9013059,18.7452562 C53.8445438,19.8410816 52.7877818,20.936907 51.7310197,22.0327324 C51.6974717,22.0659393 51.6639237,22.1157495 51.6136017,22.1655598 C53.4922898,24.772296 55.3542039,27.3790323 57.2496661,29.9857685 C57.1993441,29.9857685 57.1657961,30.0023719 57.1490221,30.0023719 L53.7438998,30.0023719 C53.6097078,30.0023719 53.5593858,29.9193548 53.5090638,29.8363378 C52.1503697,27.7941176 50.7916756,25.7518975 49.4162075,23.7096774 C49.3658855,23.6432638 49.3323375,23.5768501 49.2484675,23.4772296 C48.9633095,25.6854839 48.6613775,27.8439279 48.3762194,30.0023719 L45.3568992,30.0023719 C45.3904472,29.7035104 45.4239952,29.4212524 45.4575432,29.1389943 C45.7427013,26.9141366 46.0446333,24.7058824 46.3465653,22.4810247 C46.6317233,20.3723909 46.9001073,18.2637571 47.1852654,16.1551233 C47.2020394,16.0887097 47.2355874,16.0056926 47.2859094,15.9724858 C48.3258974,15.3083491 49.3658855,14.6442125 50.4058736,13.9634725 C50.4729696,13.9634725 50.4897436,13.9634725 50.5400656,13.9468691 Z" id="Shape"></path>
                <path d="M45.6588312,18.0811195 C45.5414132,19.0109108 45.4072212,19.9240987 45.2898032,20.8538899 L44.2833631,20.8538899 L43.6459511,20.8538899 C43.0924091,20.8538899 42.639511,21.2191651 42.572415,21.7670778 C42.404675,22.9957306 42.236935,24.2243833 42.085969,25.4530361 C41.901455,26.9141366 41.700167,28.3752372 41.515653,29.8363378 C41.515653,29.886148 41.498879,29.9359583 41.4821049,30.0023719 L38.7143948,30.0023719 L38.7143948,29.8197343 C38.8989088,28.4582543 39.0666488,27.1133776 39.2511628,25.7518975 C39.4356768,24.3904175 39.6369648,23.012334 39.7879308,21.6508539 C39.9892188,19.9240987 41.1466249,18.579222 42.840799,18.18074 C43.0420871,18.1309298 43.2601491,18.097723 43.4782111,18.097723 C44.1827191,18.0811195 44.9040012,18.0811195 45.6588312,18.0811195 Z" id="Shape"></path>
                <path d="M59.7489922,17.0351044 C59.7154442,16.9520873 59.6818962,16.8856736 59.6315742,16.8026565 C58.8096482,15.2585389 58.0044961,13.7310247 57.1657961,12.186907 C57.0819261,12.0208729 57.1657961,11.9544592 57.2496661,11.8548387 C58.5412642,10.3439279 59.8328623,8.83301708 61.1412343,7.33870968 C61.1747823,7.28889943 61.2251044,7.23908918 61.2418784,7.13946869 C61.1244603,7.17267552 60.9902683,7.18927894 60.8728503,7.22248577 C59.0444842,7.70398482 57.2328921,8.16888046 55.4045259,8.66698292 C55.2535599,8.70018975 55.1864639,8.68358634 55.1193679,8.55075901 C54.2303459,7.07305503 53.3245498,5.61195446 52.4355277,4.13425047 C52.3852057,4.0512334 52.3348837,3.98481973 52.2845617,3.90180266 L52.2342397,3.90180266 C52.1839177,4.15085389 52.1335957,4.39990512 52.1000477,4.64895636 C51.7981157,6.34250474 51.4794097,8.03605313 51.1942516,9.72960152 C51.1774776,9.84582543 51.1271556,9.89563567 51.0097376,9.9288425 C49.1478235,10.509962 47.3026834,11.0910816 45.4407692,11.6722011 C45.3568992,11.705408 45.2730292,11.7386148 45.1723852,11.8050285 C46.6820453,12.4027514 48.2084794,13.0004744 49.7349135,13.5981973 C49.6845915,13.6480076 49.6342695,13.6812144 49.6007215,13.6978178 C48.6613775,14.2955408 47.7220334,14.8932638 46.7826893,15.5075901 C46.6652713,15.5906072 46.5646273,15.6072106 46.4304353,15.540797 C45.2898032,15.0260911 44.1491711,14.5279886 42.9917651,14.0298861 C42.454997,13.7974383 41.985325,13.46537 41.616297,12.983871 C40.9621109,12.1038899 41.0963029,11.107685 41.985325,10.4435484 C42.488545,10.0616698 43.0588611,9.89563567 43.6459511,9.7129981 C45.3568992,9.1816888 47.0510733,8.65037951 48.7620215,8.11907021 C48.8962135,8.06925996 48.9633095,8.01944972 48.9968575,7.87001898 C49.2316935,6.54174573 49.4665295,5.2300759 49.7013655,3.90180266 C49.8187835,3.27087287 49.9362016,2.62333966 50.1039416,1.99240987 C50.2381336,1.51091082 50.4897436,1.07922201 50.8419976,0.713946869 C51.5632797,-0.0166034156 52.5193977,-0.0498102467 53.2742278,0.664136622 C53.5426118,0.913187856 53.7606738,1.21204934 53.9619618,1.52751423 C54.8006619,2.88899431 55.622588,4.25047438 56.461288,5.61195446 C56.578706,5.79459203 56.662576,5.84440228 56.880638,5.77798861 C58.8935182,5.24667932 60.9231723,4.71537002 62.9528265,4.18406072 C63.4224985,4.06783681 63.8921705,4.01802657 64.3618426,4.15085389 C65.1334466,4.36669829 65.4857007,4.96442125 65.2844126,5.74478178 C65.1502206,6.20967742 64.8818366,6.60815939 64.5631306,6.97343454 C63.1541145,8.61717268 61.7283244,10.2775142 60.3193083,11.9212524 C60.2018903,12.0540797 60.2018903,12.1537002 60.2857603,12.3031309 C61.1412343,13.8804554 61.9799344,15.4743833 62.8186345,17.0517078 C63.0199225,17.4169829 63.1708885,17.8154649 63.1708885,18.2471537 C63.1876625,19.2433586 62.4496064,20.056926 61.4599404,20.2063567 C60.8393023,20.3059772 60.2689863,20.1233397 59.6986702,19.9573055 C58.4909422,19.5920304 57.2832141,19.2267552 56.075486,18.8614801 C55.958068,18.8282732 55.907746,18.778463 55.874198,18.6456357 C55.723232,17.7656546 55.572266,16.8690702 55.4045259,15.9890892 C55.4045259,15.9724858 55.4045259,15.9558824 55.4212999,15.9060721 C56.863864,16.3045541 58.3064281,16.6864326 59.7489922,17.0849146 C59.7154442,17.0517078 59.7322182,17.0517078 59.7489922,17.0351044 Z" id="Shape"></path>
            </g>
        </g>
    </g>
</svg>