<?xml version="1.0" encoding="UTF-8"?>
<svg width="42px" height="34px" viewBox="0 0 42 34" version="1.1" xmlns="http://www.w3.org/2000/svg" xmlns:xlink="http://www.w3.org/1999/xlink">
    <!-- Generator: Sketch 42 (36781) - http://www.bohemiancoding.com/sketch -->
    <title>Group 17</title>
    <desc>Created with Sketch.</desc>
    <defs></defs>
    <g id="Page-1" stroke="none" stroke-width="1" fill="none" fill-rule="evenodd">
        <g id="Group-17" fill="#7E91A2">
            <g id="xgboost-large">
                <path d="M12.3676189,6.98383881 L16.7659389,0.29320994 L22.6016183,0.29320994 L15.1560963,10.5096059 L19.2525708,20.5039062 L13.8049784,20.5039062 L11.5052033,13.6883486 L6.99189454,20.5039062 L1.11309434,20.5039062 L8.73109948,10.1209386 L4.76398738,0.29320994 L10.1540854,0.29320994 L12.3676189,6.98383881 L12.3676189,6.98383881 Z M38.2832102,18.0192121 C37.4974497,18.9075988 36.3523647,19.5947001 34.8479211,20.0805366 C33.3434772,20.566373 31.676157,20.7954068 29.8459099,20.7676447 C28.0923226,20.7491367 26.6118573,20.3234578 25.4044693,19.4905952 C24.1970813,18.6577327 23.3346743,17.4963696 22.8172223,16.0064711 C22.2997702,14.5165726 22.1608269,12.8369917 22.400388,10.967678 L22.5153768,10.1348196 C22.9561692,6.99770409 24.0988585,4.51303482 25.943479,2.68073724 C27.7880996,0.848439687 30.047127,-0.0445606285 32.720629,0.00170951193 C35.0587454,0.0387256244 36.8554268,0.644855373 38.1107269,1.82011694 C39.3660272,2.99537852 40.0655351,4.69346719 40.2092718,6.91443393 L35.4947327,6.90055296 C35.4276556,5.81783168 35.1521644,5.02662414 34.6682511,4.52690663 C34.1843376,4.0271891 33.4968076,3.76345326 32.6056402,3.73569119 C31.283263,3.68942104 30.1908807,4.19144453 29.3284607,5.24177672 C28.4660407,6.29210891 27.8767291,7.79355244 27.5605085,9.74615237 C27.2922,11.4118774 27.1963771,12.7074219 27.2730366,13.6328247 C27.4167733,15.8630455 28.4564528,16.99202 30.3921065,17.0197821 C31.5611647,17.0382901 32.5864711,16.7653004 33.4680558,16.2008047 L34.1148677,13.0498239 L30.7083257,13.0498239 L31.3120166,9.70450945 L39.634328,9.70450945 L38.2832102,18.0192121 L38.2832102,18.0192121 Z" id="Shape"></path>
                <path d="M0.0288046788,33.47425 L2.00773915,22.4322751 L5.6436386,22.4398588 C7.07811151,22.4449147 8.14871484,22.7078164 8.85548068,23.2285713 C9.56224652,23.7493264 9.88421279,24.4798893 9.82138916,25.420282 C9.74285963,26.5831331 9.0832214,27.4072285 7.8424547,27.8925924 C8.28745542,28.0442687 8.63428899,28.3185456 8.88296587,28.7154318 C9.13164276,29.1123179 9.23765602,29.5888271 9.20100891,30.1449732 C9.12771468,31.2117629 8.69188228,32.0333301 7.89349863,32.6096997 C7.09511498,33.1860696 6.00226198,33.47425 4.6149068,33.47425 L0.0288046788,33.47425 L0.0288046788,33.47425 Z M3.56261625,28.7798939 L3.08358845,31.4266311 L4.69343593,31.4342148 C5.196025,31.4342148 5.61484292,31.3141396 5.94990227,31.0739855 C6.28496165,30.8338315 6.48390015,30.5140523 6.54672378,30.1146381 C6.69331227,29.2703071 6.35825791,28.8279246 5.54155073,28.7874778 L3.56261625,28.7798939 L3.56261625,28.7798939 Z M3.8688799,27.0356259 L5.13319916,27.0432097 C6.30067163,27.0179303 6.95507463,26.5856595 7.0964278,25.7463844 C7.22207508,24.9172209 6.77708102,24.5001175 5.76143233,24.4950617 L4.33220186,24.4874779 L3.8688799,27.0356259 L3.8688799,27.0356259 Z M15.0043128,25.116931 C15.7634317,25.1270429 16.4204523,25.3103155 16.9753944,25.6667548 C17.5303364,26.0231939 17.9373751,26.5199262 18.1965226,27.1569664 C18.45567,27.7940066 18.5485953,28.5018182 18.475301,29.280423 L18.4595952,29.4472661 C18.3130067,30.7061788 17.8287485,31.7223943 17.006806,32.4959433 C16.1848635,33.269492 15.16923,33.6461491 13.9598752,33.6259255 C13.2059916,33.6158137 12.5542062,33.435069 12.0044994,33.0836857 C11.4547927,32.7323024 11.047754,32.240626 10.7833712,31.6086416 C10.5189884,30.9766573 10.4234456,30.2739012 10.4967398,29.5003524 C10.6276224,28.1554899 11.1053366,27.0836605 11.9298967,26.2848322 C12.7544569,25.4860041 13.779252,25.0967075 15.0043128,25.116931 L15.0043128,25.116931 L15.0043128,25.116931 Z M13.0803487,29.5003524 L13.05679,29.947795 C12.9834957,31.0752552 13.339491,31.6490884 14.1247864,31.6693117 C15.1404351,31.6996471 15.7293978,30.9033588 15.8916921,29.280423 L15.9231038,28.5902996 C15.9335744,28.1352708 15.8458844,27.7725174 15.6600312,27.502028 C15.4741779,27.2315388 15.2006375,27.0912402 14.8394016,27.0811286 C14.3629891,27.0659609 13.971656,27.2542895 13.6653909,27.6461198 C13.3591257,28.0379499 13.1641136,28.6560215 13.0803487,29.5003524 L13.0803487,29.5003524 L13.0803487,29.5003524 Z M23.8466946,25.116931 C24.6058134,25.1270429 25.2628342,25.3103155 25.8177762,25.6667548 C26.3727184,26.0231939 26.779757,26.5199262 27.0389044,27.1569664 C27.2980518,27.7940066 27.3909771,28.5018182 27.3176829,29.280423 L27.3019769,29.4472661 C27.1553886,30.7061788 26.6711303,31.7223943 25.8491879,32.4959433 C25.0272454,33.269492 24.0116119,33.6461491 22.802257,33.6259255 C22.0483734,33.6158137 21.396588,33.435069 20.8468812,33.0836857 C20.2971745,32.7323024 19.8901358,32.240626 19.625753,31.6086416 C19.3613702,30.9766573 19.2658274,30.2739012 19.3391216,29.5003524 C19.4700042,28.1554899 19.9477184,27.0836605 20.7722786,26.2848322 C21.5968387,25.4860041 22.6216338,25.0967075 23.8466946,25.116931 L23.8466946,25.116931 L23.8466946,25.116931 Z M21.9227306,29.5003524 L21.8991718,29.947795 C21.8258776,31.0752552 22.1818728,31.6490884 22.9671682,31.6693117 C23.9828169,31.6996471 24.5717797,30.9033588 24.734074,29.280423 L24.7654857,28.5902996 C24.7759562,28.1352708 24.6882662,27.7725174 24.502413,27.502028 C24.3165598,27.2315388 24.0430193,27.0912402 23.6817834,27.0811286 C23.2053708,27.0659609 22.8140379,27.2542895 22.5077727,27.6461198 C22.2015075,28.0379499 22.0064954,28.6560215 21.9227306,29.5003524 L21.9227306,29.5003524 L21.9227306,29.5003524 Z M32.5241653,31.1232801 C32.5922243,30.7895925 32.3252277,30.5393303 31.723168,30.3724864 L31.165611,30.2359785 C30.2546684,30.0034084 29.5871773,29.6773094 29.1631178,29.2576716 C28.7390582,28.838034 28.5401199,28.3400379 28.5662963,27.7636683 C28.5924728,26.9749518 28.9550121,26.3341293 29.653925,25.8411816 C30.3528377,25.3482337 31.2048705,25.1068194 32.2100485,25.116931 C33.2099916,25.1270429 34.0201423,25.372249 34.6405256,25.8525571 C35.2609091,26.3328652 35.5763314,26.9800074 35.5868019,27.7940032 L33.0110458,27.7864195 C33.0319871,27.1392676 32.7361971,26.8156965 32.1236667,26.8156965 C31.8619015,26.8156965 31.6184635,26.8902696 31.3933455,27.0394177 C31.1682275,27.1885661 31.0347293,27.3870061 30.9928468,27.6347441 C30.9038467,28.0442698 31.2781652,28.3248666 32.1158136,28.4765429 C32.8435206,28.6433869 33.4063074,28.8367711 33.8041903,29.0567016 C34.2020734,29.2766322 34.5057162,29.5483814 34.7151285,29.8719575 C34.9245405,30.1955333 35.0213922,30.5848298 35.0056862,31.0398586 C34.9899802,31.5353342 34.8224532,31.9777167 34.5030997,32.3670191 C34.1837463,32.7563213 33.7217377,33.0672531 33.1170602,33.2998232 C32.5123829,33.5323935 31.8566711,33.6410932 31.1499052,33.6259255 C30.5373748,33.6208697 29.9680442,33.4970025 29.4418963,33.2543205 C28.9157484,33.0116386 28.5047832,32.6817478 28.2089886,32.2646381 C27.913194,31.8475285 27.7600638,31.3684916 27.7495931,30.8275129 L30.152585,30.8426804 C30.1630557,31.5707263 30.5399918,31.9296882 31.2834048,31.9195763 C31.6027582,31.9195763 31.8749898,31.8500591 32.1001078,31.7110226 C32.3252259,31.5719861 32.4665769,31.3760738 32.5241653,31.1232801 L32.5241653,31.1232801 L32.5241653,31.1232801 Z M40.6519319,23.2285713 L40.282845,25.2686066 L41.6413991,25.2686066 L41.3194296,27.0432097 L39.9608753,27.0432097 L39.3012306,30.8123455 C39.2645834,31.0701949 39.2815979,31.2648432 39.3522744,31.3962959 C39.422951,31.5277487 39.5996398,31.59853 39.8823463,31.6086416 C39.9922875,31.6136974 40.2174023,31.6010581 40.5576969,31.5707227 L40.3692268,33.4211636 C39.9346967,33.5576722 39.4713795,33.6208697 38.979261,33.6107581 C38.1782597,33.6006462 37.5788265,33.3731353 37.1809436,32.9282184 C36.7830605,32.4833013 36.6207687,31.8791333 36.6940629,31.1156964 L37.3851195,27.0432097 L36.3328288,27.0432097 L36.6469454,25.2686066 L37.699236,25.2686066 L38.068323,23.2285713 L40.6519319,23.2285713 L40.6519319,23.2285713 Z" id="Boost"></path>
            </g>
        </g>
    </g>
</svg>