<?xml version="1.0" encoding="UTF-8"?>
<svg width="150px" height="33px" viewBox="0 0 150 33" version="1.1" xmlns="http://www.w3.org/2000/svg" xmlns:xlink="http://www.w3.org/1999/xlink">
    <!-- Generator: Sketch 46.2 (44496) - http://www.bohemiancoding.com/sketch -->
    <title>Group 20</title>
    <desc>Created with Sketch.</desc>
    <defs></defs>
    <g id="Page" stroke="none" stroke-width="1" fill="none" fill-rule="evenodd">
        <g id="DataRobot-AI-experience" transform="translate(-106.000000, -28.000000)">
            <g id="Group-20" transform="translate(106.000000, 28.000000)">
                <g id="Group-21">
                    <path d="M17.7184204,7.10703347 C16.9659614,7.10703347 16.3684204,8.05933117 16.3684204,9.22066983 C16.3684204,10.3820085 16.977027,11.3343062 17.7184204,11.3343062 C18.4708794,11.3343062 19.0684204,10.3820085 19.0684204,9.22066983 C19.0684204,8.05933117 18.4598139,7.10703347 17.7184204,7.10703347 Z M9.45,7.04545455 C8.69754098,7.04545455 8.1,7.99775225 8.1,9.15909091 C8.1,10.3204296 8.70860656,11.2727273 9.45,11.2727273 C10.1913934,11.2727273 10.8,10.3204296 10.8,9.15909091 C10.8,7.99775225 10.1913934,7.04545455 9.45,7.04545455 Z M26.0464491,5.69837508 L25.9428023,5.67738659 L25.9428023,3.36865267 C25.9428023,1.51117129 24.4399232,0 22.615739,0 L4.37389635,0 C2.53934741,0 1.04683301,1.52166554 1.04683301,3.36865267 L1.04683301,5.67738659 L0.94318618,5.69837508 C0.414587332,5.78232905 0,6.27555856 0,6.82125931 L0,10.5886933 C0,11.134394 0.414587332,11.6171293 0.94318618,11.7115775 L1.04683301,11.732566 L1.04683301,15.5209885 C1.04683301,17.3784699 2.54971209,18.8896412 4.37389635,18.8896412 L9.58733205,18.8896412 L9.58733205,19.781652 L9.14165067,19.781652 L7.50403071,20.4532837 L7.50403071,20.6946513 L6.8925144,20.6946513 L6.8925144,21.3452945 C5.62802303,21.40826 4.61228407,22.478673 4.61228407,23.7799594 L4.61228407,24.5145565 L4.36353167,24.5145565 C4.06295585,24.8188896 3.88675624,24.9972918 3.58618042,25.3016249 L3.58618042,27.4739336 L4.36353167,28.261002 L5.99078695,28.261002 L6.32245681,27.9251862 L6.32245681,26.8127962 L6.96506718,26.8127962 L6.96506718,25.0182803 C6.96506718,24.7454299 6.74740883,24.5145565 6.46756238,24.5145565 L6.16698656,24.5145565 L6.16698656,23.7799594 C6.16698656,23.3496953 6.47792706,22.992891 6.8925144,22.9299255 L6.8925144,23.8009479 L7.59731286,23.8009479 L7.59731286,26.4140149 L8.45758157,27.4004739 L8.45758157,28.7542316 C7.79424184,28.7542316 7.07907869,28.817197 6.13589251,29.6462424 L6.13589251,31 L13.1216891,31 L13.1216891,28.3344617 L13.9715931,28.3344617 L13.9715931,30.9685173 L20.9573896,30.9685173 L20.9573896,29.6147596 C20.0142035,28.7857143 19.2886756,28.7227488 18.6357006,28.7227488 L18.6357006,27.3689912 L19.5270633,26.3825322 L19.5270633,23.7694651 L20.2007678,23.7694651 L20.2007678,22.8984428 C20.6153551,22.950914 20.9366603,23.3182126 20.9366603,23.7484766 L20.9366603,24.4830738 L20.6049904,24.4830738 C20.3355086,24.4830738 20.1074856,24.7034529 20.1074856,24.9867976 L20.1074856,26.7813135 L20.750096,26.7813135 L20.750096,27.9146919 L21.0817658,28.2505078 L22.7090211,28.2505078 C23.0095969,27.9461747 23.1857965,27.7677725 23.4863724,27.4634394 L23.4863724,25.2911307 L22.7090211,24.5040623 L22.4706334,24.5040623 L22.4706334,23.7694651 C22.4706334,22.4681787 21.4548944,21.3977657 20.1800384,21.3348003 L20.1800384,20.6841571 L19.5685221,20.6841571 L19.5685221,20.4427894 L17.9309021,19.7711578 L17.4852207,19.7711578 L17.4852207,18.8791469 L22.6261036,18.8791469 C24.4606526,18.8791469 25.953167,17.3574814 25.953167,15.5104942 L25.953167,11.7220718 L26.0568138,11.7010833 C26.5854127,11.6171293 27,11.1238998 27,10.5781991 L27,6.82125931 C26.9896353,6.27555856 26.575048,5.78232905 26.0464491,5.69837508 Z M24.9845581,15.0348899 C24.9845581,16.5810519 23.7939499,17.8530717 22.346745,17.8530717 L4.67237116,17.8530717 C3.22516633,17.8530717 2.03455811,16.5810519 2.03455811,15.0348899 L2.03455811,3.76216264 C2.03455811,2.21600063 3.22516633,0.943980824 4.67237116,0.943980824 L22.3364812,0.943980824 C23.783686,0.943980824 24.9742942,2.21600063 24.9742942,3.76216264 L24.9742942,15.0348899 L24.9845581,15.0348899 Z" id="Shape" fill="#FFFFFF" fill-rule="nonzero"></path>
                    <path d="M43.24,23.768 L45.424,23.768 L48.64,32 L46.744,32 L46.156,30.428 L42.412,30.428 L41.824,32 L40.024,32 L43.24,23.768 Z M45.604,28.976 L44.824,26.888 C44.7599997,26.7199992 44.6680006,26.440002 44.548,26.048 C44.4279994,25.655998 44.3480002,25.3960006 44.308,25.268 L44.248,25.268 C44.2079998,25.3960006 44.1280006,25.655998 44.008,26.048 C43.8879994,26.440002 43.7960003,26.7199992 43.732,26.888 L42.952,28.976 L45.604,28.976 Z M49.468,23.768 L51.208,23.768 L51.208,32 L49.468,32 L49.468,23.768 Z M56.14,23.768 L62.608,23.768 L62.608,25.244 L57.88,25.244 L57.88,27.056 L62.08,27.056 L62.08,28.532 L57.88,28.532 L57.88,30.524 L62.68,30.524 L62.68,32 L56.14,32 L56.14,23.768 Z M66.184,27.68 L63.604,23.768 L65.716,23.768 L67.384,26.432 L67.444,26.432 L69.1,23.768 L71.068,23.768 L68.476,27.656 L71.332,32 L69.232,32 L67.288,28.904 L67.228,28.904 L65.308,32 L63.34,32 L66.184,27.68 Z M72.148,23.768 L76.072,23.768 C76.9920046,23.768 77.6839977,24.0019977 78.148,24.47 C78.6120023,24.9380023 78.844,25.5999957 78.844,26.456 C78.844,27.3120043 78.6020024,27.9779976 78.118,28.454 C77.6339976,28.9300024 76.9120048,29.168 75.952,29.168 L73.888,29.168 L73.888,32 L72.148,32 L72.148,23.768 Z M75.916,27.692 C76.2920019,27.692 76.579999,27.5840011 76.78,27.368 C76.980001,27.1519989 77.08,26.848002 77.08,26.456 C77.08,26.0719981 76.980001,25.7740011 76.78,25.562 C76.579999,25.3499989 76.2920019,25.244 75.916,25.244 L73.888,25.244 L73.888,27.692 L75.916,27.692 Z M80.152,23.768 L86.62,23.768 L86.62,25.244 L81.892,25.244 L81.892,27.056 L86.092,27.056 L86.092,28.532 L81.892,28.532 L81.892,30.524 L86.692,30.524 L86.692,32 L80.152,32 L80.152,23.768 Z M88.156,23.768 L92.524,23.768 C93.4440046,23.768 94.1359977,23.9939977 94.6,24.446 C95.0640023,24.8980023 95.296,25.5319959 95.296,26.348 C95.296,27.5000058 94.8160048,28.2679981 93.856,28.652 L95.536,32 L93.652,32 L92.2,28.928 L89.896,28.928 L89.896,32 L88.156,32 L88.156,23.768 Z M92.368,27.476 C92.7440019,27.476 93.031999,27.376001 93.232,27.176 C93.432001,26.975999 93.532,26.7000018 93.532,26.348 C93.532,25.9959982 93.432001,25.724001 93.232,25.532 C93.031999,25.339999 92.7440019,25.244 92.368,25.244 L89.896,25.244 L89.896,27.476 L92.368,27.476 Z M96.82,23.768 L98.56,23.768 L98.56,32 L96.82,32 L96.82,23.768 Z M100.156,23.768 L106.624,23.768 L106.624,25.244 L101.896,25.244 L101.896,27.056 L106.096,27.056 L106.096,28.532 L101.896,28.532 L101.896,30.524 L106.696,30.524 L106.696,32 L100.156,32 L100.156,23.768 Z M108.16,23.768 L109.852,23.768 L113.02,28.244 C113.084,28.3320004 113.171999,28.471999 113.284,28.664 C113.396001,28.856001 113.468,28.9839997 113.5,29.048 L113.56,29.012 C113.56,28.9479997 113.554,28.8440007 113.542,28.7 C113.53,28.5559993 113.524,28.4280006 113.524,28.316 L113.524,23.768 L115.216,23.768 L115.216,32 L113.524,32 L110.344,27.488 C110.248,27.3519993 110.152,27.1980009 110.056,27.026 C109.96,26.8539991 109.9,26.7440002 109.876,26.696 L109.816,26.732 C109.816,26.7880003 109.822,26.8879993 109.834,27.032 C109.846,27.1760007 109.852,27.3159993 109.852,27.452 L109.852,32 L108.16,32 L108.16,23.768 Z M116.524,27.884 C116.524,26.4599929 116.871997,25.3940035 117.568,24.686 C118.264003,23.9779965 119.243994,23.624 120.508,23.624 C121.204003,23.624 121.829997,23.7419988 122.386,23.978 C122.942003,24.2140012 123.381998,24.5739976 123.706,25.058 C124.030002,25.5420024 124.192,26.1319965 124.192,26.828 L122.404,26.828 C122.404,26.2919973 122.232002,25.8700015 121.888,25.562 C121.543998,25.2539985 121.096003,25.1 120.544,25.1 C119.791996,25.1 119.232002,25.3239978 118.864,25.772 C118.495998,26.2200022 118.312,26.8639958 118.312,27.704 L118.312,28.064 C118.312,29.8000087 119.055993,30.668 120.544,30.668 C121.128003,30.668 121.593998,30.5160015 121.942,30.212 C122.290002,29.9079985 122.464,29.4880027 122.464,28.952 L124.192,28.952 C124.192,29.6560035 124.032002,30.2459976 123.712,30.722 C123.391998,31.1980024 122.956003,31.5539988 122.404,31.79 C121.851997,32.0260012 121.220004,32.144 120.508,32.144 C117.851987,32.144 116.524,30.7240142 116.524,27.884 Z M125.488,23.768 L131.956,23.768 L131.956,25.244 L127.228,25.244 L127.228,27.056 L131.428,27.056 L131.428,28.532 L127.228,28.532 L127.228,30.524 L132.028,30.524 L132.028,32 L125.488,32 L125.488,23.768 Z" id="AI-Experience" fill="#E1E8F0" opacity="0.600000024"></path>
                    <g id="Logo-Copy-3" transform="translate(40.000000, 1.000000)">
                        <g id="Logo">
                            <g id="Welcome">
                                <g id="IT-Professionals">
                                    <g id="Logo">
                                        <path d="M14.4350345,9.14361902 C14.3963449,9.56495236 14.3394483,9.98857147 14.2658621,10.408381 C14.1922759,10.832 14.0944138,11.2464762 13.9737931,11.6533333 C13.8524138,12.0594285 13.7105517,12.4289524 13.5466896,12.759619 C13.3206207,13.2441905 13.0277931,13.6533333 12.6689655,13.9931428 C12.3071034,14.3314285 11.8951724,14.6140952 11.4293793,14.839619 C11.0849655,15.0057143 10.7291724,15.1344762 10.3597241,15.224381 C9.99179314,15.3158095 9.62158619,15.3782857 9.24531038,15.4179048 C8.87131038,15.4544762 8.48820686,15.4727619 8.09827587,15.4735238 C7.722,15.4735238 7.348,15.4735238 6.97172413,15.4727619 L0.603103449,15.4727619 L0.603103449,0.393142857 L6.97324138,0.393142857 C7.58848276,0.393904762 8.21434483,0.422857143 8.85234485,0.483047619 C9.49034485,0.544761905 10.0987587,0.675809524 10.6753104,0.87847619 C11.2541379,1.08342857 11.785931,1.36914285 12.2737241,1.73790476 C12.7607587,2.10666667 13.162069,2.59504762 13.4791724,3.19695238 C13.8243449,3.87504762 14.0777241,4.65142857 14.2438621,5.52609524 C14.4084828,6.3992381 14.4904138,7.21295238 14.4904138,7.9672381 C14.491931,8.32990476 14.4722069,8.7207619 14.4350345,9.14361902 L14.4350345,9.14361902 L14.4350345,9.14361902 Z M10.7655862,6.0952381 C10.6366207,5.44 10.4242069,4.86857143 10.1222759,4.37866667 C9.76268962,3.80114285 9.3037241,3.43161905 8.74993105,3.27238095 C8.19234483,3.11238095 7.60062069,3.03238095 6.9702069,3.03238095 L3.79234483,3.03161905 L3.79310345,12.8350476 L6.96944828,12.8342857 C7.32827587,12.8342857 7.73186207,12.7969524 8.17413793,12.7215238 C8.61717238,12.6453333 8.9957241,12.5219048 9.31358619,12.3550476 C9.64282762,12.1714285 9.91289657,11.9009524 10.1245517,11.543619 C10.3324138,11.1847619 10.4977931,10.7961905 10.6176551,10.3771428 C10.7375172,9.95885716 10.8255172,9.53219049 10.8771034,9.09866667 C10.9302069,8.66438095 10.9567587,8.27961905 10.9567587,7.94438095 C10.9575172,7.36609524 10.8930345,6.74971428 10.7655862,6.0952381 L10.7655862,6.0952381 L10.7655862,6.0952381 Z M20.0495862,15.4582857 C19.6429655,15.4590476 19.2333104,15.4552381 18.8191034,15.4460952 C18.4064138,15.4392381 18.0043449,15.383619 17.6151724,15.2777143 C16.9225517,15.0971428 16.3953104,14.7085715 16.0342069,14.1142857 C15.6731034,13.5184762 15.4933104,12.8815238 15.494069,12.2026667 C15.4933104,11.6754285 15.6048276,11.1550476 15.8210345,10.6438095 C16.0395172,10.1310476 16.3672413,9.70819049 16.8042069,9.376 C17.0006896,9.22514284 17.2343449,9.10780951 17.5044138,9.02628569 C17.7767587,8.944 18.0589655,8.88304762 18.3533104,8.84495238 C18.6468966,8.80761905 18.9366896,8.78552381 19.221931,8.77714285 C19.5102069,8.77028572 19.771931,8.76647619 20.0146896,8.76647619 L23.7213104,8.76647619 L23.7197931,8.58590476 C23.7213104,8.19352381 23.6682069,7.88038095 23.5635172,7.64647619 C23.458069,7.41333333 23.3048276,7.2312381 23.1022759,7.104 C22.8982069,6.976 22.6546896,6.89295238 22.3694483,6.85485715 C22.0842069,6.8167619 21.7678621,6.79847619 21.4242069,6.79771428 L16.3338621,6.79771428 L16.3331034,4.44647619 L21.4226896,4.44571428 C21.6328276,4.4472381 21.839931,4.448 22.0432413,4.45714285 C22.2450345,4.4647619 22.4521379,4.46857143 22.6615172,4.46780952 C23.5908276,4.49980952 24.3851034,4.69409524 25.0428276,5.056 C25.6997931,5.41942857 26.1777241,6.07390476 26.4773793,7.02552381 C26.5972413,7.40190476 26.6677931,7.77142857 26.6905517,8.13180952 C26.7125517,8.4952381 26.723931,8.87238095 26.7231724,9.26476187 L26.7246896,15.4582857 L20.0495862,15.4582857 L20.0495862,15.4582857 L20.0495862,15.4582857 Z M23.7213104,11.1230476 L19.7211034,11.1238095 C19.4047587,11.1238095 19.1369655,11.2053333 18.9177241,11.3699048 C18.7,11.5352381 18.5907587,11.7897143 18.5907587,12.1348572 C18.5907587,12.3748572 18.6393104,12.5584762 18.737931,12.6864762 C18.8350345,12.8129524 18.9632413,12.9074285 19.1217931,12.9660952 C19.2803449,13.0255238 19.4571034,13.064381 19.6528276,13.079619 C19.8477931,13.0933333 20.0366896,13.1009524 20.2172413,13.1009524 L23.7190345,13.1001905 L23.7213104,11.1230476 L23.7213104,11.1230476 L23.7213104,11.1230476 Z M33.3823449,15.4735238 C32.6343449,15.472 31.9591724,15.3424762 31.3644138,15.0773333 C30.7643449,14.8129524 30.3235862,14.304 30.0413793,13.5489524 C29.9222759,13.1862857 29.8471724,12.8220952 29.8168276,12.4510476 C29.7872413,12.0807619 29.772069,11.7066667 29.7728276,11.3302857 L29.7728276,6.80228572 L27.8565517,6.80152381 L27.8573104,4.4472381 L29.772069,4.44647619 L29.7728276,0.393142857 L32.7754483,0.393904762 L32.7746896,4.44571428 L35.5671724,4.44571428 L35.5664138,6.80152381 L32.7754483,6.80304762 L32.7754483,10.8099048 C32.773931,11.0514285 32.7784828,11.352381 32.7853104,11.7142857 C32.7936551,12.0784762 32.8725517,12.3641905 33.0227587,12.5752381 C33.1577931,12.7580952 33.3292413,12.888381 33.5408966,12.9729524 C33.7510345,13.0544762 33.9748276,13.1085715 34.2153104,13.1306667 C34.4565517,13.1527619 34.6955172,13.1565715 34.936,13.1420952 C35.178,13.1268572 35.3866207,13.12 35.5671724,13.1192381 L35.5671724,15.4735238 L33.3823449,15.4735238 L33.3823449,15.4735238 L33.3823449,15.4735238 Z M40.9655172,15.4582857 C40.5596551,15.4582857 40.1477241,15.456 39.7357931,15.4460952 C39.3215862,15.44 38.918,15.3828572 38.528069,15.2761905 C37.8362069,15.0971428 37.3104828,14.7085715 36.9501379,14.1127619 C36.5897931,13.5184762 36.4084828,12.8815238 36.4084828,12.2019048 C36.4092413,11.6754285 36.5177241,11.1558095 36.7369655,10.6430476 C36.953931,10.1302857 37.2824138,9.70819049 37.7201379,9.376 C37.9158621,9.2259048 38.1495172,9.10857147 38.4203449,9.02704764 C38.691931,8.94323813 38.9741379,8.88380952 39.2677241,8.84419048 C39.5613104,8.80838095 39.8511034,8.78628572 40.1363449,8.77790476 C40.4253793,8.77028572 40.6871034,8.7672381 40.9283449,8.76647619 L44.6364828,8.7672381 L44.6364828,8.58590476 C44.6357241,8.19428572 44.5841379,7.88114285 44.477931,7.6472381 C44.3732413,7.41257143 44.22,7.2327619 44.0166896,7.104 C43.8148966,6.9767619 43.5698621,6.89219048 43.2853793,6.85485715 C43.0001379,6.81828572 42.6845517,6.79847619 42.3386207,6.79847619 L37.2490345,6.79771428 L37.2482759,4.44647619 L42.3386207,4.44647619 C42.5487587,4.44571428 42.7551034,4.44952381 42.9591724,4.45714285 C43.1602069,4.4647619 43.3665517,4.46857143 43.5774483,4.46780952 C44.5075172,4.49904762 45.3002759,4.69409524 45.958,5.056 C46.6142069,5.42019048 47.0936551,6.07466667 47.3933104,7.0247619 C47.5116551,7.40266667 47.5829655,7.77142857 47.6042069,8.13333333 C47.63,8.4952381 47.6398621,8.87238095 47.6383449,9.26552382 L47.6391034,15.4582857 L40.9655172,15.4582857 L40.9655172,15.4582857 L40.9655172,15.4582857 Z M44.6364828,11.1222857 L40.6355172,11.1222857 C40.319931,11.1222857 40.0521379,11.2045715 39.8336551,11.3691428 C39.6136551,11.5352381 39.505931,11.7904762 39.505931,12.1348572 C39.505931,12.3748572 39.5544828,12.5592381 39.6531034,12.6857143 C39.7509655,12.8129524 39.8784138,12.9066667 40.0377241,12.9653333 C40.194,13.0278095 40.3722759,13.0628572 40.5672413,13.079619 C40.7637241,13.0933333 40.9533793,13.1017143 41.133931,13.1017143 L44.6357241,13.1017143 L44.6364828,11.1222857 L44.6364828,11.1222857 L44.6364828,11.1222857 Z" id="Fill-1" fill="#FFFFFF"></path>
                                        <path d="M60.0850345,15.4735238 C59.9651724,15.1260952 59.8893104,14.7733333 59.8612413,14.4106667 C59.8301379,14.0487619 59.7922069,13.687619 59.7474483,13.3257143 C59.6708276,12.6331428 59.5494483,12.055619 59.3749655,11.5969524 C59.2012413,11.1382857 58.9577241,10.7710476 58.6436551,10.5020952 C58.3265517,10.2300952 57.9297931,10.0388572 57.448069,9.92533333 C56.9663449,9.81257147 56.3814483,9.75542853 55.6895862,9.75542853 L53.1216551,9.75542853 L53.1201379,15.4735238 L49.9301379,15.4735238 L49.9301379,0.393904762 L57.272069,0.393142857 C57.8266207,0.393904762 58.394069,0.412190476 58.9736551,0.44952381 C59.5502069,0.487619048 60.1032413,0.581333333 60.6274483,0.732190476 C61.5150345,0.988952382 62.2046207,1.4712381 62.7,2.18057143 C63.1953793,2.88761905 63.4434483,3.6952381 63.4442069,4.59885715 C63.4426896,5.63961905 63.2242069,6.54704762 62.7887587,7.32342857 C62.3533104,8.09904762 61.6166896,8.65219048 60.5826896,8.98438098 C60.9111724,9.10552382 61.1933793,9.22285716 61.4262759,9.3340952 C61.6591724,9.44838098 61.8647587,9.584 62.046069,9.74247618 C62.2266207,9.89942853 62.3844138,10.0891428 62.5217241,10.3078095 C62.6544828,10.5264762 62.7895172,10.8022857 62.9237931,11.1329524 C63.1346896,11.6304762 63.2522759,12.1432381 63.2735172,12.6697143 C63.2970345,13.1969524 63.338,13.7257143 63.3994483,14.2521905 C63.4434483,14.6438095 63.5337241,15.0514285 63.668,15.4735238 L60.0850345,15.4735238 L60.0850345,15.4735238 L60.0850345,15.4735238 Z M59.7292413,3.99542857 C59.6101379,3.73942857 59.4477931,3.54285715 59.2452413,3.40419048 C59.0434483,3.2647619 58.799931,3.168 58.5146896,3.11466667 C58.2294483,3.05828572 57.9222069,3.03161905 57.5937241,3.03085715 L53.1201379,3.03238095 L53.1208966,7.11695238 L57.5937241,7.11542857 C58.3273104,7.11542857 58.8962759,6.96609524 59.3006207,6.66438095 C59.7072413,6.36266667 59.9082759,5.80038095 59.9075172,4.98285715 C59.9082759,4.58057143 59.8483449,4.25142857 59.7292413,3.99542857 L59.7292413,3.99542857 L59.7292413,3.99542857 Z M75.6913793,12.472381 C75.3993104,13.160381 74.9934483,13.7371428 74.4768276,14.2049524 C73.9602069,14.6712381 73.3442069,15.0278095 72.6318621,15.2678095 C71.9202759,15.5100952 71.1366207,15.6304762 70.2831724,15.6304762 C68.4533793,15.6312381 67.0362759,15.128381 66.0318621,14.1257143 C65.0266896,13.1222857 64.5244828,11.6982857 64.5244828,9.85752382 C64.5244828,8.9980952 64.6655862,8.22019048 64.9531034,7.52685715 C65.236069,6.832 65.6343449,6.24761905 66.1448966,5.77142857 C66.6546896,5.2967619 67.2653793,4.93028572 67.9784828,4.67352381 C68.690069,4.41828572 69.4653793,4.2887619 70.305931,4.2887619 C72.1349655,4.28952381 73.5626896,4.79390476 74.5898621,5.80571428 C75.6162759,6.8167619 76.1306207,8.25142857 76.1321379,10.1081905 C76.1313793,10.9973333 75.9842069,11.7866667 75.6913793,12.472381 L75.6913793,12.472381 L75.6913793,12.472381 Z M72.8988966,8.65371428 C72.8101379,8.25295238 72.6606896,7.90171428 72.452069,7.60533333 C72.2426896,7.30819048 71.9627587,7.0727619 71.6122759,6.90285715 C71.2648276,6.73142857 70.8346896,6.64533333 70.3271724,6.64457143 C69.7908276,6.64533333 69.3470345,6.73371428 68.998069,6.91352381 C68.6475862,7.09180952 68.3729655,7.33333333 68.1711724,7.63809524 C67.9671034,7.94285715 67.8267587,8.30019048 67.7455862,8.71009524 C67.6621379,9.12 67.621931,9.56038098 67.6226896,10.0380952 C67.6211724,10.4990476 67.6704828,10.9272381 67.7668276,11.3219048 C67.863931,11.7150476 68.0209655,12.0571428 68.2371724,12.3481905 C68.4533793,12.6384762 68.7363449,12.8655238 69.0875862,13.0285715 C69.4357931,13.192381 69.8666896,13.2739048 70.371931,13.2739048 C70.877931,13.2739048 71.3042759,13.1855238 71.647931,13.0064762 C71.9893104,12.8281905 72.2662069,12.5904762 72.4748276,12.2925715 C72.681931,11.9961905 72.8275862,11.6411428 72.9102759,11.232 C72.9922069,10.8220952 73.0331724,10.3946667 73.0346896,9.94819049 C73.033931,9.488 72.9884138,9.056 72.8988966,8.65371428 L72.8988966,8.65371428 L72.8988966,8.65371428 Z M88.4217933,12.5752381 C88.0470343,13.4194285 87.4333105,14.1142857 86.5791038,14.6575238 C85.9631038,15.0514285 85.3448276,15.2845715 84.7151724,15.3615238 C84.084,15.4354285 83.4194483,15.4735238 82.7154483,15.4727619 L77.8155172,15.4735238 L77.8155172,0.393904762 L80.8181379,0.393904762 L80.8188966,4.44647619 L83.4937931,4.44571428 C85.2204134,4.44647619 86.5662067,4.90285715 87.5319314,5.81561905 C88.4991724,6.72990476 88.9846895,8.06171428 88.9846895,9.81257147 C88.9854485,10.8091428 88.7965515,11.7302857 88.4217933,12.5752381 L88.4217933,12.5752381 L88.4217933,12.5752381 Z M85.2871724,7.6167619 C84.8259314,7.07428572 84.0870345,6.80228572 83.0697241,6.80228572 L80.8188966,6.80228572 L80.8181379,13.1177143 L83.0689655,13.1177143 C84.0415172,13.1169524 84.7682762,12.8121905 85.2530343,12.200381 C85.7362762,11.5893333 85.9805515,10.823619 85.9805515,9.90323813 C85.9805515,8.92342853 85.7484134,8.16 85.2871724,7.6167619 L85.2871724,7.6167619 L85.2871724,7.6167619 Z M101.109724,12.472381 C100.816138,13.159619 100.411793,13.7371428 99.8936552,14.2034285 C99.3777933,14.6727619 98.7633105,15.0270476 98.0517238,15.2678095 C97.3393791,15.5100952 96.5542067,15.6312381 95.7,15.6312381 C93.8702067,15.6312381 92.4531038,15.128381 91.4502067,14.1249524 C90.4442762,13.1222857 89.9443448,11.6998095 89.9435866,9.85752382 C89.9428276,8.99733333 90.0862067,8.22019048 90.3691724,7.52685715 C90.6551724,6.8327619 91.0526895,6.24761905 91.563241,5.77142857 C92.0722762,5.2967619 92.6837238,4.93028572 93.3945515,4.67428572 C94.1084134,4.41828572 94.8829657,4.28952381 95.722759,4.2887619 C97.5533105,4.2887619 98.9810343,4.79466667 100.008207,5.80571428 C101.034621,6.81752381 101.547449,8.24990476 101.548207,10.1066667 C101.548966,10.9973333 101.401793,11.7866667 101.109724,12.472381 L101.109724,12.472381 L101.109724,12.472381 Z M98.317241,8.65447619 C98.2284828,8.25219048 98.0782762,7.90171428 97.8688962,7.60457143 C97.6610343,7.30819048 97.3811038,7.07428572 97.0313791,6.90209524 C96.6816552,6.73142857 96.2522762,6.64533333 95.7455172,6.64533333 C95.2091724,6.64457143 94.7638619,6.7352381 94.4148962,6.91352381 C94.0636552,7.09257143 93.7897933,7.33409524 93.588,7.63885715 C93.3854485,7.94438095 93.2435866,8.30095238 93.1624134,8.71009524 C93.0789657,9.12 93.0410343,9.56038098 93.0402762,10.0373333 C93.0410343,10.4982857 93.0888276,10.9264762 93.1836552,11.3211428 C93.2822762,11.7150476 93.4385515,12.0571428 93.653241,12.3474285 C93.8702067,12.6377143 94.1539314,12.864 94.5051724,13.0285715 C94.8541381,13.192381 95.282,13.2739048 95.7902762,13.2739048 C96.2977933,13.2739048 96.7211038,13.1862857 97.064,13.0057143 C97.4084134,12.8281905 97.6845515,12.5897143 97.8924134,12.2925715 C98.1002762,11.9939048 98.2466895,11.6411428 98.3286209,11.2327619 C98.4082762,10.8228572 98.450759,10.3954285 98.450759,9.94819049 C98.450759,9.488 98.4082762,9.056 98.317241,8.65447619 L98.317241,8.65447619 L98.317241,8.65447619 Z M107.633862,15.4735238 C106.883587,15.472 106.212207,15.3409524 105.612896,15.0773333 C105.015862,14.8129524 104.574345,14.3047619 104.291379,13.5489524 C104.171517,13.1870476 104.096413,12.8220952 104.066828,12.4525715 C104.036483,12.0815238 104.022069,11.7074285 104.022069,11.3310476 L104.023587,6.80228572 L102.10731,6.80228572 L102.10731,4.44647619 L104.022069,4.44647619 L104.02131,0.393904762 L107.02469,0.393142857 L107.02469,4.44647619 L109.817931,4.44571428 L109.817172,6.80228572 L107.02469,6.80304762 L107.02469,10.8091428 C107.025449,11.0514285 107.027724,11.3531428 107.03531,11.7158095 C107.043655,12.0784762 107.121793,12.3641905 107.272759,12.576 C107.407034,12.7580952 107.58,12.8899048 107.790896,12.9721905 C108.001034,13.0544762 108.225587,13.1070476 108.466828,13.1299048 C108.705793,13.1535238 108.946276,13.1580952 109.186759,13.1420952 C109.427241,13.1268572 109.636621,13.1184762 109.816413,13.1192381 L109.817931,15.4735238 L107.633862,15.4735238 L107.633862,15.4735238 L107.633862,15.4735238 Z" id="Fill-2" fill="#2D8FE2"></path>
                                    </g>
                                </g>
                            </g>
                        </g>
                    </g>
                </g>
            </g>
        </g>
    </g>
</svg>