<?xml version="1.0" encoding="UTF-8"?>
<svg width="150px" height="34px" viewBox="0 0 150 34" version="1.1" xmlns="http://www.w3.org/2000/svg" xmlns:xlink="http://www.w3.org/1999/xlink">
    <!-- Generator: Sketch 46.2 (44496) - http://www.bohemiancoding.com/sketch -->
    <title>Group</title>
    <desc>Created with Sketch.</desc>
    <defs></defs>
    <g id="Page-1" stroke="none" stroke-width="1" fill="none" fill-rule="evenodd">
        <g id="New-Test-Drive-LP" transform="translate(-105.000000, -60.000000)">
            <g id="Group" transform="translate(105.000000, 60.000000)">
                <path d="M133.841036,20.4262172 C134.818506,20.0960414 135.662844,19.6094665 136.37158,18.9647192 C137.082434,18.3242277 137.638264,17.5312382 138.040834,16.5878787 C138.441992,15.6462923 138.64363,14.5617835 138.642924,13.3386078 C138.642218,10.7890545 137.938073,8.82289451 136.528723,7.43303506 C135.117255,6.04423954 133.156314,5.34948713 130.643074,5.34984178 C129.489745,5.35126036 128.425758,5.52751965 127.445464,5.87932894 C126.468701,6.23078357 125.630013,6.73438154 124.930812,7.38693102 C124.230551,8.0394805 123.68355,8.84310936 123.29122,9.79604439 C122.902069,10.7482701 122.705021,11.8154013 122.706787,12.9970833 C122.707493,15.5271311 123.394335,17.4798145 124.77508,18.8569067 C126.108474,20.1912127 127.974862,20.8802577 130.371683,20.9230769 L130.84047,20.9230769 C131.925226,20.9027924 132.926472,20.737462 133.841036,20.4262172 Z M98.9321801,20.4262172 C99.9103555,20.0967507 100.756106,19.6076932 101.466255,18.9672017 C102.17605,18.3242277 102.732586,17.5319475 103.134097,16.5878787 C103.536314,15.6462923 103.737952,14.5617835 103.739365,13.3410904 C103.736893,10.791537 103.030629,8.82218522 101.62128,7.43303506 C100.210871,6.04282095 98.2502824,5.35090572 95.7373956,5.35019642 C94.5840667,5.34948713 93.5186677,5.52751965 92.5419048,5.8775557 C91.5619637,6.23078357 90.7243348,6.73438154 90.0237211,7.38515779 C89.3231073,8.0394805 88.7764591,8.84240007 88.3862484,9.79604439 C87.9925063,10.7482701 87.7986368,11.8168199 87.7986368,12.9970833 C87.7979306,15.5253579 88.4879503,17.4798145 89.8686962,18.8586799 C91.2115612,20.1986748 93.0913541,20.8878971 95.5067725,20.9230769 L95.8940045,20.9230769 C96.9941642,20.9063378 98.0069892,20.7414196 98.9321801,20.4262172 Z M144.225234,20.1644882 C143.405614,19.8023941 142.798934,19.1044499 142.410842,18.0663997 C142.245576,17.5688307 142.142108,17.0677153 142.102205,16.5605709 C142.060535,16.0512986 142.040053,15.5367066 142.040053,15.0199867 L142.042525,8.80161573 L139.410633,8.80161573 L139.410633,5.56617612 L142.040053,5.56688541 L142.0397,0.000709292911 L146.163575,0.000354646455 L146.163575,5.56617612 L150,5.56511218 L149.998587,8.80090643 L146.164281,8.80232502 L146.164281,14.3039555 C146.164987,14.6366139 146.168166,15.0508409 146.178759,15.5494738 C146.19006,16.0470428 146.297412,16.4392818 146.503994,16.7304465 C146.689035,16.979763 146.92634,17.1606327 147.216261,17.2744742 C147.504064,17.3876064 147.812701,17.4595996 148.143939,17.4904539 C148.472351,17.5227267 148.802883,17.5291103 149.133061,17.5071223 C149.463593,17.4865528 149.751042,17.4752041 149.997881,17.4759134 L150,20.7085158 L147.000144,20.7085158 C145.970412,20.7070972 145.048031,20.5272915 144.225234,20.1644882 Z M133.591019,9.90350226 C133.304629,9.49636813 132.920421,9.17505844 132.440515,8.93815461 C131.959903,8.70337866 131.369819,8.58563604 130.673796,8.58563604 C129.937869,8.58492674 129.325892,8.70940765 128.846692,8.95375906 C128.365373,9.1998837 127.988581,9.53218743 127.710666,9.94996095 C127.433458,10.3698624 127.238882,10.8592745 127.126233,11.4213891 C127.012877,11.984213 126.960261,12.5895945 126.959555,13.2439172 C126.960261,13.8766065 127.026296,14.4646103 127.156602,15.0072194 C127.291499,15.5480552 127.50585,16.0183164 127.801068,16.4158751 C128.099111,16.815207 128.488616,17.1258773 128.970641,17.3514325 C129.450194,17.5762783 130.037806,17.6883466 130.735594,17.6890559 C131.432677,17.6883466 132.014285,17.5681215 132.48501,17.3198689 C132.958207,17.0762268 133.336764,16.7495974 133.622448,16.3413994 C133.907778,15.9314281 134.108357,15.4462717 134.222066,14.8855757 C134.331537,14.3220425 134.388744,13.7358119 134.388744,13.1222735 C134.38945,12.4899389 134.33083,11.8962607 134.206175,11.3451401 C134.083638,10.7929556 133.878115,10.3113457 133.591019,9.90350226 Z M113.266511,8.80090643 L110.175901,8.80161573 L110.175194,17.4737855 L113.265452,17.4737855 C114.600644,17.4730762 115.599301,17.0553027 116.264601,16.2144359 C116.929195,15.3753424 117.263964,14.3241703 117.263258,13.0595011 C117.263964,11.7150364 116.944733,10.6659921 116.311568,9.919816 C115.678049,9.17505844 114.663148,8.80090643 113.266511,8.80090643 Z M118.086056,19.5881877 C117.239952,20.1290235 116.390669,20.4492693 115.526202,20.5553085 C114.659263,20.6574467 113.746771,20.7095798 112.779895,20.7078065 L106.050967,20.7085158 L106.050967,0.00106393937 L110.175194,0.00106393937 L110.175901,5.56617612 L113.849532,5.56511218 C116.22046,5.56688541 118.068046,6.19390034 119.395116,7.44651162 C120.723245,8.70125078 121.388898,10.5312265 121.389605,12.9353748 C121.390664,14.3032462 121.130406,15.5686247 120.616599,16.7290279 C120.101733,17.8887219 119.258807,18.8427208 118.086056,19.5881877 Z M98.685694,9.90385691 C98.3978915,9.49601349 98.0129777,9.17293057 97.5323652,8.93921855 C97.0545777,8.70408795 96.4644942,8.58669998 95.7674118,8.58492674 C95.0311317,8.58669998 94.4212729,8.70727977 93.9417198,8.95375906 C93.4607541,9.1991744 93.0829029,9.53041419 92.8067538,9.94925166 C92.5260139,10.3680891 92.3339101,10.8585652 92.2219673,11.4213891 C92.1079057,11.9849223 92.0521108,12.5895945 92.0531702,13.2449812 C92.0506983,13.8776704 92.1188528,14.4660289 92.2512772,15.0079287 C92.3840549,15.5480552 92.6005247,16.0176072 92.8968024,16.4172937 C93.1948457,16.8166256 93.5822315,17.1276506 94.0649628,17.3521418 C94.5431034,17.5762783 95.1349525,17.6883466 95.8288568,17.6890559 C96.5241735,17.6890559 97.1093131,17.5674122 97.5803911,17.3212875 C98.0500566,17.0762268 98.4303796,16.7499521 98.7164165,16.3413994 C99.001394,15.9339106 99.2009135,15.4462717 99.314622,14.8848664 C99.4272711,14.3213332 99.483419,13.7347479 99.4848316,13.1215642 C99.4844784,12.4892296 99.4219741,11.8966153 99.298731,11.3437215 C99.1769005,10.7936649 98.9717309,10.3113457 98.685694,9.90385691 Z M80.5481322,4.13553232 C80.2716299,3.94331394 79.9368608,3.81067616 79.5452375,3.73726435 C79.1532611,3.66030607 78.7316216,3.62342283 78.2806721,3.62271354 L72.1368829,3.62377748 L72.1382954,9.23322046 L78.2799658,9.23180188 C79.2881575,9.23180188 80.0696384,9.02646158 80.6247618,8.61223452 C81.1830634,8.19729817 81.4588594,7.42594213 81.4581532,6.30242216 C81.4588594,5.75023763 81.3765797,5.2980634 81.2134327,4.9469634 C81.0485201,4.59550877 80.8271064,4.32562282 80.5481322,4.13553232 Z M80.744026,15.9161734 C80.3099103,14.308564 79.7334376,13.6397489 78.521725,13.2439172 C77.3100124,12.8480856 76.615302,12.8566433 75.6653771,12.8566433 L72.1393548,12.8566433 L72.1368829,20.7085158 L67.7559283,20.7085158 L67.7559283,0.00106393937 L77.8389041,0 C78.5999034,0.000709292911 79.3799718,0.0258891912 80.175578,0.0776675737 C80.9672998,0.129445956 81.7272397,0.258891912 82.4469225,0.466005442 C83.6652277,0.818169372 84.4395231,1.4802943 85.119302,2.45415347 C85.7994341,3.4262394 86.0530979,4.53450958 86.0545104,5.77577217 C86.0523917,7.20393345 85.8389849,8.45087038 85.2411325,9.51764692 C84.6439864,10.5826502 84.1520893,11.3423029 82.7321459,11.7987329 C82.9993685,11.8588792 83.8498929,12.3808494 84.5602447,13.5957858 C85.2705965,14.8107222 85.4146432,16.0894256 85.8332354,17.906275 C86.2518276,19.7231245 86.4380195,20.1290235 86.6227075,20.7085158 L81.7014611,20.7085158 C81.6513565,20.2273437 81.1781416,17.5237827 80.744026,15.9161734 Z" id="robot" fill="#FFFFFF"></path>
                <path d="M60.5068209,14.6997102 L55.0092524,14.6997102 C54.5742947,14.6997102 54.2068243,14.8122242 53.9061346,15.0386676 C53.6047383,15.2654647 53.4566901,15.6153904 53.4566901,16.0873832 C53.4566901,16.4153722 53.5227641,16.6683519 53.6591522,16.8417226 C53.7927135,17.0161547 53.9683219,17.1442367 54.1866841,17.2256148 C54.4022196,17.3098234 54.6467287,17.3586502 54.9145581,17.3812946 C55.1852142,17.4000469 55.4449168,17.4120767 55.6940193,17.4120767 L60.5061142,17.4113691 L60.5068209,14.6997102 L60.5068209,14.6997102 Z M55.4615236,20.6403094 C54.9046647,20.6403094 54.3389723,20.637125 53.7725733,20.62368 C53.2033476,20.6148345 52.6493154,20.536287 52.1133033,20.3908679 C51.1628271,20.1449646 50.4395465,19.6135304 49.9441682,18.7969192 C49.4494966,17.9827846 49.2000407,17.1095626 49.2000407,16.179022 C49.2018074,15.4579415 49.3509156,14.7457065 49.6508986,14.0433784 C49.9494682,13.3403426 50.4013861,12.7629121 51.0024121,12.3075487 C51.2720082,12.1019806 51.5924847,11.9417012 51.9645485,11.829541 C52.3380256,11.7141964 52.7259895,11.6328184 53.1298535,11.5786843 C53.5326576,11.5298574 53.9312216,11.4990753 54.3234255,11.4877531 C54.7202228,11.4778462 55.0802731,11.4732466 55.4106431,11.4718313 L60.5068209,11.4732466 L60.5068209,11.2241589 C60.5054076,10.6881251 60.4347402,10.2589442 60.2888121,9.93909304 C60.1446506,9.61782656 59.9340618,9.37086181 59.6545724,9.19466059 C59.3772029,9.0209361 59.0404729,8.90417626 58.6496823,8.85358033 C58.2574783,8.80333822 57.823934,8.77609425 57.3486959,8.77609425 L50.3554523,8.77538662 L50.3547456,5.55423027 L57.3486959,5.55423027 C57.6380788,5.55246118 57.921455,5.55812226 58.2009444,5.56838298 C58.4776072,5.57899751 58.7616901,5.58501241 59.0507196,5.58359714 C60.3287391,5.62570144 61.4184301,5.89283381 62.3222658,6.38888623 C63.2236282,6.88741537 63.8822481,7.78469706 64.294239,9.08639238 C64.4567739,9.60332004 64.5542949,10.1092794 64.5846819,10.6046241 C64.6200156,11.1006765 64.6334424,11.6165428 64.630969,12.1554071 L64.6327357,20.6403094 L55.4615236,20.6403094 L55.4615236,20.6403094 Z M45.0423256,20.6615385 C44.0141153,20.6590617 43.086606,20.4814453 42.2693378,20.1177207 C41.4446495,19.7564728 40.8397368,19.0587443 40.4507129,18.0245351 C40.2871179,17.5274213 40.1842968,17.0281845 40.1433098,16.5201023 C40.1019694,16.0127277 40.0807691,15.5000458 40.0818292,14.9845335 L40.0818292,8.78069388 L37.4491161,8.77998625 L37.4505294,5.5549379 L40.0807691,5.55352263 L40.0818292,0.000353817701 L44.2080973,0.0010614531 L44.2073906,5.55246118 L48.0442758,5.55246118 L48.0439224,8.77998625 L44.2080973,8.78210915 L44.2080973,14.2715908 C44.2059772,14.6020565 44.2123373,15.0153156 44.2218774,15.5106604 C44.2331842,16.0098971 44.3416586,16.4005119 44.548714,16.6902886 C44.7338625,16.9404377 44.9695382,17.1201771 45.2592745,17.2355217 C45.5479507,17.3466204 45.8567671,17.4205683 46.1867838,17.4506428 C46.5178604,17.481425 46.8471704,17.4867322 47.1771871,17.4665646 C47.5093237,17.4467508 47.7958799,17.4364901 48.0442758,17.4354287 L48.0442758,20.660477 L45.0423256,20.6615385 L45.0423256,20.6615385 Z M31.766399,14.7007717 L26.2705971,14.7014793 C25.8356394,14.7014793 25.4674624,14.8136395 25.1664194,15.0393752 C24.867143,15.2654647 24.7169749,15.6146828 24.7169749,16.0866756 C24.7169749,16.4153722 24.7830489,16.6672904 24.9197902,16.8424302 C25.0529982,17.0161547 25.2286067,17.1449443 25.4469689,17.2263224 C25.664271,17.3077005 25.9070135,17.3604193 26.1762562,17.3805869 C26.4440855,17.4000469 26.7041415,17.4106614 26.952184,17.4106614 L31.764279,17.4099538 L31.766399,14.7007717 L31.766399,14.7007717 Z M26.7218083,20.6403094 C26.1628294,20.641017 25.5996104,20.6357098 25.0314447,20.6229723 C24.464339,20.6137731 23.9106601,20.5384099 23.3757081,20.392637 C22.4252319,20.1449646 21.7001846,19.6128228 21.2044529,18.7979806 C20.7076613,17.9827846 20.4610321,17.1095626 20.4620921,16.1800835 C20.4610321,15.4572339 20.6136737,14.7449989 20.9115367,14.044086 C21.2111663,13.3417579 21.6623775,12.7629121 22.2616369,12.3068411 C22.5315863,12.101273 22.8531228,11.940286 23.2241265,11.8277719 C23.5983103,11.7156117 23.9869809,11.6324646 24.3908449,11.5793919 C24.7943556,11.5291498 25.1925663,11.4983676 25.5837102,11.4870455 C25.9801542,11.4771386 26.3398512,11.4718313 26.6730478,11.4728928 L31.7671057,11.4718313 L31.7646323,11.2241589 C31.766399,10.6867098 31.6936116,10.2582366 31.5501568,9.9383854 C31.405642,9.6185342 31.1950532,9.36909272 30.9162705,9.19466059 C30.6364276,9.01916701 30.3011109,8.90559153 29.9092603,8.85287269 C29.5177631,8.80086149 29.082452,8.77609425 28.6111006,8.77467898 L21.6157371,8.77538662 L21.6143237,5.55423027 L28.6089806,5.55246118 C28.8969502,5.5549379 29.1817397,5.55635317 29.4615825,5.56767534 C29.737892,5.57899751 30.0226815,5.58430477 30.310651,5.58359714 C31.5879639,5.62640908 32.6790682,5.89283381 33.5832572,6.38888623 C34.4856796,6.88670773 35.1421796,7.78328178 35.553817,9.08710001 C35.718472,9.6026124 35.815993,10.1085717 35.8467333,10.6032089 C35.8771203,11.1006765 35.8930204,11.6165428 35.8916071,12.1546995 L35.8937271,20.6403094 L26.7218083,20.6403094 L26.7218083,20.6403094 Z M13.9649336,7.81194102 C13.7875584,6.91430551 13.4953488,6.13201457 13.0808847,5.46153003 C12.5862131,4.6693322 11.9562134,4.16301907 11.1940657,3.94542118 C10.4287381,3.72605421 9.61535655,3.61566309 8.74932786,3.61566309 L4.38279068,3.61495545 L4.38349735,17.0462292 L8.74791451,17.0455216 C9.24187947,17.0455216 9.79555836,16.9938642 10.4032978,16.8905494 C11.0128039,16.7858194 11.5325625,16.6181098 11.9692869,16.3884821 C12.4219114,16.1379792 12.7929151,15.7664706 13.0840647,15.2767869 C13.3699143,14.7856879 13.5974632,14.2528384 13.7610582,13.6793 C13.9267732,13.1061153 14.0469077,12.5212546 14.1172218,11.9271947 C14.1914225,11.332781 14.2267562,10.8048849 14.2274629,10.3459834 C14.2281695,9.55378556 14.139482,8.70993034 13.9649336,7.81194102 L13.9649336,7.81194102 Z M19.0063442,11.9891128 C18.953697,12.5658356 18.8756095,13.1460967 18.7749085,13.7221119 C18.6724408,14.3016653 18.5381728,14.8691889 18.3731645,15.4271594 C18.2056828,15.9833608 18.0109942,16.4893201 17.7855653,16.9436221 C17.4760422,17.6063226 17.0728848,18.1671237 16.5803332,18.6323939 C16.0828348,19.0969566 15.5167891,19.4829717 14.8768961,19.7925622 C14.4041313,20.020067 13.9140531,20.1969758 13.4070146,20.3204582 C12.9020962,20.4453558 12.3929378,20.5309797 11.8756526,20.58476 C11.3615474,20.6350021 10.8354288,20.6597694 10.2990634,20.6615385 C9.78213156,20.660477 9.2680264,20.660477 8.75144788,20.6597694 L0.000706673763,20.6597694 L0,0.000353817701 L8.75286123,0 C9.59874972,0.0010614531 10.4587717,0.0421043064 11.3357538,0.124190013 C12.2120293,0.20769099 13.048731,0.3877842 13.8409123,0.665531095 C14.6362736,0.946816168 15.3669743,1.33778473 16.036901,1.8430364 C16.7061211,2.34828808 17.2580333,3.01700354 17.692991,3.8417526 C18.1675224,4.77087788 18.5162659,5.83410007 18.7445216,7.03248062 C18.9706572,8.22873827 19.0823116,9.34432548 19.0833716,10.377827 C19.084785,10.8735256 19.0579314,11.4095594 19.0063442,11.9891128 L19.0063442,11.9891128 Z" id="data" fill="#FFFFFF"></path>
                <path d="M84.4009545,26.9038353 L81.7325569,26.9038353 L81.9315164,25.772221 L88.5791034,25.772221 L88.3684404,26.9038353 L85.7000428,26.9038353 L84.482879,33.8585482 L83.1954942,33.8585482 L84.4009545,26.9038353 Z M89.7286469,25.772221 L95.954908,25.772221 L95.744245,26.8920477 L90.8170723,26.8920477 L90.4308568,29.1670639 L94.8430757,29.1670639 L94.6441162,30.2868906 L90.2318974,30.2868906 L89.8105714,32.7387216 L94.8079652,32.7387216 L94.6090057,33.8585482 L88.3125237,33.8585482 L89.7286469,25.772221 Z M97.0751928,33.4990249 C96.4783114,33.1650399 96.1798752,32.6601406 96.1798752,31.984312 C96.1798752,31.717124 96.2110842,31.4892317 96.2735032,31.3006284 L97.560888,31.3006284 C97.5530856,31.3242038 97.5374811,31.3870706 97.514074,31.4892308 C97.4906669,31.5913909 97.4789635,31.6856912 97.4789635,31.7721343 C97.4789635,32.1336241 97.6408603,32.410631 97.9646587,32.6031636 C98.2884571,32.7956962 98.731235,32.891961 99.2930057,32.891961 C100.018626,32.891961 100.582339,32.7740857 100.984161,32.5383315 C101.385983,32.3025774 101.586891,31.9764557 101.586891,31.5599567 C101.586891,31.316344 101.501067,31.1139914 101.329414,30.9528927 C101.157762,30.7917941 100.945151,30.6601666 100.691574,30.5580065 C100.437997,30.4558464 100.088846,30.3419002 99.6441107,30.2161647 C99.08234,30.0511368 98.6298092,29.8939697 98.2865049,29.7446587 C97.9432006,29.5953478 97.6486655,29.3831722 97.4028908,29.1081257 C97.1571161,28.8330792 97.0342306,28.475524 97.0342306,28.0354496 C97.0342306,27.508932 97.1863745,27.064935 97.490667,26.7034453 C97.7949595,26.3419556 98.1987261,26.072807 98.7019791,25.8959913 C99.205232,25.7191757 99.7533404,25.6307692 100.346321,25.6307692 C101.259198,25.6307692 101.988709,25.7840071 102.534875,26.0904875 C103.081041,26.3969679 103.35412,26.86454 103.35412,27.4932178 C103.35412,27.6661042 103.334614,27.862563 103.295602,28.0826002 L102.019921,28.0826002 C102.05113,27.9647231 102.066735,27.8547062 102.066735,27.752546 C102.066735,27.4303487 101.918492,27.180846 101.622002,27.0040303 C101.325512,26.8272147 100.931498,26.7388082 100.439949,26.7388082 C99.8235612,26.7388082 99.324217,26.8350731 98.9419008,27.0276056 C98.5595846,27.2201382 98.3684294,27.5010744 98.3684294,27.8704225 C98.3684294,28.0904597 98.450353,28.2751311 98.6142028,28.424442 C98.7780526,28.573753 98.9848124,28.6955575 99.2344882,28.7898592 C99.4841641,28.8841608 99.8235622,28.9941778 100.252693,29.1199133 C100.830068,29.2849412 101.296253,29.4421083 101.651261,29.5914193 C102.006269,29.7407303 102.310556,29.956835 102.564133,30.23974 C102.817711,30.522645 102.944497,30.8880584 102.944497,31.3359913 C102.944497,31.9489521 102.78065,32.4538514 102.45295,32.8507042 C102.125251,33.2475571 101.694176,33.5383162 101.159714,33.7229902 C100.625251,33.9076643 100.045934,34 99.4217442,34 C98.4542502,34 97.6720742,33.83301 97.0751928,33.4990249 Z M107.242282,26.9038353 L104.573884,26.9038353 L104.772844,25.772221 L111.420431,25.772221 L111.209768,26.9038353 L108.54137,26.9038353 L107.324206,33.8585482 L106.036821,33.8585482 L107.242282,26.9038353 Z M115.709113,25.772221 L118.588173,25.772221 C119.735122,25.772221 120.614826,26.0354759 121.227312,26.5619935 C121.839798,27.0885111 122.146037,27.8900632 122.146037,28.9666739 C122.146037,29.7132287 122.038756,30.3929764 121.82419,31.0059372 C121.609625,31.618898 121.295584,32.1414785 120.882059,32.5736945 C120.484138,32.9901935 120.00625,33.3084568 119.44838,33.528494 C118.890511,33.7485313 118.276083,33.8585482 117.605079,33.8585482 L114.292989,33.8585482 L115.709113,25.772221 Z M117.546562,32.7387216 C118.381415,32.7387216 119.079717,32.5069001 119.641488,32.0432503 C120.203259,31.5796004 120.562162,30.9194987 120.71821,30.0629252 C120.780629,29.6621432 120.811838,29.3281631 120.811838,29.0609751 C120.811838,27.6150162 120.070624,26.8920477 118.588173,26.8920477 L116.797538,26.8920477 L115.791037,32.7387216 L117.546562,32.7387216 Z M124.185046,25.772221 L128.129125,25.772221 C128.940571,25.772221 129.553048,25.9588569 129.966574,26.3321343 C130.3801,26.7054118 130.586859,27.2181694 130.586859,27.8704225 C130.586859,28.4991003 130.411309,29.0413267 130.060202,29.4971181 C129.709095,29.9529095 129.252663,30.2711728 128.690893,30.4519177 L129.861243,33.8585482 L128.491933,33.8585482 L127.415211,30.6169447 L124.629779,30.6169447 L124.068011,33.8585482 L122.768923,33.8585482 L124.185046,25.772221 Z M127.649281,29.5089057 C128.117424,29.5089057 128.501685,29.3674554 128.802076,29.0845504 C129.102467,28.8016454 129.252661,28.4244444 129.252661,27.9529361 C129.252661,27.6150218 129.153182,27.3537315 128.954221,27.1690574 C128.755261,26.9843833 128.460726,26.8920477 128.070607,26.8920477 L125.273471,26.8920477 L124.828738,29.5089057 L127.649281,29.5089057 Z M132.766311,25.772221 L134.065399,25.772221 L132.649276,33.8585482 L131.350188,33.8585482 L132.766311,25.772221 Z M135.214943,25.772221 L136.560845,25.772221 L137.555642,31.2652654 C137.633666,31.6660475 137.703886,32.0707527 137.766305,32.4793933 L137.824823,32.4793933 L138.421701,31.312416 L141.359279,25.772221 L142.740292,25.772221 L138.363184,33.8585482 L136.759805,33.8585482 L135.214943,25.772221 Z M143.769337,25.7679697 L149.995598,25.7679697 L149.784935,26.8877964 L144.857762,26.8877964 L144.471546,29.1628126 L148.883765,29.1628126 L148.684806,30.2826393 L144.272587,30.2826393 L143.851261,32.7344703 L148.848655,32.7344703 L148.649695,33.8542969 L142.353213,33.8542969 L143.769337,25.7679697 Z" id="Test-Drive-Copy" fill="#2D8FE2"></path>
            </g>
        </g>
    </g>
</svg>