<?xml version="1.0" encoding="UTF-8"?>
<svg width="30px" height="30px" viewBox="0 0 30 30" version="1.1" xmlns="http://www.w3.org/2000/svg"
     xmlns:xlink="http://www.w3.org/1999/xlink">
    <!-- Generator: Sketch 46.1 (44463) - http://www.bohemiancoding.com/sketch -->
    <title>Combined Shape</title>
    <desc>Created with Sketch.</desc>
    <defs>
        <linearGradient x1="0%" y1="0%" x2="100%" y2="100%" id="linearGradient-1">
            <stop stop-color="#14ACF5" offset="0%"></stop>
            <stop stop-color="#0975D1" offset="100%"></stop>
        </linearGradient>
    </defs>
    <g id="Page-1" stroke="none" stroke-width="1" fill="none" fill-rule="evenodd">
        <g id="Superhero-payment" transform="translate(-106.000000, -626.000000)" fill-rule="nonzero"
           fill="url(#linearGradient-1)">
            <g id="List" transform="translate(105.000000, 562.000000)">
                <g id="Group-4">
                    <g id="Group-7" transform="translate(1.000000, 63.000000)">
                        <path d="M12.99999,17.000012 L12.99999,17.000012 L10.00002,17.000012 L10.00002,18.999976 L12.99999,18.999976 C13.5522835,18.999976 14,19.4476934 14,19.999988 C14,20.5522826 13.5522236,21 12.99999,21 L9.00000998,21 C8.4477165,21 8,20.5522227 8,19.999988 L8,16 C8,15.4477054 8.44777639,14.999988 9.00000998,14.999988 L11.99998,14.999988 L11.99998,13.000024 L9.00000998,13.000024 C8.4477165,13.000024 8,12.5523066 8,12.000012 C8,11.4477174 8.44777639,11 9.00000998,11 L12.99999,11 C13.5522835,11 14,11.4477773 14,12.000012 L14,16 C14,16.5522946 13.5522236,17.000012 12.99999,17.000012 Z M5,17 C4.44771525,17 4,16.5522847 4,16 C4,15.4477153 4.44771525,15 5,15 C5.55228475,15 6,15.4477153 6,16 C6,16.5522847 5.55228475,17 5,17 Z M25,17 C24.4477153,17 24,16.5522847 24,16 C24,15.4477153 24.4477153,15 25,15 C25.5522847,15 26,15.4477153 26,16 C26,16.5522847 25.5522847,17 25,17 Z M15,27 C14.4477153,27 14,26.5522847 14,26 C14,25.4477153 14.4477153,25 15,25 C15.5522847,25 16,25.4477153 16,26 C16,26.5522847 15.5522847,27 15,27 Z M15,7 C14.4477153,7 14,6.55228475 14,6 C14,5.44771525 14.4477153,5 15,5 C15.5522847,5 16,5.44771525 16,6 C16,6.55228475 15.5522847,7 15,7 Z M20.99999,11 C21.5522236,11 22,11.4477201 22,12.000018 L22,19.999982 C22,20.5522799 21.5522236,21 20.99999,21 C20.4476965,21 19.99998,20.55222 19.99998,19.999982 L19.99998,16.999988 L17.00001,16.999988 C16.4477165,16.999988 16,16.5522081 16,15.9999701 L16,12.000018 C16,11.4477201 16.4477165,11 17.00001,11 C17.5523035,11 18.00002,11.44778 18.00002,12.000018 L18.00002,15.000012 L19.99998,15.000012 L19.99998,12.000018 C19.99998,11.4477201 20.4477564,11 20.99999,11 Z M29.0217187,15.0217187 C29.5620117,15.0217187 30,15.4597656 30,16 C30,24.2911328 23.2906055,31 15,31 C6.70886719,31 0,24.2906055 0,16 C0,7.70886719 6.70939453,1 15,1 C17.5311914,1 20.0071289,1.63503906 22.2086133,2.84271484 L23.7648047,1.28652344 C24.2790234,0.772363281 25.1551758,0.980605469 25.3846289,1.66890625 L27.3411914,7.53841797 C27.5948437,8.29949219 26.8691602,9.03097656 26.10375,8.77585937 L20.2341797,6.81935547 C19.5443555,6.589375 19.3388672,5.71240234 19.8517969,5.19953125 L20.7577734,4.29355469 C18.9754688,3.41617187 17.0080664,2.95650391 15,2.95650391 C7.80785156,2.95650391 1.95650391,8.80779297 1.95650391,16 C1.95650391,23.192207 7.80773437,29.0434961 14.9999414,29.0434961 C22.1921484,29.0434961 28.0434375,23.1921484 28.0434375,16 C28.0434375,15.459707 28.4814844,15.0217187 29.0217187,15.0217187 Z"
                              id="Combined-Shape"></path>
                    </g>
                </g>
            </g>
        </g>
    </g>
</svg>