<?xml version="1.0" encoding="UTF-8"?>
<svg width="30px" height="30px" viewBox="0 0 30 30" version="1.1" xmlns="http://www.w3.org/2000/svg" xmlns:xlink="http://www.w3.org/1999/xlink">
    <!-- Generator: Sketch 46.1 (44463) - http://www.bohemiancoding.com/sketch -->
    <title>Combined Shape</title>
    <desc>Created with Sketch.</desc>
    <defs>
        <linearGradient x1="0%" y1="0%" x2="100%" y2="100%" id="linearGradient-1">
            <stop stop-color="#14ACF5" offset="0%"></stop>
            <stop stop-color="#0975D1" offset="100%"></stop>
        </linearGradient>
    </defs>
    <g id="Page-1" stroke="none" stroke-width="1" fill="none" fill-rule="evenodd">
        <g id="Superhero-payment" transform="translate(-991.000000, -626.000000)" fill-rule="nonzero" fill="url(#linearGradient-1)">
            <g id="List" transform="translate(105.000000, 562.000000)">
                <g id="Group-4">
                    <g id="Group-8" transform="translate(886.000000, 63.000000)">
                        <path d="M27.3632812,1 L2.63671875,1 C1.18283203,1 0,2.18283203 0,3.63671875 L0,21.2148438 C0,22.6687305 1.18283203,23.8515625 2.63671875,23.8515625 L17.2839844,23.8515625 C17.4134766,23.9960547 17.5508203,24.1333984 17.6953125,24.2628906 L17.6953125,30.1210938 C17.6953125,30.4452344 17.8737305,30.7430664 18.1594922,30.8959961 C18.4452539,31.0489258 18.7920117,31.032168 19.0617188,30.8524023 L21.2109375,29.4196094 L23.3601562,30.8524023 C23.5072266,30.9504297 23.677207,31 23.8477148,31 C23.9898633,31 24.1324219,30.9655469 24.2623828,30.8959961 C24.5481445,30.7430664 24.7265625,30.4452344 24.7265625,30.1210938 L24.7265625,24.2628906 C24.8710547,24.1333984 25.0083984,23.9960547 25.1378906,23.8515625 L27.3632812,23.8515625 C28.817168,23.8515625 30,22.6687305 30,21.2148438 L30,3.63671875 C30,2.18283203 28.817168,1 27.3632812,1 Z M22.96875,28.4788281 L21.6984375,27.6319727 C21.4032422,27.4352148 21.0185742,27.4352148 20.7233789,27.6319727 L19.453125,28.4788281 L19.453125,25.3077344 C20.0032031,25.502793 20.5948242,25.609375 21.2109375,25.609375 C21.8270508,25.609375 22.4186719,25.502793 22.96875,25.3077344 L22.96875,28.4788281 Z M21.2109375,23.8515625 C19.2724219,23.8515625 17.6953125,22.2744531 17.6953125,20.3359375 C17.6953125,18.3974219 19.2724219,16.8203125 21.2109375,16.8203125 C23.1494531,16.8203125 24.7265625,18.3974219 24.7265625,20.3359375 C24.7265625,22.2744531 23.1494531,23.8515625 21.2109375,23.8515625 Z M24.7265625,15.1500391 L24.7265625,15.1500391 C24.3025781,15.2358789 23.8953516,15.3854688 23.5139648,15.5927148 C22.8176953,15.2532227 22.0362305,15.0625 21.2109375,15.0625 C18.9192773,15.0625 16.964707,16.5320312 16.2391406,18.578125 L8.70076172,18.578125 C8.3503125,16.8588672 6.99269531,15.50125 5.2734375,15.1508008 L5.2734375,9.70076172 C6.99269531,9.3503125 8.3503125,7.99269531 8.70076172,6.2734375 L21.2992383,6.2734375 C21.6496875,7.99269531 23.0073047,9.3503125 24.7265625,9.70076172 L24.7265625,15.1500391 Z M28.2421875,21.2148438 C28.2421875,21.6994727 27.8479102,22.09375 27.3632812,22.09375 L26.1827344,22.09375 C26.377793,21.5436719 26.484375,20.9520508 26.484375,20.3359375 C26.484375,19.00375 25.9875586,17.7855273 25.1697656,16.8562305 C25.3125586,16.8326172 25.4581055,16.8203125 25.6054688,16.8203125 C26.0908594,16.8203125 26.484375,16.4267969 26.484375,15.9414062 L26.484375,8.91015625 C26.484375,8.42476562 26.0908594,8.03125 25.6054688,8.03125 C24.151582,8.03125 22.96875,6.84841797 22.96875,5.39453125 C22.96875,4.90914062 22.5752344,4.515625 22.0898438,4.515625 L7.91015625,4.515625 C7.42476563,4.515625 7.03125,4.90914062 7.03125,5.39453125 C7.03125,6.84841797 5.84841797,8.03125 4.39453125,8.03125 C3.90914062,8.03125 3.515625,8.42476562 3.515625,8.91015625 L3.515625,15.9414062 C3.515625,16.4267969 3.90914062,16.8203125 4.39453125,16.8203125 C5.84841797,16.8203125 7.03125,18.0031445 7.03125,19.4570312 C7.03125,19.9424219 7.42476563,20.3359375 7.91015625,20.3359375 L15.9375,20.3359375 C15.9375,20.9520508 16.044082,21.5436719 16.2391406,22.09375 L2.63671875,22.09375 C2.15208984,22.09375 1.7578125,21.6994727 1.7578125,21.2148438 L1.7578125,3.63671875 C1.7578125,3.15208984 2.15208984,2.7578125 2.63671875,2.7578125 L27.3632812,2.7578125 C27.8479102,2.7578125 28.2421875,3.15208984 28.2421875,3.63671875 L28.2421875,21.2148438 Z M18.5742188,8.03125 C19.0596094,8.03125 19.453125,8.42476563 19.453125,8.91015625 C19.453125,9.39554687 19.0596094,9.7890625 18.5742188,9.7890625 L11.4257812,9.7890625 C10.9403906,9.7890625 10.546875,9.39554687 10.546875,8.91015625 C10.546875,8.42476562 10.9403906,8.03125 11.4257812,8.03125 L18.5742188,8.03125 Z M22.0898438,11.546875 C22.5752344,11.546875 22.96875,11.9403906 22.96875,12.4257812 C22.96875,12.9111719 22.5752344,13.3046875 22.0898438,13.3046875 L7.91015625,13.3046875 C7.42476563,13.3046875 7.03125,12.9111719 7.03125,12.4257812 C7.03125,11.9403906 7.42476563,11.546875 7.91015625,11.546875 L22.0898438,11.546875 Z M15.0585938,15.0625 C15.5439844,15.0625 15.9375,15.4560156 15.9375,15.9414062 C15.9375,16.4267969 15.5439844,16.8203125 15.0585938,16.8203125 L11.4257812,16.8203125 C10.9403906,16.8203125 10.546875,16.4267969 10.546875,15.9414062 C10.546875,15.4560156 10.9403906,15.0625 11.4257812,15.0625 L15.0585938,15.0625 Z" id="Combined-Shape"></path>
                    </g>
                </g>
            </g>
        </g>
    </g>
</svg>