<?xml version="1.0" encoding="UTF-8" standalone="no"?>
<svg width="56px" height="56px" viewBox="0 0 56 56" version="1.1" xmlns="http://www.w3.org/2000/svg" xmlns:xlink="http://www.w3.org/1999/xlink">
    <!-- Generator: Sketch 39.1 (31720) - http://www.bohemiancoding.com/sketch -->
    <title>Group 9</title>
    <desc>Created with Sketch.</desc>
    <defs></defs>
    <g id="Ready" stroke="none" stroke-width="1" fill="none" fill-rule="evenodd" stroke-linecap="square">
        <g id="Education-page" transform="translate(-694.000000, -1989.000000)" stroke="#35A2EB" stroke-width="2">
            <g id="benefits" transform="translate(210.000000, 1813.000000)">
                <g id="Group-9" transform="translate(485.000000, 177.000000)">
                    <polyline id="Line" points="3.5 0.5 3.5 50.5 53.5 50.5"></polyline>
                    <path d="M13.1565872,42 C13.1565872,42 11.3156357,31 19,27 C26.6843643,23 35.0000024,26 40.0000006,21 C44.9999988,16 43.9999987,8 43.9999987,8" id="Path-2"></path>
                    <polyline id="Path-3" points="40 13 44 7 48 13"></polyline>
                    <g id="Group-8" transform="translate(0.000000, 9.000000)">
                        <path d="M0.5,1 L2.5,1" id="Line"></path>
                        <path d="M0.5,11 L2.5,11" id="Line"></path>
                        <path d="M0.5,21 L2.5,21" id="Line"></path>
                        <path d="M0.5,31 L2.5,31" id="Line"></path>
                    </g>
                    <g id="Group-8" transform="translate(29.000000, 52.500000) rotate(-270.000000) translate(-29.000000, -52.500000) translate(27.500000, 36.500000)">
                        <path d="M0.5,1 L2.5,1" id="Line"></path>
                        <path d="M0.5,11 L2.5,11" id="Line"></path>
                        <path d="M0.5,21 L2.5,21" id="Line"></path>
                        <path d="M0.5,31 L2.5,31" id="Line"></path>
                    </g>
                </g>
            </g>
        </g>
    </g>
</svg>