<?xml version="1.0" encoding="UTF-8" standalone="no"?>
<svg width="20px" height="20px" viewBox="0 0 20 20" version="1.1" xmlns="http://www.w3.org/2000/svg" xmlns:xlink="http://www.w3.org/1999/xlink">
    <!-- Generator: Sketch 3.8.3 (29802) - http://www.bohemiancoding.com/sketch -->
    <title>check-circle-outline-blank</title>
    <desc>Created with Sketch.</desc>
    <defs></defs>
    <g id="Ready" stroke="none" stroke-width="1" fill="none" fill-rule="evenodd">
        <g id="Use-cases" transform="translate(-451.000000, -809.000000)" fill="#2D8FE2">
            <g id="4" transform="translate(420.000000, 631.000000)">
                <g id="check-circle-outline-blank" transform="translate(31.000000, 178.000000)">
                    <path d="M10,0 C4.5,0 0,4.5 0,10 C0,15.5 4.5,20 10,20 C15.5,20 20,15.5 20,10 C20,4.5 15.5,0 10,0 L10,0 Z M10,18 C5.6,18 2,14.4 2,10 C2,5.6 5.6,2 10,2 C14.4,2 18,5.6 18,10 C18,14.4 14.4,18 10,18 L10,18 Z" id="Shape"></path>
                    <polygon id="Path" transform="translate(10.500000, 10.000000) rotate(-270.000000) translate(-10.500000, -10.000000) " points="13.6304348 13 15 11.6 10.5 7 6 11.6 7.36956522 13 10.5 9.8"></polygon>
                </g>
            </g>
        </g>
    </g>
</svg>