<?xml version="1.0" encoding="UTF-8"?>
<svg width="30px" height="30px" viewBox="0 0 30 30" version="1.1" xmlns="http://www.w3.org/2000/svg" xmlns:xlink="http://www.w3.org/1999/xlink">
    <!-- Generator: Sketch 46.1 (44463) - http://www.bohemiancoding.com/sketch -->
    <title>Shape</title>
    <desc>Created with Sketch.</desc>
    <defs>
        <linearGradient x1="0%" y1="0%" x2="100%" y2="100%" id="linearGradient-1">
            <stop stop-color="#14ACF5" offset="0%"></stop>
            <stop stop-color="#0975D1" offset="100%"></stop>
        </linearGradient>
    </defs>
    <g id="Page-1" stroke="none" stroke-width="1" fill="none" fill-rule="evenodd">
        <g id="Superhero-payment" transform="translate(-549.000000, -626.000000)" fill-rule="nonzero" fill="url(#linearGradient-1)">
            <g id="List" transform="translate(105.000000, 562.000000)">
                <g id="Group-4">
                    <g id="Group-5" transform="translate(444.000000, 63.000000)">
                        <path d="M15,1 C6.7290054,1 0,7.72889698 0,16 C0,24.271103 6.7290054,31 15,31 C23.2709946,31 30,24.271103 30,16 C30,7.72889698 23.271103,1 15,1 Z M15.063024,3 C22.1964887,3 28,8.90506744 28,16.1633613 C28,17.8701786 27.6789323,19.502078 27.0952705,21 L12.4807238,13.6252279 C12.4686851,13.5475756 12.4483698,13.4700328 12.4169832,13.3943493 C12.2675743,13.0348524 12.1917951,12.6523879 12.1917951,12.2574553 C12.1917951,10.6465549 13.479828,9.3359825 15.063024,9.3359825 C16.64622,9.3359825 17.934253,10.6465549 17.934253,12.2574553 C17.934253,12.8011301 18.3673235,13.2417791 18.9016482,13.2417791 C19.4359728,13.2417791 19.8690434,12.8011301 19.8690434,12.2574553 C19.8690434,9.89814072 18.2184522,7.92369668 16.0304192,7.4668611 L16.0304192,5.99354721 C16.0304192,5.4498724 15.5973486,5.00922348 15.063024,5.00922348 C14.5286994,5.00922348 14.0956288,5.4498724 14.0956288,5.99354721 L14.0956288,7.46707984 C11.9077033,7.92380605 10.2570047,9.89825009 10.2570047,12.2576741 C10.2570047,12.3409041 10.2590469,12.4238061 10.2631315,12.5062705 L4,9.34571637 C6.27112146,5.54436748 10.3805088,3 15.063024,3 Z M14.8711445,29 C7.77397938,29 2,23.1684208 2,16.000348 C2,14.2293374 2.35301352,12.540089 2.99091889,11 L17.172844,18.1035919 C17.1964781,18.1639685 17.2265286,18.2229409 17.2631025,18.2794292 C17.5671369,18.7482929 17.7277629,19.2940583 17.7277629,19.8575372 C17.7277629,21.4483901 16.4462842,22.7426524 14.8711445,22.7426524 C13.2960048,22.7426524 12.0145262,21.4483901 12.0145262,19.8575372 C12.0145262,19.3206284 11.5836594,18.8854633 11.0520537,18.8854633 C10.5204481,18.8854633 10.0895812,19.3206284 10.0895812,19.8575372 C10.0895812,22.1874902 11.7317732,24.1373624 13.9086721,24.5885127 L13.9086721,26.0437073 C13.9086721,26.5806161 14.3395389,27.0157812 14.8711445,27.0157812 C15.4027502,27.0157812 15.833617,26.5806161 15.833617,26.0437073 L15.833617,24.5885127 C18.010409,24.1374704 19.6527078,22.1875983 19.6527078,19.8575372 C19.6527078,19.6809438 19.643297,19.5054304 19.6245823,19.3316452 L26,22.5250159 C23.7677055,26.3938699 19.6153853,29 14.8711445,29 Z" id="Shape"></path>
                    </g>
                </g>
            </g>
        </g>
    </g>
</svg>