<?xml version="1.0" encoding="UTF-8" standalone="no"?>
<svg width="130px" height="18px" viewBox="0 0 130 18" version="1.1" xmlns="http://www.w3.org/2000/svg" xmlns:xlink="http://www.w3.org/1999/xlink">
    <!-- Generator: Sketch 3.8.3 (29802) - http://www.bohemiancoding.com/sketch -->
    <title>Logo Copy 2</title>
    <desc>Created with Sketch.</desc>
    <defs></defs>
    <g id="Page-1" stroke="none" stroke-width="1" fill="none" fill-rule="evenodd">
        <g id="Privacy-Policy-&amp;-Terms-of-use-styles" transform="translate(-105.000000, -29.000000)">
            <g id="Navigation">
                <g id="Logo-Copy-2" transform="translate(105.000000, 29.000000)">
                    <g id="Logo">
                        <g id="Welcome">
                            <g id="IT-Professionals">
                                <g id="Logo">
                                    <path d="M17.0595862,10.2865714 C17.0138621,10.7605714 16.9466207,11.2371429 16.8596552,11.7094286 C16.7726897,12.186 16.6570345,12.6522857 16.5144828,13.11 C16.3710345,13.5668571 16.2033793,13.9825714 16.0097241,14.3545714 C15.7425517,14.8997143 15.3964828,15.36 14.9724138,15.7422857 C14.5447586,16.1228571 14.057931,16.4408571 13.5074483,16.6945714 C13.1004138,16.8814286 12.679931,17.0262857 12.2433103,17.1274286 C11.8084828,17.2302857 11.3709655,17.3005714 10.9262759,17.3451429 C10.4842759,17.3862857 10.0315172,17.4068571 9.57068966,17.4077143 C9.126,17.4077143 8.684,17.4077143 8.23931034,17.4068571 L0.712758621,17.4068571 L0.712758621,0.442285714 L8.24110345,0.442285714 C8.9682069,0.443142857 9.70786207,0.475714286 10.4618621,0.543428571 C11.2158621,0.612857143 11.9348966,0.760285714 12.6162759,0.988285714 C13.3003448,1.21885714 13.9288276,1.54028571 14.5053103,1.95514286 C15.0808966,2.37 15.5551724,2.91942857 15.929931,3.59657143 C16.3378621,4.35942857 16.6373103,5.23285714 16.8336552,6.21685714 C17.0282069,7.19914286 17.1250345,8.11457143 17.1250345,8.96314286 C17.1268276,9.37114286 17.1035172,9.81085714 17.0595862,10.2865714 L17.0595862,10.2865714 L17.0595862,10.2865714 Z M12.7229655,6.85714286 C12.5705517,6.12 12.3195172,5.47714286 11.9626897,4.926 C11.5377241,4.27628571 10.9953103,3.86057143 10.3408276,3.68142857 C9.68186207,3.50142857 8.98255172,3.41142857 8.23751724,3.41142857 L4.48186207,3.41057143 L4.48275862,14.4394286 L8.23662069,14.4385714 C8.66068966,14.4385714 9.13765517,14.3965714 9.66034483,14.3117143 C10.183931,14.226 10.6313103,14.0871429 11.0069655,13.8994286 C11.396069,13.6928571 11.7152414,13.3885714 11.9653793,12.9865714 C12.2110345,12.5828571 12.4064828,12.1457143 12.5481379,11.6742857 C12.6897931,11.2037143 12.7937931,10.7237143 12.8547586,10.236 C12.9175172,9.74742857 12.9488966,9.31457143 12.9488966,8.93742857 C12.9497931,8.28685714 12.8735862,7.59342857 12.7229655,6.85714286 L12.7229655,6.85714286 L12.7229655,6.85714286 Z M23.6949655,17.3905714 C23.2144138,17.3914286 22.7302759,17.3871429 22.2407586,17.3768571 C21.7530345,17.3691429 21.2778621,17.3065714 20.817931,17.1874286 C19.9993793,16.9842857 19.3762759,16.5471429 18.9495172,15.8785714 C18.5227586,15.2082857 18.3102759,14.4917143 18.3111724,13.728 C18.3102759,13.1348571 18.442069,12.5494286 18.6975862,11.9742857 C18.9557931,11.3974286 19.3431034,10.9217143 19.8595172,10.548 C20.0917241,10.3782857 20.3678621,10.2462857 20.6870345,10.1545714 C21.0088966,10.062 21.3424138,9.99342857 21.6902759,9.95057143 C22.0372414,9.90857143 22.3797241,9.88371429 22.7168276,9.87428571 C23.0575172,9.86657143 23.3668276,9.86228571 23.6537241,9.86228571 L28.0342759,9.86228571 L28.0324828,9.65914286 C28.0342759,9.21771429 27.9715172,8.86542857 27.8477931,8.60228571 C27.7231724,8.34 27.542069,8.13514286 27.3026897,7.992 C27.0615172,7.848 26.7737241,7.75457143 26.4366207,7.71171429 C26.0995172,7.66885714 25.7256552,7.64828571 25.3195172,7.64742857 L19.3036552,7.64742857 L19.3027586,5.00228571 L25.3177241,5.00142857 C25.566069,5.00314286 25.8108276,5.004 26.0511034,5.01428571 C26.2895862,5.02285714 26.5343448,5.02714286 26.7817931,5.02628571 C27.880069,5.06228571 28.8187586,5.28085714 29.596069,5.688 C30.3724828,6.09685714 30.9373103,6.83314286 31.2914483,7.90371429 C31.4331034,8.32714286 31.5164828,8.74285714 31.5433793,9.14828571 C31.5693793,9.55714286 31.5828276,9.98142857 31.581931,10.4228571 L31.5837241,17.3905714 L23.6949655,17.3905714 L23.6949655,17.3905714 L23.6949655,17.3905714 Z M28.0342759,12.5134286 L23.3067586,12.5142857 C22.9328966,12.5142857 22.6164138,12.606 22.3573103,12.7911429 C22.1,12.9771429 21.9708966,13.2634286 21.9708966,13.6517143 C21.9708966,13.9217143 22.0282759,14.1282857 22.1448276,14.2722857 C22.2595862,14.4145714 22.4111034,14.5208571 22.5984828,14.5868571 C22.7858621,14.6537143 22.9947586,14.6974286 23.226069,14.7145714 C23.4564828,14.73 23.6797241,14.7385714 23.8931034,14.7385714 L28.0315862,14.7377143 L28.0342759,12.5134286 L28.0342759,12.5134286 L28.0342759,12.5134286 Z M39.4518621,17.4077143 C38.5678621,17.406 37.769931,17.2602857 37.0670345,16.962 C36.3578621,16.6645714 35.8369655,16.092 35.5034483,15.2425714 C35.3626897,14.8345714 35.273931,14.4248571 35.238069,14.0074286 C35.2031034,13.5908571 35.1851724,13.17 35.186069,12.7465714 L35.186069,7.65257143 L32.9213793,7.65171429 L32.9222759,5.00314286 L35.1851724,5.00228571 L35.186069,0.442285714 L38.7346207,0.443142857 L38.7337241,5.00142857 L42.033931,5.00142857 L42.0330345,7.65171429 L38.7346207,7.65342857 L38.7346207,12.1611429 C38.7328276,12.4328571 38.7382069,12.7714286 38.7462759,13.1785714 C38.7561379,13.5882857 38.8493793,13.9097143 39.0268966,14.1471429 C39.1864828,14.3528571 39.3891034,14.4994286 39.6392414,14.5945714 C39.8875862,14.6862857 40.152069,14.7471429 40.4362759,14.772 C40.7213793,14.7968571 41.0037931,14.8011429 41.288,14.7848571 C41.574,14.7677143 41.8205517,14.76 42.033931,14.7591429 L42.033931,17.4077143 L39.4518621,17.4077143 L39.4518621,17.4077143 L39.4518621,17.4077143 Z M48.4137931,17.3905714 C47.9341379,17.3905714 47.4473103,17.388 46.9604828,17.3768571 C46.4709655,17.37 45.994,17.3057143 45.5331724,17.1857143 C44.7155172,16.9842857 44.0942069,16.5471429 43.6683448,15.8768571 C43.2424828,15.2082857 43.0282069,14.4917143 43.0282069,13.7271429 C43.0291034,13.1348571 43.1573103,12.5502857 43.4164138,11.9734286 C43.6728276,11.3965714 44.0610345,10.9217143 44.5783448,10.548 C44.8096552,10.3791429 45.0857931,10.2471429 45.4058621,10.1554286 C45.7268276,10.0611429 46.0603448,9.99428571 46.4073103,9.94971429 C46.7542759,9.90942857 47.0967586,9.88457143 47.4338621,9.87514286 C47.7754483,9.86657143 48.0847586,9.86314286 48.3698621,9.86228571 L52.7522069,9.86314286 L52.7522069,9.65914286 C52.7513103,9.21857143 52.6903448,8.86628571 52.5648276,8.60314286 C52.4411034,8.33914286 52.26,8.13685714 52.0197241,7.992 C51.7812414,7.84885714 51.4916552,7.75371429 51.1554483,7.71171429 C50.8183448,7.67057143 50.4453793,7.64828571 50.0365517,7.64828571 L44.0215862,7.64742857 L44.0206897,5.00228571 L50.0365517,5.00228571 C50.2848966,5.00142857 50.5287586,5.00571429 50.769931,5.01428571 C51.0075172,5.02285714 51.2513793,5.02714286 51.5006207,5.02628571 C52.5997931,5.06142857 53.5366897,5.28085714 54.314,5.688 C55.0895172,6.09771429 55.6561379,6.834 56.0102759,7.90285714 C56.1501379,8.328 56.2344138,8.74285714 56.2595172,9.15 C56.29,9.55714286 56.3016552,9.98142857 56.2998621,10.4237143 L56.3007586,17.3905714 L48.4137931,17.3905714 L48.4137931,17.3905714 L48.4137931,17.3905714 Z M52.7522069,12.5125714 L48.0237931,12.5125714 C47.6508276,12.5125714 47.3343448,12.6051429 47.0761379,12.7902857 C46.8161379,12.9771429 46.6888276,13.2642857 46.6888276,13.6517143 C46.6888276,13.9217143 46.7462069,14.1291429 46.8627586,14.2714286 C46.9784138,14.4145714 47.1290345,14.52 47.3173103,14.586 C47.502,14.6562857 47.7126897,14.6957143 47.9431034,14.7145714 C48.1753103,14.73 48.3994483,14.7394286 48.6128276,14.7394286 L52.7513103,14.7394286 L52.7522069,12.5125714 L52.7522069,12.5125714 L52.7522069,12.5125714 Z" id="Fill-1" fill="#424242"></path>
                                    <path d="M71.0095862,17.4077143 C70.867931,17.0168571 70.7782759,16.62 70.7451034,16.212 C70.7083448,15.8048571 70.6635172,15.3985714 70.6106207,14.9914286 C70.520069,14.2122857 70.3766207,13.5625714 70.1704138,13.0465714 C69.9651034,12.5305714 69.6773103,12.1174286 69.3061379,11.8148571 C68.9313793,11.5088571 68.4624828,11.2937143 67.8931724,11.166 C67.3238621,11.0391429 66.6326207,10.9748571 65.8149655,10.9748571 L62.7801379,10.9748571 L62.7783448,17.4077143 L59.0083448,17.4077143 L59.0083448,0.443142857 L67.6851724,0.442285714 C68.3405517,0.443142857 69.0111724,0.463714286 69.6961379,0.505714286 C70.3775172,0.548571429 71.0311034,0.654 71.6506207,0.823714286 C72.6995862,1.11257143 73.5145517,1.65514286 74.1,2.45314286 C74.6854483,3.24857143 74.9786207,4.15714286 74.9795172,5.17371429 C74.9777241,6.34457143 74.7195172,7.36542857 74.2048966,8.23885714 C73.6902759,9.11142857 72.8197241,9.73371429 71.5977241,10.1074286 C71.985931,10.2437143 72.3194483,10.3757143 72.5946897,10.5008571 C72.869931,10.6294286 73.1128966,10.782 73.3271724,10.9602857 C73.5405517,11.1368571 73.7270345,11.3502857 73.8893103,11.5962857 C74.0462069,11.8422857 74.2057931,12.1525714 74.3644828,12.5245714 C74.6137241,13.0842857 74.7526897,13.6611429 74.7777931,14.2534286 C74.8055862,14.8465714 74.854,15.4414286 74.9266207,16.0337143 C74.9786207,16.4742857 75.0853103,16.9328571 75.244,17.4077143 L71.0095862,17.4077143 L71.0095862,17.4077143 L71.0095862,17.4077143 Z M70.5891034,4.49485714 C70.4483448,4.20685714 70.2564828,3.98571429 70.0171034,3.82971429 C69.7786207,3.67285714 69.4908276,3.564 69.1537241,3.504 C68.8166207,3.44057143 68.4535172,3.41057143 68.0653103,3.40971429 L62.7783448,3.41142857 L62.7792414,8.00657143 L68.0653103,8.00485714 C68.9322759,8.00485714 69.6046897,7.83685714 70.0825517,7.49742857 C70.5631034,7.158 70.8006897,6.52542857 70.7997931,5.60571429 C70.8006897,5.15314286 70.7298621,4.78285714 70.5891034,4.49485714 L70.5891034,4.49485714 L70.5891034,4.49485714 Z M89.4534483,14.0314286 C89.1082759,14.8054286 88.6286207,15.4542857 88.018069,15.9805714 C87.4075172,16.5051429 86.6795172,16.9062857 85.8376552,17.1762857 C84.9966897,17.4488571 84.0705517,17.5842857 83.061931,17.5842857 C80.8994483,17.5851429 79.2246897,17.0194286 78.0376552,15.8914286 C76.8497241,14.7625714 76.2562069,13.1605714 76.2562069,11.0897143 C76.2562069,10.1228571 76.4229655,9.24771429 76.7627586,8.46771429 C77.0971724,7.686 77.5678621,7.02857143 78.1712414,6.49285714 C78.7737241,5.95885714 79.4954483,5.54657143 80.3382069,5.25771429 C81.1791724,4.97057143 82.0954483,4.82485714 83.0888276,4.82485714 C85.2504138,4.82571429 86.9377241,5.39314286 88.1516552,6.53142857 C89.3646897,7.66885714 89.9725517,9.28285714 89.9743448,11.3717143 C89.9734483,12.372 89.7995172,13.26 89.4534483,14.0314286 L89.4534483,14.0314286 L89.4534483,14.0314286 Z M86.1532414,9.73542857 C86.0483448,9.28457143 85.8717241,8.88942857 85.6251724,8.556 C85.3777241,8.22171429 85.0468966,7.95685714 84.6326897,7.76571429 C84.222069,7.57285714 83.7137241,7.476 83.113931,7.47514286 C82.480069,7.476 81.9555862,7.57542857 81.5431724,7.77771429 C81.1289655,7.97828571 80.8044138,8.25 80.565931,8.59285714 C80.3247586,8.93571429 80.1588966,9.33771429 80.0629655,9.79885714 C79.9643448,10.26 79.9168276,10.7554286 79.9177241,11.2928571 C79.915931,11.8114286 79.9742069,12.2931429 80.088069,12.7371429 C80.2028276,13.1794286 80.3884138,13.5642857 80.643931,13.8917143 C80.8994483,14.2182857 81.2338621,14.4737143 81.6489655,14.6571429 C82.0604828,14.8414286 82.5697241,14.9331429 83.1668276,14.9331429 C83.7648276,14.9331429 84.2686897,14.8337143 84.6748276,14.6322857 C85.0782759,14.4317143 85.4055172,14.1642857 85.652069,13.8291429 C85.8968276,13.4957143 86.0689655,13.0962857 86.1666897,12.636 C86.2635172,12.1748571 86.311931,11.694 86.3137241,11.1917143 C86.3128276,10.674 86.2590345,10.188 86.1532414,9.73542857 L86.1532414,9.73542857 L86.1532414,9.73542857 Z M104.498483,14.1471429 C104.055586,15.0968571 103.330276,15.8785714 102.320759,16.4897143 C101.592759,16.9328571 100.862069,17.1951429 100.117931,17.2817143 C99.372,17.3648571 98.5866207,17.4077143 97.7546207,17.4068571 L91.9637931,17.4077143 L91.9637931,0.443142857 L95.5123448,0.443142857 L95.5132414,5.00228571 L98.6744828,5.00142857 C100.715034,5.00228571 102.305517,5.51571429 103.446828,6.54257143 C104.589931,7.57114286 105.163724,9.06942857 105.163724,11.0391429 C105.164621,12.1602857 104.941379,13.1965714 104.498483,14.1471429 L104.498483,14.1471429 L104.498483,14.1471429 Z M100.793931,8.56885714 C100.248828,7.95857143 99.3755862,7.65257143 98.1733103,7.65257143 L95.5132414,7.65257143 L95.5123448,14.7574286 L98.1724138,14.7574286 C99.3217931,14.7565714 100.18069,14.4137143 100.753586,13.7254286 C101.32469,13.038 101.613379,12.1765714 101.613379,11.1411429 C101.613379,10.0388571 101.339034,9.18 100.793931,8.56885714 L100.793931,8.56885714 L100.793931,8.56885714 Z M119.49331,14.0314286 C119.146345,14.8045714 118.668483,15.4542857 118.056138,15.9788571 C117.446483,16.5068571 116.720276,16.9054286 115.87931,17.1762857 C115.037448,17.4488571 114.109517,17.5851429 113.1,17.5851429 C110.937517,17.5851429 109.262759,17.0194286 108.077517,15.8905714 C106.88869,14.7625714 106.297862,13.1622857 106.296966,11.0897143 C106.296069,10.122 106.465517,9.24771429 106.799931,8.46771429 C107.137931,7.68685714 107.607724,7.02857143 108.211103,6.49285714 C108.81269,5.95885714 109.53531,5.54657143 110.375379,5.25857143 C111.219034,4.97057143 112.134414,4.82571429 113.126897,4.82485714 C115.290276,4.82485714 116.977586,5.394 118.191517,6.53142857 C119.404552,7.66971429 120.010621,9.28114286 120.011517,11.37 C120.012414,12.372 119.838483,13.26 119.49331,14.0314286 L119.49331,14.0314286 L119.49331,14.0314286 Z M116.193103,9.73628571 C116.088207,9.28371429 115.91069,8.88942857 115.663241,8.55514286 C115.417586,8.22171429 115.086759,7.95857143 114.673448,7.76485714 C114.260138,7.57285714 113.75269,7.476 113.153793,7.476 C112.519931,7.47514286 111.993655,7.57714286 111.581241,7.77771429 C111.166138,7.97914286 110.842483,8.25085714 110.604,8.59371429 C110.364621,8.93742857 110.196966,9.33857143 110.101034,9.79885714 C110.002414,10.26 109.957586,10.7554286 109.95669,11.292 C109.957586,11.8105714 110.014069,12.2922857 110.126138,12.7362857 C110.24269,13.1794286 110.427379,13.5642857 110.681103,13.8908571 C110.937517,14.2174286 111.272828,14.472 111.687931,14.6571429 C112.100345,14.8414286 112.606,14.9331429 113.20669,14.9331429 C113.806483,14.9331429 114.306759,14.8345714 114.712,14.6314286 C115.119034,14.4317143 115.445379,14.1634286 115.691034,13.8291429 C115.93669,13.4931429 116.109724,13.0962857 116.206552,12.6368571 C116.30069,12.1757143 116.350897,11.6948571 116.350897,11.1917143 C116.350897,10.674 116.30069,10.188 116.193103,9.73628571 L116.193103,9.73628571 L116.193103,9.73628571 Z M127.203655,17.4077143 C126.316966,17.406 125.523517,17.2585714 124.815241,16.962 C124.109655,16.6645714 123.587862,16.0928571 123.253448,15.2425714 C123.111793,14.8354286 123.023034,14.4248571 122.988069,14.0091429 C122.952207,13.5917143 122.935172,13.1708571 122.935172,12.7474286 L122.936966,7.65257143 L120.672276,7.65257143 L120.672276,5.00228571 L122.935172,5.00228571 L122.934276,0.443142857 L126.483724,0.442285714 L126.483724,5.00228571 L129.784828,5.00142857 L129.783931,7.65257143 L126.483724,7.65342857 L126.483724,12.1602857 C126.484621,12.4328571 126.48731,12.7722857 126.496276,13.1802857 C126.506138,13.5882857 126.598483,13.9097143 126.776897,14.148 C126.935586,14.3528571 127.14,14.5011429 127.389241,14.5937143 C127.637586,14.6862857 127.902966,14.7454286 128.188069,14.7711429 C128.470483,14.7977143 128.75469,14.8028571 129.038897,14.7848571 C129.323103,14.7677143 129.570552,14.7582857 129.783034,14.7591429 L129.784828,17.4077143 L127.203655,17.4077143 L127.203655,17.4077143 L127.203655,17.4077143 Z" id="Fill-2" fill="#2D8FE2"></path>
                                </g>
                            </g>
                        </g>
                    </g>
                </g>
            </g>
        </g>
    </g>
</svg>