<?xml version="1.0" encoding="UTF-8"?>
<svg width="180px" height="22px" viewBox="0 0 180 22" version="1.1" xmlns="http://www.w3.org/2000/svg" xmlns:xlink="http://www.w3.org/1999/xlink">
    <!-- Generator: Sketch 44.1 (41455) - http://www.bohemiancoding.com/sketch -->
    <title>Logo with Robot</title>
    <desc>Created with Sketch.</desc>
    <defs></defs>
    <g id="Page-1" stroke="none" stroke-width="1" fill="none" fill-rule="evenodd">
        <g id="Superhero-LP" transform="translate(-105.000000, -64.000000)" fill-rule="nonzero">
            <g id="Logo-with-Robot" transform="translate(105.000000, 64.000000)">
                <g id="Group" transform="translate(28.000000, 1.000000)">
                    <path d="M19.2881259,12.0534247 C19.2373867,12.6287671 19.1576538,13.2113014 19.0561755,13.7938356 C18.9546972,14.3763699 18.8169766,14.9445205 18.6502623,15.5054795 C18.4835479,16.0664384 18.2805913,16.569863 18.0558894,17.0229452 C17.744206,17.684589 17.3310443,18.2527397 16.8381497,18.7202055 C16.3380067,19.1876712 15.7581307,19.5760274 15.1130186,19.885274 C14.6346209,20.115411 14.1417263,20.2880137 13.6270863,20.4174658 C13.1124464,20.539726 12.5978064,20.6260274 12.075918,20.6835616 C11.5540296,20.7339041 11.0248927,20.7554795 10.4812589,20.7626712 C9.95937053,20.7626712 9.43748212,20.7626712 8.91559371,20.7626712 L0.0507391512,20.7626712 L0.0507391512,0.0431506849 L8.90834526,0.0431506849 C9.76366237,0.0431506849 10.6334764,0.0863013699 11.5250358,0.165410959 C12.4093467,0.251712329 13.2574154,0.431506849 14.0619933,0.704794521 C14.8665713,0.985273973 15.6059132,1.38082192 16.2872675,1.88424658 C16.9613734,2.38767123 17.5195041,3.06369863 17.9616595,3.89075342 C18.4400572,4.82568493 18.7952313,5.89006849 19.0271817,7.09109589 C19.2591321,8.29212329 19.3678588,9.40684932 19.3678588,10.4496575 C19.3678588,10.9315068 19.338865,11.4708904 19.2881259,12.0534247 Z M14.185217,7.86061644 C14.0040057,6.96164384 13.7068193,6.17773973 13.2936576,5.50171233 C12.7935145,4.70342466 12.1556509,4.2 11.3873152,3.98424658 C10.611731,3.76130137 9.79265618,3.65342466 8.91559371,3.65342466 L4.4940391,3.65342466 L4.4940391,17.1236301 L8.90834526,17.1236301 C9.40848832,17.1236301 9.96661898,17.0732877 10.5827372,16.965411 C11.1988555,16.8575342 11.7279924,16.6921233 12.1701478,16.4619863 C12.6268002,16.210274 13.0037196,15.8363014 13.3009061,15.3472603 C13.5908441,14.8582192 13.8227945,14.3188356 13.9895088,13.7434932 C14.1562232,13.1681507 14.2794468,12.5856164 14.3519313,11.9886986 C14.4244158,11.3917808 14.4606581,10.859589 14.4606581,10.3993151 C14.4461612,9.60821918 14.3591798,8.76678082 14.185217,7.86061644 Z M27.0947067,20.7267123 C26.5293276,20.7267123 25.9567,20.7195205 25.3840725,20.7123288 C24.8114449,20.705137 24.2533143,20.6260274 23.7096805,20.4821918 C22.7456366,20.2304795 22.0135432,19.6982877 21.5134001,18.8856164 C21.013257,18.0657534 20.7595613,17.1955479 20.7595613,16.2606164 C20.7595613,15.5342466 20.9117787,14.8222603 21.2162136,14.1174658 C21.5206485,13.4126712 21.9773009,12.830137 22.5861707,12.3770548 C22.8616118,12.1684932 23.1877921,12.010274 23.557463,11.8952055 C23.9343825,11.780137 24.3330472,11.7010274 24.7389604,11.6434932 C25.1448736,11.5931507 25.5507868,11.5643836 25.9494516,11.55 C26.3481164,11.5428082 26.7177873,11.5356164 27.051216,11.5356164 L32.2048641,11.5356164 L32.2048641,11.2839041 C32.2048641,10.7445205 32.1323796,10.3130137 31.9874106,9.99657534 C31.8424416,9.67294521 31.6249881,9.42842466 31.3422985,9.24863014 C31.059609,9.0760274 30.7189318,8.9609589 30.320267,8.90342466 C29.9216023,8.85308219 29.4866953,8.82431507 29.0082976,8.82431507 L21.9265618,8.82431507 L21.9265618,5.59520548 L29.0082976,5.59520548 C29.2982356,5.59520548 29.5881736,5.60239726 29.8708631,5.60958904 C30.1535527,5.6239726 30.4362423,5.6239726 30.7334287,5.6239726 C32.0236528,5.66712329 33.1326657,5.93321918 34.0459704,6.42945205 C34.9592752,6.92568493 35.6261326,7.82465753 36.0392942,9.13356164 C36.2060086,9.65136986 36.3074869,10.1547945 36.3364807,10.6510274 C36.3654745,11.1472603 36.3799714,11.6650685 36.3799714,12.2044521 L36.3799714,20.7123288 L27.0947067,20.7123288 L27.0947067,20.7267123 Z M32.2048641,14.7719178 L26.6453028,14.7719178 C26.2031474,14.7719178 25.8334764,14.8869863 25.5290415,15.1099315 C25.2246066,15.3328767 25.0723891,15.685274 25.0723891,16.1599315 C25.0723891,16.4907534 25.1376252,16.7424658 25.2753457,16.9150685 C25.4130663,17.0876712 25.5870291,17.2171233 25.811731,17.3034247 C26.0291845,17.3825342 26.2756319,17.4400685 26.551073,17.4616438 C26.8192656,17.4832192 27.0874583,17.490411 27.3339056,17.490411 L32.2048641,17.490411 L32.2048641,14.7719178 Z M45.6434907,20.7482877 C44.5997139,20.7482877 43.6646638,20.5684932 42.8383405,20.2017123 C42.0047687,19.8421233 41.3886505,19.1373288 40.9972341,18.1017123 C40.8305198,17.6054795 40.7290415,17.1020548 40.6855508,16.5914384 C40.6420601,16.0808219 40.6203147,15.5702055 40.6203147,15.0523973 L40.6203147,8.83150685 L37.9528851,8.83150685 L37.9528851,5.59520548 L40.6130663,5.59520548 L40.6130663,0.0287671233 L44.7881736,0.0287671233 L44.7881736,5.59520548 L48.6733429,5.59520548 L48.6733429,8.83150685 L44.7881736,8.83150685 L44.7881736,14.340411 C44.7881736,14.6712329 44.795422,15.0883562 44.8026705,15.584589 C44.8171674,16.0880137 44.9258941,16.4763699 45.1360992,16.7712329 C45.3245589,17.0229452 45.5637577,17.2027397 45.8536958,17.3178082 C46.1436338,17.4328767 46.4553171,17.5047945 46.7959943,17.5335616 C47.129423,17.5623288 47.4628517,17.5695205 47.7962804,17.5479452 C48.1297091,17.5263699 48.4196471,17.5191781 48.6733429,17.5191781 L48.6733429,20.7554795 L45.6434907,20.7482877 Z M56.1899857,20.7267123 C55.6246066,20.7267123 55.051979,20.7267123 54.4793515,20.7123288 C53.9067239,20.705137 53.3413448,20.6260274 52.797711,20.4821918 C51.8336671,20.2376712 51.1015737,19.7054795 50.6014306,18.8856164 C50.1012876,18.0729452 49.8475918,17.1955479 49.8475918,16.2606164 C49.8475918,15.5342466 49.9998093,14.8222603 50.3042442,14.1174658 C50.6086791,13.4126712 51.0653314,12.830137 51.6742012,12.3770548 C51.9496423,12.1684932 52.2685742,12.010274 52.6454936,11.8952055 C53.022413,11.780137 53.4138293,11.7010274 53.8269909,11.6434932 C54.2329041,11.5931507 54.6388174,11.5643836 55.0374821,11.55 C55.4361469,11.5428082 55.8058178,11.5356164 56.1392465,11.5356164 L61.3001431,11.5356164 L61.3001431,11.2839041 C61.3001431,10.7445205 61.2276586,10.3130137 61.0826896,9.99657534 C60.9377206,9.67294521 60.720267,9.42842466 60.4375775,9.24863014 C60.1548879,9.0760274 59.8142108,8.95376712 59.4227945,8.90342466 C59.0241297,8.85308219 58.5892227,8.82431507 58.1035765,8.82431507 L51.0218407,8.82431507 L51.0218407,5.59520548 L58.1035765,5.59520548 C58.3935145,5.59520548 58.6834526,5.60239726 58.9661421,5.60958904 C59.2488317,5.61678082 59.5315212,5.6239726 59.8287077,5.6239726 C61.1189318,5.66712329 62.2279447,5.93321918 63.1412494,6.42945205 C64.0545541,6.93287671 64.7214115,7.83184932 65.1345732,9.13356164 C65.3012876,9.65136986 65.3955174,10.1619863 65.4317597,10.6582192 C65.4680019,11.1544521 65.4824988,11.6722603 65.4752504,12.2116438 L65.4752504,20.7195205 L56.1899857,20.7195205 L56.1899857,20.7267123 Z M61.2928946,14.7719178 L55.7260849,14.7719178 C55.2839294,14.7719178 54.9142585,14.8869863 54.6098236,15.1099315 C54.3053887,15.3400685 54.1531712,15.685274 54.1531712,16.1599315 C54.1531712,16.4907534 54.2184072,16.7424658 54.3561278,16.9150685 C54.4938484,17.0876712 54.6678112,17.2171233 54.8925131,17.3034247 C55.1099666,17.389726 55.3564139,17.4400685 55.631855,17.4616438 C55.9072961,17.4832192 56.1682403,17.490411 56.4219361,17.490411 L61.2928946,17.490411 L61.2928946,14.7719178 Z" id="Shape" fill="#FFFFFF"></path>
                    <path d="M82.7773009,20.7482877 C82.6105866,20.2736301 82.5018598,19.784589 82.4656175,19.2883562 C82.4221268,18.7921233 82.3713877,18.2958904 82.3061516,17.7996575 C82.1974249,16.8503425 82.0307105,16.0520548 81.7915117,15.4263699 C81.5523128,14.7934932 81.2116357,14.2900685 80.7767287,13.9232877 C80.3345732,13.5493151 79.783691,13.290411 79.1168336,13.1321918 C78.4499762,12.9811644 77.6309013,12.9020548 76.6741059,12.9020548 L73.1006199,12.9020548 L73.1006199,20.7554795 L68.6645684,20.7554795 L68.6645684,0.0287671233 L78.8776347,0.0287671233 C79.6459704,0.0287671233 80.4360515,0.0575342466 81.2406295,0.107876712 C82.0452074,0.158219178 82.8135432,0.287671233 83.5383882,0.496232877 C84.7706247,0.848630137 85.7346686,1.51027397 86.4232713,2.48835616 C87.1118741,3.45924658 87.4597997,4.56678082 87.4597997,5.8109589 C87.4597997,7.24212329 87.1553648,8.48630137 86.546495,9.55787671 C85.9448736,10.6222603 84.9155937,11.384589 83.4804006,11.8376712 C83.9370529,12.0030822 84.3284692,12.1613014 84.6546495,12.3195205 C84.9808298,12.4777397 85.2635193,12.664726 85.5172151,12.8804795 C85.7709108,13.0962329 85.9883643,13.355137 86.176824,13.6571918 C86.3652837,13.9592466 86.546495,14.3332192 86.7349547,14.7934932 C87.0321412,15.4767123 87.1916071,16.1815068 87.2206009,16.9078767 C87.2495947,17.6342466 87.3075823,18.3606164 87.3945637,19.0797945 C87.4597997,19.6191781 87.5830234,20.180137 87.7714831,20.7554795 L82.7773009,20.7554795 L82.7773009,20.7482877 Z M82.2844063,4.97671233 C82.1176919,4.62431507 81.89299,4.35821918 81.6103004,4.1640411 C81.3276109,3.96986301 80.9941822,3.84041096 80.5955174,3.76849315 C80.1968526,3.68938356 79.7691941,3.65342466 79.3125417,3.65342466 L73.0933715,3.65342466 L73.0933715,9.2630137 L79.3125417,9.2630137 C80.3345732,9.2630137 81.1246543,9.05445205 81.6900334,8.64452055 C82.2554125,8.22739726 82.5381021,7.45787671 82.5308536,6.3359589 C82.5308536,5.78219178 82.4511206,5.32910959 82.2844063,4.97671233 Z M104.486409,16.6273973 C104.080496,17.5695205 103.515117,18.3678082 102.79752,19.0078767 C102.079924,19.6479452 101.224607,20.1369863 100.231569,20.4678082 C99.2385312,20.7986301 98.1512637,20.9640411 96.9625179,20.9640411 C94.4183119,20.9640411 92.4467334,20.2736301 91.0477825,18.9 C89.6488317,17.5191781 88.9529804,15.5630137 88.9529804,13.0315068 C88.9529804,11.8520548 89.1486886,10.7804795 89.5473534,9.83116438 C89.9460181,8.87465753 90.4969003,8.07636986 91.2072485,7.42191781 C91.9175966,6.76746575 92.7656652,6.2640411 93.7587029,5.91164384 C94.7444921,5.55924658 95.8245112,5.38664384 96.9987601,5.38664384 C99.5429661,5.38664384 101.529041,6.07705479 102.956986,7.47226027 C104.384931,8.86027397 105.102527,10.8308219 105.102527,13.3839041 C105.095279,14.5993151 104.892322,15.685274 104.486409,16.6273973 Z M100.60124,11.3773973 C100.478016,10.8236301 100.267811,10.3417808 99.9778732,9.9390411 C99.6879351,9.52910959 99.2965188,9.20547945 98.8108727,8.97534247 C98.3252265,8.7380137 97.7308536,8.62294521 97.0205055,8.62294521 C96.2739151,8.62294521 95.6577969,8.74520548 95.1721507,8.98972603 C94.6865045,9.23424658 94.3023367,9.56506849 94.0196471,9.98219178 C93.7369576,10.3993151 93.5412494,10.8955479 93.4252742,11.4565068 C93.309299,12.0174658 93.2513114,12.6287671 93.2513114,13.2832192 C93.2513114,13.9160959 93.3165474,14.5058219 93.454268,15.0452055 C93.5919886,15.584589 93.8094421,16.0520548 94.1066285,16.4547945 C94.4110634,16.8575342 94.8024797,17.1667808 95.2881259,17.389726 C95.7737721,17.6126712 96.3753934,17.7277397 97.0712446,17.7277397 C97.7743443,17.7277397 98.3687172,17.6054795 98.8471149,17.3609589 C99.3255126,17.1164384 99.7096805,16.7928082 99.9996185,16.3828767 C100.289557,15.9729452 100.492513,15.4839041 100.608488,14.9229452 C100.724464,14.3619863 100.782451,13.7722603 100.782451,13.1609589 C100.7897,12.5280822 100.724464,11.9311644 100.60124,11.3773973 Z M122.194373,16.7712329 C121.672485,17.9291096 120.817167,18.8856164 119.628422,19.6335616 C118.773104,20.1729452 117.910539,20.4965753 117.033476,20.6044521 C116.156414,20.705137 115.228612,20.7554795 114.250072,20.7554795 L107.436528,20.7554795 L107.436528,0.0287671233 L111.611636,0.0287671233 L111.611636,5.59520548 L115.330091,5.59520548 C117.729328,5.59520548 119.599428,6.22089041 120.947639,7.47945205 C122.295851,8.7380137 122.969957,10.564726 122.969957,12.9739726 C122.977206,14.340411 122.716261,15.6061644 122.194373,16.7712329 Z M117.830806,9.95342466 C117.185694,9.20547945 116.163662,8.83150685 114.750215,8.83150685 L111.618884,8.83150685 L111.618884,17.5119863 L114.750215,17.5119863 C116.105675,17.5119863 117.113209,17.094863 117.787315,16.2534247 C118.461421,15.4119863 118.802098,14.3619863 118.802098,13.0962329 C118.79485,11.7513699 118.475918,10.7013699 117.830806,9.95342466 Z M139.844349,16.6273973 C139.438436,17.5695205 138.873057,18.3678082 138.15546,19.0078767 C137.437864,19.655137 136.582546,20.1369863 135.589509,20.4678082 C134.596471,20.7986301 133.509204,20.9640411 132.320458,20.9640411 C129.776252,20.9640411 127.804673,20.2736301 126.405722,18.8928082 C125.006772,17.5119863 124.31092,15.5630137 124.31092,13.0315068 C124.31092,11.8520548 124.506629,10.7804795 124.905293,9.83116438 C125.303958,8.87465753 125.85484,8.07636986 126.565188,7.42191781 C127.275536,6.76746575 128.123605,6.2640411 129.109394,5.91164384 C130.102432,5.55924658 131.182451,5.38664384 132.349452,5.37945205 C134.893658,5.37945205 136.879733,6.07705479 138.307678,7.46506849 C139.735622,8.85308219 140.44597,10.8236301 140.44597,13.3767123 C140.453219,14.5993151 140.250262,15.685274 139.844349,16.6273973 Z M135.95918,11.384589 C135.835956,10.8308219 135.625751,10.3489726 135.335813,9.9390411 C135.045875,9.52910959 134.654459,9.21267123 134.168813,8.97534247 C133.683166,8.7380137 133.081545,8.62294521 132.378445,8.62294521 C131.631855,8.62294521 131.015737,8.74520548 130.530091,8.98972603 C130.044444,9.23424658 129.660277,9.56506849 129.377587,9.98938356 C129.094897,10.4065068 128.899189,10.9027397 128.783214,11.4636986 C128.667239,12.0246575 128.6165,12.6359589 128.6165,13.290411 C128.6165,13.9232877 128.681736,14.5130137 128.819456,15.0523973 C128.957177,15.5917808 129.17463,16.0664384 129.471817,16.4619863 C129.776252,16.864726 130.167668,17.1739726 130.653314,17.3969178 C131.13896,17.619863 131.733333,17.7349315 132.443681,17.7349315 C133.146781,17.7349315 133.741154,17.6126712 134.212303,17.3681507 C134.690701,17.1236301 135.074869,16.8 135.364807,16.3900685 C135.654745,15.980137 135.857701,15.4910959 135.973677,14.930137 C136.082403,14.3691781 136.140391,13.7794521 136.140391,13.1681507 C136.140391,12.5280822 136.082403,11.9311644 135.95918,11.384589 Z M148.91216,20.7482877 C147.868383,20.7482877 146.933333,20.5684932 146.099762,20.2017123 C145.26619,19.8421233 144.65732,19.1445205 144.258655,18.1017123 C144.091941,17.6054795 143.983214,17.1020548 143.946972,16.5986301 C143.903481,16.0880137 143.881736,15.5773973 143.881736,15.059589 L143.881736,8.83869863 L141.214306,8.83869863 L141.214306,5.60239726 L143.874487,5.60239726 L143.874487,0.0359589041 L148.049595,0.0359589041 L148.049595,5.60239726 L151.934764,5.60239726 L151.934764,8.83869863 L148.049595,8.83869863 L148.049595,14.340411 C148.049595,14.6712329 148.056843,15.0883562 148.064092,15.584589 C148.078588,16.0808219 148.187315,16.4763699 148.390272,16.7640411 C148.578732,17.0157534 148.81793,17.1955479 149.115117,17.3106164 C149.405055,17.4256849 149.716738,17.4976027 150.057415,17.5263699 C150.390844,17.5623288 150.724273,17.5623288 151.057701,17.5407534 C151.39113,17.5191781 151.681068,17.5119863 151.934764,17.5119863 L151.934764,20.7482877 L148.91216,20.7482877 Z" id="Shape" fill="#2D8FE2"></path>
                </g>
                <path d="M13.1247559,5.04370117 C12.5673788,5.04370117 12.1247559,5.71952535 12.1247559,6.54370117 C12.1247559,7.367877 12.5755755,8.04370117 13.1247559,8.04370117 C13.6821329,8.04370117 14.1247559,7.367877 14.1247559,6.54370117 C14.1247559,5.71952535 13.6739362,5.04370117 13.1247559,5.04370117 Z M7,5 C6.44262295,5 6,5.67582418 6,6.5 C6,7.32417582 6.45081967,8 7,8 C7.54918033,8 8,7.32417582 8,6.5 C8,5.67582418 7.54918033,5 7,5 Z M19.293666,4.04400812 L19.2168906,4.02911307 L19.2168906,2.39065674 C19.2168906,1.07244414 18.1036468,0 16.7523992,0 L3.23992322,0 C1.88099808,0 0.775431862,1.07989167 0.775431862,2.39065674 L0.775431862,4.02911307 L0.69865643,4.04400812 C0.307101727,4.10358835 0,4.45362221 0,4.8408937 L0,7.51455653 C0,7.90182803 0.307101727,8.24441435 0.69865643,8.31144211 L0.775431862,8.32633717 L0.775431862,11.0148951 C0.775431862,12.3331077 1.88867562,13.4055518 3.23992322,13.4055518 L7.10172745,13.4055518 L7.10172745,14.0385917 L6.77159309,14.0385917 L5.55854127,14.5152336 L5.55854127,14.6865267 L5.10556622,14.6865267 L5.10556622,15.1482735 C4.16890595,15.1929587 3.41650672,15.9526066 3.41650672,16.8761002 L3.41650672,17.3974272 L3.23224568,17.3974272 C3.00959693,17.6134056 2.87907869,17.7400135 2.65642994,17.9559919 L2.65642994,19.4976303 L3.23224568,20.056195 L4.43761996,20.056195 L4.68330134,19.8178741 L4.68330134,19.028436 L5.15930902,19.028436 L5.15930902,17.7549086 C5.15930902,17.5612729 4.99808061,17.3974272 4.79078695,17.3974272 L4.5681382,17.3974272 L4.5681382,16.8761002 C4.5681382,16.5707515 4.79846449,16.3175355 5.10556622,16.2728504 L5.10556622,16.8909953 L5.62763916,16.8909953 L5.62763916,18.7454299 L6.26487524,19.4454976 L6.26487524,20.4062288 C5.77351248,20.4062288 5.243762,20.450914 4.54510557,21.0392688 L4.54510557,22 L9.71976967,22 L9.71976967,20.1083277 L10.3493282,20.1083277 L10.3493282,21.9776574 L15.5239923,21.9776574 L15.5239923,21.0169262 C14.8253359,20.4285714 14.2879079,20.3838863 13.8042226,20.3838863 L13.8042226,19.423155 L14.4644914,18.7230873 L14.4644914,16.8686527 L14.9635317,16.8686527 L14.9635317,16.2505078 C15.2706334,16.2877454 15.5086372,16.5484089 15.5086372,16.8537576 L15.5086372,17.3750846 L15.2629559,17.3750846 C15.0633397,17.3750846 14.8944338,17.5314827 14.8944338,17.732566 L14.8944338,19.0060934 L15.3704415,19.0060934 L15.3704415,19.8104265 L15.6161228,20.0487475 L16.8214971,20.0487475 C17.0441459,19.8327691 17.1746641,19.7061611 17.3973129,19.4901828 L17.3973129,17.9485443 L16.8214971,17.3899797 L16.6449136,17.3899797 L16.6449136,16.8686527 C16.6449136,15.9451591 15.8925144,15.1855112 14.9481766,15.140826 L14.9481766,14.6790792 L14.4952015,14.6790792 L14.4952015,14.5077861 L13.2821497,14.0311442 L12.9520154,14.0311442 L12.9520154,13.3981043 L16.7600768,13.3981043 C18.1190019,13.3981043 19.2245681,12.3182126 19.2245681,11.0074475 L19.2245681,8.31888964 L19.3013436,8.30399458 C19.6928983,8.24441435 20,7.8943805 20,7.507109 L20,4.8408937 C19.9923225,4.45362221 19.6852207,4.10358835 19.293666,4.04400812 Z M18.5070801,10.6699219 C18.5070801,11.7671981 17.6251481,12.6699219 16.5531445,12.6699219 L3.46101568,12.6699219 C2.3890121,12.6699219 1.50708008,11.7671981 1.50708008,10.6699219 L1.50708008,2.66992187 C1.50708008,1.57264561 2.3890121,0.669921875 3.46101568,0.669921875 L16.5455416,0.669921875 C17.6175452,0.669921875 18.4994772,1.57264561 18.4994772,2.66992187 L18.4994772,10.6699219 L18.5070801,10.6699219 Z" id="Shape" fill="#FFFFFF"></path>
            </g>
        </g>
    </g>
</svg>