<?xml version="1.0" encoding="UTF-8"?>
<svg width="121px" height="119px" viewBox="0 0 121 119" version="1.1" xmlns="http://www.w3.org/2000/svg" xmlns:xlink="http://www.w3.org/1999/xlink">
    <!-- Generator: Sketch 42 (36781) - http://www.bohemiancoding.com/sketch -->
    <title>Group 12</title>
    <desc>Created with Sketch.</desc>
    <defs></defs>
    <g id="Work-in-progress" stroke="none" stroke-width="1" fill="none" fill-rule="evenodd">
        <g id="Culture-1" transform="translate(-1132.000000, -1861.000000)" fill="#FFFFFF">
            <g id="Group-18" transform="translate(0.000000, 1620.000000)">
                <g id="Group-11" transform="translate(1050.000000, 210.000000)">
                    <g id="Bitmap">
                        <g id="Group-12" transform="translate(82.500000, 31.000000)">
                            <g id="Time-indicator">
                                <path d="M116.857813,58.8023256 L119.644091,58.8023256 L119.644091,60.1976744 L116.857813,60.1976744 L109.896097,60.1976744 L109.896097,58.8023256 L116.857813,58.8023256 Z M3.14218686,58.8023256 L0.355909153,58.8023256 L0.355909153,60.1976744 L3.14218686,60.1976744 L10.1039032,60.1976744 L10.1039032,58.8023256 L3.14218686,58.8023256 Z M59.3023256,0 L60.6976744,0 L60.6976744,9.74269006 L59.3023256,9.74269006 L59.3023256,0 Z M59.3023256,109.25731 L60.6976744,109.25731 L60.6976744,119 L59.3023256,119 L59.3023256,109.25731 Z M65.5406527,0.253020391 L66.9283576,0.39887406 L66.3464214,5.93562754 L64.9587164,5.78977387 L65.5406527,0.253020391 Z M53.6535786,113.064372 L55.0412836,113.210226 L54.4593473,118.74698 L53.0716424,118.601126 L53.6535786,113.064372 Z M71.7182752,1.15516309 L73.0831323,1.44527242 L71.9256357,6.89086608 L70.5607786,6.60075675 L71.7182752,1.15516309 Z M48.0743643,112.109134 L49.4392214,112.399243 L48.2817248,117.844837 L46.9168677,117.554728 L48.0743643,112.109134 Z M77.7675099,2.69654403 L79.0945655,3.12773053 L77.3741902,8.42250131 L76.0471346,7.99131481 L77.7675099,2.69654403 Z M42.6258098,110.577499 L43.9528654,111.008685 L42.2324901,116.303456 L40.9054345,115.872269 L42.6258098,110.577499 Z M83.62208,4.86027552 L84.8967946,5.42781502 L82.6323894,10.5137523 L81.3576748,9.9462128 L83.62208,4.86027552 Z M37.3676106,108.486248 L38.6423252,109.053787 L36.37792,114.139724 L35.1032054,113.572185 L37.3676106,108.486248 Z M89.2151897,7.62265127 L90.4235972,8.32032568 L85.5522522,16.7577428 L84.3438446,16.0600684 L89.2151897,7.62265127 Z M34.4477478,102.242257 L35.6561554,102.939932 L30.7848103,111.377349 L29.5764028,110.679674 L34.4477478,102.242257 Z M94.4934865,10.9534061 L95.6223474,11.7735716 L92.3499991,16.2775726 L91.2211382,15.4574071 L94.4934865,10.9534061 Z M27.6500009,102.722427 L28.7788618,103.542593 L25.5065135,108.046594 L24.3776526,107.226428 L27.6500009,102.722427 Z M99.3912135,14.8160476 L100.42816,15.7497182 L96.7029415,19.8869923 L95.6659952,18.9533217 L99.3912135,14.8160476 Z M23.2970585,99.1130077 L24.3340048,100.046678 L20.6087865,104.183952 L19.5718402,103.250282 L23.2970585,99.1130077 Z M103.857362,19.1682558 L104.791033,20.2052021 L100.653759,23.9304204 L99.7200881,22.8934741 L103.857362,19.1682558 Z M19.3462413,95.0695796 L20.2799119,96.1065259 L16.1426378,99.8317442 L15.2089672,98.7947979 L19.3462413,95.0695796 Z M107.843,23.962347 L108.663166,25.0912079 L104.159165,28.3635563 L103.338999,27.2346953 L107.843,23.962347 Z M15.8408352,90.6364437 L16.6610007,91.7653047 L12.1569996,95.037653 L11.3368342,93.9087921 L15.8408352,90.6364437 Z M111.299867,29.1457962 L111.997542,30.3542038 L103.560125,35.2255488 L102.86245,34.0171413 L111.299867,29.1457962 Z M16.4398754,83.7744512 L17.1375498,84.9828587 L8.70013271,89.8542038 L8.00245829,88.6457962 L16.4398754,83.7744512 Z M114.203819,34.6618124 L114.771358,35.936527 L109.685421,38.2009322 L109.117881,36.9262176 L114.203819,34.6618124 Z M10.3145793,80.7990678 L10.8821188,82.0737824 L5.79618148,84.3381876 L5.22864198,83.063473 L10.3145793,80.7990678 Z M116.509308,40.449961 L116.940495,41.7770166 L111.645724,43.497392 L111.214537,42.1703363 L116.509308,40.449961 Z M8.35427627,75.502608 L8.78546277,76.8296637 L3.49069199,78.550039 L3.05950549,77.2229834 L8.35427627,75.502608 Z M118.19567,46.4468258 L118.485779,47.811683 L113.040185,48.9691796 L112.750076,47.6043225 L118.19567,46.4468258 Z M6.95981463,70.0308204 L7.24992397,71.3956775 L1.80433031,72.5531742 L1.51422097,71.188317 L6.95981463,70.0308204 Z M119.244427,52.586704 L119.390281,53.9744089 L113.853528,54.5563452 L113.707674,53.1686402 L119.244427,52.586704 Z M6.14647236,64.4436548 L6.29232603,65.8313598 L0.755572558,66.413296 L0.609718888,65.0255911 L6.14647236,64.4436548 Z M52.0387398,0.528529101 L53.4236879,0.358478854 L54.1021651,5.88423287 L52.717217,6.05428311 L52.0387398,0.528529101 Z M65.8978349,113.115767 L67.282783,112.945717 L67.9612602,118.471471 L66.5763121,118.641521 L65.8978349,113.115767 Z M45.9032058,1.68192374 L47.2627919,1.36803855 L48.515151,6.79260172 L47.1555649,7.10648691 L45.9032058,1.68192374 Z M71.484849,112.207398 L72.8444351,111.893513 L74.0967942,117.318076 L72.7372081,117.631961 L71.484849,112.207398 Z M39.9221193,3.46878532 L41.2414475,3.01450418 L43.0539673,8.27844385 L41.7346391,8.732725 L39.9221193,3.46878532 Z M76.9460327,110.721556 L78.2653609,110.267275 L80.0778807,115.531215 L78.7585525,115.985496 L76.9460327,110.721556 Z M34.1610102,5.86953662 L35.4256258,5.27983672 L37.7784479,10.3254801 L36.5138324,10.91518 L34.1610102,5.86953662 Z M82.2215521,108.67452 L83.4861676,108.08482 L85.8389898,113.130463 L84.5743742,113.720163 L82.2215521,108.67452 Z M28.6857303,8.8578745 L29.8817777,8.13921672 L34.899634,16.4903321 L33.7035866,17.2089898 L28.6857303,8.8578745 Z M85.100366,102.509668 L86.2964134,101.79101 L91.3142697,110.142126 L90.1182223,110.860783 L85.100366,102.509668 Z M23.5481025,12.4010581 L24.6624777,11.5613162 L28.0129332,16.0075209 L26.8985581,16.8472628 L23.5481025,12.4010581 Z M91.9870668,102.992479 L93.1014419,102.152737 L96.4518975,106.598942 L95.3375223,107.438684 L91.9870668,102.992479 Z M18.8125811,16.4602676 L19.8330746,15.5086419 L23.629931,19.5802719 L22.6094375,20.5318975 L18.8125811,16.4602676 Z M96.370069,99.4197281 L97.3905625,98.4681025 L101.187419,102.539732 L100.166925,103.491358 L96.370069,99.4197281 Z M14.5283176,20.9910293 L15.4437488,19.9379462 L19.6454068,23.5903918 L18.7299756,24.6434749 L14.5283176,20.9910293 Z M100.354593,95.4096082 L101.270024,94.3565251 L105.471682,98.0089707 L104.556251,99.0620538 L100.354593,95.4096082 Z M10.7422514,25.9437035 L11.5425907,24.8007006 L16.1030161,27.9939449 L15.3026769,29.1369477 L10.7422514,25.9437035 Z M103.896984,91.0060551 L104.697323,89.8630523 L109.257749,93.0562965 L108.457409,94.1992994 L103.896984,91.0060551 Z M7.50050241,31.2640274 L8.17698095,30.0436278 L16.6981297,34.7669777 L16.0216511,35.9873773 L7.50050241,31.2640274 Z M103.30187,84.2330223 L103.978349,83.0126227 L112.499498,87.7359726 L111.823019,88.9563722 L103.30187,84.2330223 Z M4.82472178,36.8937105 L5.36992801,35.6092852 L10.49461,37.7845836 L9.94940377,39.069009 L4.82472178,36.8937105 Z M109.50539,81.2154164 L110.050596,79.930991 L115.175278,82.1062895 L114.630072,83.3907148 L109.50539,81.2154164 Z M2.758092,42.7710729 L3.16605252,41.4366942 L8.49004157,43.064401 L8.08208105,44.3987797 L2.758092,42.7710729 Z M111.509958,75.935599 L111.917919,74.6012203 L117.241908,76.2289271 L116.833947,77.5633058 L111.509958,75.935599 Z M1.51422097,47.811683 L1.80433031,46.4468258 L7.24992397,47.6043225 L6.95981463,48.9691796 L1.51422097,47.811683 Z M112.750076,71.3956775 L113.040185,70.0308204 L118.485779,71.188317 L118.19567,72.5531742 L112.750076,71.3956775 Z M0.609718888,53.9744089 L0.755572558,52.586704 L6.29232603,53.1686402 L6.14647236,54.5563452 L0.609718888,53.9744089 Z M113.707674,65.8313598 L113.853528,64.4436548 L119.390281,65.0255911 L119.244427,66.413296 L113.707674,65.8313598 Z" id="Rectangle-10"></path>
                            </g>
                        </g>
                    </g>
                </g>
            </g>
        </g>
    </g>
</svg>