<?xml version="1.0" encoding="UTF-8"?>
<svg width="725px" height="391px" viewBox="0 0 725 391" version="1.1" xmlns="http://www.w3.org/2000/svg" xmlns:xlink="http://www.w3.org/1999/xlink">
    <!-- Generator: Sketch 46.1 (44463) - http://www.bohemiancoding.com/sketch -->
    <title>Group 20 Copy 2</title>
    <desc>Created with Sketch.</desc>
    <defs>
        <path d="M724.282455,93.5631426 C713.334335,75.7043835 694.007551,65.2570095 674.233905,60.0779694 C659.5098,56.2606596 644.227117,55.1444872 629.100837,54.2515492 C609.528278,53.1130533 591.877227,52.4879968 578.449022,36.5267309 C571.924836,28.7804941 566.718893,19.8287912 559.256297,12.9754924 C541.672275,-3.18668455 512.894358,-4.25821009 493.746319,9.80556266 C493.746319,9.80556266 477.614599,3.10852801 475.693092,2.70670594 C469.447189,1.68998072 463.11175,1.33083937 456.790827,1.63518039 C442.413598,1.72709679 428.091855,3.42682257 414.093157,6.70260327 C377.025949,15.6319828 340.763093,35.1873239 319.313714,67.4000606 C318.665764,68.3822923 305.460991,67.7795592 303.29371,68.0027937 C297.105729,68.5579787 291.027632,69.9859771 285.240483,72.244249 C273.885925,77.3619821 264.695214,86.3075357 259.277797,97.514393 C258.093612,99.7467379 246.765659,101.264732 243.883399,102.693433 C239.483084,104.909663 235.600215,108.028439 232.488416,111.846047 C230.633939,114.078392 228.868834,119.145815 226.32172,120.641486 C225.548563,121.008095 224.696298,121.176864 223.841636,121.132602 C203.911588,121.779982 185.992419,128.097518 172.742959,143.701609 C171.893443,144.657293 171.45232,145.907379 171.514089,147.184067 C171.397307,149.083169 172.463151,150.858013 174.195261,151.648756 C188.472504,158.926201 202.548659,167.766286 217.652596,173.213208 C220.233628,174.164665 222.885797,174.911098 225.584398,175.445553 C189.567316,180.289741 149.99768,176.27152 124.124367,204.041891 C117.421436,211.163071 112.081435,228.977183 101.468461,230.071032 C94.3186679,230.807706 89.7159887,227.526159 82.610882,230.227296 C77.5791957,232.322303 73.1651988,235.664462 69.7859409,239.937996 C61.2285325,250.340724 57.7430084,263.84641 44.4935484,269.382625 C32.8527918,274.316108 18.0840007,273.646404 8.63286817,264.717025 C5.61654928,261.859623 -0.639519544,264.270556 0.0531166473,268.779892 C2.77105989,286.95706 12.8656121,303.212031 27.9596522,313.716995 C34.6010639,318.450442 42.040655,321.95146 49.9229224,324.052751 C61.2061894,326.999447 71.5063598,324.968013 82.8789992,324.387603 C88.5318043,324.097398 94.6985007,323.628606 97.9829368,328.986234 C99.7033557,331.798988 100.217247,335.683268 101.289716,338.629964 C103.30117,344.877986 107.614081,350.128725 113.354992,353.318793 C120.97399,357.31469 129.799515,356.66731 137.932405,358.341569 C149.327387,360.573914 157.035758,369.503293 165.727225,376.557503 C180.116183,388.165696 196.650079,393.344737 214.882051,387.719227 C234.812099,381.468662 247.368923,365.552043 264.036878,354.234054 C274.381734,347.269138 284.681905,353.117882 295.674712,354.033143 C316.319739,355.752049 325.703842,340.348869 340.763093,330.035436 C352.984771,321.664142 365.452222,325.570746 379.126201,325.436805 C395.928214,325.436805 416.819016,314.118817 409.28939,294.183977 C402.027882,275.030458 378.009046,273.110641 360.134564,276.325218 C348.493807,259.560308 323.581247,257.327963 305.326932,264.471467 C301.3669,256.772107 296.667678,249.475281 291.295463,242.683781 C302.80309,246.411954 314.096072,250.771653 325.122921,255.742998 C342.997404,263.801763 363.106196,271.369412 382.678754,273.802668 C399.92763,276.035013 410.853407,265.833197 422.605879,255.028648 C428.07994,250.005872 434.157264,244.201775 441.3294,241.634578 C452.121118,237.906563 464.52154,241.299727 475.670749,241.009522 C506.951093,240.228201 541.828677,224.021377 543.482066,188.839622 C543.995958,178.102043 543.303321,167.900227 555.524999,164.283828 C562.920566,162.051483 570.897054,162.453306 578.404336,160.66743 C593.508274,157.095678 603.227523,145.800013 612.611627,134.236466 C638.797743,101.979083 678.59081,89.0314825 718.808395,101.331703 C723.366388,102.73808 726.472079,97.1125709 724.282455,93.5631426 Z M630.441423,103.273843 C616.901502,112.203222 608.210035,124.68203 597.574718,136.491135 C591.743169,142.964935 585.263669,148.50115 576.661574,150.688848 C568.729773,152.697958 560.351109,152.296136 552.463994,154.595452 C537.739889,158.881554 533.762816,170.355806 533.472356,184.575843 C533.047837,206.095648 519.463231,221.208623 499.086321,227.414542 C479.536106,233.374902 459.471999,226.789485 440.167558,231.589027 C424.080524,235.584924 417.623367,250.496988 404.999514,259.404044 C393.381101,267.574426 379.014486,263.109736 366.480005,259.694249 C354.010521,256.283623 341.820335,251.925286 330.016061,246.657354 C302.601073,234.424105 266.561648,218.306574 236.175028,226.454633 C229.628499,228.218186 222.210589,231.477409 215.351257,229.334358 C208.871757,227.280601 204.64891,220.985388 197.342716,220.404979 C190.036521,219.824569 182.730326,223.641879 177.233923,228.620008 C169.860699,235.317042 166.442204,244.893802 160.342537,252.617715 C153.125715,261.748006 142.468055,264.627731 132.458345,269.762124 C119.365286,276.459159 109.377919,290.32202 123.521103,302.354359 C129.620771,307.578046 137.128053,308.604925 144.88111,308.337044 C152.053246,308.091486 158.890235,306.350257 166.084715,307.756634 C172.430156,308.984424 178.14999,312.221324 183.959197,315.123372 C197.767235,322.043641 213.251005,327.579856 229.047579,325.191247 C240.589421,323.708916 251.053251,317.661316 258.093612,308.404014 C265.025019,298.961379 266.468141,286.569922 261.89194,275.789455 C257.363326,266.943506 249.399344,260.342282 239.86164,257.528874 C231.945642,254.723141 223.282117,254.865821 215.462972,257.930696 C207.603322,261.167927 202.143377,268.438596 201.230415,276.883304 C200.912128,284.894467 205.268905,292.364119 212.401967,296.036823 C219.635403,299.480485 228.160657,298.790547 234.74507,294.228624 C237.138038,292.777567 238.863562,290.444145 239.548837,287.7325 C240.115004,284.914157 238.315482,282.162614 235.504735,281.548905 C232.399044,281.236377 230.20942,284.383983 227.639963,286.169859 C224.384801,288.45109 220.097308,288.626904 216.66599,286.61986 C213.234672,284.612817 211.289393,280.791335 211.686988,276.838657 C212.42431,269.293332 221.227493,265.0742 228.801804,265.386728 C239.456077,265.766162 248.851322,272.472404 252.664238,282.419519 C257.132859,295.813589 247.659383,308.24775 235.661137,313.091938 C220.19971,319.32018 202.571002,312.84638 188.494847,305.948434 C181.948318,302.756181 175.401788,299.2514 168.207309,297.666435 C159.471156,295.835912 151.070149,298.224521 142.333996,298.068257 C137.999434,298.068257 129.374996,297.086025 127.587548,291.683751 C124.995748,283.84822 134.759684,279.852323 139.652824,277.508361 C145.640775,274.628636 152.053246,272.418614 157.661365,268.757569 C170.754423,260.207688 173.815428,244.023188 185.63493,234.736633 C200.11326,223.373997 208.134434,243.19722 223.216029,240.362142 C231.103144,238.888794 238.185908,235.406336 246.318797,234.625016 C255.506273,233.761089 264.773914,234.740167 273.577383,237.50474 C272.281483,237.884239 274.873283,238.978088 276.4373,240.67467 C279.382632,243.987456 282.142489,247.460326 284.704248,251.077397 C289.963891,257.797228 294.404172,265.118746 297.931365,272.887407 C298.463044,274.375314 299.640156,275.542864 301.133202,276.063237 C302.626249,276.583609 304.274799,276.400887 305.617392,275.566221 C320.296811,267.66372 344.539078,268.869186 353.364603,284.919746 C354.660412,286.831585 357.058778,287.666644 359.263183,286.973503 C368.960089,284.629541 381.092394,283.892867 390.364782,288.31291 C404.10579,294.831357 402.027882,310.279184 387.90704,314.07417 C371.216743,318.53886 354.504102,309.855038 338.439411,319.18624 C325.569783,326.642272 315.627102,344.36709 299.361324,344.009915 C291.005003,343.831327 283.184917,339.746136 274.78391,339.857753 C266.382904,339.96937 259.94809,344.076885 253.692021,349.300572 C240.487247,360.328356 227.170758,373.454544 210.12297,378.209438 C189.612002,383.901918 176.407228,371.512404 161.705466,359.591682 C156.90186,355.25534 151.343403,351.835431 145.305629,349.501483 C137.999434,347.090551 130.157005,347.648637 122.739095,345.706497 C107.858588,341.84454 112.438924,326.195803 102.116411,318.114714 C96.06143,313.382143 87.7274526,313.650024 80.4659441,314.208111 C69.6742254,315.190342 59.8879463,316.440455 49.2973155,313.136585 C33.0217552,307.788147 19.9393136,295.534146 13.5483508,279.651412 C29.0321212,285.812684 48.7163948,282.48649 60.7816704,271.101531 C71.6180753,260.855068 75.7292063,237.951209 93.8494628,239.357587 C106.138169,240.295172 112.751728,238.821824 120.169638,228.195862 C128.637674,216.051906 134.782027,205.872413 148.791153,199.175379 C161.66078,193.148048 175.870994,190.893379 189.902462,189.687913 C207.263053,188.192242 224.780046,186.964452 241.783147,182.856938 C258.2947,178.86104 272.460228,168.659224 288.524919,179.530744 C305.215217,190.826409 320.967104,202.791778 340.338574,209.310225 C371.308053,219.687174 405.327363,215.33673 432.682619,197.50112 C442.379525,191.071967 452.791411,183.057849 459.002794,173.123914 C464.499197,164.328475 468.252839,152.787252 478.508323,148.344886 C483.007831,146.806399 487.700721,145.904714 492.450419,145.666072 C523.529675,141.647851 543.839556,116.087502 569.802241,101.666554 C578.287908,96.6665215 587.85008,93.7728343 597.686434,93.2282908 C600.635724,93.2282908 603.85313,93.2282908 606.243842,91.5317087 C615.762004,84.5667927 588.972624,77.0884373 585.308355,75.726707 C573.600569,71.2620172 560.552197,67.1321792 547.906001,68.6055268 C535.259804,70.0788744 523.328587,77.021467 510.503646,74.9900332 C501.231259,73.539009 493.366486,67.4670309 484.451588,64.4980122 C465.594009,58.1804762 449.216515,70.7709013 431.185631,73.7175966 C411.210897,76.9768201 397.492232,63.2702225 378.813398,60.1002928 C357.386362,56.4615707 336.517904,73.1371869 328.742504,93.4068784 C323.335473,107.537622 323.223757,124.659707 332.093969,136.825986 C343.444266,152.452401 365.899084,156.046476 384.868378,152.072902 C396.576164,149.617323 409.28939,143.880196 415.947635,133.075647 C422.605879,122.271098 421.555754,104.055164 408.038176,98.6528889 C397.715663,94.4337571 384.44386,102.046053 382.835156,113.073837 C382.109686,116.407692 383.147312,119.880263 385.583358,122.271098 C388.197501,124.391825 392.978925,123.565858 393.80562,120.306634 C393.921734,118.513784 393.809115,116.713459 393.470473,114.949007 C393.470473,109.636026 400.508551,106.309832 405.178259,108.832382 C409.847968,111.354931 411.501357,117.650144 409.959683,122.717567 C408.085243,127.73206 404.585165,131.97561 400.017002,134.772229 C384.890722,145.241927 357.207617,148.389533 343.511295,133.74535 C329.814973,119.101168 335.713552,95.7954874 347.466024,82.2228306 C356.395991,71.0368107 371.647552,67.0885393 384.890722,72.5344538 C396.062273,76.6642918 406.3401,83.1604154 418.405376,84.3882051 C432.146384,85.7722589 444.189317,79.6333105 456.857856,75.4588256 C465.057775,72.7130414 472.989576,71.3959579 481.301211,74.3203297 C492.472762,78.2492567 501.990924,85.6383182 514.190258,85.4820541 C526.389592,85.32579 537.382399,79.6333105 549.201901,78.8073429 C560.127678,77.9590519 571.545004,81.3522161 582.24735,85.5043775 C560.596883,91.7995901 542.610685,108.943999 523.864822,121.556747 C516.907583,126.474715 509.32633,130.445929 501.320631,133.365852 C493.277114,136.089313 485.188911,135.241021 477.167737,137.227808 C464.432168,140.397738 460.097606,152.854223 453.461704,162.74351 C434.359242,190.631726 402.061076,206.52111 368.289796,204.644624 C351.475528,203.442589 335.22635,198.07188 321.01179,189.01821 C308.164506,181.115709 296.143917,171.516626 281.933703,166.047381 C275.569471,163.487877 268.795307,162.096425 261.936626,161.939866 C252.731268,161.939866 244.062144,165.690206 235.124903,166.047381 C218.412262,166.717084 200.269662,154.461511 184.964637,145.84466 C195.867642,135.531691 210.641272,130.33017 225.606741,131.535329 C227.735437,131.99209 229.953747,131.773576 231.952182,130.910272 C233.412274,129.81142 234.54726,128.338007 235.236618,126.646494 C239.057289,119.458343 243.794027,112.895249 252.060975,110.618257 C255.444337,110.022688 258.787358,109.21749 262.070685,108.207325 C271.007926,104.501632 273.711441,93.3622315 280.660146,87.3349003 C288.945909,80.7013466 299.426735,77.4259813 310.018984,78.1599629 C313.443446,78.5098112 316.894692,78.5098112 320.319154,78.1599629 C327.871123,76.9544967 329.122337,70.5699903 333.211125,65.3016564 C351.085607,42.2192103 377.517498,27.3517934 405.312318,19.5162629 C428.794919,12.8192282 469.369994,3.17549836 490.484226,19.8957615 C492.620912,21.7066682 495.797411,21.5504243 497.745735,19.5385863 C513.140132,5.76501842 539.303906,7.21604259 553.871609,21.3914326 C560.708599,28.0884672 565.043161,36.8839061 571.209857,44.1390269 C592.770951,69.2305834 627.894309,62.6228425 657.163774,66.7973275 C675.373403,69.3868475 693.605375,75.280238 706.698433,87.8929866 C680.223272,83.3309907 652.997162,88.8080426 630.35205,103.251519 L630.441423,103.273843 Z" id="path-1"></path>
        <path d="M655.582979,66.7763415 C626.317021,62.6289674 591.197872,69.2067919 569.639362,44.1441655 C563.428723,36.9197073 559.161702,28.0675163 552.303191,21.4227986 C537.737234,7.28605025 511.554255,5.81440136 496.184043,19.5720887 C494.235952,21.581607 491.059834,21.7376708 488.923404,19.928852 C467.811702,3.22786696 427.219149,12.8604778 403.761702,19.5497909 C375.970213,27.4877758 349.58617,42.2265624 331.669149,65.2823949 C327.580851,70.5446546 326.329787,76.9217997 318.778723,78.1258761 C315.354656,78.4750113 311.903855,78.4750113 308.479787,78.1258761 C297.888807,77.3927407 287.409238,80.6643297 279.124468,87.290235 C272.176596,93.2883191 269.406383,104.437174 260.537234,108.138594 C257.254301,109.147595 253.91168,109.951864 250.528723,110.546747 C242.285106,112.776518 237.526596,119.465831 233.706383,126.556503 C233.00678,128.221679 231.872745,129.669237 230.42234,130.748473 C228.424145,131.610781 226.206101,131.829043 224.07766,131.372808 C209.113984,130.169039 194.342125,135.364563 183.440426,145.665641 C198.743617,154.294855 216.951064,166.514 233.594681,165.845069 C242.709574,165.488305 251.288298,161.630801 260.403191,161.74229 C267.26105,161.898668 274.034403,163.288516 280.397872,165.845069 C294.584043,171.308008 306.603191,180.896023 319.471277,188.789413 C333.684133,197.832645 349.931364,203.197161 366.743617,204.39781 C400.523803,206.257383 432.820898,190.359575 451.905319,162.478114 C458.607447,152.644824 462.852128,140.180404 475.608511,136.991831 C483.628723,134.985038 491.715957,135.854648 499.758511,133.134328 C507.76325,130.217771 515.343595,126.251136 522.3,121.338839 C541.043617,108.76293 559.02766,91.6382886 580.675532,85.3280365 C569.862766,81.2029601 558.558511,77.8137081 547.634043,78.6387234 C535.748936,79.5529295 524.556383,84.9935709 512.581915,85.1719526 C500.607447,85.3503342 490.82234,77.9697921 479.696809,74.0230974 C471.38617,71.1020973 463.47766,72.4176622 455.256383,75.1602806 C442.589362,79.3745479 430.547872,85.5287159 416.808511,84.0793647 C404.67766,82.8529907 394.468085,76.364357 383.297872,72.2392805 C370.056289,66.799645 354.806557,70.7433642 345.87766,81.9164868 C334.126596,95.5180902 328.407447,118.930686 341.923404,133.379602 C355.439362,147.828519 383.275532,144.885221 398.42234,134.405297 C402.989955,131.611902 406.489614,127.373245 408.36383,122.364533 C409.905319,117.302953 408.36383,110.992701 403.582979,108.495358 C398.802128,105.998014 391.809574,109.320373 391.876596,114.60493 C392.215197,116.367348 392.327803,118.165598 392.211702,119.956381 C391.385106,123.211846 386.604255,124.036862 383.990426,121.918579 C381.554672,119.530501 380.51717,116.061934 381.242553,112.731923 C382.828723,101.716854 396.121277,94.1356321 406.442553,98.3276017 C419.846809,103.835136 421.120213,121.740198 414.351064,132.710671 C407.581915,143.681145 394.981915,149.233274 383.275532,151.686023 C364.308511,155.655015 341.834043,152.131977 330.507447,136.456686 C321.571277,124.192946 321.75,107.20209 327.156383,93.0876397 C334.930851,72.8413187 355.796809,56.1849291 377.221277,59.8194559 C395.875532,62.9857307 409.592553,76.6765249 429.587234,73.4210592 C447.615957,70.4777614 463.991489,57.8126619 482.846809,64.2121048 C491.782979,67.199998 499.624468,73.131189 508.895745,74.6920287 C521.808511,76.7211203 533.715957,69.7865324 546.293617,68.3148835 C558.871277,66.8432346 571.985106,71.0575019 583.691489,75.4278531 C587.37766,76.7880135 614.16383,84.3469373 604.624468,91.2146321 C602.234043,92.9538535 599.039362,92.8200672 596.068085,92.9092581 C586.23291,93.4531737 576.671884,96.3435245 568.187234,101.337793 C542.205319,115.764411 521.920213,141.272992 490.844681,145.28658 C486.095552,145.524946 481.403224,146.425592 476.904255,147.962305 C466.65,152.421847 462.874468,163.927466 457.401064,172.712763 C451.190426,182.657542 440.779787,190.550932 431.084043,197.061863 C403.732065,214.876909 369.716831,219.222337 338.751064,208.857352 C319.404255,202.346421 303.631915,190.394848 286.943617,179.112206 C270.880851,168.253221 256.717021,178.443275 240.207447,182.434565 C223.206383,186.559642 205.691489,187.763718 188.332979,189.257665 C174.303191,190.461741 160.094681,192.736107 147.226596,198.734191 C133.219149,205.289718 127.120213,215.546665 118.608511,227.721215 C111.191489,238.357223 104.578723,239.851169 92.2914894,238.87007 C74.1734043,237.487612 69.9510638,260.342765 59.2276596,270.577414 C47.1861702,281.971544 27.4819149,285.271605 12,279.117437 C18.390197,294.981859 31.4710708,307.221731 47.7446809,312.564003 C58.3340426,315.930957 68.0968085,314.615392 78.9095745,313.634293 C86.1478723,312.987659 94.5478723,312.809278 100.557447,317.536392 C110.878723,325.608163 106.321277,341.238858 121.17766,345.096362 C128.57234,347.013965 136.41383,346.47882 143.741489,348.886973 C149.77854,351.21823 155.336331,354.634196 160.139362,358.965538 C174.839362,370.939409 188.042553,383.270042 208.551064,377.561829 C225.596809,372.834714 238.889362,359.72366 252.114894,348.686294 C258.370213,343.468629 264.804255,339.365851 273.204255,339.254362 C281.604255,339.142874 289.468085,343.201057 297.778723,343.401736 C314.042553,343.7585 323.984043,326.054118 336.852128,318.606682 C352.937234,309.308537 369.647872,317.982346 386.31383,313.500507 C400.432979,309.709896 402.510638,294.27988 388.771277,287.768949 C379.5,283.309407 367.369149,284.089827 357.673404,286.431086 C355.469264,287.123429 353.071185,286.289332 351.775532,284.379697 C342.839362,268.28075 318.711702,267.143567 304.034043,275.036956 C302.69161,275.870661 301.043257,276.053171 299.55039,275.533399 C298.057522,275.013627 296.880552,273.847423 296.348936,272.361231 C292.822166,264.601527 288.382417,257.28845 283.123404,250.576368 C280.561916,246.963494 277.802391,243.49463 274.857447,240.185635 C273.293617,238.491009 270.724468,237.398421 271.997872,237.01936 C263.195458,234.257974 253.928928,233.280026 244.742553,234.142956 C236.610638,234.945673 229.506383,238.401818 221.642553,239.873467 C206.562766,242.705276 198.542553,222.904909 184.065957,234.254444 C172.247872,243.530292 169.187234,259.696132 156.095745,268.236155 C150.488298,271.892979 144.098936,274.078155 138.089362,276.976857 C133.196809,279.340414 123.434043,283.309407 126.025532,291.135903 C127.812766,296.531949 136.41383,297.423858 140.770213,297.513048 C149.482979,297.669132 157.905319,295.283277 166.640426,297.11169 C173.834043,298.605636 180.379787,302.17327 186.925532,305.38414 C201,312.251835 218.626596,318.762766 234.08617,312.519407 C246.082979,307.680804 255.6,295.171789 251.087234,281.882353 C247.274775,271.946707 237.880655,265.248197 227.22766,264.8692 C219.654255,264.557032 210.852128,268.793597 210.114894,276.307926 C209.717347,280.256046 211.662393,284.073122 215.0933,286.077851 C218.524206,288.082581 222.811185,287.90697 226.065957,285.628369 C228.635106,283.844552 230.824468,280.700575 233.929787,281.012743 C236.740197,281.625744 238.539503,284.374115 237.973404,287.189208 C237.288212,289.897727 235.562894,292.228459 233.170213,293.677842 C226.586589,298.234506 218.062357,298.923648 210.829787,295.483957 C203.69758,291.815487 199.341325,284.354447 199.659574,276.352521 C200.572426,267.91755 206.031718,260.655263 213.890426,257.421765 C221.708634,254.360424 230.37112,254.217908 238.28617,257.020406 C247.822731,259.830571 255.785759,266.424183 260.31383,275.259933 C265.007259,286.070951 263.604219,298.555351 256.62766,308.059865 C249.571815,317.27301 239.111493,323.280211 227.585106,324.738553 C211.768085,326.968324 196.308511,321.505385 182.301064,314.63769 C176.581915,311.828178 170.840426,308.528117 164.428723,307.279446 C157.235106,305.87469 150.398936,307.613911 143.22766,307.859186 C135.475532,308.126759 127.969149,307.078766 121.870213,301.8834 C107.818085,289.864934 117.804255,276.084949 130.806383,269.328742 C140.725532,264.222567 151.493617,261.323864 158.687234,252.204101 C164.808511,244.466795 168.204255,235.012566 175.576596,228.234062 C180.982979,223.261673 188.042553,219.49336 195.682979,220.028505 C203.323404,220.56365 207.210638,226.717818 213.689362,228.947589 C220.525532,231.17736 227.942553,227.832703 234.510638,226.071184 C264.915957,217.93252 300.951064,234.031467 328.340426,246.250612 C340.143285,251.51247 352.332011,255.865782 364.8,259.272475 C377.332979,262.706322 391.608511,267.165865 403.314894,258.982605 C415.937234,250.063521 422.393617,235.190948 438.478723,231.199658 C457.780851,226.40565 477.820213,233.005772 497.390426,227.029986 C517.764894,220.808925 531.347872,205.735673 531.77234,184.24068 C532.062766,170.037038 536.039362,158.576015 550.761702,154.294855 C558.647872,152.065084 567.025532,152.399549 574.956383,150.392755 C583.579787,148.162984 590.058511,142.677748 595.867021,136.211412 C606.501064,124.415923 615.191489,111.88461 628.729787,103.032419 C651.368979,88.6608166 678.56364,83.2306936 705,87.8030824 C692.042553,75.2494714 673.812766,69.3628759 655.582979,66.7763415 Z" id="path-2"></path>
        <path d="M200.718311,369.969126 C189.070708,370.547432 179.748154,362.918241 168.950088,354.087954 L166.222627,351.8637 C160.656388,346.88477 154.203896,342.984686 147.197463,340.364309 C142.640063,339.010933 137.946817,338.160599 133.202454,337.828659 C130.139746,337.590079 127.098652,337.129173 124.103463,336.449622 C120.235832,335.448708 119.229801,333.669305 116.904752,327.085514 C115.049184,321.858518 112.768847,315.341454 106.464386,310.425853 C98.8185505,304.464853 89.4065717,304.220186 82.9679734,304.531581 C81.6265987,304.531581 80.2852241,304.709521 78.9885619,304.820734 L76.2611001,305.065402 C73.1759384,305.354555 70.2472705,305.621465 67.3186025,305.777163 C61.8127795,306.23859 56.2688513,305.665135 50.976188,304.08673 C42.4760835,301.346796 34.8814056,296.365798 29,289.673566 C29.9538664,289.673566 30.9077328,289.673566 31.8615993,289.673566 C44.3115822,289.134757 56.1777766,284.270751 65.3959655,275.927678 C69.7537938,271.501759 73.4708268,266.493566 76.4399501,261.047421 C81.7607362,252.150406 85.3824477,246.700984 90.993865,246.434074 C91.4777745,246.403866 91.9631114,246.403866 92.4470209,246.434074 C95.3088327,246.683584 98.1837705,246.750448 101.054175,246.634257 C111.74046,246.100436 119.252158,241.651928 126.160237,231.798484 L128.395861,228.573316 C135.594572,218.186052 140.781221,210.779287 151.55693,205.663503 C164.188208,199.769231 178.697411,197.900858 189.897889,196.944429 L194.637413,196.544063 C210.532703,195.209511 226.964542,193.808231 243.038682,189.871302 C247.50993,188.80366 251.556411,187.40238 255.513466,186.023343 C260.620695,183.970102 265.981945,182.608553 271.453468,181.975201 C275.657828,181.722336 279.820605,182.924737 283.235208,185.378309 L290.232713,190.138212 C304.540709,199.947171 319.29583,210.156496 337.046688,216.006283 C370.437408,227.136558 407.111223,222.457861 436.599043,203.305794 C445.362691,197.522734 457.882188,188.447779 465.37153,176.614749 C466.802329,174.390496 468.098991,171.921574 469.350941,169.60835 C472.74909,163.313712 476.057814,157.352712 481.177394,155.106216 C483.981856,154.134859 486.909051,153.558387 489.873973,153.393541 L492.914422,153.03766 C515.561298,150.123888 532.507331,137.312186 548.805033,124.923093 C556.515289,118.792177 564.650814,113.210263 573.150983,108.218948 C580.242255,104.030057 588.203164,101.511653 596.423833,100.856668 L598.122907,100.856668 L600.224394,100.856668 C603.8735,100.839572 607.433158,99.731383 610.441198,97.6759849 C614.285056,95.2118553 616.336474,90.7477458 615.694915,86.2433207 C614.375897,77.9690969 604.986274,73.3871342 589.247478,68.2491081 L587.481335,67.6708021 C575.498388,63.2222947 562.621192,59.1963955 549.676926,59.841429 C548.529306,59.841429 547.381685,59.9378134 546.234065,60.130582 C540.995967,60.8648352 535.828631,62.0329185 530.7859,63.6226604 C525.978718,65.2166853 521.006845,66.268674 515.96371,66.7588581 C514.320163,66.8482738 512.671722,66.766271 511.045336,66.5141902 C506.405949,65.4731058 501.946309,63.7567826 497.81044,61.4206492 C494.096206,59.4777597 490.248834,57.7979856 486.296974,56.3938358 C481.226042,54.6990419 475.876783,53.981886 470.535822,54.2807947 C461.593324,54.7256455 453.52272,57.6171753 445.653322,60.3974925 C440.279426,62.5002373 434.728078,64.1229306 429.064989,65.2463656 C427.969611,65.4262639 426.864979,65.5450762 425.756265,65.6022462 C417.417386,66.0248544 410.106894,62.8441716 401.656234,59.1741529 C394.54948,55.7580575 387.038162,53.2470911 379.29999,51.7006604 C376.147667,51.1711476 372.946766,50.9846944 369.753873,51.144597 C364.211301,51.4529707 358.764762,52.717366 353.657378,54.8813432 C371.072892,39.9121157 391.461786,31.6823769 407.088801,27.2338695 C418.468129,24.0087016 435.458875,19.6046792 451.622439,18.8039478 C466.601123,18.0477016 477.801601,20.5388658 484.955599,26.1662277 C487.524929,28.2585455 490.782916,29.3284508 494.099303,29.1689702 C497.340055,28.9756286 500.413301,27.6708364 502.795882,25.476709 C508.178519,20.9012861 514.968342,18.2886135 522.044609,18.0699441 C531.492921,17.4715055 540.777861,20.7328209 547.754289,27.1004142 C551.112674,30.6436792 554.10827,34.5106964 556.696787,38.6442911 C559.107229,42.3195476 561.727197,45.8544814 564.543829,49.2317388 C582.943018,70.5400894 609.658729,71.7856715 633.222211,72.8533133 C641.113965,73.2091939 648.558594,73.5650745 655.578455,74.5659887 C661.817493,75.4145974 667.977855,76.7609012 674,78.5918879 C656.6951,80.507973 640.077136,86.4100542 625.464594,95.8298543 C614.286472,103.169892 606.148799,112.645212 598.34647,121.83138 C595.954352,124.63394 593.495165,127.52547 590.991265,130.305787 C584.888011,136.978548 579.813143,140.559597 574.157014,142.005362 C570.769403,142.760512 567.333184,143.280755 563.873141,143.562339 C559.077923,143.935362 554.326473,144.739373 549.676926,145.964533 C525.375689,153.015417 524.906208,175.969716 524.749714,183.509936 C524.41437,200.592205 514.242279,213.048025 496.156078,218.541932 C491.707007,219.850414 487.11035,220.597681 482.474056,220.766186 C477.68982,221.010854 472.860871,220.766186 467.763648,220.766186 C462.666424,220.766186 457.233857,220.432548 451.846002,220.766186 C447.053062,220.964565 442.290995,221.627566 437.627431,222.745772 C425.152646,225.837484 417.506811,234.044981 410.799938,241.296048 C407.449422,245.151312 403.703023,248.64756 399.621816,251.727798 C396.807476,253.672438 393.479086,254.74789 390.053343,254.81951 C383.748882,255.130906 376.639597,253.173563 369.619736,251.260704 L367.98773,250.815854 C355.917135,247.525011 344.116136,243.323837 332.687221,238.24882 C308.095352,227.349977 277.802641,213.782029 248.806592,215.294522 C243.565062,215.542256 238.36448,216.339996 233.291359,217.674473 C231.927628,218.030354 230.541541,218.452962 229.133098,218.87557 C226.203249,219.903214 223.16577,220.597162 220.078819,220.944126 C219.062157,221.021365 218.039823,220.915884 217.060726,220.632731 C215.19227,219.868659 213.43926,218.850647 211.851721,217.607746 C207.66696,214.138763 202.568858,211.938506 197.163669,211.268622 C196.031944,211.201911 194.897243,211.201911 193.765519,211.268622 C185.199864,211.990071 177.153513,215.654637 171.006863,221.633645 C166.28626,226.312383 162.2928,231.664889 159.158053,237.514816 C157.391606,240.602655 155.427667,243.574442 153.278361,246.411831 C149.1201,251.66107 143.016845,254.396902 135.974628,257.5331 C133.40366,258.689712 130.720911,259.890809 128.060518,261.269846 C116.547052,267.186361 109.012998,276.372529 107.939898,285.870092 C107.291567,291.341757 108.431735,299.504768 117.486014,307.222928 C126.540293,314.941089 137.181865,315.408182 144.492357,315.141271 L145.43132,315.141271 C147.666944,315.030059 149.902568,314.807633 151.959343,314.585208 C154.016117,314.362783 155.715192,314.184842 157.481335,314.095872 C159.603474,313.948021 161.735831,314.060072 163.830508,314.42951 C168.281599,315.57155 172.559594,317.299477 176.551211,319.567536 L179.569304,321.080029 C190.389727,326.373753 206.776853,333.313424 224.147655,332.445965 C226.003223,332.445965 227.881148,332.179055 229.692004,331.912144 C243.439841,330.141523 255.886683,322.923141 264.210045,311.893861 C272.848238,300.074097 274.549457,284.587112 268.681294,271.190018 C263.233918,260.346353 253.53878,252.212966 241.876157,248.702813 C237.721868,247.360881 233.406423,246.575485 229.043673,246.367346 C231.100447,245.833525 233.067797,245.210734 234.990434,244.632428 C238.785171,243.320871 242.70203,242.389481 246.682749,241.852111 L249.454924,241.651928 C255.635178,241.359902 261.824125,242.004899 267.8094,243.564787 C268.323594,244.03188 268.770719,244.365518 269.083706,244.587943 C269.396693,244.810369 269.821462,245.144007 269.955599,245.277462 C272.692013,248.324055 275.259343,251.516896 277.646147,254.841753 C282.512907,261.012088 286.632463,267.73111 289.919725,274.860036 C292.01131,280.185154 297.279872,283.593196 303.020485,283.334443 C305.150672,283.223131 307.228641,282.637874 309.101383,281.621768 C313.507258,279.375412 318.350997,278.108025 323.297598,277.907264 C327.209941,277.707081 340.355412,277.907264 345.765623,287.69398 C348.26369,292.033248 353.050396,294.552969 358.061558,294.166559 C358.996183,294.119813 359.924323,293.985768 360.833732,293.766193 C364.332066,292.91498 367.901804,292.386338 371.49766,292.186973 C376.614147,291.75033 381.760868,292.551607 386.4987,294.522439 C389.561506,295.968204 391.26058,298.014518 391.08173,300.016346 C390.90288,302.018174 388.711968,304.020003 385.4256,304.909704 C383.080754,305.533071 380.674233,305.898553 378.249246,305.999589 C374.423062,306.105824 370.593901,305.99443 366.780493,305.66595 C362.401456,305.300371 358.004729,305.188969 353.612665,305.332312 C346.644685,305.522804 339.832306,307.425459 333.782677,310.870704 C328.572323,314.154835 323.750253,318.012269 319.407612,322.370096 C312.901944,328.420066 306.753977,334.158641 299.980035,334.492279 L298.996361,334.492279 C295.616954,334.252812 292.273704,333.648718 289.025476,332.690633 C284.161831,331.289894 279.131901,330.54186 274.069148,330.46638 L272.817199,330.46638 C262.063845,331.0002 254.127379,336.471865 247.800562,341.743346 C245.810856,343.389294 243.82115,345.101969 241.809088,346.814644 C231.100447,355.956327 220.034106,365.409405 207.268691,368.945969 C205.1294,369.524282 202.932805,369.867386 200.718311,369.969126 Z M223.074555,306.133044 C211.896433,306.689107 199.667568,301.417626 191.395758,297.391727 L188.802433,296.123902 C182.612918,292.742446 176.00693,290.177794 169.151295,288.494712 C165.141283,287.708669 161.045271,287.446961 156.967142,287.716223 C154.731517,287.716223 152.674743,288.027618 150.617968,288.205559 C148.561194,288.383499 146.817407,288.561439 144.917126,288.65041 C143.866382,288.65041 142.815639,288.65041 141.742539,288.65041 C139.543223,288.664461 137.355376,288.334201 135.259228,287.671738 C137.199888,286.309252 139.27479,285.146658 141.451908,284.201902 L142.502652,283.712566 C144.335864,282.822865 146.236144,282.022133 148.114069,281.19916 C152.769646,279.362327 157.257491,277.129817 161.527815,274.526398 C170.023188,269.010249 174.941562,261.180876 179.233961,254.129992 C182.565041,248.747298 185.717271,243.653757 190.121452,240.228406 C191.168606,239.278227 192.475832,238.658905 193.877301,238.449003 C195.84465,238.449003 198.706249,240.028223 201.769055,241.785384 C206.23216,244.725848 211.253999,246.724367 216.524176,247.657413 C214.837941,248.109124 213.186729,248.681507 211.583446,249.370089 C200.873294,253.79541 193.500462,263.749893 192.424145,275.23816 C191.844928,286.495868 197.975637,297.039337 208.073516,302.15163 C212.63503,304.396868 217.702315,305.43122 222.783924,305.154372 C228.542341,304.890009 234.107729,303.008327 238.835708,299.727193 C239.312641,299.386141 239.77467,299.037674 240.221795,298.681794 C237.887849,301.092986 235.069325,302.987708 231.949984,304.242428 C229.147059,305.353344 226.177808,305.992282 223.16398,306.133044 L223.074555,306.133044 Z M221.218987,278.619025 C220.840197,278.646941 220.461036,278.569955 220.123531,278.3966 C219.509314,277.972849 219.148579,277.271742 219.162213,276.528227 C219.341063,274.637611 223.052199,272.658025 226.763336,272.480085 L227.791723,272.480085 C228.722984,272.520755 229.64975,272.632294 230.563897,272.813723 C227.950798,273.780006 225.578892,275.29759 223.611105,277.26223 C223.096912,277.707081 222.582718,278.174174 222.225018,278.418842 C221.939338,278.555726 221.625453,278.624277 221.308412,278.619025 L221.218987,278.619025 Z M377.533846,195.609876 C374.421184,195.77859 371.301598,195.77859 368.188936,195.609876 C352.719458,194.491009 337.774452,189.552516 324.706041,181.241197 C321.129042,179.016944 317.507331,176.659235 313.9974,174.323768 C304.764272,168.20707 295.218155,161.89019 284.263596,157.68635 C276.984164,154.780501 269.235159,153.212959 261.393158,153.059903 C260.513812,153.059903 259.641919,153.059903 258.777477,153.059903 C254.175026,153.402694 249.611726,154.146971 245.140168,155.284156 C241.591145,156.192905 237.971576,156.803019 234.319746,157.108044 L234.051471,157.108044 C223.387543,157.530653 210.800977,150.969104 199.198087,144.340828 C205.060849,141.121338 211.580806,139.265795 218.267963,138.913649 C220.213182,138.815224 222.16294,138.852385 224.102943,139.024862 L224.460643,139.024862 C225.86336,139.179552 227.275598,139.231591 228.685973,139.180559 C231.047482,139.093799 233.351074,138.429155 235.392846,137.245459 C238.209098,135.517765 240.461192,133.01443 241.876157,130.038877 C245.810856,122.632112 249.231361,119.184518 253.724966,117.938936 C254.686285,117.672026 255.804097,117.471843 256.988978,117.249418 C259.635172,116.852321 262.229275,116.166067 264.724238,115.203104 C272.325361,112.044664 276.550691,105.549843 279.948841,100.322847 C281.487868,97.6681347 283.366568,95.2232937 285.537902,93.0495371 C291.093571,88.5522633 297.985016,86.0035926 305.144328,85.79847 C306.44099,85.79847 307.760008,85.79847 309.05667,85.79847 L311.292295,85.9319252 C313.522336,86.1245413 315.761978,86.1839613 317.999168,86.1098655 C319.025049,86.0617389 320.047513,85.957785 321.061974,85.79847 L322.202142,85.5760446 C321.546359,86.9550819 320.94274,88.3637759 320.391286,89.8021267 C313.416138,107.929795 315.092856,127.458742 324.750754,140.759779 C334.721639,154.52791 352.561922,161.80122 373.666216,160.778063 C377.785069,160.569961 381.881278,160.041947 385.917438,159.198843 C395.508267,157.197014 413.013206,151.591895 422.33576,136.55594 C427.710278,127.736498 429.036513,117.051064 425.979827,107.195791 C423.807641,100.191511 418.83575,94.3842792 412.230737,91.1366789 C413.818031,91.4480744 415.42768,91.6927423 417.104398,91.8706826 C419.540713,92.1132569 421.991943,92.1727389 424.437247,92.0486229 C434.206925,91.5592871 442.948217,88.3563618 451.398877,85.2424066 C453.925133,84.30822 456.473744,83.3740334 459.022356,82.528817 C462.533372,81.2997052 466.196107,80.5514287 469.909847,80.3045633 C472.702178,80.1432967 475.498851,80.5364688 478.136945,81.4611752 C481.426892,82.6876133 484.65054,84.083362 487.794842,85.6427722 C495.261828,89.1793356 503.734845,93.1829923 513.906936,93.0272946 L515.650723,93.0272946 C522.106323,92.5113305 528.490118,91.3260478 534.698243,89.4907312 C539.527552,88.0762491 544.472365,87.0863623 549.47572,86.5324737 L550.414682,86.5324737 C552.938447,86.4213118 555.467147,86.5329615 557.971093,86.8661118 C549.650502,91.9613304 541.612881,97.5003917 533.893418,103.459045 C528.729126,107.284761 523.877821,110.910295 518.914734,114.224433 C512.54544,118.703877 505.616194,122.337808 498.302277,125.034306 C494.544657,126.115213 490.673317,126.757154 486.766455,126.947164 C482.732457,127.210669 478.725681,127.790779 474.783508,128.682082 C461.369762,131.99622 455.177082,142.650395 450.19164,151.213772 C448.872621,153.438026 447.643028,155.528824 446.32401,157.463925 C430.698919,180.189487 405.267124,194.310441 377.623271,195.609876 L377.533846,195.609876 Z M371.542373,134.732052 C365.886243,135.021205 355.445877,134.442899 348.895498,127.458742 C338.991681,116.893537 343.351149,98.2542908 353.076115,87.0440521 C357.32298,81.6863756 363.649261,78.3656089 370.491629,77.9023693 C374.229589,77.766403 377.956382,78.3868983 381.446189,79.7262573 C384.710201,80.9273543 387.907144,82.3508767 391.282936,83.8411267 C395.195279,85.5760446 399.174691,87.3554476 403.355308,88.8012125 C402.231253,88.7278247 401.103571,88.7278247 399.979515,88.8012125 C387.191744,89.4462461 375.812416,99.3219326 374.090985,111.31066 C372.901932,117.486797 375.077708,123.828719 379.814183,127.992563 C382.171667,129.871064 385.08846,130.91921 388.10835,130.973063 C382.846665,133.170582 377.241425,134.442468 371.542373,134.732052 L371.542373,134.732052 Z M401.49974,119.673854 C401.609133,118.631288 401.609133,117.580223 401.49974,116.537656 C401.798988,117.547858 401.79121,118.623555 401.477384,119.629369 L401.49974,119.673854 Z" id="path-3"></path>
        <path d="M200.848916,362.980087 C192.387803,363.404326 184.61876,356.996095 174.751183,348.890912 L172.027553,346.658079 C165.681585,341.048422 158.345239,336.671671 150.394787,333.752305 C145.309032,332.205597 140.068214,331.224662 134.767402,330.827294 C132.162779,330.619875 129.574831,330.239454 127.020684,329.688549 C126.484888,328.594461 125.681194,326.316971 125.390971,325.490823 C124.944474,324.19578 124.431003,322.766767 123.828232,321.226112 C130.704764,323.829778 138.054398,324.948376 145.394024,324.508376 L146.398641,324.508376 C148.921348,324.374406 151.176156,324.151123 153.341665,323.92784 C155.507174,323.704557 156.913639,323.548258 158.498702,323.481273 C159.989623,323.364252 161.489285,323.431747 162.96367,323.682228 C166.654171,324.729674 170.200976,326.229615 173.523317,328.147894 L176.626469,329.710877 C188.257709,335.426929 205.916654,342.929248 225.182987,341.96913 C227.303847,341.96913 229.424706,341.656533 231.500916,341.343937 C234.282474,340.93671 237.034335,340.347466 239.73878,339.579999 L237.149099,341.812831 C227.147573,350.409238 216.788849,359.295913 205.894329,362.354894 C204.242276,362.757293 202.549206,362.967087 200.848916,362.980087 Z M299.591665,327.254761 C296.837848,327.00422 294.115732,326.480654 291.465425,325.691778 C285.921949,324.067068 280.185072,323.195887 274.40925,323.101692 L272.868837,323.101692 C270.470945,323.221748 268.088065,323.550472 265.747214,324.084138 C267.772139,322.055611 269.631065,319.867858 271.306098,317.541938 C281.680213,303.278558 283.719228,284.584667 276.664059,268.419614 C276.321745,267.690222 275.964547,266.945944 275.592467,266.186781 C278.362318,270.088598 280.726152,274.263364 282.647115,278.645989 C286.034485,287.222933 294.513014,292.684535 303.72176,292.221613 C307.06917,292.049856 310.334949,291.126442 313.27679,289.519885 C316.610501,287.843301 320.264205,286.89928 323.992711,286.751172 C325.912647,286.751172 335.623951,286.483232 338.816402,292.310926 C340.236564,294.942537 342.218223,297.229424 344.620859,299.009425 C339.496972,300.051982 334.579412,301.930301 330.065066,304.569179 C324.327853,308.169228 319.01776,312.408978 314.236758,317.207013 C309.079721,322.029932 303.788735,326.986821 300.015837,327.187776 L299.591665,327.254761 Z M101.972218,299.455991 C95.9415764,297.533038 89.6001804,296.775286 83.2863303,297.223158 C81.835216,297.223158 80.3841017,297.401785 78.977637,297.535755 L76.2316822,297.781367 C73.2178293,298.071635 70.4049,298.339575 67.7259197,298.473545 C63.2178419,298.883001 58.6730069,298.436022 54.3310182,297.156173 C52.8557728,296.683357 51.4096039,296.124184 50,295.481549 C58.1770435,292.846806 65.6760858,288.448813 71.9676385,282.598103 C76.7762113,277.645422 80.87127,272.046714 84.1346741,265.963498 C85.6974126,263.328755 90.4302778,255.357541 92.037666,255.290556 L92.4618379,255.290556 C95.6536791,255.569961 98.8601402,255.644541 102.061517,255.51384 C115.456419,254.84399 125.078423,249.172594 133.472561,237.115297 L135.705045,233.855361 C142.648069,223.785284 146.867463,217.711979 155.551824,213.625894 C163.371247,210.218773 171.642911,207.962512 180.109144,206.927396 C174.951397,209.221408 170.212893,212.360781 166.089147,216.215981 C160.754241,221.465058 156.238797,227.486592 152.694245,234.078644 C151.101764,236.895513 149.33465,239.609985 147.403259,242.206156 C144.478706,245.912658 139.500267,248.145491 133.182339,251.003517 C130.503358,252.209247 127.735079,253.459633 124.8775,254.933303 C110.946802,262.123025 101.793619,273.733756 100.32018,285.969681 C99.8343006,290.532307 100.39942,295.145627 101.972218,299.455991 Z M185.690353,286.058994 C181.158567,283.96014 176.412946,282.358055 171.536407,281.280731 C170.598764,281.079776 169.638796,280.923478 168.678828,280.76718 C177.430163,274.358949 182.609525,265.963498 186.806594,259.131029 C189.043387,254.983455 191.854271,251.172382 195.156083,247.810566 C196.026752,248.279461 197.120669,248.882326 197.969012,249.395878 C190.27764,256.009253 185.524374,265.404845 184.75271,275.520023 C184.52752,279.075033 184.843676,282.64363 185.690353,286.103651 L185.690353,286.058994 Z M267.868074,255.804108 C266.38878,254.264363 264.815591,252.817697 263.157533,251.472412 L264.407724,251.740352 L264.630972,251.918979 C265.724889,253.169365 266.908106,254.486737 267.868074,255.848765 L267.868074,255.804108 Z M389.962601,247.140716 C384.984163,247.386328 378.465311,245.600062 372.102732,243.858452 L370.450695,243.411885 C358.794358,240.21967 347.398055,236.144126 336.36067,231.220618 C311.133606,220.056453 279.767211,205.922621 248.847313,207.485604 C243.032243,207.762173 237.262699,208.652812 231.634865,210.142675 C230.206075,210.522257 228.710311,210.968823 227.169898,211.437718 C224.879242,212.236857 222.516702,212.812629 220.11525,213.157 L220.02595,213.157 C219.467829,212.866731 218.128339,211.95127 217.146046,211.259092 C213.129462,208.223774 208.58897,205.953172 203.751145,204.560593 C217.74122,203.554229 231.636334,201.501729 245.319989,198.420302 C250.097504,197.259229 254.383873,195.763231 258.536292,194.334218 C262.920831,192.555471 267.510797,191.332789 272.199092,190.694701 C274.599462,190.546787 276.973972,191.259251 278.896543,192.70425 L285.839566,197.460184 C300.596283,207.619574 315.866471,218.113889 334.619333,224.455134 C363.072008,233.973088 394.012789,232.830481 421.686193,221.239855 C415.436341,225.457502 409.782113,230.496786 404.875592,236.222163 C401.940754,239.656558 398.664491,242.78371 395.097313,245.555405 C393.583172,246.591771 391.797167,247.158722 389.962601,247.185373 L389.962601,247.140716 Z M432.111891,216.372279 C435.296901,214.66044 438.400053,212.799746 441.421348,210.790197 C450.820104,204.560593 464.259655,194.736128 472.676118,181.406116 C474.261181,178.883014 475.600672,176.359913 476.917837,173.926125 C479.507518,169.103206 482.186498,164.123989 484.776179,162.985244 C486.837253,162.400737 488.9556,162.041385 491.094108,161.913484 L494.286559,161.533903 C506.583475,159.777709 518.398944,155.555069 529.024004,149.119352 C521.210311,157.15755 517.124866,168.745953 516.812319,183.817575 C516.477446,200.898747 504.265761,208.200111 494.063311,211.303748 C490.263883,212.406218 486.341443,213.028806 482.387422,213.157 C477.922455,213.380283 473.323538,213.157 468.412074,213.157 C463.054114,212.978373 457.539879,212.822075 451.802397,213.157 C446.488531,213.386995 441.209763,214.134813 436.041062,215.389832 C434.59739,215.628001 433.287666,215.955483 432.111891,216.372279 Z M377.505343,187.948316 C374.694497,188.101444 371.877401,188.101444 369.066555,187.948316 C354.954794,186.902042 341.326983,182.351053 329.417646,174.707617 C325.979621,172.608754 322.452297,170.241951 319.014273,168.009118 C309.392268,161.600888 299.480041,155.014031 287.759502,150.459052 C279.579841,147.183009 270.873223,145.42023 262.063616,145.256551 C261.021791,145.256551 259.979965,145.256551 258.938139,145.256551 C253.87631,145.618487 248.856167,146.425422 243.935849,147.668011 C240.851975,148.468461 237.709039,149.020988 234.537094,149.320307 L234.313845,149.320307 C230.985735,149.32942 227.682456,148.747287 224.557892,147.601026 C226.277744,147.785916 228.008753,147.845616 229.737254,147.779652 C233.400758,147.600255 236.964734,146.527062 240.118303,144.653686 C244.145812,142.112954 247.360991,138.471098 249.383109,134.159371 C253.222981,126.902665 255.276866,126.344456 256.08056,126.098845 C256.884254,125.853233 257.665624,125.741591 258.625592,125.562965 C261.843516,125.067222 264.995989,124.21345 268.024347,123.017535 C277.981224,118.864466 283.160586,110.826268 286.955808,104.953917 C288.117029,102.966907 289.478493,101.103953 291.018928,99.3941631 C295.222644,96.1012206 300.391819,94.2811353 305.730995,94.2139908 C306.757938,94.2139908 307.807205,94.2139908 308.856472,94.2139908 L310.530835,94.2139908 C305.530072,112.835817 308.298351,132.17215 318.232903,145.904073 C329.864143,162.025126 350.246718,170.465234 374.044993,169.371146 C378.548203,169.137161 383.026548,168.554885 387.439895,167.629537 C398.31209,165.396704 418.203519,158.876832 429.098038,141.170467 C435.7077,130.255326 437.332745,117.033511 433.563006,104.842275 C432.950541,103.054492 432.204267,101.315403 431.330522,99.6397748 C439.041847,98.1563721 446.587277,95.9125829 453.856281,92.941276 C456.423638,91.9811579 458.812395,91.1103531 461.223477,90.3065332 C464.019572,89.2815685 466.940321,88.6357492 469.907838,88.3862969 C471.626406,88.2746892 473.349857,88.5100872 474.975576,89.0784751 C478.015978,90.2133188 480.996498,91.5025956 483.905511,92.941276 C491.763853,96.670107 501.542131,101.336728 513.642192,101.158101 L515.673752,101.158101 C518.458917,101.006554 521.232305,100.685924 523.978591,100.197983 C520.562891,102.721084 517.28114,105.132544 513.932415,107.365377 C508.177264,111.449657 501.919305,114.774249 495.313502,117.256826 C492.172274,118.117718 488.94515,118.62695 485.691497,118.775153 C481.241163,119.080649 476.821953,119.737661 472.475195,120.740046 C455.843192,124.893115 448.275073,137.754232 442.738513,147.154459 C441.488322,149.387292 440.305106,151.2852 439.144215,153.004481 C425.164613,173.622342 402.373356,186.542986 377.505343,187.948316 L377.505343,187.948316 Z M542.709128,140.009394 C546.549,137.263009 550.232598,134.44964 553.871546,131.725584 C561.271159,125.8153 569.074029,120.428538 577.223325,115.60453 C583.210957,112.016619 589.93725,109.84035 596.891505,109.240956 L598.565868,109.240956 C596.333384,111.764057 594.100901,114.309487 592.047016,116.81026 C589.993131,119.311033 587.269501,122.436999 584.858419,125.138727 C579.92463,130.631495 576.129408,133.400208 572.133262,134.404983 C569.13069,135.060765 566.087776,135.515782 563.024729,135.767011 C557.744488,136.191952 552.513821,137.096252 547.397344,138.468739 C545.819722,138.90042 544.294192,139.406529 542.820753,139.987065 L542.709128,140.009394 Z M368.575408,126.83568 C364.556938,126.724038 358.596207,125.853233 355.180507,122.102074 C348.706304,115.157963 352.300603,100.934818 359.645474,92.4947095 C362.42854,88.827136 366.643199,86.520488 371.232064,86.153464 C373.856064,86.0781949 376.468225,86.5338756 378.911807,87.4931638 L379.961075,87.8950737 C372.629441,93.2376049 367.709538,101.264804 366.27595,110.223403 C365.355438,115.867569 366.189238,121.658319 368.664708,126.813351 L368.575408,126.83568 Z M624.10548,87.1135822 C624.074595,86.365592 624.000052,85.6200446 623.882232,84.8807493 C623.656971,83.3524315 623.260057,81.8544053 622.699015,80.4150835 C626.13704,80.6383668 629.396466,80.7946651 632.767516,80.928635 L635,80.928635 C631.259037,82.7911618 627.622157,84.8558618 624.10548,87.1135822 L624.10548,87.1135822 Z M515.763051,58.4886644 C514.688941,58.548493 513.61152,58.4961101 512.548275,58.332366 C508.753751,57.3404823 505.111342,55.8382228 501.72073,53.8667002 C497.673424,51.741864 493.480751,49.9063502 489.174172,48.3739313 C483.140466,46.3480573 476.775802,45.4917246 470.42131,45.8508301 C460.330484,46.3643817 451.244276,49.6019894 443.22966,52.5493288 C438.322196,54.4709288 433.257966,55.9650357 428.093421,57.0149946 C427.302775,57.1487012 426.505281,57.2381538 425.704663,57.2829346 C419.31976,57.5955312 413.135781,54.9161317 405.322088,51.4998974 C398.864918,48.4611511 392.138304,46.0317159 385.229736,44.2431904 C393.067627,40.461116 401.216511,37.3609181 409.586132,34.9769339 C420.547626,31.8509678 436.911731,27.586257 452.204244,26.8047655 C464.9294,26.1572439 474.52908,28.1221369 479.976339,32.4315044 C484.103394,35.7732041 489.318043,37.4745904 494.621432,37.2097668 C499.735795,36.9289393 504.595134,34.8854885 508.373531,31.4267296 C512.346351,28.0850327 517.33801,26.1951499 522.527477,26.0679306 C529.678339,25.5540288 536.730465,27.9722791 542.061708,32.7664293 C545.017348,35.938366 547.663669,39.3851021 549.9647,43.059789 C551.817661,45.8061735 553.715272,48.5972146 555.903106,51.410584 C553.670623,51.410584 551.639063,51.410584 549.473554,51.410584 C548.148947,51.410584 546.816898,51.5222257 545.477408,51.745509 C539.800866,52.5347707 534.200178,53.7969899 528.733781,55.5189966 C524.527878,56.9620038 520.179477,57.950091 515.763051,58.466336 L515.763051,58.4886644 Z" id="path-4"></path>
        <path d="M548.836561,73.6434671 C536.931737,74.5393991 525.720615,79.8712866 513.72628,80.0461026 C501.731946,80.2209186 491.930606,72.9879072 480.786616,69.1201035 C472.46219,66.2574918 464.540559,67.5686117 456.305643,70.2345554 C443.617607,74.3864351 431.55614,80.3957345 417.793984,78.9753547 C405.643007,77.7734948 395.416495,71.4145633 384.22775,67.3719437 C370.964199,62.0410419 355.689166,65.9059294 346.745456,76.8557109 C338.859118,85.7621999 334.675623,97.230536 335.019651,109 C335.80198,98.7594124 339.909765,89.0296605 346.745456,81.2261105 C355.689166,70.276329 370.964199,66.4114415 384.22775,71.7423433 C395.416495,75.7849629 405.71014,82.1438944 417.793984,83.3457543 C431.55614,84.7005782 443.617607,78.6912787 456.305643,74.6049551 C464.518182,71.9171593 472.46219,70.6278914 480.786616,73.4905032 C491.975361,77.3364548 501.508171,84.5694662 513.72628,84.4165022 C525.944389,84.2635382 536.998869,78.8223907 548.836561,78.0138668 C557.997279,77.6949782 567.129915,79.1813405 575.689548,82.3842664 C577.739481,83.2524878 579.847898,83.982596 582,84.5694662 C572.5567,79.2375786 559.779153,72.8349432 548.836561,73.6434671 Z" id="path-5"></path>
        <path d="M403.63997,103.777549 C398.997497,101.483909 391.93383,104.535269 392.000468,109.388774 C392.042917,110.166096 392.146853,110.939523 392.311447,111.702893 C393.238842,109.790348 394.965453,108.304657 397.098893,107.583457 C399.232332,106.862256 401.591398,106.966802 403.63997,107.873334 C406.446148,109.393227 408.332189,112.024141 408.748912,115 C409.747384,110.643286 407.711979,106.172256 403.63997,103.777549 L403.63997,103.777549 Z" id="path-6"></path>
        <path d="M251.882586,278.063165 C248.082256,268.107744 238.718023,261.395902 228.09892,261.016151 C220.54961,260.703362 211.775485,264.948359 211.040597,272.477643 C210.944332,273.532891 211.019543,274.596821 211.26329,275.627877 C212.844414,268.925251 221.017266,265.194122 228.09892,265.484569 C238.718023,265.86432 248.082256,272.576161 251.882586,282.531582 C252.375133,283.980761 252.7111,285.478826 252.884707,287 C253.202785,283.983386 252.860787,280.933471 251.882586,278.063165 Z" id="path-7"></path>
        <path d="M212.471351,294.875902 C219.787727,298.245241 228.410732,297.570193 235.070643,293.106728 C237.491049,291.686989 239.236358,289.403928 239.92949,286.750808 C240.097243,285.709643 239.964295,284.643929 239.545302,283.671135 C238.589856,285.754759 237.01704,287.51806 235.025444,288.738398 C228.365533,293.201863 219.742529,293.87691 212.426153,290.507572 C206.248403,287.450749 202.022758,281.651496 201.126507,275 C201.126507,275.371308 201.126507,275.764458 201.013511,276.135766 C200.721111,284.008348 205.195047,291.325797 212.471351,294.875902 Z" id="path-8"></path>
        <path d="M122.938679,302.451861 C129.034855,307.718257 136.53784,308.753531 144.28646,308.48346 C151.454491,308.235894 158.287567,306.480429 165.477928,307.898305 C171.819738,309.136133 177.536298,312.399498 183.34218,315.325273 C197.231636,322.257111 212.706544,327.83859 228.494076,325.430452 C240.029312,323.936001 250.487154,317.838956 257.523485,308.505966 C262.166923,301.971359 264.430612,294.021901 263.932285,286 C263.488289,292.483254 261.269893,298.715578 257.523485,304.004773 C250.487154,313.337763 240.029312,319.434808 228.494076,320.929259 C212.684213,323.179856 197.231636,317.665894 183.230528,310.734056 C177.513968,307.898305 171.775077,304.567422 165.366277,303.307088 C158.175915,301.889212 151.342839,303.644677 144.174808,303.892243 C136.426189,304.162314 128.923203,303.104534 122.827027,297.860644 C119.412109,295.264078 117.035031,291.51868 116.127933,287.305346 C115.480354,292.324176 117.222118,297.523054 122.938679,302.451861 Z" id="path-9"></path>
        <path d="M331.055013,137.064119 C342.283969,152.874243 364.498734,156.510571 383.265237,152.490283 C394.847861,150.005835 407.425175,144.201261 414.01224,133.269689 C417.031318,128.095064 418.39155,122.085451 417.902587,116.081826 C417.600209,120.55945 416.267253,124.900826 414.01224,128.752511 C407.380967,139.684082 394.847861,145.488656 383.265237,147.973104 C364.498734,151.993393 342.261865,148.424822 331.055013,132.546941 C326.732215,126.209603 324.312443,118.721464 324.092177,111 C323.479711,120.240781 325.932634,129.422852 331.055013,137.064119 Z" id="path-10"></path>
        <path d="M378.239767,322.33426 C364.590586,322.33426 352.145744,318.580176 339.946231,326.910244 C324.91429,337.195102 315.547205,352.500215 294.939618,350.789774 C283.966747,349.87902 273.685256,344.125719 263.35916,350.989696 C246.699131,362.096454 234.187381,378.001331 214.293477,384.30997 C196.161477,389.974416 179.657565,384.798667 165.227794,373.203212 C156.529786,366.228168 148.835395,357.387188 137.48338,355.076983 C129.298332,353.410969 120.488811,354.032947 112.950538,350.078941 C107.220039,346.904584 102.91495,341.679702 100.907143,335.462448 C99.747409,332.419196 99.3236599,328.665112 97.606361,325.866209 C94.3278813,320.534965 88.1723683,321.001449 82.5298147,321.290225 C71.1777998,321.867776 60.8963089,323.889206 49.6335043,320.957022 C41.7873909,318.851827 34.384459,315.360763 27.7769726,310.649951 C13.3590557,300.589779 3.52167385,285.257796 0.411702878,268 C0.0412637651,268.757942 -0.083437742,269.611842 0.0548615448,270.443487 C2.7526212,288.48489 12.7763369,304.629063 27.7769726,315.092654 C34.40634,319.802791 41.8324392,323.286568 49.700412,325.377512 C60.9632166,328.309696 71.2447075,326.288266 82.5967224,325.710714 C88.239276,325.421939 94.394789,324.955455 97.6732688,330.286699 C99.3905677,333.085602 99.9035271,336.950754 100.974051,339.882938 C102.981858,346.100192 107.286947,351.325073 113.017446,354.499431 C120.622627,358.47565 129.432147,357.831459 137.550288,359.497472 C148.924605,361.718824 156.618996,370.60423 165.294701,377.623701 C179.657565,389.17473 196.161477,394.328265 214.360385,388.730459 C234.254289,382.510675 246.788341,366.672438 263.426068,355.410185 C273.752164,348.479568 284.033655,354.299509 295.006526,355.210264 C315.614113,356.920704 324.981198,341.593378 340.013139,331.330734 C352.212652,323.000666 364.657494,326.888031 378.306675,326.75475 C393.338616,326.75475 411.76055,317.669422 409.86483,301.564623 C408.125229,314.914946 391.82204,322.289833 378.239767,322.33426 Z" id="path-11"></path>
        <path d="M718.718404,97.5804764 C678.487797,85.2898496 638.681846,98.2273515 612.487251,130.459576 C603.100109,142.014104 593.377712,153.300959 578.268884,156.869925 C570.759171,158.654408 562.780101,158.275205 555.382139,160.483503 C543.156505,164.141693 543.849365,174.313246 543.335307,185.020145 C541.681382,220.17446 506.747805,236.324032 475.502034,237.149355 C464.326865,237.417027 451.944778,234.048816 441.149566,237.773924 C433.975107,240.249894 427.895816,246.027158 422.419983,251.157547 C410.663706,261.975975 399.734391,272.102916 382.47993,269.916925 C362.833984,267.440954 342.875133,259.901514 324.905462,251.87134 C314.258229,246.896908 302.74184,244.040564 291,243.461964 L295.470067,244.934162 C305.393617,248.257762 315.160715,251.938258 324.994863,256.354854 C325.48657,256.577914 354.407907,269.38158 367.460504,271.96908 C375.730128,273.619727 379.887291,275.850331 392.179977,274.668111 C404.226808,272.861321 413.144593,264.273497 422.576435,255.618754 C428.052268,250.599896 434.13156,244.800326 441.306018,242.235132 C452.101231,238.510023 464.505668,241.900541 475.658486,241.610563 C506.948958,240.829851 541.837835,224.635668 543.49176,189.481352 C544.005817,178.752148 543.312957,168.558289 555.538592,164.944711 C562.936553,162.714107 570.915624,163.115615 578.425337,161.331132 C593.534165,157.762166 603.256561,146.475311 612.643703,134.920784 C638.838298,102.688559 678.644249,89.7510572 718.874856,102.041684 C723.188471,103.35774 726.205767,98.2496576 724.529491,94.6806915 C723.722606,97.0790166 721.125005,98.3752427 718.718404,97.5804764 L718.718404,97.5804764 Z" id="path-12"></path>
        <path d="M147.333689,194.841098 C133.315149,201.417193 127.211383,211.706323 118.69294,223.919073 C111.270044,234.588453 104.652041,236.087087 92.3550764,235.102909 C74.2226427,233.716114 69.9969583,256.642979 59.2650617,266.909741 C47.214036,278.339621 36.9069436,283.886804 12,279.950094 C12,279.950094 12,280.129035 14.459393,280.822433 C29.5287646,285.743321 47.8400633,282.209229 59.1756292,271.383275 C70.0193165,261.116513 74.1332102,238.16728 92.265644,239.576444 C104.562609,240.515886 111.180612,239.03962 118.603507,228.392607 C127.077234,216.224593 133.225716,206.024934 147.244256,199.314632 C160.122532,193.27536 174.342295,191.016225 188.383194,189.808371 C205.755451,188.309737 223.284216,187.079515 240.298744,182.963863 C256.821393,178.96005 270.99644,168.738023 287.071927,179.63108 C303.773441,190.949122 319.535914,202.938195 338.920403,209.469556 C369.910694,219.867063 403.952866,215.508 431.326505,197.637057 C441.029928,191.195167 451.448811,183.165172 457.664368,173.211558 C463.164465,164.398694 466.920629,152.834607 477.183005,148.38344 C481.685537,146.841906 486.381581,145.938434 491.134471,145.69932 C522.234613,141.673138 542.558142,116.062153 568.538276,101.612636 C577.029645,96.6026974 586.598243,93.7032777 596.441207,93.1576554 C599.392479,93.1576554 602.612048,93.1576554 605.004366,91.4577123 C607.396685,89.7577691 607.486117,87.7670462 606.077556,86 C605.755833,86.3653117 605.396067,86.6952384 605.004366,86.9841776 C602.612048,88.7288561 599.414837,88.5946501 596.441207,88.6841208 C586.598243,89.2297431 577.029645,92.1291628 568.538276,97.1391012 C542.535784,111.610986 522.234613,137.199604 491.134471,141.225785 C486.381581,141.4649 481.685537,142.368371 477.183005,143.909906 C466.920629,148.38344 463.142107,159.92516 457.664368,168.738023 C451.448811,178.714005 441.029928,186.632162 431.326505,193.163522 C403.952866,211.034465 369.910694,215.393528 338.920403,204.996021 C319.558273,198.464661 303.773441,186.475588 287.071927,175.157545 C270.99644,164.264488 256.821393,174.486515 240.298744,178.490329 C223.284216,182.628348 205.77781,183.836202 188.383194,185.334836 C174.476444,186.542691 160.234323,188.801826 147.333689,194.841098 Z" id="path-13"></path>
        <path d="M655.535009,62.7256195 C626.306711,58.5819505 591.232752,65.1538987 569.701983,40.1136623 C563.499336,32.8956582 559.237806,24.0513754 552.38812,17.4125939 C537.840906,3.28847479 511.691619,1.81814063 496.341185,15.5635373 C494.395601,17.5712604 491.22357,17.7271848 489.089889,15.9199819 C468.005353,-0.766083058 427.465034,8.85792239 404.037771,15.5412595 C376.282044,23.4721529 349.931952,38.1977723 332.037986,61.2330076 C327.954948,66.4905661 326.705494,72.8620142 319.164147,74.0650148 C315.744485,74.4138381 312.298125,74.4138381 308.878463,74.0650148 C298.301112,73.3325345 287.835027,76.6012007 279.560918,83.2211867 C272.621986,89.2139123 269.855338,100.352808 260.997602,104.050921 C257.718878,105.058965 254.380562,105.862515 251.00197,106.456922 C242.768961,108.684701 238.016573,115.368038 234.201276,122.452376 C233.502574,124.116064 232.369998,125.562329 230.921459,126.6406 C228.925836,127.502138 226.710645,127.720205 224.584943,127.264378 C209.703053,125.927711 189.957218,134.148216 184,146 L187.123635,143.326665 C197.645505,134.78091 211.066271,130.622721 224.584943,131.719936 C226.710645,132.175764 228.925836,131.957696 230.921459,131.096158 C232.379498,129.999553 233.512887,128.529154 234.201276,126.8411 C238.016573,119.667652 242.746649,113.117981 251.00197,110.845647 C254.380562,110.251239 257.718878,109.447689 260.997602,108.439645 C269.922273,104.741532 272.621986,93.6249148 279.560918,87.6099114 C287.835027,80.9899254 298.301112,77.7212592 308.878463,78.4537396 C312.298125,78.8025628 315.744485,78.8025628 319.164147,78.4537396 C326.705494,77.2507389 327.954948,70.8792908 332.037986,65.6217323 C349.887328,42.586497 376.282044,27.7494886 404.037771,19.9299842 C427.487345,13.2466471 468.005353,3.62264165 489.089889,20.3087066 C491.22357,22.1159095 494.395601,21.9599851 496.341185,19.952262 C511.713931,6.20686533 537.840906,7.65492171 552.38812,21.8013186 C559.215494,28.4846557 563.54396,37.2621051 569.701983,44.502387 C591.232752,69.5426234 626.306711,62.9483974 655.535009,67.1143442 C670.952379,69.3421233 686.347437,73.7976814 698.641172,82.864742 C701.40782,85.0925211 702.880391,87.8104115 705,88.1668562 C694.268083,73.0402365 673.741339,65.3098432 655.535009,62.7256195 Z" id="path-14"></path>
    </defs>
    <g id="Page-1" stroke="none" stroke-width="1" fill="none" fill-rule="evenodd">
        <g id="Group-20-Copy-2" fill-rule="nonzero">
            <g id="Shape">
                <use fill="#99C7FF" fill-rule="evenodd" xlink:href="#path-1"></use>
                <use fill-opacity="0.7" fill="#061D3B" fill-rule="evenodd" xlink:href="#path-1"></use>
            </g>
            <g id="Shape">
                <use fill="#3678D8" fill-rule="evenodd" xlink:href="#path-2"></use>
                <use fill-opacity="0.7" fill="#061D3B" fill-rule="evenodd" xlink:href="#path-2"></use>
            </g>
            <g id="Shape">
                <use fill="#1B448E" fill-rule="evenodd" xlink:href="#path-3"></use>
                <use fill-opacity="0.7" fill="#061D3B" fill-rule="evenodd" xlink:href="#path-3"></use>
            </g>
            <g id="Shape">
                <use fill="#122B63" fill-rule="evenodd" xlink:href="#path-4"></use>
                <use fill-opacity="0.7" fill="#061D3B" fill-rule="evenodd" xlink:href="#path-4"></use>
            </g>
            <g id="Shape">
                <use fill="#122B63" fill-rule="evenodd" xlink:href="#path-5"></use>
                <use fill-opacity="0.7" fill="#061D3B" fill-rule="evenodd" xlink:href="#path-5"></use>
            </g>
            <g id="Shape">
                <use fill="#122B63" fill-rule="evenodd" xlink:href="#path-6"></use>
                <use fill-opacity="0.7" fill="#061D3B" fill-rule="evenodd" xlink:href="#path-6"></use>
            </g>
            <g id="Shape">
                <use fill="#122B63" fill-rule="evenodd" xlink:href="#path-7"></use>
                <use fill-opacity="0.7" fill="#061D3B" fill-rule="evenodd" xlink:href="#path-7"></use>
            </g>
            <g id="Shape">
                <use fill="#122B63" fill-rule="evenodd" xlink:href="#path-8"></use>
                <use fill-opacity="0.7" fill="#061D3B" fill-rule="evenodd" xlink:href="#path-8"></use>
            </g>
            <g id="Shape">
                <use fill="#122B63" fill-rule="evenodd" xlink:href="#path-9"></use>
                <use fill-opacity="0.7" fill="#061D3B" fill-rule="evenodd" xlink:href="#path-9"></use>
            </g>
            <g id="Shape">
                <use fill="#122B63" fill-rule="evenodd" xlink:href="#path-10"></use>
                <use fill-opacity="0.7" fill="#061D3B" fill-rule="evenodd" xlink:href="#path-10"></use>
            </g>
            <g id="Shape">
                <use fill="#122B63" fill-rule="evenodd" xlink:href="#path-11"></use>
                <use fill-opacity="0.7" fill="#061D3B" fill-rule="evenodd" xlink:href="#path-11"></use>
            </g>
            <g id="Shape">
                <use fill="#122B63" fill-rule="evenodd" xlink:href="#path-12"></use>
                <use fill-opacity="0.7" fill="#061D3B" fill-rule="evenodd" xlink:href="#path-12"></use>
            </g>
            <g id="Shape">
                <use fill="#122B63" fill-rule="evenodd" xlink:href="#path-13"></use>
                <use fill-opacity="0.7" fill="#061D3B" fill-rule="evenodd" xlink:href="#path-13"></use>
            </g>
            <g id="Shape">
                <use fill="#122B63" fill-rule="evenodd" xlink:href="#path-14"></use>
                <use fill-opacity="0.7" fill="#061D3B" fill-rule="evenodd" xlink:href="#path-14"></use>
            </g>
        </g>
    </g>
</svg>