<?xml version="1.0" encoding="UTF-8"?>
<svg width="325px" height="152px" viewBox="0 0 325 152" version="1.1" xmlns="http://www.w3.org/2000/svg" xmlns:xlink="http://www.w3.org/1999/xlink">
    <!-- Generator: Sketch 46.1 (44463) - http://www.bohemiancoding.com/sketch -->
    <title>Group 19</title>
    <desc>Created with Sketch.</desc>
    <defs>
        <path d="M324.916174,95.8869037 C325.194389,94.7936136 324.765904,93.6421892 323.841115,92.9980058 C318.190499,88.6909217 312.841424,83.989897 307.046593,79.8666519 C301.251762,75.7434068 294.093442,74.6141103 288.311721,70.556522 C282.844652,66.7615607 278.68863,61.3645743 274.807929,56.1120327 C267.243184,45.7382631 261.697452,33.7887311 253.201862,24.1109233 C245.029754,14.5067531 234.560677,7.1337503 222.772444,2.6805537 C217.651962,0.656988568 212.156536,-0.238727781 206.659667,0.0542829177 C195.777971,0.986609044 189.616047,11.2684591 178.957228,12.9230097 C172.336437,13.9472553 165.518989,10.6906796 159.068634,9.69269668 C140.949954,6.86945559 119.094788,12.5947259 114.493011,32.7907482 C113.077079,38.9624845 112.408445,44.9241192 104.974804,45.7645258 C100.47791,46.2635173 95.9023535,45.213009 91.3923492,45.4625047 C82.2936779,45.9483648 75.5024505,51.4766648 68.8816594,57.1888037 C50.3958862,73.117136 26.06284,76.4393685 4.12901114,65.0676161 C1.67735185,63.7544807 -0.708755052,66.735298 0.195867894,69.0070222 C4.66654071,80.4313001 14.7222769,88.5596082 25.6039732,93.5889167 C33.6275855,97.4364034 42.3329425,99.6687336 51.0251891,101.782882 C62.2084264,104.501072 72.329715,106.707139 78.426087,117.343536 C81.3890549,122.517289 83.4473999,128.229428 87.0527812,132.982978 C95.4434868,144.184023 111.962688,147.821408 124.443863,141.689066 C124.443863,141.689066 133.057447,147.269891 134.132506,147.690095 C137.631822,148.941801 141.252682,149.82205 144.935539,150.316366 C153.247063,151.76827 161.694753,152.283602 170.120766,151.852734 C192.408578,150.605255 215.430577,143.041596 231.189371,126.640534 C231.674458,126.141543 239.226093,127.874882 240.51092,127.95367 C244.142231,128.280192 247.801411,128.090089 251.379506,127.389022 C258.48813,125.607039 264.741518,121.371027 269.039319,115.426358 C269.970163,114.218274 276.656506,114.559689 278.465752,114.034435 C281.234697,113.209233 283.7989,111.808757 285.991166,109.924321 C287.302214,108.821287 288.849251,106.076834 290.47495,105.485923 C290.961163,105.363081 291.470221,105.363081 291.956434,105.485923 C303.532985,107.206131 314.532676,105.407135 323.828004,97.7778186 C324.424715,97.3152192 324.815622,96.6359384 324.916174,95.8869037 Z M317.049888,95.26973 C309.690223,100.083457 300.638738,101.548315 292.13998,99.3010557 C290.956438,98.81244 289.64995,98.7068362 288.403494,98.9990345 C287.443512,99.482447 286.632449,100.217651 286.056719,101.126314 C283.106861,104.895012 279.671916,108.177851 274.663714,108.637448 C272.64832,108.625999 270.634164,108.740024 268.632894,108.978863 C263.126494,110.186948 260.360183,116.358684 255.719074,119.103137 C250.241042,122.073091 243.847889,122.869992 237.810162,121.335468 C235.873945,120.757843 233.883973,120.379454 231.871115,120.206171 C227.387332,120.114252 225.997622,123.68598 223.087096,126.299119 C210.238828,137.74966 193.470527,143.593112 176.584232,145.273926 C162.333143,146.692112 137.882102,148.018379 127.446162,136.081978 C126.402156,134.815857 124.557916,134.574921 123.224589,135.530461 C112.906643,141.886036 97.9344775,138.301177 91.0121454,128.583975 C87.734526,124.07992 86.2137106,118.512226 83.3818475,113.666757 C73.5489894,96.8848866 52.5853359,97.0424628 36.1185762,91.5535569 C25.8661828,88.1525362 15.9677723,82.8343379 9.72718502,74.1676443 C24.5181237,79.5881794 40.7957968,79.2885155 55.3778676,73.3272377 C64.1356666,69.6110645 70.4418062,63.2686206 77.823005,57.5433503 C81.8610321,54.4049567 86.1874897,51.8706054 91.3923492,51.5160588 C96.1776735,51.187775 100.989219,52.2908087 105.813874,51.7918173 C114.75522,50.8463598 118.268828,44.622098 119.920748,36.4281332 C122.424849,24.0190038 131.838172,16.7311024 144.253794,15.2209967 C156.118777,13.8159418 167.013583,19.7250511 178.655687,18.9765639 C186.351538,18.4775724 191.844828,12.896747 197.862537,8.81289597 C211.851416,-0.628547485 232.133325,12.266442 242.687259,21.7078855 C251.75971,29.8361936 257.108785,40.1705691 263.559139,50.2685802 C266.771206,55.2716261 269.996384,60.3009346 273.523102,65.0938788 C274.571941,66.512065 278.41331,72.9726911 280.58965,72.8282462 C272.428809,73.0408226 264.596835,69.6046666 259.219571,63.4524595 C251.353285,55.639304 243.81476,47.7604916 233.968792,42.3241111 C217.1985,33.10407 197.142461,32.059534 179.507868,39.4877387 C173.24106,42.1927976 166.397391,45.7382631 161.756282,50.8463598 C157.665813,55.3635455 154.28331,61.6403327 147.898507,63.137307 C145.14131,63.5565968 142.339109,63.5875364 139.573354,63.2292265 C121.218685,62.3100317 106.79716,74.9686569 90.3041796,80.6020077 C84.881513,82.619535 79.0545919,83.3040276 73.3130008,82.5979735 C71.5955282,82.3353464 69.7600614,81.9282745 68.1999146,82.689893 C61.9724378,85.7232357 76.6561725,92.8535609 78.6882966,94.0353828 C84.9944362,97.79095 92.0740941,101.599043 99.5470662,102.071771 C107.020038,102.5445 114.558563,99.7606531 121.834878,102.295004 C127.079069,104.107131 130.94666,108.440478 135.771315,111.093011 C145.997488,116.726362 156.748079,111.093011 167.498671,111.342507 C179.376764,111.552609 185.853339,120.915264 196.341721,124.697094 C208.324698,129.043572 222.130031,121.584963 228.737711,110.659677 C233.339489,103.043492 235.174956,93.2081075 231.359807,85.1848502 C226.456488,74.9030001 213.844209,70.5171279 202.516756,70.8322804 C195.240441,70.9898567 187.374155,72.9858225 182.379063,78.5403852 C177.383971,84.0949479 176.112255,94.6919505 183.336128,99.3010557 C188.855639,102.820259 197.325007,99.8131785 199.396463,93.6020481 C200.166074,91.7449696 199.928365,89.6220222 198.76716,87.9818286 C197.456112,86.4848543 194.624249,86.4585916 193.811399,88.257587 C193.556573,89.2838788 193.433217,90.338486 193.444306,91.3959806 C192.946108,94.416192 188.488545,95.6505393 186.063107,93.7070989 C183.637669,91.7636585 183.323017,87.9424346 184.752059,85.2242443 C186.358914,82.5186056 188.823397,80.4292421 191.753054,79.2888723 C201.585912,74.8110807 217.895346,75.900983 224.267038,85.8545493 C230.638731,95.8081155 224.804568,108.624317 216.584299,115.268782 C210.225695,120.788667 200.988721,121.431145 193.929394,116.844544 C187.885463,113.272816 182.654383,108.440478 175.771382,106.470775 C167.983759,104.225313 160.379682,106.470775 152.618279,107.652597 C147.596966,108.374821 142.877194,108.322296 138.393411,105.761682 C132.401923,102.295004 127.65593,97.0424628 120.589383,95.8475096 C113.522835,94.6525564 106.626724,96.6879162 99.6126186,95.9656918 C93.2147056,95.3091241 87.0396707,92.1707305 81.2579501,88.6383963 C94.3684276,87.2596041 106.600503,79.2100842 118.740805,73.8918859 C123.282737,71.7886984 128.084021,70.3005357 133.018115,69.4666196 C137.947655,68.7312638 142.523211,70.0706619 147.374088,69.7555094 C155.056828,69.256518 158.858866,62.467608 163.722853,57.4776935 C177.66625,43.3226767 197.981921,37.496151 217.292264,42.1140095 C226.871872,44.5682277 235.689919,49.3746527 242.949469,56.0989014 C249.504708,62.021142 255.483085,68.8231833 263.100273,73.4848139 C266.507993,75.6304855 270.274181,77.1429185 274.217958,77.9494742 C279.462149,78.9737198 284.876776,77.6474531 290.186519,78.3828089 C299.914494,79.6959443 309.104938,88.6777904 317.036777,95.26973 L317.049888,95.26973 Z" id="path-1"></path>
        <path d="M185.158276,93.7774361 C182.709087,91.8692445 182.420947,88.0397913 183.848549,85.3343415 C185.453785,82.6413844 187.915785,80.5618139 190.842491,79.4267892 C200.665444,74.9699853 216.958447,76.0547792 223.32372,85.9616922 C229.688993,95.8686051 223.860708,108.624736 215.64872,115.238058 C209.296522,120.73207 200.068854,121.371537 193.016638,116.806434 C186.978797,113.251447 181.752986,108.441758 174.87692,106.481288 C167.097142,104.246351 159.500725,106.481288 151.747142,107.65757 C146.730887,108.376409 142.01587,108.32413 137.536604,105.775518 C131.551152,102.325089 126.80994,97.0971669 119.750512,95.9078145 C112.691084,94.7184622 105.80192,96.7442821 98.7948805,96.0254428 C92.403413,95.3719525 86.234599,92.2482688 80.4587031,88.732491 C93.5559727,87.3601614 105.775725,79.3483703 117.903797,74.0550989 C122.441153,71.9617692 127.2376,70.4805817 132.166724,69.6505743 C137.091297,68.9186651 141.662244,70.2517853 146.508234,69.93811 C154.183234,69.4414574 157.981442,62.6843677 162.840529,57.7178414 C176.769879,43.6291705 197.065083,37.8299542 216.355973,42.4261684 C225.92593,44.8688835 234.735093,49.6527803 241.987329,56.3455118 C248.535964,62.2399943 254.508319,69.0101538 262.117833,73.6499349 C265.52212,75.7855496 269.284514,77.2908936 273.224317,78.0936689 C278.463225,79.1131138 283.872398,77.7930634 289.176792,78.5249725 C298.894966,79.8319531 308.076152,88.8239797 316,95.3980921 C308.64775,100.189256 299.605383,101.647249 291.115188,99.4105225 C289.932838,98.9241971 288.627665,98.8190882 287.382466,99.109917 C286.423824,99.5916066 285.613709,100.323246 285.038055,101.227226 C282.091169,104.97826 278.659684,108.245711 273.656527,108.703155 C271.643164,108.691759 269.631037,108.805249 267.631783,109.04297 C262.13093,110.245392 259.367406,116.388201 254.730973,119.11979 C249.258459,122.075823 242.871747,122.868989 236.840102,121.341657 C234.905836,120.76674 232.917869,120.390124 230.907039,120.217654 C226.427773,120.126165 225.039462,123.681152 222.131869,126.282044 C209.309642,137.613565 192.558234,143.429629 175.688951,145.102564 C161.452218,146.514103 137.025811,147.834154 126.600384,135.9537 C125.55743,134.693513 123.715047,134.453707 122.383063,135.404768 C112.075512,141.730554 97.11843,138.162497 90.2030717,128.490841 C86.9287543,124.007897 85.409471,118.4663 82.5804608,113.643541 C72.7575085,96.9403292 51.8149744,97.0971669 35.3648038,91.633988 C25.1227389,88.2489082 15.2343003,82.9556368 9,74.3295648 C23.7760379,79.7246934 40.0373124,79.426434 54.6046928,73.4930972 C63.3536689,69.7943421 69.6534556,63.4816258 77.0272184,57.7831904 C81.0611775,54.6595068 85.3832765,52.1370342 90.5828925,51.7841495 C95.3633959,51.4574043 100.170094,52.555268 104.989889,52.0586154 C113.922227,51.1175894 117.432295,44.9225013 119.082551,36.7669424 C121.58413,24.4159757 130.987969,17.1622334 143.391084,15.6592057 C155.244113,14.2607364 166.127944,20.1421491 177.758319,19.3971702 C185.446416,18.9005176 190.934172,13.34585 196.945819,9.28114034 C210.920606,-0.116050175 231.182082,12.7184993 241.725384,22.1156898 C250.788695,30.2058998 256.132381,40.4918371 262.576237,50.5425179 C265.785068,55.522114 269.006997,60.5278497 272.530162,65.2983289 C273.577944,66.7098679 277.415444,73.1402125 279.58959,72.9964446 C271.436972,73.2080246 263.612887,69.7879742 258.241041,63.6646031 C250.382679,55.8880685 242.851749,48.0461849 233.0157,42.6352853 C216.262302,33.4584594 196.226469,32.4188192 178.609642,39.8122072 C172.349147,42.5045872 165.512372,46.0334348 160.875939,51.1175894 C156.78959,55.6136026 153.410495,61.8609699 147.032125,63.3509278 C144.277691,63.7680812 141.478337,63.7988755 138.715358,63.4424164 C120.379181,62.52753 105.972184,75.126823 89.4958191,80.7337698 C84.0786155,82.7418407 78.2575646,83.423125 72.5217577,82.7203803 C70.8060154,82.4589841 68.9723976,82.0538202 67.4138225,82.8118689 C61.1926195,85.8309941 75.8615614,92.9278988 77.8916382,94.1041813 C84.1914249,97.8421458 91.2639505,101.63239 98.7293942,102.102903 C106.194838,102.573416 113.725768,99.8026167 120.994753,102.325089 C126.23366,104.128723 130.097355,108.441758 134.91715,111.081859 C145.13302,116.688806 155.872782,111.081859 166.612543,111.330186 C178.478669,111.539303 184.94872,120.858074 195.426536,124.622178 C207.39744,128.948284 221.188865,121.524634 227.789889,110.650556 C232.387031,103.070068 234.220648,93.2807835 230.409343,85.2951321 C225.510964,75.061474 212.911391,70.6961587 201.59535,71.0098341 C194.326365,71.1666718 186.468003,73.1532823 181.477944,78.6818102 C176.487884,84.2103382 175.217449,94.7576716 182.434044,99.3451735 C187.947995,102.847882 196.408831,99.8548959 198.4782,93.6728777 C199.247035,91.8245035 199.009566,89.7115066 197.849531,88.0790007 C196.539804,86.5890428 193.710794,86.5629032 192.898763,88.3534667 C192.644193,89.3749481 192.520962,90.4246123 192.532039,91.4771503 C192.034343,94.4832057 187.581271,95.7117674 185.158276,93.7774361 Z" id="path-2"></path>
        <path d="M238.762087,25.9257563 C245.397057,31.8637022 249.947125,39.2435335 254.772558,47.0559303 C256.083817,49.153218 257.395076,51.2636138 258.706335,53.3609016 L258.916136,53.6886028 C260.620773,56.3102125 262.338522,59.0235785 264.161172,61.6845123 C263.676006,61.2257306 263.203953,60.7276248 262.758125,60.2295189 L262.626999,60.0722223 L260.542097,58.0011507 C253.277723,50.778616 245.751097,43.3201365 236.087119,37.9851608 C217.869675,27.9798083 196.074621,26.8546999 176.923117,34.9309856 C171.16669,37.3952986 162.95821,41.3801454 157.346021,47.5671442 C156.270789,48.7599766 155.26112,50.0183492 154.290788,51.2373977 C151.602707,54.6192742 149.281779,57.529261 146.174096,58.2633117 C144.493765,58.5199116 142.785925,58.5419691 141.099524,58.3288519 L139.303099,58.2108795 C125.823357,57.529261 114.638319,63.2181539 103.820433,68.6973182 C98.7491606,71.436418 93.4911016,73.8148658 88.0853262,75.8149884 C83.6101785,77.4902286 78.8105102,78.1180051 74.0548559,77.6501152 L73.0845243,77.5452508 L71.8650535,77.3617381 C69.671661,76.9907706 67.417485,77.2781469 65.3874346,78.1875452 C62.7604471,79.2766589 61.008793,81.7957097 60.9029291,84.636705 C60.7980284,89.788168 65.8070374,93.5239618 74.5006839,98.2166431 L75.4447903,98.727857 C81.9355219,102.581623 88.9900948,106.291201 96.608509,107.274305 C97.2903637,107.361692 97.9722183,107.427232 98.6540729,107.470925 C101.776749,107.592845 104.904153,107.452533 108.003349,107.051468 C110.912345,106.631912 113.859214,106.539579 116.788784,106.776199 C117.713031,106.890699 118.622755,107.101576 119.503089,107.405385 C122.025823,108.464813 124.380322,109.886738 126.492099,111.626177 C128.445794,113.154835 130.505242,114.543386 132.655016,115.781428 C135.449145,117.31976 138.510892,118.311814 141.676478,118.704523 C146.921513,119.386141 151.943635,118.560334 156.795293,117.747635 C160.096086,117.092731 163.448671,116.733023 166.813311,116.672775 C167.449281,116.685338 168.084049,116.733476 168.714636,116.816964 C173.461393,117.433042 177.316495,120.015328 181.827225,123.003963 C185.586343,125.737986 189.674603,127.988393 193.995708,129.702175 C195.791632,130.338649 197.651422,130.778164 199.542333,131.01298 C202.025278,131.328226 204.539477,131.30618 207.016509,130.94744 C197.265388,136.023156 186.614137,139.140385 175.664308,140.123074 C168.780199,140.804692 158.55238,141.578067 149.176878,140.359019 C140.561907,139.244835 134.438328,136.675657 130.976605,132.743243 C129.639039,131.180874 127.771017,130.167822 125.731569,129.898796 C123.739984,129.663391 121.728433,130.126722 120.040706,131.209601 C116.538616,133.250188 112.445225,134.036217 108.436064,133.437969 C103.037879,132.812689 98.1277139,130.01529 94.8383095,125.691112 C93.2813861,123.310089 91.9637208,120.781048 90.9045328,118.140877 C89.8946404,115.743694 88.7475778,113.406597 87.4690345,111.141179 C78.998302,96.7223256 63.617235,93.1700445 50.0457054,90.063437 C45.5480874,89.0279012 41.2864959,88.0579056 37.3396066,86.7471008 C34.4923552,85.8140042 31.7069356,84.7019734 29,83.4176565 C38.5846404,83.7871854 48.1344249,82.0604092 56.982265,78.3579498 C64.2990897,75.2513424 69.9768407,70.5717691 75.4710155,66.0494924 C77.1494269,64.6600393 78.8409509,63.2705861 80.5980378,61.9073491 C84.7678411,58.6827692 87.9673129,57.2015597 91.3110231,56.9787229 C93.3275057,56.8953002 95.3473513,56.9522392 97.3559266,57.1491275 C100.188382,57.4370163 103.041109,57.4677273 105.879109,57.2408839 C120.906137,55.6679181 123.633555,42.1535202 124.525211,37.7361079 C127.147729,24.6280595 138.070516,21.4821279 144.338333,20.695645 C147.005013,20.4131973 149.696595,20.4660414 152.350125,20.8529416 C155.116881,21.2068589 157.883638,21.7967211 160.794632,22.4259074 C163.705627,23.0550937 166.852648,23.7367122 169.973445,24.1299537 C172.788014,24.518651 175.633728,24.6327914 178.470402,24.470763 C185.997028,23.9857652 191.582991,19.8305138 196.53955,16.1602603 C197.850809,15.2295888 199.030942,14.2989174 200.302863,13.4468943 C203.590143,11.3397754 207.552863,10.5531247 211.396113,11.2447421 C223.315457,12.8177079 235.418376,22.8715811 238.762087,25.9257563 Z M215.592142,47.3967396 C224.334575,49.6411309 232.379217,54.0292363 238.998113,60.1639787 C240.820763,61.8024847 242.57785,63.493423 244.439838,65.2761175 C249.134145,69.7983942 253.998915,74.4517514 259.925805,78.0957889 C263.863577,80.5677291 268.217655,82.3043156 272.776143,83.2210358 C273.291904,83.3171615 273.803295,83.4001791 274.310316,83.4700887 C277.023885,83.75721 279.757441,83.8054583 282.479459,83.6142772 C284.663445,83.4557089 286.857063,83.4864089 289.035753,83.7060336 L289.035753,83.7060336 C294.923306,84.5318406 301.204236,89.3031702 307,94.1924723 C303.554568,95.2421752 299.925789,95.5504253 296.352578,95.0969276 C295.236768,94.952025 294.132571,94.728634 293.048205,94.4284171 L292.838404,94.4284171 C292.02705,94.1839544 291.198688,93.9999378 290.360125,93.8778791 C288.911682,93.6681506 287.433809,93.8212917 286.059195,94.3235527 C284.183525,95.1143249 282.576215,96.4297691 281.430451,98.1117787 C278.532569,101.79514 276.290316,103.354998 273.694024,103.630267 C273.06462,103.630267 272.382765,103.630267 271.779586,103.630267 C270.178969,103.585558 268.5783,103.717435 267.006603,104.023509 C262.154946,105.08526 258.981699,108.467137 256.437857,111.180503 C255.285428,112.533126 253.963258,113.731479 252.50408,114.745892 C248.899798,116.699021 244.752973,117.412949 240.70275,116.77764 C239.955332,116.685883 239.207915,116.554803 238.486722,116.384398 L237.175463,116.069805 C235.903199,115.726251 234.611478,115.459241 233.30725,115.270214 C232.743408,115.191566 232.166454,115.152242 231.602613,115.126026 C231.961024,114.601704 232.306322,114.064274 232.638508,113.513736 C238.735862,103.459862 239.797981,92.0951845 235.497052,83.1030633 C231.196123,74.1109421 221.440357,67.7535387 209.009622,66.1412487 C206.589062,65.8196773 204.147018,65.6881945 201.70591,65.7480073 C195.883921,65.9053039 185.066035,67.3471892 178.011462,75.2120182 C173.904134,79.8800438 171.994651,86.0837129 172.766426,92.2524811 C173.221038,95.8589552 174.863358,99.2116334 177.434508,101.782032 L176.831329,101.59852 C175.405441,101.186326 173.950054,100.883956 172.477949,100.694064 C166.721523,99.9469055 161.306023,100.903793 156.0741,101.821356 C154.526815,102.096625 152.966417,102.371894 151.406019,102.594731 C149.288095,102.955233 147.130931,103.025791 144.993963,102.80446 C143.42078,102.616692 141.900755,102.117619 140.52257,101.336359 C138.764761,100.288843 137.062229,99.151298 135.421773,97.928266 C131.487996,95.0707115 126.937927,91.8330235 120.997925,90.8368119 L119.935805,90.6532992 C116.130456,90.2547439 112.293864,90.2547439 108.488515,90.6532992 C105.575057,90.9670346 102.639644,91.0240557 99.7161926,90.8237038 L99.1785765,90.8237038 C98.1566472,90.6900902 97.1447431,90.4886552 96.1495684,90.2207336 C101.11924,88.2938505 105.918447,85.9081857 110.573416,83.548737 C113.943352,81.8709068 117.129711,80.2848329 120.329183,78.8822718 C124.438374,76.9636658 128.780271,75.5888407 133.245083,74.7925607 C135.496401,74.5612958 137.766965,74.5920873 140.011179,74.884317 C142.387683,75.1519649 144.781674,75.2308603 147.170652,75.1202619 C155.379133,74.5828319 160.204566,68.9856952 164.07278,64.4896346 C165.056224,63.3492344 165.987218,62.2612664 166.944437,61.2912708 C178.234601,49.8186253 194.252683,44.301579 210.21598,46.3874198 C212.025108,46.6255886 213.819844,46.9625321 215.592142,47.3967396 Z M219.38168,88.7526322 C223.866186,95.7130059 219.460356,105.793095 212.825386,111.193611 C209.902206,113.782491 206.020564,115.015616 202.138626,114.588596 C200.025075,114.282108 197.995525,113.550831 196.172398,112.438876 C194.428423,111.416448 192.736899,110.249832 190.927362,109.030783 C189.484977,108.047679 188.016367,107.03836 186.495307,106.09458 C194.079868,106.994277 201.293933,102.583898 203.948163,95.4246288 C205.333131,91.8266257 204.714953,87.765002 202.322202,84.7415694 C201.476579,83.7731414 200.417114,83.0147195 199.227631,82.5263092 C201.92606,82.0930828 204.672695,82.04894 207.383661,82.3952287 C210.596245,82.7884702 216.431348,84.1910313 219.38168,88.7657402 L219.38168,88.7526322 Z" id="path-3"></path>
        <path d="M235.304022,29.4624621 C236.632946,30.651715 237.89227,31.9160897 239.075772,33.2493405 L238.656688,33.0142929 C230.643903,28.6075105 221.868232,25.7498808 212.791394,24.5917529 C206.268658,23.7449495 199.661392,23.7756936 193.146866,24.6831603 C195.60898,23.2075836 197.822264,21.5753084 199.839102,20.0736152 L199.983162,19.9691496 C201.083255,19.1334247 202.222638,18.2324088 203.375117,17.5142077 C205.608205,16.1531561 208.275652,15.6865463 210.840037,16.2083876 C219.077643,17.2269273 228.913003,23.7299116 235.304022,29.4624621 Z M159.908326,27.255626 C162.972872,27.9085361 166.129093,28.5614462 169.481759,29.0184832 C171.518587,29.2889511 173.569418,29.4415524 175.623948,29.4755203 L174.96913,29.7497425 C168.813845,32.3613828 159.908326,36.7097639 153.622077,43.6175524 C152.443405,44.9233726 151.395697,46.2291927 150.347989,47.5350129 C148.449018,49.9246637 146.419083,52.3926638 145.109448,52.7582934 C143.942307,52.8724154 142.766767,52.8724154 141.599626,52.7582934 L139.713751,52.6407696 C133.770778,52.357856 127.822897,53.0864796 122.125351,54.7953729 C125.853446,50.869207 128.429061,45.406526 129.852198,38.4073301 C131.358279,30.951097 136.492049,26.6549488 145.109448,25.636409 C147.346193,25.4053259 149.603122,25.4535791 151.827877,25.7800493 C154.407858,26.0673297 157.040225,26.6418906 159.908326,27.255626 Z M214.428438,52.0662088 C222.317096,54.1009243 229.572833,58.063798 235.539757,63.5966006 C237.281572,65.1505266 238.984097,66.7828018 240.778297,68.5717754 C245.676333,73.2727279 250.744621,78.1303789 257.148737,82.0347811 C261.616705,84.8232314 266.555687,86.7789105 271.724977,87.8065061 C272.344871,87.9283827 272.964765,88.0284955 273.584659,88.1068448 C276.59862,88.4340553 279.635674,88.4952312 282.66043,88.2896596 C283.865295,88.2896596 284.965388,88.1982522 286,88.1982522 C285.358454,88.3392016 284.728139,88.5268725 284.114125,88.7597548 C281.340355,89.8823762 278.945853,91.7715573 277.212348,94.2050248 C274.593078,97.6001572 273.466791,97.6915646 273.11319,97.7307392 C272.759588,97.7699138 272.28812,97.7307392 271.803555,97.7307392 L271.607109,97.7307392 C269.634204,97.6843866 267.662191,97.8551761 265.726848,98.2400091 C259.296539,99.6502948 255.249766,104.011734 252.47334,106.910655 C251.643945,107.863747 250.727638,108.738042 249.736202,109.522295 C247.11822,110.859577 244.136949,111.317603 241.23667,110.828115 C240.686623,110.762824 240.136576,110.658359 239.599626,110.540835 C244.209542,100.303205 244.458372,89.2820829 240.110384,80.2066329 C234.950421,69.4597331 223.844715,62.2385477 209.622077,60.3973413 C206.977273,60.0664158 204.310772,59.9398095 201.646399,60.0186534 C194.993452,60.2014683 182.57811,61.8990345 174.222638,71.1834157 C169.113811,76.9704667 166.730745,84.6596049 167.674462,92.3115856 C167.779233,93.0689613 167.918927,93.8132788 168.093545,94.5445381 C163.798479,94.6723202 159.52223,95.1659764 155.311506,96.0201148 C153.831618,96.2812789 152.351731,96.5424429 150.858746,96.7513741 C149.212289,97.0425053 147.534177,97.1127719 145.869036,96.9603053 C144.975374,96.8587651 144.111333,96.578992 143.328344,96.1376386 C141.861553,95.3019138 140.32928,94.2050248 138.692236,93.0428449 C134.47521,90.0264004 129.223573,86.2525802 122.02058,85.077342 L120.815716,84.8945272 L119.217961,84.7247706 C120.396632,84.1676207 121.562208,83.6365871 122.714687,83.13167 C126.394085,81.4094471 130.280813,80.167386 134.278765,79.436199 C136.120255,79.2788516 137.973477,79.3226389 139.805426,79.566781 C142.444404,79.860368 145.102684,79.9433337 147.754911,79.8148868 C158.192703,79.1489186 164.217025,72.0974898 168.276894,67.3965373 C169.193639,66.3257647 170.071094,65.3202832 170.896165,64.4715001 C181.01148,54.2307826 195.353906,49.3060249 209.648269,51.1651929 C211.252332,51.3743596 212.843729,51.6707876 214.415341,52.0531506 L214.428438,52.0662088 Z M101.655753,63.5443678 C96.8042082,66.157456 91.7761587,68.4307221 86.6080449,70.3476908 C83.2185008,71.602967 79.6129335,72.1755142 76,72.0321988 L78.9859682,69.5903151 L79.1300281,69.4727913 C80.727783,68.1669711 82.3255379,66.861151 83.9887746,65.5553309 C88.101029,62.3691297 90.2750234,61.8337434 91.8465856,61.7292778 C93.5946101,61.671524 95.3445516,61.7282314 97.0851263,61.8990345 C99.5189713,62.1155196 101.963446,62.189643 104.405987,62.1210239 L101.655753,63.5443678 Z M215.03087,90.9665909 C217.807297,95.2627391 214.389149,102.562274 209.582788,106.427501 C207.770889,108.095882 205.332905,108.917254 202.877456,108.68657 C201.770922,108.527897 200.699331,108.183514 199.708138,107.668031 C204.050034,105.155806 207.33406,101.16245 208.954163,96.4249191 C209.940445,93.5718915 210.170522,90.513139 209.622077,87.5453421 C211.776203,88.0307005 213.690703,89.2555544 215.03087,91.0057655 L215.03087,90.9665909 Z M117.960711,111.650782 C119.963644,112.576504 121.835151,113.761998 123.52666,115.176496 C125.67386,116.83994 127.936452,118.349758 130.297474,119.694634 C133.663733,121.544251 137.353024,122.736453 141.167446,123.20729 C147.165575,123.977724 152.823199,123.050592 157.812909,122.227925 C160.794893,121.634349 163.822606,121.297946 166.862488,121.222444 C167.300397,121.228629 167.737621,121.259146 168.172123,121.313851 C171.695042,121.770888 174.903648,123.925491 178.963517,126.628539 C181.790226,128.599131 184.743212,130.383209 187.803555,131.969343 C183.665934,132.994828 179.459982,133.723598 175.217961,134.150063 C168.591207,134.802973 158.768943,135.547291 149.955098,134.411227 C142.752105,133.484095 137.592142,131.460074 135.038354,128.561153 C132.861719,126.047105 129.829904,124.423995 126.525725,124.003841 C123.349755,123.60359 120.132883,124.314316 117.423761,126.014804 C114.947936,127.420936 112.066169,127.945879 109.251637,127.503439 C105.30832,127.057496 101.708954,125.053743 99.2591207,121.940645 C97.9179137,119.850014 96.7778295,117.637699 95.8540692,115.333195 C95.3040225,114.105724 94.727783,112.786845 94.0729654,111.415734 C94.7539757,111.537611 95.4393514,111.646429 96.1290926,111.742189 C96.9279701,111.846655 97.7137512,111.925004 98.5126286,111.964179 C101.919417,112.106065 105.332138,111.961916 108.714687,111.533258 C111.221637,111.180476 113.758967,111.092935 116.284378,111.272094 C116.854953,111.339218 117.416837,111.466149 117.960711,111.650782 Z" id="path-4"></path>
        <path d="M183.22206,99.4601844 C188.845938,103.082035 197.47545,99.9872447 199.586074,93.5949485 C200.016555,92.3591817 200.113393,91.0296075 199.8666,89.7433535 C199.79908,90.1322815 199.705353,90.5160837 199.586074,90.8920748 C197.47545,97.2843711 188.899371,100.352133 183.22206,96.7573107 C180.242214,94.8224485 178.344384,91.5740038 178.105801,88 C177.505694,92.4954015 179.491521,96.9435634 183.22206,99.4601844 Z" id="path-5"></path>
        <path d="M223.309656,83.2065956 C216.943609,73.1211744 200.648624,72.0258041 190.824477,76.5275087 C187.886328,77.717583 185.426882,79.8822016 183.842784,82.6722686 C183.087848,84.1979005 182.830831,85.9296657 183.109247,87.6147929 C183.241048,86.824686 183.488311,86.0592076 183.842784,85.3439034 C185.448215,82.5915298 187.910514,80.4660764 190.837576,79.3060089 C200.661723,74.7508716 216.956708,75.8596 223.322755,85.9850957 C224.843766,88.3891967 225.744877,91.1460464 225.942528,94 C226.248988,90.2051317 225.323896,86.4127325 223.309656,83.2065956 L223.309656,83.2065956 Z" id="path-6"></path>
        <path d="M77.8618468,93.4973758 C84.1443947,97.2038567 91.1975669,100.962176 98.6425821,101.428726 C106.087597,101.895277 113.59792,99.1478152 120.847013,101.649042 C126.071585,103.437484 129.924707,107.714192 134.731313,110.332056 C144.919229,115.891778 155.629602,110.332056 166.339974,110.578291 C178.17363,110.785647 184.625976,120.025929 195.07512,123.75833 C207.013268,128.047998 220.766953,120.686875 227.349914,109.904385 C230.5515,104.809545 232.164624,98.8897171 231.986722,92.8882688 C231.654414,97.9985781 230.067014,102.950608 227.362976,107.312441 C220.832261,118.094931 207.026329,125.456053 195.088182,121.166385 C184.639038,117.433985 178.225876,108.206662 166.353036,107.986346 C155.681847,107.80491 144.945352,113.299833 134.744375,107.740112 C129.937769,105.148167 126.045462,100.845539 120.860075,99.0570971 C113.637104,96.5558705 106.061474,99.3033319 98.6556435,98.8367818 C91.2498127,98.3702318 84.183579,94.611912 77.8618468,90.9054312 C76.5557038,90.0112103 68.5882315,86.2269711 66.4984026,83 C63.350598,86.27881 76.0724309,92.4217188 77.8618468,93.4973758 Z" id="path-7"></path>
        <path d="M323.850296,95.3280323 C314.557939,102.946755 303.561765,104.727074 291.988915,103.012207 C291.502858,102.889746 290.993962,102.889746 290.507905,103.012207 C288.882726,103.614375 287.336184,106.337217 286.025555,107.436826 C283.837256,109.345156 281.268748,110.768414 278.489441,111.612724 C276.680774,112.136347 269.996568,111.782901 269.066022,113.000326 C264.767393,118.901895 258.52715,123.104959 251.438068,124.873489 C247.861116,125.57238 244.203107,125.761893 240.572957,125.436385 C239.262328,125.344751 231.73932,123.616793 231.254388,124.127326 C215.513739,140.412017 192.53842,147.965287 170.218416,149.195802 C161.795096,149.625332 153.350108,149.1116 145.041241,147.664203 C141.359562,147.171422 137.739859,146.293906 134.241662,145.046085 C133.166946,144.653368 124.516798,139.102958 124.516798,139.102958 C112.000295,145.216263 95.4863751,141.603261 87.0328209,130.436989 C83.4416986,125.698196 81.3709055,119.964519 78.4088849,114.846099 C72.3144621,104.242723 62.1964096,102.043504 51.016748,99.3337523 C42.3797058,97.2392582 33.6771321,95.0007676 25.5774476,91.2568595 C14.7778683,86.2824361 4.80398492,78.2579056 0.295422674,67 C-0.0581201516,67.7433305 -0.0959325073,68.5978104 0.190572389,69.3693964 C4.65981578,80.7582079 14.7123368,88.8612819 25.5905539,93.8749771 C33.7295573,97.6057946 42.4321309,99.8311946 51.1215983,101.938779 C62.3012599,104.648531 72.4193124,106.84775 78.5137352,117.451126 C81.4757558,122.608818 83.5334426,128.303223 87.1376711,133.042016 C95.5256939,144.208288 112.039614,147.834381 124.516798,141.721076 C124.516798,141.721076 133.127627,147.284576 134.202343,147.703475 C137.70054,148.951295 141.320243,149.828812 145.001922,150.321592 C153.310789,151.768989 161.755777,152.282722 170.179097,151.853191 C192.459782,150.609585 215.47442,143.069407 231.228175,126.719262 C231.713108,126.22182 239.262328,127.949778 240.546744,128.028321 C244.176894,128.353829 247.834904,128.164316 251.411855,127.465426 C258.518206,125.688975 264.769595,121.466114 269.066022,115.5399 C269.996568,114.335566 276.680774,114.675921 278.489441,114.152298 C281.2575,113.329658 283.820884,111.933529 286.012449,110.054944 C287.323078,108.955334 288.869619,106.219402 290.494799,105.630325 C290.980856,105.507864 291.489752,105.507864 291.975809,105.630325 C303.548659,107.345192 314.544833,105.551782 323.837189,97.9461499 C324.425849,97.4857812 324.811431,96.8141681 324.911905,96.0741959 C325.08034,95.4417542 325.005527,94.769238 324.702204,94.1891512 C324.515597,94.6325597 324.223108,95.0235761 323.850296,95.3280323 Z" id="path-8"></path>
        <path d="M272.944689,62.4863196 C269.417034,57.700274 266.204113,52.6782042 262.978079,47.6823593 C256.486668,37.5988823 251.175514,27.2793812 242.100653,19.1627723 C231.609485,9.73491803 211.256617,-3.12839913 197.264021,6.28634268 C191.218485,10.3643158 185.710622,15.9371087 178.025841,16.4353819 C166.36753,17.1827918 155.482942,11.2821876 143.562352,12.6852201 C131.143431,14.153815 121.727607,21.4574517 119.222841,33.861833 C117.570481,42.0440041 114.069054,48.2855321 105.112219,49.2034039 C100.325623,49.7016772 95.5127994,48.600231 90.6868618,48.9280424 C85.4412775,49.2820786 81.1530123,51.8127822 77.1139124,54.9466587 C69.7307525,60.6636885 63.4098234,67.0101161 54.6628115,70.6816032 C40.2374546,76.8051191 23.8450036,76.6215448 9,74.143291 C9,74.143291 9,74.3662027 12.003097,75.126725 C26.0010804,79.5073335 41.0895765,78.8626793 54.6628115,73.304094 C63.4753932,69.6194944 69.7832083,63.2861793 77.1663683,57.5691494 C81.2054682,54.435273 85.5330752,51.9045694 90.7393177,51.5505331 C95.5259134,51.2227218 100.338737,52.3241679 105.164675,51.8258947 C114.108396,50.881798 117.622937,44.6664949 119.275296,36.4843237 C121.780063,24.0930549 131.195887,16.8156431 143.614808,15.3077109 C155.482942,13.9046783 166.380644,19.8052825 178.025841,19.0578727 C185.723736,18.5595994 191.218485,12.9868066 197.237793,8.90883344 C211.23039,-0.519020832 231.517687,12.3574088 242.074425,21.7852631 C251.149286,29.9018719 256.499782,40.2213731 262.951851,50.30485 C266.164771,55.3006949 269.390806,60.3227647 272.918461,65.1088103 C273.495475,65.8955576 274.938011,68.190237 276.472345,70.0784303 C278.006678,71.9666237 278.859085,72.871383 280,72.8320456 C277.836196,72.9107203 273.993806,63.9024646 272.944689,62.4863196 Z" id="path-9"></path>
        <path d="M289.22668,75.5215578 C283.998138,74.7789015 278.599669,76.1078654 273.318841,75.0915989 C269.386834,74.2913263 265.631884,72.7906755 262.234333,70.661719 C254.639876,66.0494324 248.718552,59.2873511 242.14366,53.4112458 C234.905773,46.7393802 226.114041,41.9703982 216.563019,39.5352987 C197.322647,34.9680448 177.086286,40.7480913 163.192678,54.7792969 C158.343206,59.7433682 154.552513,66.5054494 146.892699,66.9614665 C142.056298,67.2741639 137.494395,65.9451999 132.579566,66.6748272 C127.66665,67.5211071 122.888538,69.015186 118.371003,71.1177361 C106.266929,76.4075338 89.9669493,86.7526061 81,88.3551803 C96.3065563,86.3487053 107.377994,78.5182412 118.371003,73.7235477 C122.874558,71.643324 127.634717,70.1668856 132.52728,69.3327551 C137.442109,68.6031278 142.004012,69.9320918 146.840414,69.6193944 C154.500227,69.1242902 158.29092,62.388267 163.140393,57.4372248 C177.042181,43.3924781 197.297228,37.611342 216.549948,42.1932266 C226.100969,44.6283261 234.892702,49.3973081 242.130589,56.0691737 C248.666266,61.945279 254.626804,68.6943312 262.221261,73.3196469 C265.618812,75.4486034 269.373762,76.9492542 273.30577,77.7495268 C278.534312,78.7657933 283.932781,77.4498584 289.213609,78.1794857 C298.167487,79.4823915 308.506928,88.6027324 315.983743,95 C316.611168,94.5960992 298.925625,76.8765799 289.22668,75.5215578 Z" id="path-10"></path>
    </defs>
    <g id="Page-1" stroke="none" stroke-width="1" fill="none" fill-rule="evenodd">
        <g id="Superhero-LP-Traveloka" transform="translate(-299.000000, -75.000000)" fill-rule="nonzero">
            <g id="Group-19" transform="translate(299.000000, 75.000000)">
                <g id="Shape">
                    <use fill="#99C7FF" fill-rule="evenodd" xlink:href="#path-1"></use>
                    <use fill-opacity="0.7" fill="#061D3B" fill-rule="evenodd" xlink:href="#path-1"></use>
                </g>
                <g id="Shape">
                    <use fill="#3678D8" fill-rule="evenodd" xlink:href="#path-2"></use>
                    <use fill-opacity="0.7" fill="#061D3B" fill-rule="evenodd" xlink:href="#path-2"></use>
                </g>
                <g id="Shape">
                    <use fill="#1B448E" fill-rule="evenodd" xlink:href="#path-3"></use>
                    <use fill-opacity="0.7" fill="#061D3B" fill-rule="evenodd" xlink:href="#path-3"></use>
                </g>
                <g id="Shape">
                    <use fill="#122B63" fill-rule="evenodd" xlink:href="#path-4"></use>
                    <use fill-opacity="0.7" fill="#061D3B" fill-rule="evenodd" xlink:href="#path-4"></use>
                </g>
                <g id="Shape">
                    <use fill="#122B63" fill-rule="evenodd" xlink:href="#path-5"></use>
                    <use fill-opacity="0.7" fill="#061D3B" fill-rule="evenodd" xlink:href="#path-5"></use>
                </g>
                <g id="Shape">
                    <use fill="#122B63" fill-rule="evenodd" xlink:href="#path-6"></use>
                    <use fill-opacity="0.7" fill="#061D3B" fill-rule="evenodd" xlink:href="#path-6"></use>
                </g>
                <g id="Shape">
                    <use fill="#122B63" fill-rule="evenodd" xlink:href="#path-7"></use>
                    <use fill-opacity="0.7" fill="#061D3B" fill-rule="evenodd" xlink:href="#path-7"></use>
                </g>
                <g id="Shape">
                    <use fill="#122B63" fill-rule="evenodd" xlink:href="#path-8"></use>
                    <use fill-opacity="0.7" fill="#061D3B" fill-rule="evenodd" xlink:href="#path-8"></use>
                </g>
                <g id="Shape">
                    <use fill="#122B63" fill-rule="evenodd" xlink:href="#path-9"></use>
                    <use fill-opacity="0.7" fill="#061D3B" fill-rule="evenodd" xlink:href="#path-9"></use>
                </g>
                <g id="Shape">
                    <use fill="#122B63" fill-rule="evenodd" xlink:href="#path-10"></use>
                    <use fill-opacity="0.7" fill="#061D3B" fill-rule="evenodd" xlink:href="#path-10"></use>
                </g>
            </g>
        </g>
    </g>
</svg>