<?xml version="1.0" encoding="UTF-8"?>
<svg width="134px" height="68px" viewBox="0 0 134 68" version="1.1" xmlns="http://www.w3.org/2000/svg" xmlns:xlink="http://www.w3.org/1999/xlink">
    <!-- Generator: Sketch 46.1 (44463) - http://www.bohemiancoding.com/sketch -->
    <title>Group 18</title>
    <desc>Created with Sketch.</desc>
    <defs>
        <path d="M123.89,9.35 C121.1,6.9 116.57,6.63 113.32,7.43 C112.26,7.7 111.24,8.03 110.26,8.35 C107.26,9.35 104.7,10.16 101.65,9.03 C100.235604,8.48201986 98.8533889,7.85434746 97.51,7.15 C93.89,5.33 90.15,3.45 85.27,5.15 C84.3250775,5.50162013 83.403251,5.91243414 82.51,6.38 C80.34,7.45 78.51,8.38 76.14,7.54 C74.1493286,6.78703103 72.1999319,5.92916296 70.3,4.97 C66.51,3.15 62.66,1.28 58.11,1.02 C52.19,0.68 47.11,3.24 43.11,8.62 C42.64,9.25 42.18,9.91 41.73,10.56 C40.16,12.84 38.67,14.99 36.28,16.14 C35.52,16.51 34.72,16.8 33.88,17.14 C32.0601106,17.6928071 30.3628913,18.5889389 28.88,19.78 C27.2054733,21.347661 26.1871168,23.4915693 26.03,25.78 C25.9810192,26.2150174 25.9543177,26.6522551 25.95,27.09 C25.9757327,27.688335 25.9185232,28.2873523 25.78,28.87 C25.38,30.14 24.2,30.46 22.29,30.87 L22.15,30.87 C21.33,31.03 20.53,31.17 19.74,31.3 C16.955245,31.5972827 14.2460076,32.3897346 11.74,33.64 C9.38356927,34.9534909 7.28329862,36.6811328 5.54,38.74 C1.59482505,43.3307634 -0.298719707,49.3366248 0.3,55.36 C0.394530309,56.3501237 1.12526971,57.1620563 2.1,57.36 C3.13898115,57.6458787 4.24526839,57.24505 4.86,56.36 C7.01,52.96 11.34,51.97 14.68,52.49 C17.45,52.92 19.27,54.71 21.21,56.61 C22.1954907,57.6270833 23.2550641,58.569669 24.38,59.43 C25.8775734,60.5743155 27.6440487,61.3146512 29.51,61.58 C30.847214,61.7036499 32.1921632,61.447139 33.39,60.84 C34.0646684,60.5235782 34.7771542,60.295045 35.51,60.16 C38.04,59.79 40.24,61.01 42.57,62.31 C43.06,62.58 43.57,62.85 44.03,63.1 C46.9701516,64.6262617 50.116289,65.7176412 53.37,66.34 C55.5874651,66.7708361 57.8410691,66.9884948 60.1,66.99 C65.8282428,67.0632425 71.4665975,65.5619873 76.4,62.65 C81.57,59.49 85.93,54.39 89.72,47.09 C89.92,46.7 90.78,44.87 91.86,42.56 C93.28,39.56 95.33,35.15 96.04,33.75 C102.12,34.3 109.53,31.75 112.14,25.75 C118.51,25.2 125.38,22.3 126.14,15.75 C126.554837,13.3704793 125.702631,10.9464265 123.89,9.35 Z M92.89,28.84 C92.2796958,29.2612204 91.8792143,29.9238352 91.79,30.66 C91.318557,33.2597032 90.53976,35.7941505 89.47,38.21 C88.9732234,39.4937736 88.4056867,40.7490314 87.77,41.97 C87.6557199,42.1608469 87.5252392,42.3415125 87.38,42.51 C87.2185574,42.693445 87.0838887,42.8988147 86.98,43.12 C84.702276,44.4460317 82.1952914,45.3314484 79.59,45.73 C78.2057694,45.8934615 76.8083606,45.9135681 75.42,45.79 C74.3109,45.7267858 73.1991,45.7267858 72.09,45.79 C69.65,45.94 68.09,47.46 66.74,48.79 C65.06,50.44 63.84,51.63 61.36,50.52 C59.5003852,49.5572976 57.8274946,48.2704586 56.42,46.72 C54.59,44.94 52.7,43.1 50.02,42.18 C48.6008924,41.7242368 47.145673,41.3897036 45.67,41.18 C45,41.07 44.34,40.96 43.67,40.83 L43.32,40.76 C40.85,40.28 39.44,39.76 39.54,38.31 C39.61,37.25 41.35,36.41 42.94,35.98 C43.9285687,35.7341156 44.9301386,35.5438174 45.94,35.41 C47.7337263,35.2187398 49.4874747,34.753322 51.14,34.03 C52.9860745,33.0364898 54.6967628,31.8097682 56.23,30.38 L56.93,29.78 C60.2,27.01 65.13,23.4 70.22,24.1 C73.79,24.59 77.42,27.28 77.1,31.3 C76.7223665,34.3019326 74.6022733,36.7950052 71.7,37.65 C69.7,38.23 67.22,37.7 66.6,35.99 C66.3048212,35.1238335 66.521268,34.1652834 67.16,33.51 C67.8257465,32.8813947 68.788318,32.6803757 69.65,32.99 C69.8858422,33.087343 70.1161859,33.1975074 70.34,33.32 C71.1272335,33.865035 72.1114492,34.043652 73.04,33.81 C73.6186864,33.5933588 74.0795895,33.1433432 74.31,32.57 C74.6034383,31.8798979 74.6034383,31.1001021 74.31,30.41 C73.7948957,29.400761 72.893002,28.6431703 71.81,28.31 C69.1237281,27.3067688 66.1059664,27.8179952 63.9,29.65 C61.7233267,31.569415 60.85734,34.5769637 61.68,37.36 C62.7270099,40.1988867 65.2375678,42.2418292 68.23,42.69 C71.0904805,43.0686387 73.9909942,42.393274 76.39,40.79 C79.3224266,39.0552027 81.407093,36.1851672 82.15,32.86 C82.7873246,28.8706023 81.2656086,24.8418592 78.15,22.27 C75.0831927,19.8082162 71.1549117,18.6837908 67.25,19.15 C61.61,19.73 57,23.15 53.61,26 L52.81,26.69 C51.6381128,27.8099849 50.3193637,28.7654052 48.89,29.53 C47.5579321,30.0703118 46.1522406,30.4074081 44.72,30.53 C44,30.63 43.25,30.74 42.5,30.9 C39.8769352,31.2971652 37.5031189,32.6771247 35.86,34.76 C34.12,37.23 34.32,39.24 34.79,40.49 C35.67,42.8 38.25,44.66 41.69,45.49 C42.58,45.7 43.47,45.85 44.33,46.01 C46.86,46.46 49.26,46.88 51.33,48.44 C52.2801188,49.2031535 53.1787451,50.0282862 54.02,50.91 C55.3269043,52.3626833 56.8396436,53.6159996 58.51,54.63 C60.7660924,55.9805753 63.4788605,56.3422777 66.01,55.63 C67.30971,55.1042013 68.4357475,54.2241596 69.26,53.09 C69.7626366,52.4595828 70.3557153,51.9069413 71.02,51.45 C72.36,50.62 74.14,50.71 75.87,50.79 L77.18,50.79 C78.7522278,50.7991998 80.3209988,50.6416523 81.86,50.32 C81.7315735,50.5847118 81.5880022,50.8418045 81.43,51.09 C76.0698746,57.2211352 68.5435114,61.0380765 60.43,61.74 C53.58,62.09 47.03,60.09 42.46,56.15 C41.3487855,55.0975013 39.8804712,54.5044595 38.35,54.49 C36.7341438,54.5998564 35.1501105,54.99248 33.67,55.65 C33.15,55.84 32.61,56.04 32.04,56.23 C28.91,57.29 26.61,54.99 24.18,52.55 C22.9749238,51.2177697 21.5958531,50.0539687 20.08,49.09 C15.5668221,46.71454 10.1731779,46.71454 5.66,49.09 C6.75380552,44.6996564 9.50186151,40.9018215 13.33,38.49 C15.92,36.87 18.59,36.49 21.67,35.98 L22.53,35.85 C25.02,35.45 27.79,34.76 29.45,32.63 C30.4620845,31.1367823 31.0021017,29.3738874 31,27.57 C31.19,25.5 31.33,23.87 33.38,22.75 C34.3242766,22.2639625 35.3036929,21.8494655 36.31,21.51 C37.6280374,21.0781319 38.8954268,20.504789 40.09,19.8 C41.8608564,18.5532855 43.3864077,16.990443 44.59,15.19 L45.25,14.29 C48.57,9.78 51.42,5.88 57.34,6.02 C61.94,6.13 66.26,8.28 70.44,10.36 L72.65,11.45 C74.95,12.55 77.51,13.48 80.51,12.77 C81.9116562,12.3890519 83.2566844,11.8241401 84.51,11.09 C85.5507257,10.4739103 86.6577523,9.97742564 87.81,9.61 C90.7,8.81 93.44,10.32 96.35,11.93 C97.9266925,12.8761916 99.6036506,13.6442384 101.35,14.22 C104.88,15.22 107.95,14.22 110.91,13.28 C112.925803,12.4967383 115.058754,12.057303 117.22,11.98 C118.812601,11.8585157 120.309679,12.7511582 120.96,14.21 C121.42,15.53 120.86,17.02 119.45,18.21 C117.45,19.85 114.21,20.81 110.52,20.84 C109.387027,20.7916126 108.362332,21.5088991 108.02,22.59 C106.51,27.89 99.51,29.63 95.01,28.5 C94.2824524,28.2963003 93.502386,28.4165909 92.87,28.83 L92.89,28.84 Z" id="path-1"></path>
        <path d="M77.19,48.84 L75.88,48.84 C74.15,48.75 72.36,48.67 71.03,49.5 C70.3656617,49.9409034 69.7693553,50.4765684 69.26,51.09 C68.4331595,52.2433635 67.2956709,53.1380953 65.98,53.67 C63.4488605,54.3822777 60.7360924,54.0205753 58.48,52.67 C56.8045814,51.666776 55.2851242,50.4235837 53.97,48.98 C53.1287042,48.0983278 52.2300808,47.2731978 51.28,46.51 C49.28,44.95 46.85,44.51 44.28,44.08 C43.42,43.93 42.53,43.77 41.64,43.56 C38.19,42.76 35.64,40.9 34.74,38.56 C34.641605,38.2966477 34.5646872,38.0257632 34.51,37.75 C34.3264321,38.6899746 34.4060246,39.6623866 34.74,40.56 C35.62,42.87 38.2,44.73 41.64,45.56 C42.53,45.77 43.42,45.92 44.28,46.08 C46.81,46.53 49.21,46.95 51.28,48.51 C52.2300808,49.2731978 53.1287042,50.0983278 53.97,50.98 C55.2970874,52.4117179 56.8266412,53.6414252 58.51,54.63 C60.7660924,55.9805753 63.4788605,56.3422777 66.01,55.63 C67.30971,55.1042013 68.4357475,54.2241596 69.26,53.09 C69.7626366,52.4595828 70.3557153,51.9069413 71.02,51.45 C72.36,50.62 74.14,50.71 75.87,50.79 L77.18,50.79 C78.0812039,50.8128605 78.9829562,50.7794622 79.88,50.69 C80.66,50.69 81.7,50.69 81.88,50.38 C80.26,50.71 78.69,48.86 77.19,48.84 Z" id="path-2"></path>
        <path d="M112.14,23.68 C109.53,29.68 102.14,32.26 96.04,31.68 C95.33,33.08 93.28,37.46 91.86,40.49 C90.78,42.83 89.92,44.66 89.72,45.09 C85.93,52.39 81.57,57.49 76.4,60.65 C71.4782478,63.5549117 65.8547015,65.0559075 60.14,64.99 C57.8810691,64.9884948 55.6274651,64.7708361 53.41,64.34 C50.1557633,63.7144809 47.0096039,62.6197252 44.07,61.09 C43.58,60.84 43.07,60.57 42.61,60.3 C40.28,59.01 38.08,57.79 35.51,58.16 C34.7595613,58.2939386 34.0299806,58.5259251 33.34,58.85 C32.1561249,59.4449571 30.8297213,59.6977703 29.51,59.58 C27.6475461,59.3130024 25.8847072,58.5727478 24.39,57.43 C23.2615469,56.5701453 22.1986146,55.6275449 21.21,54.61 C19.27,52.71 17.45,50.91 14.68,50.49 C11.34,49.97 7,50.96 4.87,54.33 C4.25526839,55.21505 3.14898115,55.6158787 2.11,55.33 C1.13526971,55.1320563 0.404530309,54.3201237 0.31,53.33 C0.276666667,52.9566667 0.25,52.58 0.23,52.2 C0.184880799,53.2439336 0.211610531,54.2897344 0.31,55.33 C0.404530309,56.3201237 1.13526971,57.1320563 2.11,57.33 C3.14898115,57.6158787 4.25526839,57.21505 4.87,56.33 C7.01,52.96 11.34,51.97 14.68,52.49 C17.45,52.92 19.27,54.71 21.21,56.61 C22.1954143,57.6271629 23.2549938,58.5697542 24.38,59.43 C25.8775734,60.5743155 27.6440487,61.3146512 29.51,61.58 C30.8472404,61.7041984 32.1923406,61.4476587 33.39,60.84 C34.0646279,60.5234753 34.7771272,60.2949378 35.51,60.16 C38.04,59.79 40.24,61.01 42.57,62.31 C43.06,62.58 43.57,62.85 44.03,63.1 C46.9701516,64.6262617 50.116289,65.7176412 53.37,66.34 C55.5874651,66.7708361 57.8410691,66.9884948 60.1,66.99 C65.8282428,67.0632425 71.4665975,65.5619873 76.4,62.65 C81.57,59.49 85.93,54.39 89.72,47.09 C89.92,46.7 90.78,44.87 91.86,42.56 C93.28,39.56 95.33,35.15 96.04,33.75 C102.12,34.3 109.53,31.75 112.14,25.75 C118.51,25.2 125.38,22.3 126.14,15.75 C126.218149,15.0856236 126.218149,14.4143764 126.14,13.75 C125.37,20.24 118.51,23.09 112.14,23.68 Z" id="path-3"></path>
        <path d="M92.87,28.83 C92.2596958,29.2512204 91.8592143,29.9138352 91.77,30.65 C91.298557,33.2497032 90.51976,35.7841505 89.45,38.2 C88.9532234,39.4837736 88.3856867,40.7390314 87.75,41.96 C87.6357199,42.1508469 87.5052392,42.3315125 87.36,42.5 C87.1985574,42.683445 87.0638887,42.8888147 86.96,43.11 C84.6890923,44.4371799 82.1890678,45.3259268 79.59,45.73 C78.2057694,45.8934615 76.8083606,45.9135681 75.42,45.79 C74.3109,45.7267858 73.1991,45.7267858 72.09,45.79 C69.65,45.94 68.09,47.46 66.74,48.79 C65.06,50.44 63.84,51.63 61.36,50.52 C59.5003852,49.5572976 57.8274946,48.2704586 56.42,46.72 C54.59,44.94 52.7,43.1 50.02,42.18 C48.6008924,41.7242368 47.145673,41.3897036 45.67,41.18 C45,41.07 44.34,40.96 43.67,40.83 L43.32,40.76 C40.85,40.28 39.44,39.76 39.54,38.31 C39.61,37.25 41.35,36.41 42.94,35.98 C43.9285687,35.7341156 44.9301386,35.5438174 45.94,35.41 C47.7337263,35.2187398 49.4874747,34.753322 51.14,34.03 C52.9860745,33.0364898 54.6967628,31.8097682 56.23,30.38 L56.93,29.78 C60.2,27.01 65.13,23.4 70.22,24.1 C73.79,24.59 77.42,27.28 77.1,31.3 C76.7223665,34.3019326 74.6022733,36.7950052 71.7,37.65 C69.7,38.23 67.22,37.7 66.6,35.99 C66.3048212,35.1238335 66.521268,34.1652834 67.16,33.51 C67.8257465,32.8813947 68.788318,32.6803757 69.65,32.99 C69.8858422,33.087343 70.1161859,33.1975074 70.34,33.32 C71.1272335,33.865035 72.1114492,34.043652 73.04,33.81 C73.6186864,33.5933588 74.0795895,33.1433432 74.31,32.57 C74.6034383,31.8798979 74.6034383,31.1001021 74.31,30.41 C73.7948957,29.400761 72.893002,28.6431703 71.81,28.31 C69.1237281,27.3067688 66.1059664,27.8179952 63.9,29.65 C61.7233267,31.569415 60.85734,34.5769637 61.68,37.36 C62.7270099,40.1988867 65.2375678,42.2418292 68.23,42.69 C71.0904805,43.0686387 73.9909942,42.393274 76.39,40.79 C79.3224266,39.0552027 81.407093,36.1851672 82.15,32.86 C82.7873246,28.8706023 81.2656086,24.8418592 78.15,22.27 C75.0831927,19.8082162 71.1549117,18.6837908 67.25,19.15 C61.61,19.73 57,23.15 53.61,26 L52.81,26.69 C51.6381128,27.8099849 50.3193637,28.7654052 48.89,29.53 C47.5579321,30.0703118 46.1522406,30.4074081 44.72,30.53 C44,30.63 43.25,30.74 42.5,30.9 C39.8769352,31.2971652 37.5031189,32.6771247 35.86,34.76 C34.12,37.23 34.32,39.24 34.79,40.49 C35.67,42.8 38.25,44.66 41.69,45.49 C42.58,45.7 43.47,45.85 44.33,46.01 C46.86,46.46 49.26,46.88 51.33,48.44 C52.2801188,49.2031535 53.1787451,50.0282862 54.02,50.91 C55.3269043,52.3626833 56.8396436,53.6159996 58.51,54.63 C60.7660924,55.9805753 63.4788605,56.3422777 66.01,55.63 C67.30971,55.1042013 68.4357475,54.2241596 69.26,53.09 C69.7626366,52.4595828 70.3557153,51.9069413 71.02,51.45 C72.36,50.62 74.14,50.71 75.87,50.79 L77.18,50.79 C78.7522278,50.7991998 80.3209988,50.6416523 81.86,50.32 C81.7315735,50.5847118 81.5880022,50.8418045 81.43,51.09 C76.0698746,57.2211352 68.5435114,61.0380765 60.43,61.74 C53.58,62.09 47.03,60.09 42.46,56.15 C41.3487855,55.0975013 39.8804712,54.5044595 38.35,54.49 C36.7341438,54.5998564 35.1501105,54.99248 33.67,55.65 C33.15,55.84 32.61,56.04 32.04,56.23 C28.91,57.29 26.61,54.99 24.18,52.55 C22.9749238,51.2177697 21.5958531,50.0539687 20.08,49.09 C15.5668221,46.71454 10.1731779,46.71454 5.66,49.09 C6.75380552,44.6996564 9.50186151,40.9018215 13.33,38.49 C15.92,36.87 18.59,36.49 21.67,35.98 L22.53,35.85 C25.02,35.45 27.79,34.76 29.45,32.63 C30.4620845,31.1367823 31.0021017,29.3738874 31,27.57 C31.19,25.5 31.33,23.87 33.38,22.75 C34.3242766,22.2639625 35.3036929,21.8494655 36.31,21.51 C37.6280374,21.0781319 38.8954268,20.504789 40.09,19.8 C41.8608564,18.5532855 43.3864077,16.990443 44.59,15.19 L45.25,14.29 C48.57,9.78 51.42,5.88 57.34,6.02 C61.94,6.13 66.26,8.28 70.44,10.36 L72.65,11.45 C74.95,12.55 77.51,13.48 80.51,12.77 C81.9116562,12.3890519 83.2566844,11.8241401 84.51,11.09 C85.5507257,10.4739103 86.6577523,9.97742564 87.81,9.61 C90.7,8.81 93.44,10.32 96.35,11.93 C97.9266925,12.8761916 99.6036506,13.6442384 101.35,14.22 C104.88,15.22 107.95,14.22 110.91,13.28 C112.925803,12.4967383 115.058754,12.057303 117.22,11.98 C118.812601,11.8585157 120.309679,12.7511582 120.96,14.21 C121.42,15.53 120.86,17.02 119.45,18.21 C117.45,19.85 114.21,20.81 110.52,20.84 C109.387027,20.7916126 108.362332,21.5088991 108.02,22.59 C106.51,27.89 99.51,29.63 95.01,28.5 C94.2824524,28.2963003 93.502386,28.4165909 92.87,28.83 Z" id="path-4"></path>
        <path d="M58.58,59.09 C53.3352761,59.2068837 48.2237106,57.4320346 44.18,54.09 C42.5868372,52.6317909 40.5096964,51.8158985 38.35,51.8 C36.4176821,51.9197978 34.5233864,52.3908302 32.76,53.19 C32.26,53.38 31.76,53.57 31.21,53.75 C30.9853197,53.8312255 30.7488623,53.875139 30.51,53.88 C29.22,53.88 27.68,52.33 26.05,50.7 C24.6755758,49.1922169 23.1009123,47.8799974 21.37,46.8 C18.8089791,45.3949671 15.9310422,44.6685978 13.01,44.69 C12.1368602,44.6888624 11.2647172,44.7490102 10.4,44.87 C11.5388266,43.201199 13.0094275,41.7850648 14.72,40.71 C16.86,39.38 19.16,39.02 22.07,38.57 L22.93,38.44 C25.76,37.99 29.29,37.11 31.52,34.23 C32.8457798,32.3447851 33.57398,30.104437 33.61,27.8 C33.8,25.65 33.93,25.43 34.61,25.04 C35.4327012,24.6214785 36.2849868,24.2638528 37.16,23.97 C38.6620653,23.4623528 40.1039992,22.7916859 41.46,21.97 C43.5031888,20.5527156 45.2662481,18.7693133 46.66,16.71 L47.32,15.81 C50.72,11.19 52.83,8.6 56.98,8.6 L57.23,8.6 C61.23,8.69 65.3,10.71 69.23,12.66 L71.51,13.81 C73.6289694,14.9411083 75.979347,15.5706126 78.38,15.65 C79.2894103,15.6491725 80.1955906,15.5417733 81.08,15.33 C82.7065257,14.875354 84.2640058,14.2025764 85.71,13.33 C86.5954394,12.8160268 87.5343322,12.4002314 88.51,12.09 C88.8157966,12.0033231 89.1321568,11.9595711 89.45,11.96 C91.08,11.96 93.02,13.03 95.08,14.17 C96.7897232,15.2136835 98.6111071,16.0623209 100.51,16.7 C101.729885,17.0461707 102.99195,17.221177 104.26,17.22 C106.770547,17.1185805 109.248626,16.6155372 111.6,15.73 C113.301885,15.0647187 115.096433,14.6666799 116.92,14.55 L117.05,14.55 C117.84,14.55 118.29,14.84 118.36,15.03 C118.43,15.22 118.23,15.63 117.65,16.11 C116.15,17.35 113.42,18.11 110.36,18.11 C108.039152,18.0619603 105.980965,19.5932508 105.36,21.83 C104.59,24.83 100.88,26.17 97.76,26.17 C97.0362903,26.1767378 96.3144099,26.0961558 95.61,25.93 C95.1654317,25.8173602 94.708616,25.7602582 94.25,25.76 C93.2246264,25.7556561 92.2214783,26.0586904 91.37,26.63 C90.1428835,27.4619474 89.3310495,28.7798124 89.14,30.25 C88.6970673,32.6426455 87.9754872,34.9751952 86.99,37.2 C86.5308015,38.3943898 86.006687,39.5627979 85.42,40.7 L85.3,40.84 L85.07,41.14 C83.2324155,42.1397057 81.2367105,42.8162158 79.17,43.14 C78.6203431,43.219532 78.0653452,43.256309 77.51,43.25 L77.4,43.25 L77.79,43.01 C81.3357135,40.8839812 83.8467448,37.3887994 84.73,33.35 C85.5347426,28.4263458 83.670053,23.4449607 79.83,20.26 C76.747031,17.7460481 72.8776715,16.3972594 68.9,16.45 C68.2587266,16.4510637 67.6179142,16.4844394 66.98,16.55 C60.62,17.21 55.58,20.89 51.9,24.02 L51.08,24.73 C50.0863047,25.6852416 48.9738395,26.5086676 47.77,27.18 C46.6744449,27.6116617 45.5227857,27.8844231 44.35,27.99 C43.62,28.09 42.8,28.21 41.95,28.4 C40.56,28.7 36.33,29.61 33.72,33.31 C31.11,37.01 31.72,39.98 32.34,41.49 C33.51,44.6 36.8,47.09 41.09,48.09 C42.03,48.31 42.94,48.47 43.82,48.63 C46.17,49.05 48.16,49.4 49.69,50.57 C50.5465134,51.2574222 51.3581711,51.9989366 52.12,52.79 C53.6094611,54.4176516 55.3314178,55.8161096 57.23,56.94 C59.1169692,57.9959299 61.228956,58.5856405 63.39,58.66 C62.3666227,58.8635757 61.3311139,59.0005301 60.29,59.07 C59.72,59.09 59.14,59.09 58.58,59.09 Z M69.35,56.75 C70.0325433,56.1745068 70.6617615,55.5385948 71.23,54.85 C71.5700825,54.4130876 71.9630876,54.0200825 72.4,53.68 C72.990794,53.420779 73.6372579,53.3141812 74.28,53.37 L75.08,53.37 C73.301537,54.7060958 71.3796681,55.8397637 69.35,56.75 L69.35,56.75 Z M63.13,48.3 C62.8857705,48.2800938 62.6478812,48.2121254 62.43,48.1 C60.8583731,47.2552397 59.4442951,46.1456283 58.25,44.82 C56.31,42.93 54.11,40.82 50.87,39.68 C49.310423,39.1841907 47.7112453,38.8228702 46.09,38.6 L44.51,38.32 C45.08,38.2 45.68,38.11 46.34,38.01 C48.4116488,37.7891177 50.4360642,37.2458996 52.34,36.4 C54.3845998,35.3154167 56.2803267,33.9709296 57.98,32.4 L58.69,31.8 C59.05,31.49 59.44,31.17 59.85,30.8 C58.7212069,33.0813878 58.5135248,35.7096401 59.27,38.14 C60.4878206,41.5927523 63.3577272,44.2034657 66.91,45.09 C66.2068209,45.6445698 65.5388614,46.2423936 64.91,46.88 C64.2,47.58 63.51,48.3 63.13,48.3 Z" id="path-5"></path>
        <path d="M50.67,55.09 C48.9280393,54.3988393 47.3153504,53.4183785 45.9,52.19 C45.62,51.95 45.3366667,51.7233333 45.05,51.51 C46.1196746,51.666356 47.1429854,52.0518031 48.05,52.64 C48.8135426,53.2616745 49.5382365,53.9295952 50.22,54.64 L50.67,55.09 Z M30.51,51.21 C29.5558192,50.5104748 28.6716856,49.720113 27.87,48.85 C26.3250075,47.1707189 24.5548529,45.7135384 22.61,44.52 C20.8530062,43.5444313 18.9529171,42.8525694 16.98,42.47 C18.7570203,41.7916977 20.6168905,41.3544768 22.51,41.17 L23.37,41.03 C25.4062203,40.7559231 27.3908989,40.1830957 29.26,39.33 C29.3229613,40.3841378 29.5454936,41.4226219 29.92,42.41 C31.2418521,45.531543 33.7222848,48.0191446 36.84,49.35 C35.1451596,49.6158161 33.4872281,50.078963 31.9,50.73 L30.51,51.21 Z M57.19,40.33 C56.2532716,39.5729857 55.2490625,38.903513 54.19,38.33 C54.8789035,37.9463785 55.546546,37.5257637 56.19,37.07 C56.2840297,37.7176576 56.4311929,38.3564797 56.63,38.98 C56.797584,39.4421583 56.9946557,39.8930851 57.22,40.33 L57.19,40.33 Z M87.19,27.72 C86.3904802,24.0270557 84.3937541,20.7015224 81.51,18.26 L81.18,17.99 L81.68,17.88 C83.5247137,17.3877901 85.2941666,16.6477147 86.94,15.68 C87.6414482,15.2602336 88.3814949,14.9086276 89.15,14.63 C89.229567,14.6182293 89.310433,14.6182293 89.39,14.63 C90.39,14.63 92.16,15.63 93.76,16.51 C95.669501,17.6502939 97.7025858,18.5695435 99.82,19.25 C100.974305,19.5797487 102.161506,19.7809692 103.36,19.85 C103.14475,20.2954543 102.973924,20.7610378 102.85,21.24 C102.47,22.73 99.98,23.62 97.79,23.62 C97.2817315,23.6229345 96.7748928,23.5658732 96.28,23.45 C95.6263226,23.2838258 94.9544686,23.1998441 94.28,23.2 C92.7351001,23.1943312 91.2237602,23.650519 89.94,24.51 C88.7477946,25.3037316 87.8020032,26.415816 87.21,27.72 L87.19,27.72 Z M36.31,27.09 C36.83,26.85 37.43,26.63 38.09,26.38 C39.7663256,25.8176488 41.3759424,25.073201 42.89,24.16 C45.2055418,22.5755469 47.2034053,20.5708996 48.78,18.25 L49.45,17.34 C53.01,12.5 54.35,11.2 57,11.2 L57.22,11.2 C59.98,11.26 63,12.52 66,13.96 C59.25,14.87 54,18.69 50.19,21.96 L49.35,22.69 C48.5300212,23.4799169 47.620516,24.1712751 46.64,24.75 C45.7743544,25.054356 44.8740278,25.2492028 43.96,25.33 C43.23,25.43 42.32,25.56 41.38,25.77 C39.5898091,26.1211115 37.8612032,26.7343791 36.25,27.59 C36.28,27.44 36.3,27.27 36.31,27.09 Z" id="path-6"></path>
    </defs>
    <g id="Page-1" stroke="none" stroke-width="1" fill="none" fill-rule="evenodd">
        <g id="Superhero-LP-Traveloka" transform="translate(-252.000000, -265.000000)" fill-rule="nonzero">
            <g id="Group-18" transform="translate(319.500000, 299.500000) rotate(-345.000000) translate(-319.500000, -299.500000) translate(256.000000, 266.000000)">
                <g id="Shape">
                    <use fill="#99C7FF" fill-rule="evenodd" xlink:href="#path-1"></use>
                    <use fill-opacity="0.7" fill="#061D3B" fill-rule="evenodd" xlink:href="#path-1"></use>
                </g>
                <g id="Shape">
                    <use fill="#122B63" fill-rule="evenodd" xlink:href="#path-2"></use>
                    <use fill-opacity="0.7" fill="#061D3B" fill-rule="evenodd" xlink:href="#path-2"></use>
                </g>
                <g id="Shape">
                    <use fill="#122B63" fill-rule="evenodd" xlink:href="#path-3"></use>
                    <use fill-opacity="0.7" fill="#061D3B" fill-rule="evenodd" xlink:href="#path-3"></use>
                </g>
                <g id="Shape">
                    <use fill="#3678D8" fill-rule="evenodd" xlink:href="#path-4"></use>
                    <use fill-opacity="0.7" fill="#061D3B" fill-rule="evenodd" xlink:href="#path-4"></use>
                </g>
                <g id="Shape">
                    <use fill="#1B448E" fill-rule="evenodd" xlink:href="#path-5"></use>
                    <use fill-opacity="0.7" fill="#061D3B" fill-rule="evenodd" xlink:href="#path-5"></use>
                </g>
                <g id="Shape">
                    <use fill="#122B63" fill-rule="evenodd" xlink:href="#path-6"></use>
                    <use fill-opacity="0.7" fill="#061D3B" fill-rule="evenodd" xlink:href="#path-6"></use>
                </g>
            </g>
        </g>
    </g>
</svg>