<?xml version="1.0" encoding="UTF-8"?>
<svg width="423px" height="228px" viewBox="0 0 423 228" version="1.1" xmlns="http://www.w3.org/2000/svg" xmlns:xlink="http://www.w3.org/1999/xlink">
    <!-- Generator: Sketch 46.1 (44463) - http://www.bohemiancoding.com/sketch -->
    <title>Group 20 Copy</title>
    <desc>Created with Sketch.</desc>
    <defs>
        <path d="M422.58135,54.4585471 C416.193688,44.0638335 404.917509,37.982926 393.380609,34.9684591 C384.789856,32.7465891 375.873201,32.0969195 367.047798,31.5771838 C355.628223,30.9145208 345.329748,30.5507058 337.495085,21.2604305 C333.68856,16.7517235 330.651161,11.5413733 326.297122,7.55240198 C316.037755,-1.85481383 299.247329,-2.47849664 288.075439,5.70734031 C288.075439,5.70734031 278.663414,1.80932272 277.542314,1.57544166 C273.898153,0.983655443 270.201752,0.774616763 266.51382,0.951758844 C258.125451,1.0052589 249.769454,1.99458647 241.601939,3.90125883 C219.97514,9.09861563 198.817639,20.480827 186.303036,39.2302917 C185.924991,39.8020009 178.220688,39.4511793 176.956192,39.5811132 C173.345826,39.9042594 169.79957,40.7354277 166.423068,42.0498577 C159.798271,45.0286409 154.435966,50.2354118 151.275184,56.7583775 C150.584273,58.0577167 143.974998,58.9412673 142.293349,59.7728444 C139.725993,61.0628037 137.460539,62.8780915 135.644966,65.1001351 C134.562974,66.3994743 133.533126,69.3489743 132.047017,70.2195316 C131.59592,70.432917 131.098668,70.5311491 130.600016,70.5053862 C118.971864,70.8821946 108.516956,74.5593245 100.786582,83.6417055 C100.290933,84.1979627 100.03356,84.9255768 100.069599,85.6686747 C100.001463,86.7740495 100.623328,87.8071001 101.633925,88.2673531 C109.963957,92.5031988 118.176666,97.6485821 126.989032,100.81897 C128.49493,101.372766 130.042334,101.807229 131.616828,102.118309 C110.602724,104.937875 87.515888,102.599064 72.4201481,118.762844 C68.5093346,122.907736 65.3937199,133.276463 59.2015985,133.913139 C55.0300642,134.341921 52.3446389,132.431892 48.1991767,134.004093 C45.263448,135.223494 42.6881091,137.168802 40.7164869,139.656218 C35.7236817,145.711139 33.6900587,153.572141 25.9596841,156.794502 C19.1679047,159.666042 10.551079,159.27624 5.03683205,154.078884 C3.27696599,152.415729 -0.373126575,153.819016 0.0309908163,156.443681 C1.61677012,167.023725 7.50641922,176.484951 16.3130109,182.599379 C20.1879311,185.354488 24.5285477,187.39226 29.127443,188.615319 C35.7106457,190.330447 41.7202624,189.148049 48.3556092,188.81022 C51.6537286,188.641306 55.2516769,188.368445 57.1679755,191.486859 C58.171751,193.124026 58.47158,195.384877 59.0973102,197.100004 C60.2708897,200.736674 62.7872503,203.792874 66.1367744,205.649656 C70.5820657,207.975474 75.7313035,207.598665 80.4764238,208.57317 C87.1248067,209.872509 91.6222422,215.069866 96.6932636,219.175777 C105.088477,225.932341 114.73515,228.946808 125.372562,225.672473 C137.000714,222.034324 144.326972,212.770035 154.051861,206.182385 C160.08755,202.128447 166.097167,205.532716 172.510901,206.065445 C184.556206,207.065936 190.031345,198.100496 198.817639,192.097548 C205.948356,187.225026 213.222469,189.49887 221.200528,189.42091 C231.003634,189.42091 243.192336,182.83326 238.799189,171.230161 C234.562474,160.081831 220.548726,158.964399 210.11989,160.835447 C203.328111,151.07741 188.792921,149.778071 178.142472,153.935956 C175.831998,149.454534 173.090245,145.207407 169.955836,141.254406 C176.669941,143.424394 183.258811,145.961962 189.692408,148.85554 C200.121244,153.546154 211.853684,157.950914 223.273259,159.367194 C233.337086,160.666533 239.711712,154.728553 246.568672,148.439751 C249.762503,145.516238 253.308307,142.137956 257.492877,140.643716 C263.789287,138.47382 271.024292,140.448815 277.529278,140.279901 C295.779741,139.825132 316.129007,130.39193 317.093674,109.914344 C317.393504,103.664523 316.989386,97.7265424 324.120103,95.6216129 C328.435034,94.3222737 333.088902,94.5561548 337.469013,93.5166834 C346.281379,91.4377407 351.952059,84.8630844 357.427197,78.1325073 C372.705442,59.3570559 395.922638,51.8208885 419.387519,58.9802475 C422.046872,59.7988312 423.858882,56.5244964 422.58135,54.4585471 Z M367.829961,60.1106726 C359.930118,65.3080294 354.859097,72.5713355 348.653939,79.4448399 C345.251531,83.2129236 341.471078,86.4352848 336.452201,87.7086372 C331.824405,88.8780425 326.935888,88.6441614 322.334165,89.9824808 C313.743411,92.4772121 311.422995,99.1558155 311.253526,107.432606 C311.005842,119.958236 303.079926,128.754763 291.191053,132.366925 C279.784514,135.836161 268.078146,132.003111 256.815003,134.79669 C247.429051,137.122507 243.661634,145.802093 236.296268,150.986456 C229.517525,155.742038 221.135348,153.143359 213.822127,151.15537 C206.546828,149.170211 199.434485,146.633436 192.547302,143.567229 C176.552075,136.446851 155.524934,127.065622 137.795913,131.80821 C133.976352,132.834688 129.648385,134.731723 125.646319,133.484357 C121.865866,132.288965 119.402054,128.624829 115.139267,128.287 C110.87648,127.949172 106.613694,130.171042 103.406827,133.068569 C99.1049319,136.966586 97.1104171,142.540751 93.5515768,147.036465 C89.3409343,152.350762 83.1227409,154.02691 77.2825928,157.01539 C69.6434705,160.913408 63.8163584,168.982304 72.0681748,175.985742 C75.6270151,179.026196 80.0071262,179.623892 84.5306338,179.467971 C88.7152042,179.325044 92.7042339,178.31156 96.9018404,179.130143 C100.604077,179.84478 103.941305,181.728822 107.330676,183.417963 C115.386952,187.445914 124.420931,190.668275 133.637415,189.277982 C140.371483,188.415189 146.476587,184.895177 150.584273,179.506952 C154.62839,174.010854 155.470378,166.798391 152.800401,160.523606 C150.158189,155.37481 145.511617,151.532559 139.946861,149.895011 C135.328285,148.261931 130.273566,148.344978 125.7115,150.128892 C121.1258,152.013127 117.940205,156.245029 117.407539,161.160282 C117.221835,165.82319 119.763788,170.17091 123.925561,172.308612 C128.145897,174.313 133.119942,173.911421 136.961606,171.256148 C138.35778,170.411558 139.364534,169.053387 139.764356,167.475071 C140.094685,165.83465 139.044757,164.233111 137.404832,163.875901 C135.592822,163.693994 134.315289,165.526062 132.816144,166.565533 C130.916925,167.893327 128.415395,167.99566 126.413398,166.827457 C124.411402,165.659255 123.276432,163.434956 123.508408,161.134295 C123.938597,156.742529 129.074799,154.286778 133.494018,154.468685 C139.710235,154.689535 145.191875,158.592912 147.416514,164.382643 C150.023723,172.178679 144.49644,179.415998 137.496084,182.235564 C128.475141,185.86072 118.189702,182.092637 109.976993,178.077679 C106.157432,176.219623 102.337871,174.179661 98.1402646,173.25713 C93.0431711,172.191672 88.1416182,173.581965 83.0445246,173.491011 C80.5155319,173.491011 75.4836186,172.919302 74.440735,169.774901 C72.9285538,165.21422 78.6253054,162.888403 81.4801993,161.524097 C84.9738593,159.84795 88.7152042,158.561604 91.9872514,156.430687 C99.6263737,151.454218 101.412312,142.034009 108.30838,136.628758 C116.755737,130.015122 121.435677,141.553254 130.235007,139.903093 C134.836731,139.045529 138.969157,137.01856 143.714278,136.563791 C149.074694,136.060942 154.481884,136.630815 159.618252,138.239939 C158.862162,138.460826 160.374343,139.097503 161.286866,140.085 C163.005315,142.013211 164.615549,144.0346 166.110203,146.139921 C169.178932,150.051207 171.769606,154.312706 173.827541,158.834465 C174.137749,159.700503 174.824532,160.380078 175.695648,160.682961 C176.566763,160.985844 177.528607,160.879491 178.311941,160.393672 C186.876622,155.794011 201.020731,156.495654 206.169969,165.837903 C206.926006,166.950692 208.325328,167.436739 209.611484,167.033295 C215.269128,165.668989 222.3477,165.240207 227.757659,167.812899 C235.774827,171.606969 234.562474,180.598397 226.323694,182.807273 C216.585768,185.405952 206.834807,180.351522 197.461891,185.78276 C189.953129,190.122553 184.152089,200.439306 174.661848,200.231412 C169.786367,200.127465 165.223752,197.749674 160.322199,197.814641 C155.420646,197.879608 151.666265,200.270392 148.016172,203.310846 C140.31187,209.729581 132.542387,217.369696 122.595885,220.137288 C110.628796,223.450603 102.924493,216.239271 94.3467756,209.300799 C91.5441198,206.776826 88.3010473,204.786264 84.7783186,203.427786 C80.5155319,202.0245 75.9398802,202.349335 71.6119133,201.21891 C62.9299074,198.971053 65.6022966,189.862685 59.5796438,185.159077 C56.0468757,182.404478 51.1844309,182.560399 46.9477164,182.885234 C40.6513067,183.456943 34.941519,184.184573 28.7624337,182.261551 C19.2664861,179.148485 11.6335582,172.016029 7.90476193,162.771463 C16.938741,166.357639 28.4234966,164.421624 35.4629608,157.794994 C41.7854426,151.831027 44.1840748,138.499807 54.7563072,139.31839 C61.9261319,139.864113 65.7848012,139.006549 70.1127681,132.821694 C75.0534291,125.753289 78.6383415,119.828302 86.8119416,115.930285 C94.3207035,112.422069 102.611628,111.109736 110.798264,110.408093 C120.927271,109.537536 131.14753,108.822899 141.06796,106.432115 C150.701598,104.106298 158.96645,98.1683178 168.339366,104.4961 C178.077292,111.070756 187.267703,118.035214 198.569954,121.829285 C216.639043,127.869201 236.487551,125.33702 252.447928,114.95578 C258.105571,111.213683 264.180368,106.549056 267.804389,100.766996 C271.011256,95.6475997 273.201311,88.930016 279.184856,86.344331 C281.810086,85.4488528 284.548145,84.9240258 287.319348,84.785124 C305.452486,82.4463134 317.302251,67.5688796 332.450135,59.1751484 C337.401083,56.2648728 342.980116,54.5805985 348.719119,54.2636462 C350.439877,54.2636462 352.317068,54.2636462 353.711925,53.2761484 C359.26528,49.2222101 343.635062,44.8694238 341.497151,44.0768269 C334.666263,41.4781485 327.053213,39.074371 319.674811,39.9319348 C312.29641,40.7894987 305.335162,44.8304436 297.852472,43.6480449 C292.442514,42.8034745 287.853826,39.2692718 282.652444,37.5411507 C271.650022,33.8640208 262.094601,41.1922939 251.574513,42.9074216 C239.920289,44.8044568 231.916157,36.8265141 221.018024,34.9814525 C208.516457,32.8635296 196.340791,42.5695934 191.804247,54.3675933 C188.649524,62.5924105 188.584344,72.5583421 193.759654,79.6397408 C200.381965,88.7351152 213.48319,90.8270513 224.550792,88.5142275 C231.381679,87.0849544 238.799189,83.7456526 242.68393,77.4568509 C246.568672,71.1680492 245.955978,60.5654413 238.06917,57.4210405 C232.046518,54.9652894 224.303107,59.396036 223.364512,65.8147717 C222.941237,67.7552464 223.546639,69.7764607 224.967945,71.1680492 C226.493163,72.4024214 229.282876,71.9216659 229.76521,70.0246307 C229.832957,68.9811002 229.767249,67.9332185 229.569669,66.9062166 C229.569669,63.8137893 233.676023,61.8777739 236.400557,63.3460272 C239.12509,64.8142805 240.089757,68.478417 239.19027,71.427917 C238.096632,74.3466093 236.054517,76.816573 233.38923,78.4443487 C224.563828,84.5382496 208.412168,86.3703178 200.421073,77.8466527 C192.429977,69.3229875 195.871493,55.7578863 202.728453,47.8579039 C207.938627,41.3470667 216.837123,39.0489703 224.563828,42.2187718 C231.08185,44.6225493 237.078431,48.4036264 244.117895,49.118263 C252.135063,49.9238533 259.161491,46.3506705 266.552928,43.9209062 C271.337157,42.322719 275.964953,41.5561088 280.814362,43.2582432 C287.332384,45.5450802 292.885739,49.8458929 300.00342,49.7549392 C307.1211,49.6639854 313.534834,46.3506705 320.430902,45.869915 C326.805528,45.3761661 333.466947,47.3511617 339.711212,49.7679326 C327.079285,53.4320691 316.585269,63.4109942 305.648027,70.7522606 C301.588838,73.6147697 297.165569,75.92622 292.494658,77.625765 C287.801682,79.2109588 283.082633,78.7172099 278.402693,79.8736218 C270.972148,81.7186835 268.443155,88.9689962 264.57145,94.7250689 C253.426151,110.957441 234.581842,120.205877 214.878047,119.113666 C205.067791,118.41402 195.587236,115.287992 187.293776,110.018291 C179.79805,105.41863 172.784658,99.8314719 164.493733,96.6480909 C160.780533,95.1583284 156.828158,94.3484318 152.826473,94.2573068 C147.455622,94.2573068 142.397637,96.4401966 137.183219,96.6480909 C127.432257,97.0378927 116.846989,89.9045204 107.917298,84.8890711 C114.278638,78.8863946 122.898287,75.8588427 131.629864,76.5603069 C132.871848,76.8261654 134.166117,76.6989789 135.332101,76.1964919 C136.183989,75.5569032 136.846194,74.6993014 137.248399,73.714754 C139.477563,69.5308818 142.241204,65.7108246 147.064541,64.3854986 C149.038558,64.0388468 150.989038,63.5701803 152.904689,62.9822122 C158.119107,60.8253092 159.696469,54.3416066 163.750679,50.8333907 C168.584993,46.9723223 174.700012,45.0658917 180.880041,45.4931066 C182.878038,45.6967363 184.891661,45.6967363 186.889658,45.4931066 C191.295841,44.7914634 192.02586,41.0753533 194.411456,38.0089128 C204.840292,24.5737455 220.261933,15.9201464 236.478773,11.3594658 C250.179656,7.46144823 273.853114,1.84830289 286.172176,11.5803535 C287.418822,12.6343941 289.272144,12.5434521 290.408891,11.3724592 C299.390726,3.35553636 314.655934,4.20010684 323.155435,12.4509108 C327.144465,16.3489284 329.673458,21.4683248 333.271406,25.6911772 C345.85119,40.2957498 366.343852,36.4497058 383.421071,38.8794701 C394.045447,40.3867036 404.68286,43.816959 412.321982,51.1582255 C396.875095,48.50291 380.990069,51.690835 367.777817,60.0976792 L367.829961,60.1106726 Z" id="path-1"></path>
        <path d="M382.191231,39.0810662 C365.129981,36.6645745 344.65648,40.4971823 332.088459,25.894297 C328.467827,21.6849243 325.980271,16.5271436 321.981947,12.6555602 C313.490393,4.41870136 298.226435,3.56123657 289.266022,11.5772332 C288.130339,12.7480908 286.278749,12.8390223 285.033269,11.7851035 C272.725725,2.05417723 249.06138,7.66667408 235.386331,11.5642413 C219.184655,16.1893545 203.803482,24.7769943 193.358349,38.2106095 C190.974984,41.2766957 190.245648,44.9923765 185.843585,45.6939386 C183.847447,45.8973643 181.835725,45.8973643 179.839587,45.6939386 C173.665337,45.2667731 167.556035,47.1729834 162.726241,51.0336058 C158.675822,54.5284244 157.060864,61.0243699 151.890393,63.1810237 C149.976533,63.7689239 148.027877,64.2375362 146.055706,64.584148 C141.249903,65.883337 138.475822,69.7809043 136.248743,73.9123256 C135.840894,74.8825503 135.179782,75.7259782 134.334236,76.3548011 C133.169343,76.8572301 131.876284,76.9844019 130.635461,76.718574 C121.912049,76.0171909 113.300459,79.044393 106.945068,85.0463761 C115.866409,90.0742378 126.480851,97.193794 136.183623,96.8040373 C141.497357,96.596167 146.498517,94.3485699 151.81225,94.4135294 C155.810194,94.5046439 159.758873,95.3144469 163.468601,96.8040373 C171.738749,99.9870506 178.745583,105.573564 186.247324,110.172693 C194.53303,115.441785 204.00472,118.567451 213.805803,119.267017 C233.498725,120.350508 252.327046,111.087557 263.45274,94.8422618 C267.359897,89.1128379 269.834429,81.8503709 277.271051,79.9925305 C281.946615,78.8232603 286.661251,79.3299441 291.349839,77.7449334 C296.016382,76.0455848 300.435516,73.7344015 304.490909,70.8722231 C315.417924,63.5447967 325.902128,53.5670245 338.522244,49.8903194 C332.218698,47.4868196 325.628627,45.5120522 319.259961,45.9927521 C312.33127,46.5254197 305.806319,49.695441 298.825532,49.7993761 C291.844745,49.9033113 286.140297,45.6029954 279.654417,43.3034307 C274.809542,41.601493 270.199097,42.3680146 265.406319,43.9660172 C258.021792,46.4214845 251.001934,50.0072464 242.992263,49.1627735 C235.920309,48.4482195 229.968407,44.6675793 223.45648,42.2640794 C215.737,39.0946441 206.846824,41.3924751 201.641522,47.9025601 C194.790974,55.8276135 191.456867,69.4690989 199.336299,77.8878442 C207.215732,86.3065895 223.443456,84.5916599 232.27363,78.4854712 C234.936424,76.8578835 236.976629,74.3882051 238.069246,71.4698501 C238.967892,68.5206909 238.069246,64.8439858 235.282141,63.388894 C232.495035,61.9338022 228.418569,63.869594 228.45764,66.9486721 C228.655035,67.9755553 228.720681,69.0233159 228.652998,70.0667259 C228.171115,71.963542 225.38401,72.4442419 223.860219,71.2100123 C222.440242,69.8185845 221.835406,67.7976038 222.258285,65.8573533 C223.182979,59.4393592 230.932173,55.0221163 236.949194,57.4645918 C244.763507,60.6735888 245.505867,71.1060772 241.559639,77.4980875 C237.613411,83.8900978 230.267956,87.1250786 223.443456,88.5541866 C212.386202,90.8667432 199.284204,88.8140244 192.681109,79.6807251 C187.471567,72.5351852 187.575758,62.6353643 190.727531,54.4114974 C195.259832,42.6148605 207.424113,32.909918 219.913991,35.0275962 C230.78891,36.8724447 238.785558,44.8494657 250.441908,42.9526497 C260.95216,41.2377201 270.498646,33.8583261 281.49078,37.5869987 C286.700322,39.3279121 291.271696,42.7837551 296.676596,43.6931874 C304.204384,44.8754495 311.146099,40.8349715 318.47853,39.9775067 C325.810961,39.1200419 333.455964,41.5755092 340.280464,44.1219198 C342.4294,44.9144252 358.045003,49.3186762 352.483817,53.3201786 C351.090264,54.3335461 349.227853,54.2555947 347.49568,54.3075623 C341.762043,54.6244779 336.188227,56.3085576 331.241908,59.218497 C316.095164,67.6242504 304.269504,82.4869736 286.15332,84.8255139 C283.384709,84.9643997 280.64921,85.489166 278.026435,86.3845408 C272.048485,88.982919 269.847453,95.6867347 266.656609,100.80554 C263.035977,106.599923 256.96686,111.199052 251.314507,114.992685 C235.369054,125.372725 215.539105,127.904614 197.486912,121.865395 C186.208253,118.071763 177.013411,111.108109 167.284591,104.534212 C157.920438,98.2071615 149.663314,104.144456 140.038685,106.470004 C130.127531,108.873504 119.916828,109.575066 109.797292,110.445523 C101.618311,111.147085 93.3351386,112.472258 85.8333978,115.967076 C77.6674404,119.786692 74.1119278,125.762962 69.1498388,132.856534 C64.8259188,139.053666 60.9708575,139.924123 53.8077369,139.35248 C43.2453901,138.546983 40.7838814,151.863671 34.5324307,157.826949 C27.5125725,164.465805 16.0255319,166.388605 7,162.802843 C10.7253096,172.046341 18.3511004,179.177973 27.8381689,182.290679 C34.0114765,184.252455 39.7029014,183.485933 46.0064475,182.91429 C50.2261767,182.537525 55.1231464,182.43359 58.6265635,185.187871 C64.6435848,189.890935 61.9867182,198.998251 70.6475822,201.245848 C74.9584784,202.363151 79.5298517,202.051345 83.8016763,203.454469 C87.3211111,204.81279 90.5611511,206.803122 93.3611863,209.326804 C101.930883,216.303449 109.627982,223.487965 121.583881,220.162041 C131.521083,217.40776 139.270277,209.768528 146.9804,203.337542 C150.627079,200.29744 154.37795,197.906932 159.274919,197.841973 C164.171889,197.777013 168.756286,200.141537 173.601161,200.258464 C183.082527,200.466334 188.878143,190.150773 196.379884,185.811482 C205.75706,180.393863 215.498904,185.447709 225.2147,182.836339 C233.445777,180.627717 234.656995,171.637329 226.647324,167.843697 C221.242424,165.245318 214.170471,165.700035 208.518117,167.064183 C207.233164,167.46758 205.83515,166.981589 205.079819,165.868929 C199.870277,156.488784 185.804513,155.826197 177.24784,160.425327 C176.465239,160.91109 175.504294,161.01743 174.633993,160.714582 C173.763693,160.411734 173.077551,159.732238 172.767634,158.8663 C170.711623,154.345063 168.123371,150.084057 165.057511,146.173223 C163.564234,144.068161 161.955507,142.047007 160.238685,140.119001 C159.327015,139.131618 157.829271,138.495015 158.571631,138.274153 C153.440065,136.665215 148.037932,136.095408 142.682527,136.598199 C137.941844,137.065907 133.800258,139.07965 129.215861,139.937115 C120.424758,141.587085 115.749194,130.050286 107.309736,136.663158 C100.420116,142.067785 98.6358478,151.486906 91.0038685,156.4628 C87.7348807,158.59347 84.010058,159.866676 80.5066409,161.555621 C77.6544165,162.932762 71.9629916,165.245318 73.4737589,169.805472 C74.5156673,172.94951 79.5298517,173.469185 82.0695035,173.521153 C87.1488072,173.612096 92.0588008,172.221964 97.1511283,173.287299 C101.34481,174.157755 105.160799,176.236458 108.976789,178.10729 C117.181818,182.108793 127.45764,185.902425 136.470148,182.264695 C143.463959,179.445455 149.012121,172.157004 146.381302,164.413837 C144.158743,158.624775 138.682229,154.721849 132.471825,154.501025 C128.056738,154.319138 122.925338,156.787597 122.495551,161.165865 C122.263792,163.46626 123.397701,165.690301 125.397825,166.858369 C127.39795,168.026436 129.897141,167.924115 131.794584,166.596475 C133.292328,165.557124 134.568665,163.725267 136.378981,163.907154 C138.017373,164.264323 139.066319,165.865676 138.736299,167.505907 C138.336851,169.084041 137.331038,170.442056 135.93617,171.286548 C132.098098,173.941514 127.128704,174.343047 122.912315,172.338891 C118.754433,170.201436 116.214856,165.854217 116.400387,161.191848 C116.932554,156.277163 120.115172,152.04575 124.696583,150.161733 C129.254384,148.378025 134.304376,148.294987 138.918633,149.927879 C144.478187,151.565238 149.120413,155.407045 151.760155,160.555246 C154.496295,166.854348 153.678361,174.128457 149.611219,179.666317 C145.497855,185.034409 139.399773,188.53454 132.680206,189.384252 C123.459317,190.683441 114.446809,187.500427 106.280851,183.498925 C102.946744,181.861947 99.5996132,179.939147 95.8617666,179.211601 C91.6680851,178.393112 87.6827853,179.406479 83.5021277,179.54939 C78.9828498,179.705293 74.6068343,179.094674 71.0513217,176.067563 C62.8593166,169.064934 68.68098,161.035946 76.260864,157.099403 C82.0434558,154.12426 88.3209542,152.435314 92.5146357,147.121631 C96.0831721,142.613444 98.0627982,137.104883 102.360671,133.155348 C105.512444,130.258156 109.627982,128.062527 114.082141,128.374332 C118.536299,128.686137 120.80245,132.271899 124.579368,133.571088 C128.564668,134.870278 132.888588,132.921494 136.717602,131.895135 C154.443069,127.153094 175.450548,136.53324 191.417795,143.652796 C198.298539,146.718648 205.404231,149.25513 212.672727,151.24006 C219.97911,153.240811 228.301354,155.839189 235.125854,151.071165 C242.484333,145.874409 246.248227,137.208818 255.625403,134.883269 C266.878014,132.090013 278.560413,135.935613 289.96931,132.453786 C301.847066,128.829048 309.765571,120.04653 310.013024,107.522347 C310.182334,99.2465128 312.50058,92.5686809 321.083301,90.0742378 C325.680722,88.7750487 330.564668,88.9699271 335.188137,87.8006569 C340.215345,86.5014678 343.992263,83.3054627 347.378466,79.5378143 C353.577821,72.6651041 358.644101,65.3636614 366.536557,60.2058807 C379.734585,51.8321831 395.588327,48.6682903 411,51.3324193 C403.446164,44.0179847 392.818698,40.5881255 382.191231,39.0810662 Z" id="path-2"></path>
        <path d="M117.102457,215.982019 C110.312537,216.318817 104.877994,211.87568 98.5833073,206.733041 L96.9933451,205.437666 C93.7485298,202.538005 89.9870774,200.26665 85.902707,198.740577 C83.2459901,197.95239 80.5100825,197.457167 77.7443763,197.26385 C75.9589836,197.124904 74.1861912,196.856478 72.4401581,196.460717 C70.1855395,195.877799 69.599078,194.841499 68.2437004,191.007188 C67.1620048,187.963057 65.8326921,184.167608 62.1575335,181.304829 C57.7004263,177.833224 52.2137534,177.690733 48.4604,177.872086 C47.6784514,177.872086 46.8965027,177.975716 46.140619,178.040484 L44.5506568,178.182976 C42.752175,178.351374 41.0449205,178.506819 39.3376659,178.597496 C36.1280699,178.866224 32.8962606,178.532252 29.8109251,177.613011 C24.8558254,176.01731 20.4285403,173.116445 17,169.21898 C17.5560524,169.21898 18.1121047,169.21898 18.6681571,169.21898 C25.9258216,168.905185 32.843169,166.072454 38.2168729,161.213563 C40.7572503,158.635968 42.9240789,155.719264 44.6549166,152.547504 C47.7566462,147.366003 49.8679075,144.192335 53.1390593,144.03689 C53.4211523,144.019297 53.7040773,144.019297 53.9861703,144.03689 C55.6544513,144.182201 57.330384,144.221142 59.003674,144.153473 C65.2331982,143.842583 69.6121105,141.251833 73.639146,135.513322 L74.9423937,133.635028 C79.1388513,127.585627 82.1623861,123.272028 88.4440401,120.292665 C95.8073897,116.859921 104.265467,115.771806 110.794738,115.214795 L113.557624,114.981628 C122.823715,114.204402 132.402586,113.388316 141.772937,111.095502 C144.379432,110.473722 146.738311,109.657636 149.045059,108.854504 C152.022297,107.658724 155.147615,106.865776 158.337215,106.496921 C160.788129,106.349656 163.214802,107.049918 165.205331,108.478845 L169.284496,111.250947 C177.625282,116.963551 186.226717,122.909323 196.574503,126.316159 C216.039481,132.79828 237.418325,130.07347 254.608125,118.919568 C259.716856,115.551593 267.015043,110.266462 271.380923,103.375067 C272.215001,102.079692 272.970885,100.641826 273.700704,99.2946358 C275.68164,95.6287244 277.610447,92.1571193 280.594884,90.8487906 C282.229733,90.2830853 283.936129,89.9473558 285.664518,89.8513518 L287.436935,89.6440918 C300.638834,87.9471505 310.517452,80.4857903 320.018128,73.2705513 C324.512788,69.6999894 329.255358,66.4491588 334.210495,63.5422848 C338.344322,61.102732 342.9851,59.6360479 347.777304,59.2545934 L348.767772,59.2545934 L349.992825,59.2545934 C352.120056,59.2446368 354.195144,58.5992429 355.948667,57.4022071 C358.189428,55.9671316 359.385293,53.3672951 359.011299,50.7439794 C358.242383,45.9251843 352.768743,43.2567117 343.593879,40.2643953 L342.564313,39.9275978 C335.578905,37.3368478 328.072199,34.9922189 320.526394,35.3678777 C319.857394,35.3678777 319.188393,35.4240106 318.519393,35.5362765 C315.465866,35.9638955 312.45359,36.6441713 309.513951,37.5700153 C306.711625,38.4983536 303.813293,39.1110175 300.873419,39.3964941 C299.91532,39.4485686 298.954368,39.4008112 298.006274,39.2540028 C295.301763,38.6476894 292.702035,37.6481262 290.291047,36.287594 C288.12585,35.1560817 285.883041,34.1778041 283.579321,33.3600464 C280.623243,32.3730216 277.504915,31.9553597 274.391425,32.1294401 C269.178434,32.3885151 264.47371,34.0725027 259.886278,35.6917215 C256.753588,36.9163314 253.517453,37.8613659 250.21618,38.515639 C249.577634,38.6204094 248.933693,38.6896041 248.287373,38.7228991 C243.426259,38.9690203 239.164639,37.116634 234.238363,34.9792652 C230.095511,32.9897778 225.71682,31.5274252 221.205885,30.6268051 C219.368252,30.318424 217.502301,30.2098362 215.641018,30.3029613 C212.409999,30.482554 209.234962,31.2189205 206.257634,32.4791914 C216.409934,23.7613174 228.295553,18.9684297 237.405255,16.3776797 C244.038785,14.4993859 253.943468,11.9345433 263.365949,11.4682083 C272.097709,11.0277808 278.62698,12.4786008 282.797373,15.7558996 C284.295152,16.974437 286.194382,17.5975353 288.127656,17.5046559 C290.016838,17.3920564 291.808374,16.6321633 293.19729,15.3543334 C296.335075,12.6896695 300.293173,11.1680846 304.418252,11.0407345 C309.926106,10.692212 315.338722,12.5915576 319.405601,16.2999572 C321.363357,18.3635064 323.109627,20.6156045 324.618592,23.0229536 C326.023749,25.1633729 327.551048,27.2220701 329.192992,29.1889388 C339.91872,41.5986316 355.492531,42.3240417 369.228762,42.9458217 C373.829226,43.1530817 378.169041,43.3603417 382.261239,43.9432605 C385.898259,44.4374786 389.489416,45.2215476 393,46.2878893 C382.912182,47.4037911 373.224811,50.8410827 364.706492,56.3270458 C358.190253,60.6017834 353.446432,66.1200811 348.898097,71.46998 C347.503622,73.1021525 346.07005,74.7861401 344.610412,76.4053589 C341.052546,80.291484 338.094174,82.3770378 334.796957,83.2190316 C332.822164,83.6588207 330.819035,83.9618033 328.802017,84.1257941 C326.006665,84.3430376 323.236828,84.8112823 320.526394,85.5247992 C306.360092,89.631138 306.086409,102.999408 305.995182,107.39073 C305.799695,117.33921 299.869918,124.59331 289.326644,127.792887 C286.733077,128.554928 284.053475,128.990127 281.350768,129.088262 C278.561818,129.230753 275.746803,129.088262 272.775398,129.088262 C269.803993,129.088262 266.637101,128.893955 263.496274,129.088262 C260.70225,129.203795 257.926223,129.589917 255.207618,130.241145 C247.935496,132.041717 243.478389,136.821651 239.568646,141.044573 C237.615477,143.289827 235.43153,145.325994 233.052407,147.119882 C231.4118,148.252414 229.471529,148.878743 227.474507,148.920453 C223.799348,149.101806 219.655021,147.961876 215.562823,146.847853 L214.611452,146.588778 C207.57495,144.672236 200.695608,142.22553 194.03317,139.269909 C179.697445,132.922572 162.038439,125.020784 145.135316,125.901639 C142.079788,126.045916 139.048131,126.510509 136.090777,127.28769 C135.295796,127.49495 134.487782,127.741072 133.666736,127.987193 C131.958793,128.585679 130.188108,128.989824 128.388583,129.191892 C127.795924,129.236874 127.199959,129.175444 126.629198,129.010539 C125.53999,128.565554 124.51808,127.972678 123.592631,127.248829 C121.153142,125.228541 118.181226,123.947141 115.030294,123.55701 C114.37056,123.518159 113.709091,123.518159 113.049357,123.55701 C108.056044,123.977172 103.365459,126.111365 99.7822952,129.593458 C97.0304399,132.318291 94.7024693,135.435518 92.8750823,138.842436 C91.8453392,140.640751 90.7004694,142.371479 89.4475408,144.023936 C87.0235001,147.081021 83.4656338,148.674332 79.3604035,150.500811 C77.8616686,151.174406 76.2977713,151.873909 74.7469065,152.677041 C68.0351808,156.122739 63.6432359,161.472638 63.017677,167.003889 C62.6397352,170.190512 63.3043915,174.944538 68.5825448,179.439489 C73.8606981,183.934441 80.0641572,184.20647 84.3257773,184.051025 L84.8731413,184.051025 C86.176389,183.986256 87.4796368,183.856718 88.6786247,183.727181 C89.8776126,183.597643 90.8680808,183.494013 91.8976465,183.442198 C93.1347381,183.356092 94.3777869,183.421349 95.5988701,183.636504 C98.1936143,184.301613 100.687453,185.307934 103.01435,186.628821 L104.773734,187.509676 C111.081453,190.592668 120.634259,194.634239 130.760494,194.129042 C131.842189,194.129042 132.936917,193.973597 133.992548,193.818152 C142.006791,192.786966 149.262625,188.583079 154.114693,182.159777 C159.150291,175.276108 160.142009,166.256699 156.721188,158.454414 C153.545664,152.139211 147.893925,147.402438 141.095248,145.358172 C138.673523,144.576649 136.157853,144.119246 133.614606,143.998028 C134.813594,143.687138 135.960452,143.324433 137.081245,142.987636 C139.293371,142.223803 141.576687,141.681374 143.897231,141.368417 L145.513258,141.251833 C149.116011,141.081761 152.723831,141.457399 156.212922,142.365856 C156.512669,142.637885 156.773318,142.832191 156.955773,142.961728 C157.138227,143.091266 157.385845,143.285572 157.464039,143.363295 C159.05922,145.137589 160.555834,146.997056 161.947212,148.933407 C164.784268,152.526926 167.185746,156.439993 169.102042,160.591783 C170.321322,163.693058 173.392608,165.677856 176.739073,165.527161 C177.980857,165.462335 179.1922,165.121489 180.283907,164.529723 C182.852293,163.221475 185.67593,162.483367 188.55953,162.366446 C190.840214,162.249863 198.50331,162.366446 201.65717,168.066097 C203.113407,170.593227 205.903797,172.060678 208.825032,171.835638 C209.369868,171.808414 209.910923,171.730348 210.441059,171.60247 C212.480398,171.106735 214.561362,170.798861 216.657551,170.682754 C219.640185,170.428459 222.640444,170.895112 225.402343,172.042898 C227.187792,172.884892 228.178261,174.076637 228.074001,175.242474 C227.969741,176.408312 226.692558,177.574149 224.776784,178.092299 C223.409866,178.45534 222.006995,178.668192 220.593359,178.727033 C218.362901,178.788903 216.130708,178.724029 213.907698,178.532727 C211.354957,178.319818 208.791904,178.254939 206.231569,178.338421 C202.169615,178.44936 198.198368,179.557441 194.671762,181.563904 C191.634409,183.476537 188.823403,185.723055 186.291879,188.260993 C182.499428,191.784413 178.915497,195.126481 174.966656,195.320787 L174.393227,195.320787 C172.423216,195.181325 170.474283,194.829509 168.580742,194.271534 C165.745502,193.455762 162.813325,193.020117 159.862015,192.976159 L159.132196,192.976159 C152.863575,193.287049 148.237046,196.473671 144.548854,199.54371 C143.388964,200.502287 142.229074,201.499726 141.056151,202.497165 C134.813594,207.821156 128.362518,213.3265 120.920973,215.386147 C119.673883,215.722948 118.393387,215.922768 117.102457,215.982019 Z M130.134935,178.804756 C123.618696,179.128599 116.489931,176.058561 111.667914,173.713932 L110.156147,172.975568 C106.547996,171.006254 102.697063,169.512636 98.7005996,168.532432 C96.3629806,168.074651 93.9752279,167.922236 91.5978996,168.07905 C90.2946518,168.07905 89.0956639,168.260403 87.896676,168.364033 C86.6976881,168.467663 85.6811549,168.571293 84.5733943,168.623108 C83.9608679,168.623108 83.3483415,168.623108 82.7227826,168.623108 C81.4407007,168.631291 80.1653045,168.438952 78.9433642,168.053143 C80.0746635,167.259649 81.2842186,166.582571 82.5533604,166.032358 L83.1658868,165.747375 C84.2345499,165.229225 85.3423105,164.76289 86.4370386,164.283601 C89.1509871,163.213855 91.7671578,161.913672 94.2565249,160.397476 C99.2088662,157.184946 102.076011,152.625226 104.578247,148.518887 C106.520086,145.38408 108.357665,142.417671 110.925063,140.422793 C111.535497,139.869422 112.297539,139.508737 113.114519,139.386493 C114.261377,139.386493 115.929535,140.306209 117.714984,141.329556 C120.316732,143.042042 123.244191,144.205952 126.316419,144.749346 C125.333436,145.012416 124.370868,145.345764 123.436241,145.746785 C117.192804,148.324032 112.894843,154.121387 112.267408,160.811996 C111.929757,167.368332 115.503627,173.508705 121.390142,176.486034 C124.049258,177.79363 127.00321,178.396023 129.965512,178.234791 C133.322357,178.080829 136.566676,176.984963 139.322831,175.074075 C139.600857,174.875451 139.870195,174.672509 140.130845,174.465249 C138.770281,175.869495 137.127235,176.972955 135.308828,177.703687 C133.674875,178.350669 131.943962,178.722778 130.187065,178.804756 L130.134935,178.804756 Z M129.053239,162.780966 C128.832425,162.797224 128.611394,162.752388 128.414648,162.651429 C128.056593,162.404642 127.846304,161.996327 127.854251,161.563314 C127.958511,160.462245 130.121902,159.309361 132.285293,159.205731 L132.884787,159.205731 C133.427662,159.229417 133.967916,159.294376 134.500815,159.400038 C132.97752,159.962788 131.594827,160.846608 130.447714,161.990788 C130.147967,162.249863 129.84822,162.521891 129.639701,162.664383 C129.473164,162.744102 129.290186,162.784025 129.105369,162.780966 L129.053239,162.780966 Z M220.17632,114.43757 C218.361807,114.535826 216.543257,114.535826 214.728744,114.43757 C205.710878,113.785957 196.99875,110.909846 189.380576,106.069447 C187.29538,104.774072 185.184118,103.400975 183.138019,102.040831 C177.755606,98.4785495 172.190739,94.7996844 165.804825,92.3514256 C161.561311,90.6590985 157.044062,89.7461835 152.472601,89.6570455 C151.95999,89.6570455 151.451723,89.6570455 150.947801,89.6570455 C148.264821,89.8566826 145.604665,90.2901395 142.99799,90.9524206 C140.929102,91.4816634 138.819089,91.8369853 136.690271,92.0146281 L136.533881,92.0146281 C130.317389,92.2607494 122.980105,88.439393 116.216249,84.5791754 C119.633921,82.7041882 123.434703,81.6235452 127.332952,81.4184603 C128.466909,81.3611388 129.603512,81.3827813 130.734429,81.483229 L130.942948,81.483229 C131.760656,81.5733184 132.583914,81.6036252 133.406086,81.5739053 C134.782718,81.5233773 136.125588,81.1362977 137.31583,80.446929 C138.957552,79.4407436 140.2704,77.9828355 141.095248,76.2499139 C143.388964,71.936315 145.382933,69.9284837 148.002461,69.2030737 C148.562857,69.0476287 149.214481,68.9310449 149.905203,68.8015074 C151.44779,68.5702435 152.960011,68.170579 154.41444,67.6097624 C158.845482,65.7703298 161.30862,61.9878347 163.289557,58.9437034 C164.186726,57.3976353 165.281906,55.9737932 166.547676,54.707827 C169.78633,52.0886761 173.803668,50.604365 177.977159,50.4849044 C178.733042,50.4849044 179.501958,50.4849044 180.257842,50.4849044 L181.56109,50.5626269 C182.861083,50.6748039 184.166673,50.7094093 185.470833,50.6662569 C186.068866,50.6382286 186.664907,50.5776873 187.256282,50.4849044 L187.920939,50.3553669 C187.538653,51.1584994 187.186776,51.9789036 186.865308,52.8165795 C182.799175,63.373886 183.776611,74.7472788 189.406641,82.4936216 C195.219126,90.5119931 205.619043,94.7478694 217.921701,94.1519969 C220.322769,94.0308013 222.710637,93.7232932 225.063499,93.2322806 C230.654431,92.0664431 240.858861,88.802098 246.293404,80.0453627 C249.426457,74.9090397 250.199579,68.6859889 248.417698,62.9464123 C247.151431,58.8672154 244.253088,55.4851626 240.402724,53.5938045 C241.32803,53.775157 242.266369,53.9176482 243.243804,54.0212782 C244.664044,54.1625502 246.092977,54.1971917 247.518457,54.1249082 C253.213649,53.8399257 258.309348,51.9745857 263.235624,50.1610606 C264.708294,49.6170031 266.193997,49.0729456 267.679699,48.5807031 C269.726431,47.8648851 271.861607,47.4290991 274.026516,47.2853281 C275.654293,47.1914086 277.284601,47.4203866 278.822467,47.9589231 C280.740328,48.6731839 282.61954,49.4860489 284.452497,50.3942281 C288.805345,52.4538745 293.744654,54.7855495 299.674431,54.6948733 L300.690964,54.6948733 C304.454229,54.3943828 308.175635,53.7040904 311.794635,52.635227 C314.60986,51.8114519 317.492417,51.2349553 320.409102,50.9123782 L320.956466,50.9123782 C322.427684,50.847639 323.901779,50.9126622 325.361443,51.1066844 C320.510991,54.0740703 315.825493,57.2999441 311.325465,60.7701822 C308.314963,62.9982273 305.486916,65.1096886 302.593706,67.0397974 C298.880752,69.6485645 294.841378,71.7649167 290.577762,73.3353201 C288.387273,73.9648255 286.130492,74.3386835 283.853003,74.4493426 C281.501401,74.6028044 279.165668,74.9406525 276.867596,75.4597351 C269.048109,77.3898439 265.438113,83.5946904 262.531871,88.5818842 C261.762954,89.8772593 261.046168,91.0949118 260.277252,92.2218881 C251.168672,105.456945 236.343316,113.680797 220.22845,114.43757 L220.17632,114.43757 Z M216.683616,78.9831552 C213.386399,79.151554 207.300232,78.8147565 203.481716,74.7472788 C197.708329,68.5942474 200.249662,57.7390046 205.91879,51.2103144 C208.394481,48.0900767 212.08236,46.1561075 216.071089,45.886323 C218.250117,45.8071381 220.422635,46.1685061 222.457003,46.9485305 C224.359745,47.6480331 226.223389,48.4770731 228.191293,49.3449744 C230.471977,50.3553669 232.791758,51.3916669 235.228831,52.2336607 C234.573568,52.1909206 233.91619,52.1909206 233.260927,52.2336607 C225.80635,52.6093195 219.172819,58.3607846 218.169318,65.3428561 C217.476165,68.9397542 218.744524,72.6332028 221.505632,75.0581689 C222.879917,76.152182 224.580249,76.7626082 226.340681,76.7939714 C223.273405,78.0737763 220.005854,78.8145053 216.683616,78.9831552 L216.683616,78.9831552 Z M234.147135,70.2134662 C234.210906,69.6062897 234.210906,68.9941639 234.147135,68.3869874 C234.321581,68.9753152 234.317046,69.6017865 234.134103,70.1875587 L234.147135,70.2134662 Z" id="path-3"></path>
        <path d="M116.930736,210.988419 C111.998702,211.235157 107.470081,207.508115 101.718211,202.794121 L100.130591,201.4955 C96.4314879,198.23291 92.1550878,195.687382 87.520722,193.989471 C84.5562047,193.089902 81.501301,192.519388 78.4114257,192.288278 C76.8931757,192.167643 75.3846448,191.946389 73.8958174,191.625981 C73.5834987,190.989657 73.1150206,189.665063 72.945848,189.184574 C72.6855824,188.431373 72.3862769,187.600256 72.0349183,186.704208 C76.04329,188.218506 80.3274353,188.869085 84.6057472,188.61318 L85.1913448,188.61318 C86.6618455,188.535263 87.9761868,188.405401 89.238475,188.275539 C90.5007632,188.145677 91.3205999,188.054773 92.2445428,188.015815 C93.1136091,187.947755 93.987771,187.98701 94.8471989,188.132691 C96.998414,188.741888 99.0658678,189.614257 101.002481,190.729932 L102.811327,191.638967 C109.591246,194.963437 119.88475,199.326803 131.115211,198.768396 C132.351473,198.768396 133.587735,198.586589 134.79797,198.404782 C136.419357,198.167938 138.023433,197.825233 139.59987,197.378872 L138.09033,198.677492 C132.26038,203.677183 126.222218,208.845694 119.871737,210.624805 C118.908746,210.858841 117.921845,210.980858 116.930736,210.988419 Z M174.488475,190.210484 C172.883259,190.064769 171.296521,189.760262 169.751641,189.301449 C166.520316,188.356514 163.176256,187.849833 159.809495,187.795049 L158.911578,187.795049 C157.513833,187.864874 156.124838,188.056061 154.760342,188.366442 C155.940683,187.186646 157.024262,185.914244 158.000649,184.561483 C164.047782,176.265868 165.236336,165.393456 161.123836,155.991823 C160.924299,155.567607 160.716087,155.134733 160.499199,154.693202 C162.113761,156.962508 163.491654,159.390562 164.611395,161.939507 C166.585913,166.927878 171.528099,170.104359 176.895932,169.835122 C178.847157,169.735228 180.750799,169.198168 182.465616,168.263791 C184.408856,167.288685 186.538622,166.73964 188.711991,166.653501 C189.831133,166.653501 195.49191,166.497666 197.352809,169.887067 C198.18063,171.417618 199.335751,172.747677 200.736262,173.782929 C197.749517,174.389283 194.883042,175.481718 192.251603,177.016496 C188.907347,179.110293 185.812062,181.576142 183.025187,184.36669 C180.019119,187.171711 176.934972,190.05465 174.735727,190.171525 L174.488475,190.210484 Z M59.2949168,174.042654 C55.7796197,172.924259 52.0831821,172.483549 48.4028011,172.744033 C47.5569379,172.744033 46.7110746,172.847922 45.891238,172.92584 L44.2906045,173.068688 C42.5338116,173.237509 40.8941383,173.393343 39.3325446,173.47126 C36.7047592,173.709401 34.0555476,173.449437 31.5245764,172.705074 C30.664647,172.430083 29.8216665,172.104867 29,171.731108 C33.7664476,170.198736 38.1376842,167.640853 41.8050679,164.238066 C44.6080137,161.357575 46.995048,158.101353 48.8973058,154.56334 C49.8082354,153.030967 52.5670508,148.394891 53.504007,148.355932 L53.7512593,148.355932 C55.6118027,148.518434 57.4808681,148.56181 59.3469699,148.485794 C67.1549382,148.096208 72.763662,144.797711 77.6566555,137.785158 L78.9579835,135.889171 C83.0051137,130.032391 85.4646237,126.500142 90.5267898,124.123666 C95.0847784,122.142076 99.9063807,120.829829 104.841398,120.227803 C101.834917,121.562006 99.0728145,123.387872 96.6690582,125.630066 C93.5593099,128.682942 90.9272306,132.18508 88.8610899,136.019033 C87.9328228,137.657331 86.902762,139.236074 85.7769425,140.746013 C84.0722027,142.901724 81.1702412,144.200345 77.4874828,145.86258 C75.9258892,146.563835 74.3122424,147.291063 72.6465425,148.148153 C64.5262555,152.329712 59.1908106,159.082541 58.3319341,166.198983 C58.048712,168.852618 58.3781236,171.535735 59.2949168,174.042654 Z M108.094718,166.250928 C105.453113,165.03023 102.686862,164.098453 99.8442986,163.471879 C99.2977408,163.355004 98.7381697,163.2641 98.1785987,163.173197 C103.279805,159.446155 106.298886,154.56334 108.745382,150.58956 C110.049222,148.177321 111.687703,145.960792 113.612349,144.005552 C114.119867,144.278262 114.757518,144.62889 115.252023,144.927573 C110.768675,148.773928 107.997969,154.238426 107.548161,160.121437 C107.416896,162.18904 107.601185,164.264544 108.094718,166.276901 L108.094718,166.250928 Z M155.996604,148.654615 C155.134315,147.759096 154.217293,146.917711 153.250801,146.13529 L153.979545,146.291125 L154.109678,146.395014 C154.747329,147.122242 155.437033,147.888428 155.996604,148.680587 L155.996604,148.654615 Z M227.166234,143.615966 C224.264273,143.758814 220.464395,142.719917 216.75561,141.706993 L215.792627,141.447269 C208.998079,139.590669 202.355106,137.220323 195.921348,134.356798 C181.216341,127.863694 162.932682,119.643423 144.909289,120.552458 C141.519649,120.713311 138.156547,121.231309 134.876049,122.097817 C134.0432,122.318583 133.17131,122.578307 132.273393,122.851017 C130.938156,123.315798 129.561018,123.650669 128.161197,123.850955 L128.109144,123.850955 C127.783812,123.682135 127.003015,123.1497 126.43043,122.747127 C124.08914,120.981779 121.442459,119.661192 118.622462,118.851265 C126.777361,118.265961 134.876906,117.072222 142.85319,115.280057 C145.638032,114.604774 148.136582,113.734698 150.557052,112.903581 C153.112826,111.869057 155.788345,111.157942 158.52118,110.786829 C159.92037,110.700802 161.304486,111.115173 162.425164,111.955588 L166.472294,114.72165 C175.074073,120.630375 183.975156,126.733894 194.906312,130.421977 C211.491547,135.957642 229.527113,135.293098 245.658106,128.551963 C242.015029,131.004957 238.719146,133.935816 235.859105,137.265709 C234.148371,139.263162 232.238618,141.08192 230.159289,142.693945 C229.276687,143.296697 228.235613,143.626438 227.166234,143.641938 L227.166234,143.615966 Z M251.735308,125.720969 C253.591869,124.72536 255.400715,123.643176 257.161846,122.474417 C262.640437,118.851265 270.474431,113.137333 275.380438,105.384566 C276.304381,103.917124 277.085178,102.449683 277.852961,101.034186 C279.362502,98.2291645 280.924096,95.3332399 282.433636,94.6709432 C283.635048,94.3309924 284.869846,94.1219925 286.116394,94.0476052 L287.977294,93.8268396 C295.14524,92.8054333 302.032547,90.3495357 308.225958,86.6065073 C303.67131,91.2815426 301.289879,98.0213852 301.107693,106.787076 C300.912494,116.721526 293.79423,120.968017 287.847161,122.7731 C285.632451,123.414299 283.346038,123.776398 281.041215,123.850955 C278.438559,123.980817 275.757823,123.850955 272.894902,123.850955 C269.771714,123.747066 266.557434,123.656162 263.213021,123.850955 C260.115537,123.984721 257.038511,124.419654 254.025645,125.149576 C253.184119,125.288096 252.420674,125.47856 251.735308,125.720969 Z M219.904824,109.189525 C218.266365,109.278585 216.624263,109.278585 214.985804,109.189525 C206.759974,108.58101 198.816241,105.934144 191.874218,101.488703 C189.870172,100.267999 187.814074,98.8914612 185.810029,97.5928403 C180.201305,93.8657983 174.423409,90.0348666 167.591436,87.3856799 C162.823463,85.4803259 157.748323,84.455089 152.613151,84.3598931 C152.005864,84.3598931 151.398578,84.3598931 150.791291,84.3598931 C147.840721,84.5703962 144.91445,85.0397115 142.046367,85.7624037 C140.248758,86.2279478 138.416722,86.5492985 136.567776,86.7233832 L136.437643,86.7233832 C134.497668,86.7286837 132.572166,86.3901136 130.75084,85.7234451 C131.753352,85.830978 132.762367,85.8656993 133.769921,85.8273348 C135.905399,85.722997 137.982862,85.0988255 139.821096,84.0092655 C142.168756,82.5315697 144.042902,80.4134576 145.221607,77.9057472 C147.459892,73.6852292 148.657113,73.360574 149.125592,73.2177257 C149.59407,73.0748774 150.049534,73.0099463 150.609105,72.9060567 C152.484853,72.6177317 154.322448,72.1211758 156.087697,71.4256288 C161.89162,69.0101939 164.910701,64.3351586 167.122958,60.9197856 C167.799841,59.7641358 168.593446,58.6806375 169.491375,57.6862195 C171.941747,55.7710363 174.95489,54.7124704 178.067127,54.673419 C178.665738,54.673419 179.277362,54.673419 179.888986,54.673419 L180.864982,54.673419 C177.950008,65.5039174 179.563654,76.7499746 185.354564,84.7364932 C192.134483,94.1125362 204.015608,99.0213233 217.887765,98.3849991 C220.512713,98.2489125 223.123167,97.9102594 225.695733,97.3720747 C232.033201,96.0734538 243.628034,92.2814807 249.978515,81.9834169 C253.831326,75.6351449 254.778575,67.9453059 252.581171,60.8548545 C252.224161,59.8150755 251.789154,58.8036171 251.279843,57.8290678 C255.77482,56.9663173 260.173097,55.6613242 264.410243,53.9332051 C265.90677,53.3747981 267.299191,52.8683359 268.704625,52.4008324 C270.334485,51.8047104 272.037007,51.4291004 273.766791,51.2840184 C274.768555,51.2191071 275.773165,51.3560151 276.720806,51.6865909 C278.493074,52.3466187 280.230437,53.0964651 281.926118,53.9332051 C286.506793,56.101902 292.20661,58.8160197 299.259808,58.71213 L300.444016,58.71213 C302.067505,58.6239899 303.68413,58.4375108 305.284956,58.153723 C303.293925,59.6211647 301.380972,61.0236753 299.42898,62.3222962 C296.074268,64.6977236 292.426467,66.631314 288.575904,68.0751868 C286.744864,68.5758837 284.863754,68.8720539 282.967181,68.9582491 C280.373054,69.1359262 277.79707,69.5180461 275.263319,70.1010355 C265.568425,72.5164704 261.156923,79.9965269 257.929629,85.4637209 C257.200885,86.7623418 256.511181,87.8661696 255.834491,88.8661077 C247.685698,100.857505 234.400538,108.372182 219.904824,109.189525 L219.904824,109.189525 Z M316.203099,81.308134 C318.441383,79.7108303 320.588574,78.0745679 322.709739,76.4902504 C327.023018,73.0528155 331.571357,69.9198618 336.32163,67.1142074 C339.811857,65.0274699 343.732654,63.7617464 347.78633,63.4131378 L348.762326,63.4131378 C347.460998,64.8805794 346.15967,66.3610072 344.962448,67.8154627 C343.765227,69.2699181 342.177606,71.0879874 340.772172,72.6593187 C337.896237,75.8539261 335.68398,77.4642161 333.354602,78.0485955 C331.604385,78.43 329.830653,78.6946388 328.045184,78.8407543 C324.9673,79.087901 321.918313,79.6138437 318.935888,80.4120856 C318.016283,80.6631523 317.127042,80.9575063 316.268165,81.2951478 L316.203099,81.308134 Z M214.699512,73.6462706 C212.357121,73.5813395 208.882575,73.0748774 206.891543,70.8931942 C203.117692,66.8544832 205.21283,58.5822679 209.494199,53.6734809 C211.116465,51.5404114 213.573215,50.1988595 216.248092,49.9853975 C217.777637,49.9416207 219.300282,50.2066458 220.72466,50.76457 L221.336285,50.9983218 C217.062632,54.1055506 214.194791,58.7741887 213.359144,63.984531 C212.822571,67.2671916 213.308598,70.6351056 214.751565,73.6332844 L214.699512,73.6462706 Z M363.649519,50.5438045 C363.631516,50.1087716 363.588064,49.6751595 363.519386,49.2451836 C363.388081,48.3563103 363.156717,47.4850547 362.829682,46.6479417 C364.833728,46.7778038 366.733667,46.8687073 368.698672,46.9466245 L370,46.9466245 C367.819371,48.0298745 365.699411,49.2307089 363.649519,50.5438045 L363.649519,50.5438045 Z M300.496069,33.8954843 C299.869964,33.9302808 299.241928,33.8998148 298.622157,33.8045808 C296.410306,33.2276989 294.287124,32.3539812 292.310716,31.207339 C289.951517,29.9715292 287.507583,28.90399 284.997252,28.0127316 C281.480169,26.8344784 277.770168,26.3364333 274.066097,26.5452899 C268.184094,26.8439727 262.887689,28.7269731 258.215921,30.4411527 C255.355331,31.5587598 252.403361,32.4277359 249.392917,33.0383945 C248.932045,33.1161586 248.467181,33.1681844 248.000496,33.194229 C244.278698,33.3760359 240.674019,31.8176908 236.119371,29.8308008 C232.355448,28.0634588 228.434464,26.6504935 224.407419,25.6102829 C228.976173,23.4106194 233.726206,21.6075369 238.604908,20.2210061 C244.994428,18.4029368 254.533163,15.9225708 263.44726,15.4680535 C270.86483,15.0914534 276.46054,16.2342398 279.635781,18.7405782 C282.041466,20.6841187 285.081116,21.673649 288.172493,21.519627 C291.153686,21.356297 293.986223,20.1678212 296.188673,18.1561988 C298.504454,16.21266 301.414122,15.1134997 304.439093,15.0395086 C308.607373,14.7406221 312.7181,16.1470822 315.825714,18.9353713 C317.548574,20.7801773 319.09113,22.7848071 320.432415,24.9220138 C321.512517,26.5193175 322.618646,28.1425936 323.893947,29.778856 C322.592619,29.778856 321.408411,29.778856 320.146123,29.778856 C319.374001,29.778856 318.597542,29.843787 317.816746,29.9736491 C314.507855,30.4326856 311.24318,31.1667953 308.056785,32.1683185 C305.605139,33.0075749 303.07043,33.5822488 300.496069,33.8824981 L300.496069,33.8954843 Z" id="path-4"></path>
        <path d="M320.665849,43.1075033 C313.725385,43.6369176 307.189346,46.7875784 300.196698,46.8908788 C293.20405,46.9941791 287.489908,42.720127 280.993007,40.4346066 C276.1399,38.7430633 271.521621,39.517816 266.720699,41.0931464 C259.323625,43.5465298 252.291839,47.0974795 244.268558,46.2581641 C237.184587,45.5479742 231.222572,41.7904238 224.699579,39.4016031 C216.966982,36.2515248 208.0617,38.5353219 202.847553,45.0056473 C198.24985,50.2685727 195.81089,57.0453167 196.011457,64 C196.467551,57.9487437 198.862373,52.1993448 202.847553,47.5881562 C208.0617,41.1178308 216.966982,38.8340336 224.699579,41.984112 C231.222572,44.3729327 237.223725,48.130483 244.268558,48.840673 C252.291839,49.6412507 259.323625,46.090301 266.720699,43.6756553 C271.508575,42.0874123 276.1399,41.3255722 280.993007,43.0171155 C287.516,45.2897233 293.07359,49.5637755 300.196698,49.4733877 C307.319806,49.3829998 313.764523,46.1677763 320.665849,45.6900122 C326.006511,45.501578 331.3308,46.379883 336.321032,48.272521 C337.516135,48.785561 338.745333,49.2169885 340,49.5637755 C334.494594,46.4131147 327.045336,42.6297392 320.665849,43.1075033 Z" id="path-5"></path>
        <path d="M235.847041,60.45357 C233.116175,59.1156136 228.961076,60.8955735 229.000275,63.726785 C229.025246,64.1802224 229.086384,64.6313886 229.183204,65.0766876 C229.728731,63.9610362 230.744384,63.0943831 231.999349,62.673683 C233.254313,62.2529829 234.641999,62.3139677 235.847041,62.8427781 C237.497734,63.7293822 238.60717,65.264082 238.852301,67 C239.439638,64.4585837 238.242341,61.8504824 235.847041,60.45357 L235.847041,60.45357 Z" id="path-6"></path>
        <path d="M146.361478,161.844133 C144.189861,156.100621 138.83887,152.228405 132.770811,152.009318 C128.45692,151.828863 123.443135,154.277899 123.023198,158.621717 C122.96819,159.230514 123.011167,159.84432 123.150452,160.43916 C124.053951,156.57226 128.724152,154.419686 132.770811,154.587251 C138.83887,154.806338 144.189861,158.678555 146.361478,164.422067 C146.642933,165.258131 146.834914,166.1224 146.934118,167 C147.115877,165.259646 146.92045,163.500079 146.361478,161.844133 Z" id="path-7"></path>
        <path d="M123.765156,171.744851 C128.079942,173.735824 133.165304,173.336932 137.092943,170.69943 C138.520362,169.860493 139.549647,168.511412 139.958417,166.943659 C140.057348,166.328426 139.978943,165.698685 139.731845,165.123853 C139.168376,166.355085 138.240818,167.397036 137.066288,168.118144 C133.138648,170.755646 128.053286,171.154538 123.7385,169.163565 C120.095212,167.357261 117.603165,163.93043 117.074607,160 C117.074607,160.219409 117.074607,160.451725 117.007968,160.671134 C116.835527,165.323115 119.474002,169.647062 123.765156,171.744851 Z" id="path-8"></path>
        <path d="M72.078818,176.45982 C75.6623808,179.487998 80.0729197,180.083281 84.6278513,179.927989 C88.8414911,179.785639 92.8582319,178.776247 97.0849983,179.591525 C100.812954,180.303276 104.173364,182.179711 107.586281,183.862032 C115.751029,187.847839 124.847765,191.05719 134.128274,189.67251 C140.909123,188.8132 147.056638,185.3074 151.192859,179.94093 C153.922448,176.183532 155.25313,171.612593 154.960195,167 C154.699197,170.727871 153.39514,174.311458 151.192859,177.352744 C147.056638,182.719214 140.909123,186.225014 134.128274,187.084324 C124.834639,188.378417 115.751029,185.207889 107.520648,181.222082 C104.160238,179.591525 100.786701,177.676268 97.0193653,176.951575 C92.7925989,176.136297 88.7758581,177.145689 84.5622183,177.28804 C80.0072867,177.443331 75.5967478,176.835107 72.013185,173.81987 C70.0057669,172.326845 68.6084302,170.173241 68.0752038,167.750574 C67.6945323,170.636401 68.7184074,173.625756 72.078818,176.45982 Z" id="path-9"></path>
        <path d="M193.127933,80.1535575 C199.698067,89.3454901 212.696068,91.4596346 223.676469,89.1222574 C230.453536,87.6778109 237.812603,84.3030585 241.666736,77.9474936 C243.433218,74.9389905 244.229099,71.4450295 243.943003,67.9545498 C243.76608,70.5578199 242.986159,73.0818755 241.666736,75.3212272 C237.786736,81.676792 230.453536,85.0515444 223.676469,86.495991 C212.696068,88.8333681 199.685134,86.7586176 193.127933,77.527291 C190.598636,73.8427923 189.182812,69.4892234 189.053933,65 C188.695576,70.3725469 190.130796,75.7109605 193.127933,80.1535575 Z" id="path-10"></path>
        <path d="M220.486108,187.805421 C212.529634,187.805421 205.275202,185.607908 198.163779,190.484045 C189.401257,196.50445 183.940932,205.46354 171.928216,204.462307 C165.531836,203.929182 159.538479,200.561397 153.51912,204.579334 C143.807542,211.080851 136.514108,220.391023 124.917417,224.083885 C114.347788,227.399658 104.727215,224.369951 96.3157139,217.582368 C91.2454119,213.499415 86.7601448,208.324208 80.1427508,206.971892 C75.3714666,205.996665 70.2361608,206.36075 65.8418992,204.04621 C62.5014376,202.188049 59.9918854,199.129582 58.8214811,195.490213 C58.1454409,193.708798 57.8984261,191.511285 56.8973665,189.872903 C54.9862527,186.752175 51.3980391,187.025238 48.1088432,187.194278 C41.4914491,187.532357 35.4980922,188.715633 28.9327013,186.999232 C24.3589913,185.766923 20.0436237,183.723374 16.1919426,180.965825 C7.78735197,175.076944 2.05287817,166.102125 0.239992653,156 C0.0240537558,156.443674 -0.0486380984,156.943517 0.0319802664,157.430334 C1.60457675,167.991155 7.44766955,177.441403 16.1919426,183.566432 C20.0563787,186.323585 24.3852512,188.362869 28.9717036,189.586836 C35.5370946,191.303237 41.5304515,190.119961 48.1478455,189.781882 C51.4370414,189.612842 55.0252551,189.339778 56.9363689,192.460507 C57.9374285,194.098889 58.2364463,196.361417 58.8604834,198.077817 C60.0308877,201.717185 62.5404399,204.775653 65.8809015,206.633813 C70.3141655,208.961356 75.4494713,208.584268 80.1817531,209.559496 C86.8121479,210.859799 91.297415,216.061013 96.3547162,220.169971 C104.727215,226.931549 114.347788,229.948253 124.956419,226.671488 C136.55311,223.030639 143.859545,213.759476 153.558123,207.166938 C159.577481,203.109991 165.570838,206.516786 171.967219,207.04991 C183.979934,208.051144 189.440259,199.079051 198.202781,193.071649 C205.314205,188.195512 212.568637,190.471042 220.52511,190.393024 C229.287632,190.393024 240.026272,185.074783 238.921206,175.647584 C237.907145,183.462407 228.40358,187.779414 220.486108,187.805421 Z" id="path-11"></path>
        <path d="M419.338148,56.66775 C395.885743,49.5094728 372.680892,57.0445014 357.410771,75.8171158 C351.938543,82.5466758 346.270878,89.1203387 337.463198,91.1989673 C333.085415,92.2382815 328.434022,92.0174273 324.121385,93.3035787 C316.99446,95.434173 317.398363,101.358264 317.098693,107.59415 C316.134539,128.068642 295.770034,137.474436 277.555333,137.955119 C271.040776,138.111016 263.822647,136.14931 257.529585,138.318879 C253.34724,139.760927 249.803321,143.125707 246.611188,146.113736 C239.757874,152.414579 233.386638,158.312687 223.328162,157.039527 C211.875571,155.597479 200.240573,151.206376 189.765165,146.529462 C183.558369,143.632265 176.844897,141.96868 170,141.631693 L172.605823,142.489127 C178.390749,144.42485 184.084472,146.568436 189.817282,149.140739 C190.103922,149.270653 206.963595,156.727733 214.572598,158.234739 C219.39337,159.196105 221.816785,160.495247 228.982797,159.806702 C236.00549,158.754396 241.204106,153.752696 246.702392,148.712022 C249.894525,145.78895 253.438444,142.411179 257.620789,140.917165 C263.913851,138.747596 271.145009,140.722293 277.646537,140.553405 C295.887296,140.098705 316.225742,130.666927 317.189897,110.192436 C317.489566,103.943559 317.085664,98.0064758 324.212589,95.9018644 C328.525226,94.6027216 333.176619,94.8365673 337.554401,93.797253 C346.362082,91.7186244 352.029747,85.1449615 357.501974,78.4154015 C372.772096,59.6427872 395.976947,52.1077586 419.429352,59.2660357 C421.94397,60.03253 423.702901,57.0574929 422.725717,54.9788643 C422.255344,56.375691 420.741075,57.1306358 419.338148,56.66775 L419.338148,56.66775 Z" id="path-12"></path>
        <path d="M85.9256975,113.536681 C77.7501792,117.375519 74.1905038,123.381864 69.2226051,130.511134 C64.8936225,136.739452 61.0340477,137.614289 53.8625404,137.039769 C43.2878269,136.230219 40.8234362,149.613921 34.5646662,155.607209 C27.5365891,162.279474 21.525562,165.517678 7,163.219598 C7,163.219598 7,163.324056 8.43430146,163.728832 C17.2226577,166.601431 27.901684,164.538382 34.5125098,158.218663 C40.8364753,152.225376 43.2356705,138.828616 53.810384,139.651224 C60.9818913,140.199629 64.8414661,139.337849 69.1704487,133.122588 C74.1122691,126.019433 77.6980228,120.065317 85.8735411,116.148136 C93.3840651,112.622672 101.676935,111.303888 109.865493,110.598795 C119.996877,109.723958 130.219534,109.005808 140.142293,106.60327 C149.778191,104.266019 158.044983,98.2988459 167.420099,104.657737 C177.160309,111.264716 186.352878,118.263413 197.657781,122.076137 C215.731111,128.145747 235.584276,125.601117 251.548399,115.16884 C257.20737,111.408346 263.283592,106.720786 266.908463,100.9103 C270.116083,95.7657353 272.306652,89.0151261 278.291601,86.4167292 C280.917447,85.5168485 283.656149,84.9894414 286.428002,84.8498567 C304.565396,82.4995478 316.417942,67.5489724 331.569381,59.1139753 C336.52149,56.1893919 342.101832,54.4968372 347.842183,54.1783268 C349.563345,54.1783268 351.440976,54.1783268 352.83616,53.1859742 C354.231344,52.1936216 354.2835,51.0315244 353.462037,50 C353.27441,50.213253 353.064597,50.4058498 352.83616,50.5745199 C351.440976,51.5929871 349.576384,51.5146435 347.842183,51.5668725 C342.101832,51.885383 336.52149,53.5779377 331.569381,56.502521 C316.404903,64.9505754 304.565396,79.8880936 286.428002,82.2384024 C283.656149,82.3779871 280.917447,82.9053943 278.291601,83.805275 C272.306652,86.4167292 270.103044,93.1542811 266.908463,98.2988459 C263.283592,104.122389 257.20737,108.744663 251.548399,112.557386 C235.584276,122.989663 215.731111,125.534293 197.657781,119.464682 C186.365917,115.651959 177.160309,108.653262 167.420099,102.046283 C158.044983,95.6873917 149.778191,101.654565 140.142293,103.991816 C130.219534,106.407411 120.009916,107.112504 109.865493,107.987341 C101.75517,108.692434 93.4492606,110.011218 85.9256975,113.536681 Z" id="path-13"></path>
        <path d="M383.13751,36.2250057 C366.082994,33.7979996 345.617575,37.6472835 333.054516,22.9808593 C329.435313,18.7531712 326.948739,13.5729485 322.951993,9.68451928 C314.463792,1.41182095 299.205858,0.550625224 290.248983,8.60150042 C289.113748,9.77745253 287.262889,9.86877964 286.017901,8.81027514 C273.715216,-0.962991506 250.060212,4.67392597 236.390561,8.588452 C220.195281,13.2336895 204.820179,21.8586952 194.37917,35.3507616 C191.996745,38.4301887 191.267697,42.1620369 186.867372,42.8666516 C184.872022,43.0709623 182.861094,43.0709623 180.865745,42.8666516 C174.693931,42.4376273 168.587041,44.3521318 163.759154,48.2295522 C159.710334,51.7395772 158.096013,58.2637873 152.927583,60.429825 C151.01447,61.0202507 149.066585,61.4909015 147.095199,61.8390544 C142.291294,63.1438964 139.518308,67.0584224 137.292107,71.20782 C136.884419,72.1822662 136.223569,73.0293639 135.378356,73.6609229 C134.213923,74.1655381 132.921375,74.2932632 131.681041,74.0262787 C122.997559,73.2433735 111.475997,78.0582405 108,85 L109.82262,83.4341896 C115.96206,78.4288184 123.792987,75.9933078 131.681041,76.6359627 C132.921375,76.9029472 134.213923,76.7752221 135.378356,76.270607 C136.229112,75.6283095 136.890437,74.7670758 137.292107,73.7783587 C139.518308,69.5767675 142.278275,65.740532 147.095199,64.4095931 C149.066585,64.0614403 151.01447,63.5907894 152.927583,63.0003637 C158.135069,60.834326 159.710334,54.3231644 163.759154,50.800091 C168.587041,46.9226706 174.693931,45.0081661 180.865745,45.4371903 C182.861094,45.6415011 184.872022,45.6415011 186.867372,45.4371903 C191.267697,44.7325756 191.996745,41.0007275 194.37917,37.9213003 C204.794142,24.429234 220.195281,15.7389862 236.390561,11.1589908 C250.07323,7.24446473 273.715216,1.60754725 286.017901,11.3808139 C287.262889,12.4393184 289.113748,12.3479913 290.248983,11.1720392 C299.218877,3.12116398 314.463792,3.96931129 322.951993,12.255058 C326.93572,16.1695841 329.461351,21.3106616 333.054516,25.5513981 C345.617575,40.2178223 366.082994,36.3554899 383.13751,38.7955445 C392.133442,40.1003865 401.116355,42.7100705 408.289666,48.0207775 C409.903987,49.3256195 410.763222,50.9175267 412,51.1263015 C405.737998,42.2664242 393.760781,37.7386225 383.13751,36.2250057 Z" id="path-14"></path>
    </defs>
    <g id="Page-1" stroke="none" stroke-width="1" fill="none" fill-rule="evenodd">
        <g id="Group-20-Copy" fill-rule="nonzero">
            <g id="Shape">
                <use fill="#99C7FF" fill-rule="evenodd" xlink:href="#path-1"></use>
                <use fill-opacity="0.7" fill="#061D3B" fill-rule="evenodd" xlink:href="#path-1"></use>
            </g>
            <g id="Shape">
                <use fill="#3678D8" fill-rule="evenodd" xlink:href="#path-2"></use>
                <use fill-opacity="0.7" fill="#061D3B" fill-rule="evenodd" xlink:href="#path-2"></use>
            </g>
            <g id="Shape">
                <use fill="#1B448E" fill-rule="evenodd" xlink:href="#path-3"></use>
                <use fill-opacity="0.7" fill="#061D3B" fill-rule="evenodd" xlink:href="#path-3"></use>
            </g>
            <g id="Shape">
                <use fill="#122B63" fill-rule="evenodd" xlink:href="#path-4"></use>
                <use fill-opacity="0.7" fill="#061D3B" fill-rule="evenodd" xlink:href="#path-4"></use>
            </g>
            <g id="Shape">
                <use fill="#122B63" fill-rule="evenodd" xlink:href="#path-5"></use>
                <use fill-opacity="0.7" fill="#061D3B" fill-rule="evenodd" xlink:href="#path-5"></use>
            </g>
            <g id="Shape">
                <use fill="#122B63" fill-rule="evenodd" xlink:href="#path-6"></use>
                <use fill-opacity="0.7" fill="#061D3B" fill-rule="evenodd" xlink:href="#path-6"></use>
            </g>
            <g id="Shape">
                <use fill="#122B63" fill-rule="evenodd" xlink:href="#path-7"></use>
                <use fill-opacity="0.7" fill="#061D3B" fill-rule="evenodd" xlink:href="#path-7"></use>
            </g>
            <g id="Shape">
                <use fill="#122B63" fill-rule="evenodd" xlink:href="#path-8"></use>
                <use fill-opacity="0.7" fill="#061D3B" fill-rule="evenodd" xlink:href="#path-8"></use>
            </g>
            <g id="Shape">
                <use fill="#122B63" fill-rule="evenodd" xlink:href="#path-9"></use>
                <use fill-opacity="0.7" fill="#061D3B" fill-rule="evenodd" xlink:href="#path-9"></use>
            </g>
            <g id="Shape">
                <use fill="#122B63" fill-rule="evenodd" xlink:href="#path-10"></use>
                <use fill-opacity="0.7" fill="#061D3B" fill-rule="evenodd" xlink:href="#path-10"></use>
            </g>
            <g id="Shape">
                <use fill="#122B63" fill-rule="evenodd" xlink:href="#path-11"></use>
                <use fill-opacity="0.7" fill="#061D3B" fill-rule="evenodd" xlink:href="#path-11"></use>
            </g>
            <g id="Shape">
                <use fill="#122B63" fill-rule="evenodd" xlink:href="#path-12"></use>
                <use fill-opacity="0.7" fill="#061D3B" fill-rule="evenodd" xlink:href="#path-12"></use>
            </g>
            <g id="Shape">
                <use fill="#122B63" fill-rule="evenodd" xlink:href="#path-13"></use>
                <use fill-opacity="0.7" fill="#061D3B" fill-rule="evenodd" xlink:href="#path-13"></use>
            </g>
            <g id="Shape">
                <use fill="#122B63" fill-rule="evenodd" xlink:href="#path-14"></use>
                <use fill-opacity="0.7" fill="#061D3B" fill-rule="evenodd" xlink:href="#path-14"></use>
            </g>
        </g>
    </g>
</svg>