<?xml version="1.0" encoding="UTF-8"?>
<svg width="523px" height="282px" viewBox="0 0 523 282" version="1.1" xmlns="http://www.w3.org/2000/svg" xmlns:xlink="http://www.w3.org/1999/xlink">
    <!-- Generator: Sketch 46.1 (44463) - http://www.bohemiancoding.com/sketch -->
    <title>Group 20</title>
    <desc>Created with Sketch.</desc>
    <defs>
        <path d="M522.482378,67.4134437 C514.58463,54.5459789 500.642688,47.018512 486.378389,43.2869472 C475.756725,40.5365265 464.732114,39.73231 453.820328,39.0889367 C439.701089,38.2686359 426.967986,37.8182746 417.281157,26.3179779 C412.574744,20.736715 408.819284,14.2868983 403.435922,9.34900862 C390.751172,-2.29604707 369.991378,-3.06809496 356.178379,7.06503361 C356.178379,7.06503361 344.54129,2.23973429 343.155155,1.95021633 C338.649489,1.21765277 334.079235,0.958886829 329.519452,1.17816844 C319.148016,1.24439538 308.816607,2.4690696 298.718236,4.82931159 C271.978719,11.263044 245.819445,25.352918 230.346307,48.5626077 C229.878889,49.2703183 220.353239,48.8360414 218.789807,48.9968847 C214.325926,49.3969026 209.941312,50.4257937 205.766583,52.0529076 C197.57564,55.7402999 190.945651,62.185686 187.037638,70.2603703 C186.183392,71.8688034 178.011641,72.962538 175.932438,73.9919351 C172.758142,75.588757 169.957121,77.8358753 167.712334,80.5865109 C166.374552,82.194944 165.101241,85.8460871 163.263806,86.9237373 C162.706067,87.187884 162.09126,87.3094841 161.474725,87.2775926 C147.097601,87.7440382 134.171083,92.2959039 124.613197,103.538851 C124.000373,104.227434 123.682156,105.128137 123.726715,106.048007 C123.642471,107.416334 124.411349,108.695133 125.660857,109.264873 C135.960165,114.508365 146.114412,120.87776 157.01008,124.802337 C158.871983,125.487874 160.785203,126.025688 162.731917,126.41077 C136.749939,129.90107 108.205223,127.00589 89.5407504,147.014798 C84.7053948,152.1457 80.8532281,164.980996 73.1972483,165.769128 C68.0395356,166.299911 64.7192581,163.935514 59.5937811,165.881719 C55.9640267,167.391197 52.7798606,169.799266 50.3421339,172.878403 C44.1689965,180.373701 41.6546116,190.104721 32.0967252,194.093635 C23.6993243,197.648272 13.045424,197.165742 6.22757249,190.73201 C4.05166244,188.673216 -0.461336167,190.410323 0.0383172504,193.659358 C1.99898528,206.756241 9.28098641,218.468156 20.1695146,226.037117 C24.9604916,229.447626 30.3272587,231.970155 36.0133633,233.484162 C44.1528787,235.607294 51.5832085,234.14362 59.7871953,233.725427 C63.8650119,233.516331 68.3135391,233.17856 70.6828634,237.038799 C71.923938,239.065425 72.2946486,241.864098 73.0683055,243.98723 C74.519327,248.489011 77.6305719,252.272236 81.7719457,254.57072 C87.2681333,257.449815 93.6346849,256.98337 99.5015831,258.189694 C107.721688,259.798128 113.282347,266.23186 119.552191,271.314509 C129.932088,279.678361 141.859299,283.409926 155.011466,279.356674 C169.38859,274.853061 178.446823,263.384933 190.470741,255.230178 C197.933306,250.211866 205.363636,254.425961 213.29362,255.085419 C228.186515,256.323912 234.956013,245.225724 245.819445,237.794763 C254.63591,231.763139 263.629672,234.577896 273.493797,234.48139 C285.614422,234.48139 300.684614,226.326635 295.252898,211.963327 C290.014596,198.162971 272.687905,196.779718 259.793623,199.095862 C251.396222,187.01653 233.424817,185.408096 220.256532,190.555082 C217.399847,185.007595 214.009925,179.750138 210.13452,174.856775 C218.435884,177.542972 226.582408,180.684191 234.536949,184.266109 C247.43123,190.072552 261.937297,195.525141 276.056536,197.278333 C288.499518,198.886766 296.381148,191.536227 304.859138,183.75141 C308.808012,180.132436 313.192067,175.95051 318.365898,174.100812 C326.150821,171.414728 335.096228,173.859547 343.139037,173.65045 C365.70403,173.087499 390.863997,161.410274 392.056718,136.061369 C392.427429,128.324805 391.927775,120.974266 400.74424,118.368605 C406.07925,116.760171 411.833323,117.049689 417.248921,115.762943 C428.144589,113.18945 435.155855,105.050778 441.925353,96.7190949 C460.815476,73.4772366 489.52137,64.1483245 518.533504,73.010791 C521.821546,74.0241038 524.061928,69.9708524 522.482378,67.4134437 Z M454.787399,74.4101278 C445.01998,80.8438602 438.750136,89.8350012 431.078038,98.3436124 C426.871279,103.008068 422.197102,106.996982 415.991729,108.573247 C410.269891,110.020837 404.225697,109.731319 398.536095,111.388005 C387.91443,114.476196 385.045452,122.743543 384.83592,132.989261 C384.529681,148.494557 374.730027,159.383649 360.030546,163.855093 C345.927425,168.149609 331.453594,163.404732 317.52777,166.862863 C305.922916,169.741958 301.264857,180.486291 292.15827,186.903939 C283.776987,192.790804 273.413208,189.573938 264.371093,187.113036 C255.375866,184.655636 246.582117,181.515398 238.066758,177.719786 C218.290154,168.905573 192.292058,157.292686 170.371779,163.163467 C165.649248,164.434129 160.298122,166.782441 155.349941,165.238345 C150.675764,163.758587 147.62949,159.222805 142.358952,158.804613 C137.088414,158.38642 131.817877,161.136841 127.852885,164.723647 C122.533994,169.548946 120.067962,176.449124 115.667789,182.014303 C110.461723,188.592794 102.773507,190.667673 95.5527093,194.367069 C86.1076479,199.192368 78.902968,209.180738 89.1055684,217.850192 C93.5057421,221.613926 98.9213404,222.353805 104.514235,222.160793 C109.688066,221.983865 114.620128,220.729287 119.810077,221.7426 C124.387547,222.627238 128.513717,224.959466 132.704359,227.05043 C142.665191,232.036572 153.834863,236.025486 165.230184,234.304463 C173.556231,233.236424 181.104621,228.879051 186.183392,222.209046 C191.183565,215.405506 192.224604,206.477303 188.923427,198.709838 C185.656579,192.336218 179.911527,187.579952 173.031225,185.552855 C167.320787,183.531289 161.0711,183.634091 155.43053,185.842373 C149.760741,188.17484 145.82205,193.41345 145.163458,199.49797 C144.933852,205.270116 148.076741,210.652096 153.222384,213.298326 C158.440436,215.779529 164.590377,215.28242 169.340237,211.995496 C171.066475,210.949991 172.311232,209.26873 172.805575,207.314955 C173.213996,205.284303 171.915858,203.301781 169.888244,202.859596 C167.647862,202.634415 166.068313,204.902306 164.21476,206.189052 C161.866553,207.832709 158.773644,207.959385 156.298363,206.513284 C153.823081,205.067183 152.419797,202.313757 152.706613,199.465802 C153.238502,194.029298 159.588936,190.989359 165.052888,191.21454 C172.73866,191.487927 179.516195,196.31986 182.266754,203.486885 C185.490324,213.137483 178.656355,222.096456 170.001069,225.586755 C158.847515,230.074284 146.130529,225.409828 135.976283,220.439769 C131.253752,218.13971 126.531221,215.61447 121.341273,214.472483 C115.039193,213.153567 108.97888,214.874591 102.6768,214.762001 C99.5499366,214.762001 93.3284457,214.05429 92.0390175,210.161882 C90.1693467,204.516282 97.2128481,201.637186 100.742658,199.948332 C105.062242,197.873453 109.688066,196.281104 113.733647,193.643274 C123.178708,187.482975 125.386854,175.821835 133.913198,169.130753 C144.357566,160.943829 150.143875,175.226715 161.023425,173.184005 C166.713027,172.122439 171.822386,169.613283 177.689284,169.050332 C184.316939,168.427862 191.002423,169.133299 197.353064,171.12521 C196.418228,171.398644 198.287899,172.186776 199.416149,173.409185 C201.54085,175.79609 203.531754,178.298337 205.379754,180.904484 C209.173951,185.746208 212.377078,191.021455 214.921523,196.618875 C215.305065,197.690932 216.154209,198.532166 217.231262,198.907101 C218.308314,199.282036 219.497545,199.150383 220.466064,198.548995 C231.055493,192.855142 248.543362,193.723696 254.909914,205.28833 C255.844684,206.665835 257.574815,207.267505 259.165027,206.768088 C266.160175,205.079233 274.912168,204.54845 281.601077,207.733148 C291.513556,212.429773 290.014596,223.56013 279.828113,226.294466 C267.788078,229.511332 255.731924,223.254527 244.143189,229.977778 C234.859306,235.349944 227.686862,248.120903 215.953065,247.863554 C209.924988,247.734879 204.28374,244.791447 198.223428,244.871868 C192.163115,244.95229 187.521174,247.911807 183.008175,251.67554 C173.482525,259.6212 163.876285,269.078787 151.578364,272.504749 C136.782175,276.606254 127.256525,267.67945 116.650978,259.090417 C113.185756,255.966027 109.175999,253.501939 104.820474,251.820299 C99.5499366,250.083192 93.8925705,250.4853 88.5414436,249.085963 C77.806954,246.303374 81.1111137,235.028258 73.664666,229.20573 C69.2967281,225.795852 63.2847692,225.988864 58.0464673,226.390972 C50.2615447,227.098683 43.2019254,227.999405 35.5620635,225.618924 C23.821211,221.765306 14.3838083,212.936141 9.77349997,201.492427 C20.9431715,205.931703 35.1429993,203.535138 43.8466395,195.332129 C51.6637978,187.949421 54.6294826,171.446897 67.7010607,172.46021 C76.5658794,173.135752 81.3367637,172.074186 86.6878906,164.418044 C92.7965566,155.668168 97.2289659,148.333713 107.334859,143.508414 C116.618742,139.165645 126.869696,137.541127 136.991707,136.672573 C149.515278,135.594923 162.151675,134.710285 174.41736,131.750768 C186.328453,128.871673 196.547171,121.521133 208.135907,129.354203 C220.175942,137.492874 231.539028,146.114076 245.513206,150.8107 C267.853947,158.287425 292.394774,155.152875 312.128289,142.302089 C319.123437,137.669802 326.634356,131.895527 331.115119,124.738 C335.080111,118.400773 337.78791,110.085174 345.186004,106.884392 C348.431856,105.775893 351.81721,105.126217 355.243544,104.954272 C377.663476,102.059093 392.314604,83.6425338 411.043548,73.2520559 C417.164932,69.649468 424.062885,67.5645294 431.158628,67.1721788 C433.286184,67.1721788 435.607155,67.1721788 437.331765,65.9497696 C444.19797,60.9314583 424.872665,55.5432074 422.229337,54.5620632 C413.783583,51.345197 404.370757,48.3695958 395.248053,49.4311616 C386.125349,50.4927275 377.518415,55.4949544 368.266768,54.0312803 C361.57786,52.9857988 355.904376,48.6108607 349.473353,46.4716447 C335.869885,41.919779 324.0555,50.9913417 311.048393,53.1144734 C296.639033,55.4627858 286.742672,45.5870065 273.268148,43.3030315 C257.811127,40.6812855 242.757053,52.6962808 237.148041,67.3008534 C233.247521,77.482235 233.166931,89.8189169 239.565719,98.5848773 C247.753587,109.843909 263.952029,112.433486 277.636085,109.570475 C286.08184,107.801199 295.252898,103.667526 300.056018,95.8827097 C304.859138,88.0978935 304.101599,74.9730793 294.350298,71.0806712 C286.90385,68.0407327 277.329846,73.5254895 276.169361,81.4711491 C275.646021,83.8732346 276.394544,86.3752663 278.151857,88.0978935 C280.037645,89.6259049 283.486866,89.0307847 284.083226,86.6824724 C284.166989,85.3907011 284.085748,84.0935436 283.841459,82.8222329 C283.841459,78.9941621 288.918582,76.5975968 292.287213,78.4151262 C295.655844,80.2326556 296.848565,84.768437 295.736433,88.4195801 C294.384251,92.0325868 291.859367,95.090119 288.563989,97.1051189 C277.652203,104.64867 257.682184,106.916561 247.801941,96.3652397 C237.921698,85.8139185 242.176811,69.0218769 250.654801,59.2426036 C257.096694,51.1829328 268.098854,48.3381527 277.652203,52.2620039 C285.711129,55.2376051 293.125341,59.9181455 301.828982,60.8027837 C311.741461,61.8000122 320.428983,57.3768212 329.567805,54.3690513 C335.483057,52.3906785 341.204894,51.441703 347.200735,53.5487504 C355.259662,56.3795926 362.125867,61.7035062 370.926214,61.5909159 C379.726561,61.4783256 387.656544,57.3768212 396.182888,56.7817009 C404.064518,56.1704963 412.30074,58.6153147 420.021192,61.6070002 C404.402993,66.1427816 391.428122,78.4955478 377.905244,87.5831949 C372.886436,91.1266533 367.417476,93.987964 361.642331,96.091806 C355.839904,98.0540944 350.005242,97.4428898 344.218933,98.8743953 C335.031757,101.15837 331.904894,110.133427 327.117892,117.258786 C313.337771,137.352603 290.038542,148.801107 265.676639,147.449075 C253.547174,146.582994 241.825353,142.713329 231.571264,136.190043 C222.303499,130.49619 213.632094,123.579928 203.38114,119.639267 C198.790115,117.795111 193.903373,116.792552 188.955663,116.67975 C182.315108,116.67975 176.061381,119.381917 169.61424,119.639267 C157.558087,120.121797 144.470391,111.291499 133.429662,105.082947 C141.294865,97.6523211 151.952256,93.9045585 162.748035,94.7728909 C164.283633,95.1019933 165.883876,94.944551 167.325505,94.3225296 C168.378785,93.5307921 169.197541,92.4691793 169.694829,91.2504224 C172.450982,86.0712678 175.867967,81.3424744 181.831572,79.7018727 C184.27226,79.2727575 186.683846,78.692602 189.05237,77.9647649 C195.499511,75.294766 197.449771,67.2686848 202.462423,62.9259154 C208.439601,58.1463549 216.000251,55.7864122 223.641281,56.3152553 C226.111617,56.5673255 228.601274,56.5673255 231.07161,56.3152553 C236.519445,55.4467014 237.422044,50.8465828 240.371611,47.0506806 C253.265893,30.4194823 272.333312,19.7073178 292.38392,14.0617176 C309.323783,9.2364183 338.593802,2.28798728 353.825173,14.3351512 C355.366534,15.6399327 357.657994,15.527357 359.063475,14.0778019 C370.168675,4.15376968 389.04268,5.1992512 399.551519,15.4128014 C404.483582,20.2381007 407.610445,26.5753272 412.058973,31.8027348 C427.6127,49.8815229 452.949964,45.1205609 474.06435,48.1283308 C487.2004,49.9941132 500.352567,54.2403766 509.797628,63.3280237 C490.698995,60.0410471 471.058643,63.9873332 454.722927,74.3940434 L454.787399,74.4101278 Z" id="path-1"></path>
        <path d="M473.345583,47.9282028 C452.230174,44.9384968 426.891683,49.6802348 411.337202,31.6134093 C406.856222,26.4055343 403.777563,20.02428 398.829142,15.234321 C388.319794,5.04360262 369.428756,3.98273919 358.339136,13.9002048 C356.933588,15.3488007 354.642016,15.461302 353.10058,14.1573838 C337.868472,2.11819136 308.580916,9.06202467 291.656351,13.8841311 C271.604771,19.6063642 252.568665,30.2310721 239.641522,46.8512657 C236.691812,50.6446561 235.789168,55.241731 230.34107,56.1097101 C227.870603,56.3613902 225.380848,56.3613902 222.91038,56.1097101 C215.268981,55.5812169 207.707964,57.9395981 201.730496,62.715996 C196.717602,67.0398181 194.718891,75.0766622 188.319794,77.7448945 C185.951155,78.47225 183.539452,79.0520216 181.098646,79.4808528 C175.15087,81.0882216 171.717602,85.9103281 168.961315,91.021761 C168.456551,92.222132 167.638344,93.2656288 166.591876,94.0436144 C165.150177,94.6652242 163.549856,94.8225623 162.014184,94.4936776 C151.217882,93.6259199 140.559975,97.3712025 132.694391,104.796912 C143.735654,111.017429 156.87234,119.82581 168.880722,119.3436 C175.457124,119.086421 181.64668,116.305673 188.223082,116.386041 C193.171032,116.498769 198.058011,117.500665 202.649259,119.3436 C212.884591,123.281653 221.556415,130.193339 230.840748,135.883425 C241.095334,142.402394 252.817723,146.269498 264.947776,147.135007 C289.320204,148.475512 312.622582,137.015303 326.392005,116.916473 C331.227595,109.827976 334.290135,100.842784 343.493875,98.5442471 C349.280464,97.0976151 355.115409,97.724489 360.918117,95.763499 C366.693543,93.6610491 372.162767,90.8016316 377.181818,87.2605179 C390.705351,78.1949578 403.680851,65.8503652 419.299807,61.3015114 C411.498388,58.3278791 403.34236,55.8846785 395.460348,56.479405 C386.885235,57.1384262 378.8098,61.0604061 370.170213,61.1889956 C361.530625,61.3175851 354.470664,55.9971943 346.443585,53.1521515 C340.447453,51.0464983 334.741457,51.9948459 328.8098,53.9719096 C319.670535,57.0098367 310.982592,61.4461746 301.069632,60.4013849 C292.317215,59.517332 284.950999,54.8398888 276.891683,51.8662564 C267.337871,47.9450016 256.335178,50.7878994 249.892972,58.8422371 C241.414571,68.6471869 237.288201,85.5245596 247.039974,95.9403096 C256.791747,106.35606 276.875564,104.234333 287.803997,96.6796992 C291.099535,94.6660326 293.624541,91.6105236 294.976789,87.9999076 C296.088975,84.3511803 294.976789,79.8023266 291.527402,78.0020735 C288.078014,76.2018204 283.032882,78.5968 283.081238,82.4062641 C283.325539,83.6767335 283.406784,84.9730327 283.323017,86.2639492 C282.726628,88.6107077 279.27724,89.2054342 277.39136,87.6784338 C275.633962,85.9569465 274.885404,83.4565703 275.408769,81.0560743 C276.553191,73.1156723 286.143778,67.6506183 293.590587,70.6724717 C303.261767,74.6426727 304.180529,87.5498443 299.296583,95.4580989 C294.412637,103.366354 285.321728,107.368702 276.875564,109.136808 C263.190845,111.997924 246.9755,109.458281 238.803353,98.1584785 C232.355899,89.31795 232.484848,77.0697996 236.385558,66.8951549 C241.994842,52.300246 257.049645,40.2932009 272.507415,42.9132121 C285.966473,45.1956758 295.863314,55.0649204 310.289491,52.7181619 C323.297228,50.5964351 335.112186,41.4665801 348.716312,46.0797287 C355.163765,48.2336029 360.821406,52.509204 367.510638,53.6343621 C376.827208,55.0970678 385.41844,50.0981507 394.49323,49.0372873 C403.568021,47.9764239 413.029658,51.014351 421.475822,54.1647939 C424.135397,55.1452888 443.461638,60.5942691 436.578981,65.5449651 C434.854288,66.7987128 432.549323,66.7022707 430.405545,66.7665654 C423.309459,67.1586564 416.411172,69.2422155 410.289491,72.8424196 C391.54352,83.2420959 376.907801,101.630395 354.486783,104.523659 C351.060283,104.69549 347.674765,105.344736 344.428756,106.452502 C337.030303,109.667239 334.306254,117.961262 330.357189,124.294296 C325.876209,131.463161 318.364926,137.153246 311.369439,141.846763 C291.634967,154.689045 267.092952,157.821522 244.751128,150.349744 C230.792392,145.656227 219.412637,137.04073 207.372018,128.907444 C195.782721,121.079558 185.563507,128.425233 173.651838,131.302424 C161.385558,134.276056 148.748549,135.144035 136.224371,136.220972 C126.10187,137.088951 115.850419,138.728468 106.566086,143.05229 C96.4597034,147.777954 92.0593166,155.171851 85.9181173,163.948084 C80.5667311,171.615234 75.7956157,172.692171 66.9303675,171.984929 C53.858156,170.98836 50.8117344,187.46389 43.0747905,194.841713 C34.3868472,203.055368 20.1702128,205.434274 9,200.997936 C13.6105317,212.434078 23.0483916,221.2574 34.789813,225.108468 C42.4300451,227.535595 49.4738878,226.587248 57.2753063,225.880005 C62.4977434,225.413868 68.5583495,225.285279 72.8942618,228.692901 C80.3410703,234.511576 77.0528691,245.779231 87.7717602,248.559979 C93.1070277,249.942317 98.764668,249.556548 104.05158,251.292506 C108.407316,252.973033 112.417266,255.435491 115.882656,258.557813 C126.488717,267.189384 136.014829,276.078134 150.811734,271.963269 C163.110251,268.555647 172.700838,259.104319 182.243069,251.147843 C186.756286,247.3866 191.398453,244.429041 197.459059,244.348673 C203.519665,244.268305 209.193424,247.193716 215.189555,247.338379 C226.92392,247.595558 234.096712,234.83305 243.381044,229.464438 C254.98646,222.76171 267.043198,229.014374 279.067698,225.783563 C289.254674,223.051036 290.753707,211.928044 280.840748,207.234527 C274.151515,204.019789 265.399097,204.582368 258.403611,206.270106 C256.813322,206.769192 255.083106,206.16792 254.148291,204.791326 C247.700838,193.186123 230.292714,192.366365 219.702772,198.056451 C218.734207,198.657441 217.544919,198.789007 216.467814,198.41432 C215.390709,198.039634 214.541524,197.198955 214.157963,196.127608 C211.613395,190.533892 208.410113,185.262135 204.615732,180.423615 C202.767616,177.819213 200.776617,175.318622 198.651838,172.933276 C197.523533,171.711676 195.66989,170.924065 196.588652,170.650812 C190.237705,168.66022 183.551896,167.955249 176.92392,168.577307 C171.056738,169.155959 165.931012,171.647381 160.257253,172.708245 C149.377176,174.749603 143.590587,160.476168 133.145712,168.657675 C124.618956,175.344329 122.410703,186.997753 112.965184,193.153976 C108.919407,195.790061 104.309478,197.365282 99.9735654,199.454862 C96.4435848,201.158673 89.3997421,204.019789 91.2695035,209.661654 C92.5589942,213.551486 98.764668,214.194434 101.907801,214.258729 C108.194068,214.371244 114.270793,212.65136 120.573179,213.969402 C125.763378,215.046339 130.486138,217.618129 135.208897,219.932741 C145.363636,224.883437 158.081238,229.576954 169.235332,225.076321 C177.891038,221.58833 184.757576,212.570991 181.501612,202.991073 C178.75092,195.828791 171.973056,191.000055 164.286912,190.726849 C158.822695,190.501817 152.471954,193.555818 151.940039,198.972651 C151.653208,201.818721 153.05656,204.570326 155.531962,206.01547 C158.007364,207.460614 161.100422,207.334022 163.448743,205.691453 C165.302386,204.405558 166.882012,202.139168 169.122502,202.364199 C171.150214,202.806092 172.448415,204.787302 172.039974,206.816611 C171.545607,208.769093 170.30079,210.449241 168.574468,211.494054 C163.824379,214.778804 157.674139,215.275584 152.455835,212.796023 C147.309942,210.151544 144.166901,204.773125 144.396518,199.004799 C145.055142,192.924304 148.994024,187.68916 154.664088,185.358237 C160.304931,183.151416 166.554921,183.048682 172.265635,185.068911 C179.146271,187.094666 184.891601,191.847785 188.158607,198.217188 C191.54492,206.010496 190.532625,215.01009 185.499033,221.861583 C180.408236,228.503037 172.861106,232.833431 164.54481,233.884702 C153.132818,235.492071 141.978723,231.554017 131.87234,226.603321 C127.74597,224.578036 123.603482,222.199131 118.977434,221.299004 C113.787234,220.286362 108.854932,221.540109 103.680851,221.71692 C98.0876854,221.909804 92.6718246,221.154341 88.2714378,217.409172 C78.1328175,208.745454 85.3378466,198.811914 94.718891,193.941587 C101.875564,190.260712 109.644745,188.171133 114.834945,181.596994 C119.251451,176.019424 121.701483,169.204181 127.020632,164.317779 C130.921341,160.733347 136.014829,158.016894 141.527402,158.402662 C147.039974,158.788431 149.844616,163.224769 154.51902,164.832137 C159.451322,166.439506 164.802708,164.028453 169.541586,162.758632 C191.479046,156.891735 217.478401,168.496938 237.239845,177.305319 C245.755617,181.09842 254.549791,184.23658 263.545455,186.692353 C272.588008,189.167701 282.887814,192.382439 291.333978,186.483395 C300.441006,180.05392 305.099291,169.33277 316.704707,166.45558 C330.631206,162.999737 345.08962,167.757549 359.209542,163.4498 C373.909736,158.965241 383.709865,148.099428 384.016119,132.604392 C384.225661,122.365453 387.094778,114.103577 397.716957,111.017429 C403.406834,109.41006 409.451322,109.651166 415.173436,108.204534 C421.395229,106.597165 426.069632,102.643038 430.260477,97.981668 C437.932946,89.4786869 444.203095,80.4452741 453.970986,74.0640199 C470.30518,63.7040033 489.926147,59.7896057 509,63.0856908 C499.651193,54.0362043 486.498388,49.7927507 473.345583,47.9282028 Z" id="path-2"></path>
        <path d="M144.796922,266.977721 C136.399813,267.395022 129.678902,261.889867 121.89425,255.518012 L119.92794,253.913011 C115.91507,250.32026 111.263274,247.505995 106.212124,245.615154 C102.926557,244.638571 99.5430542,244.024978 96.1226994,243.785453 C93.9147005,243.613296 91.7222843,243.28071 89.5629614,242.790352 C86.7746699,242.068102 86.0493917,240.784101 84.3731933,236.033297 C83.035458,232.261544 81.3914942,227.55889 76.8464178,224.011837 C71.3343038,219.710434 64.5489238,219.533884 59.9071436,219.758584 C58.9401061,219.758584 57.9730685,219.886984 57.0382656,219.967234 L55.0719559,220.143784 C52.8477696,220.352435 50.7364043,220.545035 48.625039,220.657385 C44.6557248,220.990346 40.6589393,220.576546 36.8432983,219.437584 C30.715316,217.460472 25.2400831,213.866229 21,209.037176 C21.6876711,209.037176 22.3753423,209.037176 23.0630134,209.037176 C32.0385825,208.648376 40.5932808,205.138553 47.2389519,199.118268 C50.380642,195.924565 53.0603635,192.310698 55.2008942,188.380809 C59.0368098,181.960804 61.6478112,178.028551 65.6932515,177.835951 C66.0421165,177.814153 66.3920105,177.814153 66.7408755,177.835951 C68.8040422,178.015995 70.8766718,178.064244 72.9460331,177.980401 C80.6500988,177.595201 86.065509,174.385198 91.0457523,167.275043 L92.6574815,164.947791 C97.8472497,157.452435 101.586461,152.107781 109.354996,148.416278 C118.461267,144.163024 128.921389,142.814823 136.996153,142.124673 L140.413019,141.835773 C151.872413,140.872772 163.718623,139.861621 175.306956,137.020769 C178.530415,136.250368 181.447645,135.239217 184.300406,134.244117 C187.982362,132.762517 191.847449,131.780035 195.792035,131.323014 C198.823085,131.140549 201.824157,132.008191 204.285848,133.778666 L209.33056,137.213369 C219.645628,144.291425 230.28304,151.65838 243.080171,155.879534 C267.15255,163.911039 293.591812,160.534934 314.850473,146.714976 C321.168452,142.541973 330.194135,135.993568 335.593428,127.454961 C336.624935,125.84996 337.559738,124.068409 338.462306,122.399207 C340.912135,117.857054 343.297494,113.55565 346.988354,111.934599 C349.010175,111.233676 351.120479,110.817699 353.257981,110.698748 L355.449932,110.441948 C371.77675,108.339396 383.993657,99.0945889 395.743163,90.1547319 C401.30172,85.7307186 407.166866,81.7028602 413.294894,78.1011724 C418.407207,75.078507 424.146467,73.2612496 430.072996,72.7886182 L431.29791,72.7886182 L432.812935,72.7886182 C435.443686,72.7762817 438.009951,71.976623 440.178538,70.4934664 C442.949692,68.7153729 444.428621,65.494112 443.966102,62.2437598 C443.015181,56.2731551 436.245919,52.9668525 424.899345,49.2592996 L423.626079,48.8419993 C414.98721,45.6319967 405.70365,42.7269444 396.371738,43.1923948 C395.544383,43.1923948 394.717029,43.2619449 393.889675,43.401045 C390.113372,43.9308754 386.388083,44.7737537 382.752626,45.920897 C379.286983,47.0711309 375.702609,47.8302364 372.066861,48.1839488 C370.881978,48.2484703 369.693567,48.1892978 368.521056,48.0073986 C365.176382,47.2561616 361.961293,46.0176784 358.979619,44.3319457 C356.301916,42.9299744 353.528229,41.7178646 350.679214,40.7046429 C347.023425,39.481695 343.166983,38.9642018 339.316523,39.1798917 C332.869606,39.5008919 327.051263,41.5873936 321.377976,43.5936451 C317.503772,45.1109667 313.501638,46.2818875 309.418946,47.0925479 C308.629255,47.2223609 307.832892,47.3080948 307.033586,47.3493481 C301.021836,47.6542983 295.751482,45.3591465 289.659145,42.7108944 C284.535672,40.245871 279.120536,38.4339805 273.541853,37.3180902 C271.269248,36.9359986 268.961622,36.8014556 266.659769,36.9168399 C262.663961,37.1393596 258.737387,38.0517357 255.055319,39.613242 C267.610689,28.8115835 282.30966,22.8730788 293.575647,19.6630763 C301.779349,17.3358244 314.028491,14.1579219 325.681294,13.5801215 C336.479879,13.034421 344.554643,14.8320224 349.712176,18.8926757 C351.564483,20.4024732 353.913265,21.1745071 356.304149,21.0594274 C358.640505,20.9199138 360.856101,19.9783877 362.573776,18.3951253 C366.454281,15.0935417 371.34927,13.2082609 376.450764,13.050471 C383.262338,12.6186432 389.956133,14.9719787 394.98565,19.5667762 C397.406812,22.123564 399.566427,24.9139685 401.432567,27.8967328 C403.170328,30.5487645 405.059142,33.0995406 407.089737,35.5365388 C420.354268,50.9124509 439.614433,51.8112516 456.602059,52.5816522 C462.291463,52.8384524 467.658521,53.0952526 472.719351,53.8175032 C477.217262,54.4298515 481.658453,55.4013321 486,56.7225555 C473.524375,58.1051851 461.543982,62.3640732 451.009358,69.1613153 C442.950712,74.4578195 437.084018,81.2951249 431.459083,87.9237801 C429.734533,89.9460817 427.96163,92.0325833 426.156494,94.0388349 C421.756473,98.8538387 418.097848,101.437891 414.020173,102.481142 C411.577942,103.026051 409.100668,103.401454 406.606218,103.604642 C403.1492,103.873812 399.723737,104.453979 396.371738,105.338044 C378.852241,110.425898 378.513778,126.989511 378.400957,132.430465 C378.159197,144.756875 370.825829,153.744882 357.78694,157.709235 C354.57947,158.653424 351.265601,159.192645 347.923157,159.314236 C344.474056,159.490787 340.992721,159.314236 337.317979,159.314236 C333.643236,159.314236 329.726734,159.073486 325.842466,159.314236 C322.387091,159.457385 318.953973,159.9358 315.591869,160.742688 C306.598419,162.973639 301.086306,168.896094 296.251118,174.128398 C293.83563,176.910322 291.134738,179.433183 288.192472,181.655854 C286.16353,183.059089 283.763992,183.835125 281.294271,183.886806 C276.749194,184.111506 271.623895,182.699105 266.563065,181.318804 L265.386503,180.997804 C256.684446,178.623161 248.176749,175.591633 239.937299,171.929546 C222.208277,164.06504 200.369346,154.274532 179.465218,155.365933 C175.68644,155.544696 171.937183,156.120338 168.279817,157.083285 C167.296662,157.340085 166.29739,157.645035 165.282001,157.949985 C163.169784,158.691524 160.979974,159.19227 158.754497,159.442637 C158.021555,159.498371 157.284523,159.422257 156.578663,159.217936 C155.231636,158.666589 153.967838,157.932001 152.823334,157.035135 C149.806413,154.531948 146.131037,152.944263 142.234273,152.460881 C141.418379,152.412743 140.600338,152.412743 139.784444,152.460881 C133.609204,152.981471 127.808347,155.625789 123.377041,159.940187 C119.973815,163.316322 117.094809,167.178642 114.834876,171.399896 C113.56139,173.628052 112.145527,175.772467 110.596028,177.819901 C107.598212,181.607704 103.198191,183.581856 98.1212436,185.844907 C96.267755,186.679508 94.3336799,187.546209 92.4157222,188.541309 C84.1153166,192.810613 78.6837891,199.439268 77.9101591,206.292623 C77.4427576,210.240927 78.2647395,216.131281 84.7922429,221.700636 C91.3197463,227.26999 98.9915774,227.60704 104.261932,227.41444 L104.938858,227.41444 C106.550588,227.33419 108.162317,227.17369 109.645108,227.01319 C111.127899,226.85269 112.352813,226.72429 113.626079,226.66009 C115.155993,226.553401 116.693274,226.634257 118.20339,226.90084 C121.412316,227.724925 124.496451,228.971782 127.374129,230.608393 L129.549964,231.699794 C137.350733,235.519697 149.164708,240.5273 161.687844,239.90135 C163.02558,239.90135 164.379432,239.70875 165.684933,239.51615 C175.596165,238.238485 184.569469,233.029766 190.570032,225.071138 C196.797567,216.542104 198.024027,205.366836 193.793491,195.699615 C189.866313,187.874925 182.876795,182.005947 174.468857,179.473052 C171.473905,178.504726 168.36277,177.937992 165.217531,177.787801 C166.700322,177.402601 168.118644,176.9532 169.504731,176.5359 C172.240472,175.589492 175.064254,174.917409 177.934075,174.529648 L179.932619,174.385198 C184.388152,174.174475 188.849951,174.639899 193.164916,175.765499 C193.535614,176.10255 193.85796,176.3433 194.083602,176.5038 C194.309244,176.6643 194.615473,176.90505 194.712176,177.00135 C196.684939,179.199744 198.535805,181.503669 200.256525,183.902856 C203.765119,188.355313 206.735031,193.203698 209.104918,198.347867 C210.612805,202.190423 214.411071,204.649636 218.549652,204.462922 C220.085368,204.3826 221.583439,203.960284 222.933555,203.227071 C226.109884,201.606121 229.601882,200.691586 233.168036,200.546719 C235.988562,200.402269 245.46553,200.546719 249.365915,207.608725 C251.166846,210.7399 254.617727,212.558108 258.230425,212.279278 C258.904225,212.245547 259.573349,212.148821 260.22897,211.990378 C262.751025,211.37615 265.324557,210.994687 267.916918,210.850827 C271.605548,210.53575 275.315974,211.113944 278.731621,212.536078 C280.93969,213.579329 282.164604,215.05593 282.035666,216.500432 C281.906728,217.944933 280.327233,219.389434 277.957991,220.031434 C276.26752,220.48125 274.532587,220.744979 272.78434,220.817885 C270.025928,220.894544 267.265371,220.814163 264.516169,220.577135 C261.359189,220.313336 258.189456,220.232949 255.023084,220.336385 C249.999657,220.473842 245.088407,221.84678 240.727046,224.332838 C236.970745,226.702636 233.494369,229.486126 230.363627,232.630694 C225.673495,236.996298 221.241239,241.137201 216.3577,241.377951 L215.648539,241.377951 C213.212222,241.205154 210.801973,240.769245 208.460227,240.0779 C204.953878,239.067139 201.32765,238.527365 197.677758,238.472899 L196.77519,238.472899 C189.022772,238.858099 183.301133,242.806402 178.73994,246.610255 C177.305501,247.797956 175.871062,249.033807 174.420505,250.269658 C166.700322,256.866213 158.722263,263.687469 149.519289,266.239421 C147.97701,266.656726 146.393417,266.904307 144.796922,266.977721 Z M160.914214,220.914185 C152.855568,221.315435 144.039409,217.511582 138.076011,214.60653 L136.206405,213.691679 C131.744197,211.251651 126.981741,209.401022 122.039305,208.186525 C119.148367,207.619324 116.195428,207.430477 113.255381,207.624775 C111.643652,207.624775 110.160861,207.849475 108.67807,207.977875 C107.195279,208.106275 105.93813,208.234675 104.568161,208.298875 C103.810648,208.298875 103.053135,208.298875 102.279505,208.298875 C100.693952,208.309015 99.1166665,208.070702 97.6054903,207.592674 C99.0045705,206.609517 100.50043,205.7706 102.06998,205.088873 L102.827493,204.735772 C104.149111,204.093772 105.519081,203.515971 106.872933,202.922121 C110.229279,201.596679 113.464703,199.98572 116.543309,198.107117 C122.66788,194.126714 126.213684,188.477109 129.308204,183.389255 C131.709681,179.505152 133.982219,175.829699 137.157326,173.357997 C137.91225,172.672357 138.854669,172.22546 139.865031,172.073996 C141.283352,172.073996 143.346366,173.213547 145.554435,174.481498 C148.772022,176.603311 152.392418,178.045424 156.191848,178.718702 C154.97619,179.044652 153.785782,179.457679 152.629926,179.954553 C144.908654,183.147825 139.593356,190.330889 138.817407,198.620717 C138.399832,206.744177 142.819645,214.352249 150.099511,218.041233 C153.388045,219.661376 157.041204,220.407756 160.70469,220.207984 C164.856106,220.017222 168.868363,218.659417 172.276905,216.291781 C172.620741,216.045681 172.953832,215.794231 173.276178,215.537431 C171.593565,217.277325 169.561607,218.644539 167.312779,219.549934 C165.292066,220.351561 163.151443,220.812613 160.978684,220.914185 L160.914214,220.914185 Z M159.576479,201.060319 C159.303398,201.080463 159.030049,201.02491 158.786732,200.899819 C158.343924,200.594045 158.08386,200.088132 158.093688,199.551618 C158.222627,198.187367 160.898097,196.758916 163.573568,196.630516 L164.314963,196.630516 C164.986338,196.659863 165.654471,196.740349 166.313507,196.871266 C164.429645,197.568527 162.719666,198.663602 161.301029,200.081269 C160.930332,200.402269 160.559634,200.739319 160.301757,200.915869 C160.095802,201.014643 159.869512,201.064109 159.640948,201.060319 L159.576479,201.060319 Z M272.268587,141.161672 C270.024575,141.283414 267.775571,141.283414 265.531559,141.161672 C254.379144,140.354308 243.604837,136.790736 234.183425,130.793364 C231.604658,129.188363 228.993657,127.487061 226.463242,125.80181 C219.8068,121.388056 212.924717,116.829853 205.027243,113.796401 C199.779281,111.699566 194.192789,110.568442 188.539253,110.457998 C187.905307,110.457998 187.276732,110.457998 186.65353,110.457998 C183.335484,110.705353 180.045663,111.242417 176.821982,112.062999 C174.263384,112.718744 171.653927,113.158996 169.021212,113.3791 L168.827805,113.3791 C161.139857,113.68405 152.065821,108.949297 143.700946,104.166393 C147.927589,101.843238 152.628023,100.504295 157.448997,100.25019 C158.851364,100.179167 160.257003,100.205983 161.65561,100.33044 L161.913487,100.33044 C162.924748,100.442063 163.942873,100.479614 164.959655,100.44279 C166.662138,100.380185 168.322868,99.9005835 169.794842,99.0464389 C171.825164,97.7997507 173.448766,95.9933669 174.468857,93.8462348 C177.305501,88.5015806 179.771446,86.0138286 183.011022,85.1150279 C183.704066,84.9224277 184.50993,84.7779776 185.364147,84.6174775 C187.271868,84.3309358 189.142035,83.8357418 190.94073,83.1408763 C196.420609,80.8617745 199.466778,76.1751708 201.916606,72.4034179 C203.026138,70.4878017 204.380549,68.7236267 205.945929,67.1550637 C209.951179,63.9098718 214.91943,62.0707742 220.080794,61.9227596 C221.015597,61.9227596 221.966518,61.9227596 222.901321,61.9227596 L224.51305,62.0190597 C226.120754,62.1580497 227.73538,62.2009266 229.348237,62.1474598 C230.087826,62.1127321 230.824951,62.0377198 231.556307,61.9227596 L232.378288,61.7622595 C231.905515,62.7573602 231.470348,63.7738611 231.072788,64.8117619 C226.044193,77.8925222 227.252989,91.9844333 234.21566,101.582341 C241.403972,111.517299 254.265571,116.765653 269.480295,116.027352 C272.449701,115.877188 275.402782,115.496178 278.312571,114.887801 C285.22689,113.4433 297.84673,109.398697 304.567641,98.5488885 C308.442293,92.184859 309.398416,84.4743472 307.194759,77.3628718 C305.628764,72.3086474 302.044378,68.1182015 297.282625,65.7747626 C298.426952,65.9994628 299.587397,66.1760129 300.796194,66.304413 C302.552607,66.4794524 304.319773,66.5223741 306.082666,66.4328131 C313.125923,66.0797129 319.427784,63.768511 325.520121,61.5215093 C327.341375,60.8474087 329.178746,60.1733082 331.016117,59.5634077 C333.547315,58.6764918 336.187891,58.1365423 338.865239,57.9584065 C340.878315,57.842038 342.89452,58.1257473 344.796402,58.7930071 C347.168225,59.6779937 349.49225,60.6851532 351.759072,61.8104095 C357.142248,64.3623615 363.250702,67.2513638 370.58407,67.1390137 L371.841219,67.1390137 C376.495256,66.7666987 381.097527,65.9114095 385.573152,64.5870617 C389.054747,63.5663843 392.619612,62.852091 396.226682,62.45241 L396.903608,62.45241 C398.723066,62.3721966 400.546083,62.452762 402.351253,62.6931602 C396.352688,66.3698236 390.558123,70.36676 384.992929,74.6664696 C381.269835,77.4270718 377.772382,80.0432239 374.194343,82.4346758 C369.602526,85.6670018 364.607024,88.2892139 359.3342,90.2349819 C356.625218,91.0149546 353.834252,91.4781738 351.017677,91.615283 C348.109446,91.8054259 345.22084,92.224028 342.378808,92.867184 C332.708433,95.2586359 328.243943,102.946592 324.649787,109.125847 C323.698867,110.730848 322.812416,112.239549 321.861495,113.6359 C310.596895,130.034459 292.262345,140.224012 272.333056,141.161672 L272.268587,141.161672 Z M267.949153,97.2327874 C263.871478,97.4414376 256.344702,97.0241373 251.622335,91.9844333 C244.482375,84.3606773 247.625247,70.9107667 254.636269,62.8215603 C257.697962,58.9555096 262.25877,56.5592746 267.19164,56.2250051 C269.886448,56.126893 272.573206,56.5746369 275.089113,57.5411061 C277.442238,58.4078068 279.747011,59.4350076 282.180722,60.5103585 C285.001248,61.7622595 287.870126,63.0462605 290.884059,64.0895113 C290.073694,64.0365553 289.260714,64.0365553 288.450348,64.0895113 C279.231257,64.5549617 271.027555,71.6811673 269.786524,80.3321241 C268.9293,84.7887686 270.497882,89.3650415 273.912551,92.3696336 C275.612132,93.7251426 277.714936,94.4814756 279.892066,94.5203353 C276.098758,96.1060447 272.057772,97.023826 267.949153,97.2327874 L267.949153,97.2327874 Z M289.546324,86.3669289 C289.625189,85.6146224 289.625189,84.8561836 289.546324,84.1038771 C289.762061,84.8328296 289.756454,85.6090428 289.530207,86.3348288 L289.546324,86.3669289 Z" id="path-3"></path>
        <path d="M144.817509,261.985642 C138.713937,262.291546 133.109602,257.670775 125.991452,251.826384 L124.026713,250.21636 C119.448938,246.171414 114.156736,243.015478 108.421539,240.910416 C104.75284,239.795134 100.972285,239.087813 97.1484506,238.801283 C95.2695605,238.65172 93.4026983,238.377411 91.5602198,237.98017 C91.1737139,237.191258 90.5939551,235.549033 90.3845978,234.953323 C90.0625095,234.019509 89.6921081,232.989093 89.257289,231.878176 C94.2177958,233.755597 99.5195827,234.562182 104.814151,234.244912 L105.538849,234.244912 C107.358648,234.148311 108.985193,233.987308 110.547321,233.826306 C112.109449,233.665303 113.124027,233.552602 114.26744,233.504301 C115.342941,233.41992 116.424749,233.468589 117.488322,233.649203 C120.15053,234.404483 122.70908,235.486043 125.105709,236.869253 L127.344222,237.99627 C135.734621,242.117934 148.47321,247.527618 162.371317,246.835307 C163.901236,246.835307 165.431156,246.609904 166.928866,246.3845 C168.935392,246.090862 170.920494,245.665977 172.871394,245.112581 L171.003282,246.722605 C163.788506,252.921201 156.316059,259.329101 148.457106,261.534835 C147.265369,261.824992 146.044042,261.976268 144.817509,261.985642 Z M216.047321,236.225243 C214.060807,236.044586 212.097161,235.667059 210.185315,235.098226 C206.186432,233.926699 202.048035,233.298518 197.881545,233.230597 L196.77034,233.230597 C195.040579,233.317165 193.321647,233.554198 191.633033,233.939008 C193.093748,232.476301 194.434717,230.898782 195.643032,229.221635 C203.126581,218.936765 204.59746,205.457193 199.50809,193.801087 C199.261156,193.275145 199.003485,192.73847 198.735079,192.191062 C200.733159,195.004538 202.438352,198.014829 203.824073,201.175001 C206.267611,207.359563 212.383747,211.297751 219.026637,210.963952 C221.44135,210.840104 223.797177,210.174259 225.919325,209.015822 C228.324156,207.806891 230.95982,207.126187 233.649443,207.019391 C235.034422,207.019391 242.039841,206.826188 244.342772,211.028353 C245.367231,212.925924 246.796735,214.574926 248.529919,215.858428 C244.833713,216.610183 241.286345,217.964579 238.029843,219.86739 C233.891204,222.463271 230.060674,225.520421 226.611815,228.980131 C222.891696,232.457785 219.07495,236.03204 216.353305,236.176942 L216.047321,236.225243 Z M73.4910701,216.180433 C69.1407611,214.793852 64.566284,214.247461 60.0116776,214.570408 C58.9648909,214.570408 57.9181041,214.69921 56.9035262,214.795811 L54.9226836,214.972914 C52.748588,215.182217 50.7194321,215.37542 48.7869028,215.472022 C45.5349219,215.767268 42.2564255,215.444966 39.1242558,214.522107 C38.0600617,214.181175 37.0168424,213.777972 36,213.314589 C41.8986536,211.414759 47.3082192,208.243506 51.846741,204.024745 C55.3154891,200.453524 58.2695316,196.416473 60.6236452,192.030059 C61.7509541,190.13023 65.1650893,184.382441 66.3246069,184.33414 L66.6305907,184.33414 C68.9330814,184.53561 71.2461183,184.589387 73.5554877,184.495143 C83.2181346,184.012135 90.159136,179.922672 96.2143947,171.228537 L97.8248359,168.877901 C102.833308,161.616689 105.877042,157.237421 112.141658,154.291075 C117.782336,151.834308 123.749245,150.20739 129.85651,149.461001 C126.135879,151.11514 122.717677,153.378842 119.74294,156.158704 C115.894513,159.943647 112.637218,164.285584 110.080293,169.038903 C108.931529,171.070058 107.656791,173.027378 106.263548,174.899394 C104.15387,177.572035 100.562586,179.18206 96.0050374,181.242892 C94.072508,182.112306 92.075561,183.01392 90.0141963,184.076536 C79.9650435,189.260816 73.3622348,197.632946 72.2993436,206.455882 C71.9488459,209.745847 72.3565049,213.072366 73.4910701,216.180433 Z M133.882613,206.520283 C130.61353,205.006866 127.190193,203.851654 123.672416,203.07483 C122.996031,202.929928 122.303541,202.817226 121.611052,202.704524 C127.923981,198.083753 131.660205,192.030059 134.687834,187.103383 C136.301383,184.112699 138.329064,181.364655 140.710884,178.940557 C141.338956,179.278662 142.128072,179.713369 142.74004,180.083674 C137.191733,184.852369 133.762882,191.627233 133.206228,198.920966 C133.043784,201.484371 133.271848,204.057573 133.882613,206.552484 L133.882613,206.520283 Z M193.162952,184.704446 C192.095838,183.594185 190.96099,182.55104 189.764921,181.580998 L190.666768,181.774201 L190.827813,181.903002 C191.616929,182.804616 192.470463,183.754531 193.162952,184.736646 L193.162952,184.704446 Z M281.237979,178.457549 C277.646695,178.634652 272.944207,177.346632 268.35445,176.090813 L267.162723,175.768808 C258.754221,173.467002 250.533298,170.528257 242.571287,166.978072 C224.373302,158.927947 201.746604,148.736489 179.441994,149.863507 C175.247191,150.062932 171.085229,150.705144 167.025492,151.779436 C165.99481,152.053141 164.915814,152.375146 163.80461,152.713251 C162.152205,153.289484 160.447946,153.704655 158.715616,153.95297 L158.651198,153.95297 C158.248588,153.743667 157.282323,153.083557 156.573729,152.584449 C153.676296,150.395778 150.400932,148.758519 146.911082,147.754374 C157.003068,147.028717 167.026552,145.548725 176.897497,143.326806 C180.343841,142.489593 183.435888,141.410876 186.431308,140.38046 C189.594172,139.097862 192.905225,138.216224 196.287208,137.756119 C198.018757,137.649464 199.731651,138.163199 201.118532,139.205142 L206.127004,142.634495 C216.77202,149.960108 227.787437,157.527225 241.315143,162.099696 C261.839979,168.962791 284.159653,168.138893 304.122348,159.78126 C299.613907,162.822472 295.535131,166.456139 291.995726,170.584527 C289.87863,173.060961 287.51524,175.31585 284.941994,177.314431 C283.849741,178.061722 282.561375,178.470532 281.237979,178.48975 L281.237979,178.457549 Z M311.643108,156.271406 C313.940671,155.037053 316.179184,153.695366 318.358648,152.246344 C325.138605,147.754374 334.833461,140.670264 340.904824,131.058416 C342.048237,129.239088 343.014502,127.419759 343.964662,125.664832 C345.832774,122.187178 347.765303,118.596823 349.633415,117.77571 C351.120207,117.354241 352.648313,117.095123 354.190963,117.002898 L356.493894,116.729194 C365.36449,115.462859 373.887785,112.418047 381.552358,107.777456 C375.915814,113.573545 372.968707,121.929575 372.743245,132.797243 C372.501679,145.113933 363.692566,150.378715 356.33285,152.616649 C353.592066,153.411605 350.762545,153.860534 347.910243,153.95297 C344.68936,154.113973 341.371852,153.95297 337.828881,153.95297 C333.963822,153.824168 329.986033,153.711466 325.847199,153.95297 C322.013949,154.118812 318.206017,154.65804 314.477484,155.562995 C313.436066,155.734731 312.491274,155.970868 311.643108,156.271406 Z M272.251717,135.775789 C270.224064,135.886205 268.191903,135.886205 266.16425,135.775789 C255.984484,135.021354 246.153824,131.73978 237.562815,126.228341 C235.082735,124.714918 232.538238,123.008291 230.058159,121.398266 C223.117158,116.777495 215.966799,112.027921 207.511983,108.74347 C201.611441,106.38122 195.330769,105.110136 188.975805,104.992112 C188.224266,104.992112 187.472727,104.992112 186.721188,104.992112 C183.069749,105.253093 179.448381,105.834948 175.899023,106.730939 C173.674416,107.308119 171.407204,107.706528 169.119066,107.922358 L168.958022,107.922358 C166.557231,107.928929 164.174353,107.509171 161.920394,106.682639 C163.161039,106.815957 164.409733,106.859005 165.656617,106.811441 C168.29935,106.682083 170.870287,105.908238 173.145169,104.557406 C176.050483,102.725364 178.369809,100.099338 179.828499,96.9902886 C182.598458,91.7577076 184.080064,91.3552014 184.659823,91.1780987 C185.239582,91.0009959 185.803236,90.9204947 186.495726,90.7916927 C188.817032,90.4342286 191.091123,89.8186006 193.275683,88.9562643 C200.458251,85.961618 204.194474,80.1655283 206.932224,75.9311628 C207.769891,74.4983929 208.752007,73.1550761 209.863227,71.9222007 C212.895651,69.5477644 216.624526,68.2353587 220.476034,68.1869429 C221.216837,68.1869429 221.973744,68.1869429 222.730652,68.1869429 L223.938483,68.1869429 C220.331094,81.6145507 222.328042,95.5573664 229.494505,105.45902 C237.884903,117.0834 252.588231,123.169294 269.755534,122.380381 C273.004003,122.211662 276.234535,121.791801 279.41818,121.124562 C287.261029,119.514537 301.61006,114.813264 309.469012,102.045767 C314.237007,94.1752051 315.409262,84.6413741 312.689895,75.8506615 C312.248083,74.5615477 311.709745,73.3075457 311.079454,72.0993035 C316.642153,71.0296689 322.085181,69.4117437 327.328805,67.2692287 C329.180812,66.576918 330.903984,65.9490083 332.643261,65.3693993 C334.660272,64.6303298 336.767206,64.16465 338.907877,63.9847779 C340.147595,63.9043011 341.390837,64.0740391 342.563578,64.4838856 C344.756825,65.3021854 346.906875,66.2318419 349.005343,67.2692287 C354.674096,69.9579703 361.727828,73.3229224 370.456419,73.1941204 L371.92192,73.1941204 C373.931048,73.0848446 375.93168,72.8536486 377.912761,72.5018097 C375.448786,74.3211378 373.081438,76.0599647 370.665776,77.6699897 C366.514197,80.6150349 361.999909,83.0122924 357.234697,84.8024 C354.968717,85.4231619 352.640775,85.7903526 350.293696,85.897217 C347.083369,86.1175003 343.895495,86.5912511 340.759884,87.3140389 C328.762097,90.3086852 323.302702,99.5824287 319.308808,106.360634 C318.406961,107.970659 317.553427,109.33918 316.715998,110.578899 C306.631567,125.445784 290.190695,134.76245 272.251717,135.775789 L272.251717,135.775789 Z M391.424363,101.208554 C394.194321,99.2282232 396.851549,97.1995918 399.476568,95.2353615 C404.814409,90.9736437 410.443146,87.0894206 416.321783,83.6109816 C420.641067,81.023853 425.493196,79.4546142 430.50977,79.0224106 L431.7176,79.0224106 C430.107159,80.8417387 428.496718,82.6771671 427.015112,84.480395 C425.533506,86.2836229 423.568768,88.5376578 421.829492,90.485788 C418.270417,94.4464492 415.532667,96.4428801 412.649977,97.1673913 C410.484019,97.6402551 408.28896,97.9683532 406.079377,98.1495065 C402.270382,98.4559181 398.497149,99.1079797 394.806289,100.097637 C393.668244,100.408908 392.567776,100.773847 391.504885,101.192454 L391.424363,101.208554 Z M265.809953,91.7094069 C262.911159,91.6289057 258.611281,91.0009959 256.147306,88.2961541 C251.477026,83.2889766 254.069837,73.0331179 259.368188,66.9472237 C261.375802,64.302653 264.41612,62.6394023 267.726378,62.374753 C269.619246,62.3204788 271.503574,62.6490557 273.266295,63.3407679 L274.023203,63.6305724 C268.7344,67.482902 265.185342,73.2710605 264.151198,79.7308215 C263.48717,83.8006508 264.088647,87.9761768 265.87437,91.6933066 L265.809953,91.7094069 Z M450.141047,63.0670637 C450.118768,62.5277117 450.064995,61.9901212 449.980003,61.4570388 C449.817508,60.3550174 449.531186,59.2748383 449.126469,58.236989 C451.606549,58.3979915 453.957793,58.5106932 456.389559,58.6072947 L458,58.6072947 C455.301391,59.9503036 452.677863,61.4390932 450.141047,63.0670637 L450.141047,63.0670637 Z M371.986338,42.4265443 C371.211509,42.4696848 370.434293,42.4319132 369.667303,42.3138426 C366.930056,41.5986267 364.302541,40.5153951 361.856663,39.0937928 C358.937068,37.5616408 355.91261,36.2381101 352.805984,35.1331315 C348.453464,33.6723381 343.862203,33.0548637 339.278278,33.3138033 C331.999084,33.684109 325.444589,36.0186452 319.663105,38.1438781 C316.12302,39.5294828 312.469849,40.6068358 308.744314,41.3639279 C308.173967,41.4603395 307.598681,41.5248408 307.021142,41.5571309 C302.41528,41.7825344 297.954358,39.8505045 292.317814,37.3871663 C287.659821,35.1960229 282.80746,33.4442343 277.823844,32.1545854 C283.477844,29.4274516 289.356184,27.1919973 295.393757,25.472982 C303.301023,23.2189471 315.105556,20.1437995 326.137078,19.5802908 C335.316593,19.1133836 342.24149,20.5302055 346.170966,23.6375536 C349.148089,26.0471471 352.909768,27.2739628 356.73546,27.0830069 C360.424796,26.8805111 363.930165,25.4070436 366.655778,22.9130424 C369.521641,20.5034509 373.122462,19.1407164 376.865975,19.0489826 C382.024374,18.6784243 387.111549,20.4221478 390.957335,23.8790573 C393.089438,26.1662402 394.998407,28.6515721 396.658296,31.3012722 C397.994963,33.2816028 399.363838,35.294134 400.94207,37.3227654 C399.331629,37.3227654 397.866127,37.3227654 396.303999,37.3227654 C395.348471,37.3227654 394.387574,37.4032666 393.42131,37.5642691 C389.326437,38.1333807 385.286282,39.0435269 381.343001,40.2852112 C378.308999,41.3257179 375.172204,42.0381962 371.986338,42.4104441 L371.986338,42.4265443 Z" id="path-4"></path>
        <path d="M396.100842,53.2861579 C387.521656,53.9377448 379.442386,57.8154812 370.798696,57.9426201 C362.155006,58.0697589 355.091692,52.8093871 347.0608,49.9964389 C341.061821,47.9145395 335.353115,48.8680812 329.418642,50.8069494 C320.275036,53.8264982 311.582967,58.1968978 301.6653,57.1638943 C292.908726,56.2898144 285.539012,51.665137 277.475869,48.72505 C267.91752,44.8480305 256.909602,47.6588578 250.464337,55.6223352 C244.781065,62.0997818 241.766239,70.4403898 242.014162,79 C242.577945,71.5522999 245.538211,64.4761167 250.464337,58.8008076 C256.909602,50.8373302 267.91752,48.0265029 277.475869,51.9035224 C285.539012,54.8436094 292.957105,59.4682868 301.6653,60.3423667 C311.582967,61.3276932 320.275036,56.9572936 329.418642,53.9854219 C335.336989,52.0306613 341.061821,51.0930119 347.0608,53.1749114 C355.123944,55.9719671 361.993743,61.232339 370.798696,61.1210925 C379.603649,61.009846 387.570035,57.0526478 396.100842,56.4646304 C402.702492,56.2327114 409.283906,57.3137022 415.452387,59.6431028 C416.929666,60.2745366 418.449092,60.8055243 420,61.232339 C413.194707,57.3546026 403.986596,52.6981405 396.100842,53.2861579 Z" id="path-5"></path>
        <path d="M291.21645,74.5831615 C287.93941,72.8629317 282.953292,75.1514517 283.00033,78.7915807 C283.030295,79.3745717 283.103661,79.9546425 283.219845,80.5271697 C283.874477,79.0927608 285.093261,77.9784925 286.599219,77.4375924 C288.105176,76.8966923 289.770399,76.9751013 291.21645,77.6550004 C293.197281,78.7949199 294.528604,80.7681054 294.822761,83 C295.527565,79.7324648 294.090809,76.3791917 291.21645,74.5831615 L291.21645,74.5831615 Z" id="path-6"></path>
        <path d="M181.201847,200.469236 C178.487326,193.19412 171.798588,188.289313 164.213514,188.011803 C158.82115,187.783226 152.553918,190.885339 152.028998,196.387508 C151.960237,197.158651 152.013959,197.936139 152.188065,198.689602 C153.317439,193.791529 159.15519,191.064935 164.213514,191.277185 C171.798588,191.554695 178.487326,196.459502 181.201847,203.734618 C181.553666,204.793633 181.793643,205.888373 181.917648,207 C182.144847,204.795551 181.900562,202.566767 181.201847,200.469236 Z" id="path-7"></path>
        <path d="M153.235842,212.455201 C158.488625,214.905629 164.6795,214.414686 169.460974,211.168529 C171.198702,210.135992 172.451744,208.475584 172.949378,206.546042 C173.069815,205.788831 172.974366,205.013767 172.67355,204.30628 C171.987589,205.821643 170.858388,207.104044 169.428524,207.991562 C164.64705,211.237719 158.456174,211.728662 153.203392,209.278234 C148.768084,207.05509 145.734288,202.837452 145.090826,198 C145.090826,198.270042 145.090826,198.555969 145.0097,198.826011 C144.799772,204.551526 148.011828,209.873307 153.235842,212.455201 Z" id="path-8"></path>
        <path d="M89.0164773,217.927599 C93.4238477,221.745736 98.8483036,222.49631 104.450346,222.300508 C109.632638,222.121023 114.572768,220.848311 119.771205,221.876271 C124.356162,222.773696 128.48908,225.139636 132.686576,227.260823 C142.728277,232.286405 153.916217,236.332978 165.330177,234.587078 C173.669841,233.503601 181.230577,229.083243 186.317655,222.316825 C189.674735,217.579235 191.311321,211.815878 190.951044,206 C190.630047,210.700359 189.026206,215.218794 186.317655,219.05346 C181.230577,225.819878 173.669841,230.240235 165.330177,231.323713 C153.900073,232.955395 142.728277,228.957773 132.605855,223.932191 C128.472936,221.876271 124.323873,219.461381 119.690484,218.547639 C114.492047,217.519679 109.551917,218.792391 104.369625,218.971876 C98.7675825,219.167678 93.3431266,218.400787 88.9357562,214.598967 C86.4668628,212.716456 84.7482992,210.001043 84.0924921,206.946376 C83.6243099,210.585028 84.8835585,214.354215 89.0164773,217.927599 Z" id="path-9"></path>
        <path d="M239.103627,98.7904113 C247.226701,110.188408 263.296957,112.809947 276.872725,109.911599 C285.251644,108.120485 294.350127,103.935793 299.115237,96.0548921 C301.299252,92.3243482 302.283249,87.9918365 301.929531,83.6636417 C301.710789,86.8916967 300.746524,90.0215256 299.115237,92.7983217 C294.318146,100.679222 285.251644,104.863915 276.872725,106.655029 C263.296957,109.553376 247.210711,106.980686 239.103627,95.5338409 C235.976496,90.9650624 234.226023,85.566637 234.066681,80 C233.623621,86.6619582 235.398075,93.281591 239.103627,98.7904113 Z" id="path-10"></path>
        <path d="M273.070661,232.315034 C263.216618,232.315034 254.23205,229.598664 245.424596,235.626112 C234.572268,243.068001 227.80969,254.142432 212.932017,252.904796 C205.010139,252.245795 197.587405,248.082837 190.132467,253.049455 C178.104738,261.086052 169.071866,272.594459 154.709437,277.159246 C141.619017,281.257911 129.703998,277.512857 119.286407,269.122649 C113.00687,264.075666 107.451895,257.678535 99.2562938,256.006922 C93.3470884,254.801433 86.9870444,255.251482 81.5447789,252.390454 C77.4076382,250.093561 74.2995735,246.312955 72.8500352,241.814292 C72.0127636,239.612264 71.7068374,236.895894 70.4670314,234.870672 C68.1001289,231.013105 63.6561488,231.350642 59.5825004,231.559594 C51.3868993,231.977497 43.9641644,233.440157 35.8329689,231.318496 C30.1684579,229.795225 24.8239021,227.26917 20.0536193,223.860533 C9.64458654,216.581222 2.54247673,205.487348 0.297229395,193 C0.0297904255,193.54843 -0.0602379796,194.166292 0.0396073592,194.768051 C1.98725823,207.8224 9.22389199,219.503956 20.0536193,227.075172 C24.8396991,230.48332 30.2009805,233.004102 35.8812731,234.517061 C44.0124686,236.638723 51.4352035,235.176062 59.6308045,234.758159 C63.7044529,234.549208 68.148433,234.211671 70.5153355,238.069237 C71.7551415,240.09446 72.1254732,242.891196 72.8983393,245.012857 C74.3478777,249.511521 77.4559424,253.292126 81.593083,255.589019 C87.0836527,258.466121 93.4436967,257.999998 99.304598,259.205488 C107.5163,260.812807 113.071276,267.242085 119.334711,272.321215 C129.703998,280.679276 141.619017,284.408257 154.757741,280.357812 C169.12017,275.857318 178.169144,264.39713 190.180771,256.24802 C197.635709,251.233184 205.058444,255.444361 212.980321,256.103361 C227.857994,257.340997 234.620572,246.250493 245.4729,238.824677 C254.280354,232.79723 263.264922,235.610039 273.118965,235.513599 C283.971293,235.513599 297.271031,228.939663 295.902414,217.286597 C294.646507,226.946587 282.8764,232.282887 273.070661,232.315034 Z" id="path-11"></path>
        <path d="M518.469724,70.2969363 C489.455485,61.4503862 460.747506,70.7625442 441.856013,93.962662 C435.086023,102.279382 428.074249,110.403437 417.17779,112.972309 C411.761799,114.256744 406.007308,113.983802 400.671911,115.573291 C391.854806,118.206384 392.354496,125.527666 391.983759,133.23428 C390.790951,158.537661 365.59692,170.161803 343.062527,170.755854 C335.003016,170.94852 326.073078,168.524148 318.28759,171.205407 C313.113384,172.987561 308.72901,177.145921 304.779849,180.838674 C296.301244,188.625564 288.419042,195.914736 275.975157,194.341303 C261.806537,192.559148 247.41225,187.132408 234.452556,181.352448 C226.773792,177.77195 218.468193,175.71601 210,175.299545 L213.223804,176.359205 C220.38065,178.751466 227.424663,181.400614 234.517032,184.579592 C234.871651,184.740147 255.729665,193.955972 265.143174,195.818404 C271.107212,197.006507 274.105351,198.612051 282.970813,197.761113 C291.658966,196.460622 298.090455,190.279275 304.892683,184.049763 C308.841843,180.437288 313.226217,176.262872 318.400423,174.416496 C326.185911,171.735237 335.131968,174.175664 343.17536,173.966943 C365.741991,173.405003 390.903784,161.74875 392.096592,136.445369 C392.467329,128.7227 391.96764,121.385362 400.784745,118.78438 C406.120141,117.178835 411.874632,117.467833 417.290623,116.183398 C428.187082,113.614526 435.198857,105.490471 441.968846,97.1737509 C460.86034,73.9736332 489.568318,64.6614752 518.582557,73.5080253 C521.693529,74.4552965 523.869597,70.7785997 522.66067,68.2097285 C522.078746,69.9359955 520.205361,70.8689934 518.469724,70.2969363 L518.469724,70.2969363 Z" id="path-12"></path>
        <path d="M106.576727,140.453989 C96.4692417,145.194119 92.068375,152.610649 85.926506,161.413748 C80.5745362,169.104367 75.8029004,170.184601 66.9366854,169.475193 C53.8630482,168.475574 50.8162943,185.001538 43.0785066,192.401945 C34.3896159,200.640742 26.9581156,204.639219 9,201.801591 C9,201.801591 9,201.930574 10.773243,202.430383 C21.6383866,205.977419 34.8409868,203.430003 43.0140251,195.626523 C50.8324147,188.226116 53.7985667,171.68403 66.8722038,172.699772 C75.7384189,173.376933 80.5100546,172.312822 85.8620244,164.638326 C91.9716526,155.867473 96.4047602,148.515435 106.512245,143.678567 C115.797591,139.325387 126.050159,137.696975 136.173765,136.826339 C148.699309,135.746105 161.337695,134.859346 173.605313,131.892734 C185.518282,129.006736 195.73861,121.638575 207.329171,129.490423 C219.371103,137.648606 230.735979,146.290476 244.712358,150.99836 C267.056618,158.49301 291.60131,155.350944 311.337934,142.469351 C318.334183,137.825958 325.846286,132.03784 330.327754,124.863153 C334.293371,118.510734 337.001596,110.175199 344.400856,106.966744 C347.647219,105.855587 351.033106,105.204354 354.45998,105.031997 C376.883444,102.129876 391.536879,83.6691659 410.268774,73.2537781 C416.391122,69.6425535 423.290162,67.5526164 430.387022,67.1593252 C432.514913,67.1593252 434.836249,67.1593252 436.561131,65.9339855 C438.286013,64.7086457 438.350495,63.2737084 437.33491,62 C437.102945,62.2633211 436.843551,62.5011363 436.561131,62.7094072 C434.836249,63.9669927 432.531034,63.8702554 430.387022,63.934747 C423.290162,64.3280382 416.391122,66.4179752 410.268774,70.0291999 C391.520759,80.4607106 376.883444,98.9052982 354.45998,101.807419 C351.033106,101.979775 347.647219,102.631009 344.400856,103.742166 C337.001596,106.966744 334.27725,115.286156 330.327754,121.638575 C325.846286,128.829384 318.334183,134.536888 311.337934,139.244772 C291.60131,152.126366 267.056618,155.268431 244.712358,147.773782 C230.752099,143.065898 219.371103,134.424028 207.329171,126.265845 C195.73861,118.413997 185.518282,125.782158 173.605313,128.668156 C161.337695,131.65089 148.715429,132.521527 136.173765,133.60176 C126.146882,134.472396 115.878193,136.100808 106.576727,140.453989 Z" id="path-13"></path>
        <path d="M473.301657,44.9234827 C452.207914,41.9341215 426.895422,46.6753126 411.356901,28.6105707 C406.880519,23.4032963 403.805019,17.022778 398.861676,12.2333713 C388.363111,2.04382824 369.491456,0.983087166 358.413216,10.899409 C357.009109,12.3478379 354.719889,12.4603261 353.180035,11.1565584 C337.963556,-0.881245635 308.706051,6.06178687 291.798852,10.8833372 C271.767847,16.6049103 252.751274,27.2283929 239.837395,43.8466698 C236.890711,47.6396227 235.988994,52.2361674 230.546486,53.1040464 C228.078554,53.3556975 225.591353,53.3556975 223.123421,53.1040464 C215.489862,52.5756141 207.936603,54.9337233 201.965269,59.7095704 C196.957518,64.0328939 194.960858,72.0688111 188.568327,74.7367357 C186.202107,75.4639673 183.792881,76.0436714 181.354589,76.4724938 C175.412916,78.0796772 171.98317,82.9012276 169.229712,88.0120709 C168.725466,89.2123035 167.908098,90.25568 166.862704,91.0335758 C165.422484,91.655114 163.823805,91.812434 162.289709,91.4835872 C151.549612,90.5192771 137.299259,96.4497841 133,105 L135.254293,103.07138 C142.847812,96.9062276 152.533432,93.9063914 162.289709,94.6979541 C163.823805,95.0268008 165.422484,94.8694808 166.862704,94.2479427 C167.914954,93.4568203 168.732909,92.3960324 169.229712,91.1782223 C171.98317,86.0030916 175.396814,81.2779723 181.354589,79.6386452 C183.792881,79.2098228 186.202107,78.6301187 188.568327,77.902887 C195.009164,75.2349625 196.957518,67.2151171 201.965269,62.8757218 C207.936603,58.0998747 215.489862,55.7417655 223.123421,56.2701978 C225.591353,56.5218489 228.078554,56.5218489 230.546486,56.2701978 C235.988994,55.4023188 236.890711,50.8057741 239.837395,47.0128212 C252.71907,30.3945443 271.767847,19.6907025 291.798852,14.0494886 C308.722153,9.22793826 337.963556,2.28490576 353.180035,14.3227098 C354.719889,15.6264775 357.009109,15.5139893 358.413216,14.0655604 C369.507559,4.14923856 388.363111,5.1939078 398.861676,15.3995227 C403.788917,20.2210731 406.912723,26.5533758 411.356901,31.7767221 C426.895422,49.841464 452.207914,45.084201 473.301657,48.0896341 C484.428204,49.6968175 495.538649,52.9111844 504.410903,59.452421 C506.407563,61.0596045 507.470301,63.0203683 509,63.2775177 C501.254893,52.364742 486.440966,46.7878155 473.301657,44.9234827 Z" id="path-14"></path>
    </defs>
    <g id="Page-1" stroke="none" stroke-width="1" fill="none" fill-rule="evenodd">
        <g id="Group-20" fill-rule="nonzero">
            <g id="Shape">
                <use fill="#99C7FF" fill-rule="evenodd" xlink:href="#path-1"></use>
                <use fill-opacity="0.7" fill="#061D3B" fill-rule="evenodd" xlink:href="#path-1"></use>
            </g>
            <g id="Shape">
                <use fill="#3678D8" fill-rule="evenodd" xlink:href="#path-2"></use>
                <use fill-opacity="0.7" fill="#061D3B" fill-rule="evenodd" xlink:href="#path-2"></use>
            </g>
            <g id="Shape">
                <use fill="#1B448E" fill-rule="evenodd" xlink:href="#path-3"></use>
                <use fill-opacity="0.7" fill="#061D3B" fill-rule="evenodd" xlink:href="#path-3"></use>
            </g>
            <g id="Shape">
                <use fill="#122B63" fill-rule="evenodd" xlink:href="#path-4"></use>
                <use fill-opacity="0.7" fill="#061D3B" fill-rule="evenodd" xlink:href="#path-4"></use>
            </g>
            <g id="Shape">
                <use fill="#122B63" fill-rule="evenodd" xlink:href="#path-5"></use>
                <use fill-opacity="0.7" fill="#061D3B" fill-rule="evenodd" xlink:href="#path-5"></use>
            </g>
            <g id="Shape">
                <use fill="#122B63" fill-rule="evenodd" xlink:href="#path-6"></use>
                <use fill-opacity="0.7" fill="#061D3B" fill-rule="evenodd" xlink:href="#path-6"></use>
            </g>
            <g id="Shape">
                <use fill="#122B63" fill-rule="evenodd" xlink:href="#path-7"></use>
                <use fill-opacity="0.7" fill="#061D3B" fill-rule="evenodd" xlink:href="#path-7"></use>
            </g>
            <g id="Shape">
                <use fill="#122B63" fill-rule="evenodd" xlink:href="#path-8"></use>
                <use fill-opacity="0.7" fill="#061D3B" fill-rule="evenodd" xlink:href="#path-8"></use>
            </g>
            <g id="Shape">
                <use fill="#122B63" fill-rule="evenodd" xlink:href="#path-9"></use>
                <use fill-opacity="0.7" fill="#061D3B" fill-rule="evenodd" xlink:href="#path-9"></use>
            </g>
            <g id="Shape">
                <use fill="#122B63" fill-rule="evenodd" xlink:href="#path-10"></use>
                <use fill-opacity="0.7" fill="#061D3B" fill-rule="evenodd" xlink:href="#path-10"></use>
            </g>
            <g id="Shape">
                <use fill="#122B63" fill-rule="evenodd" xlink:href="#path-11"></use>
                <use fill-opacity="0.7" fill="#061D3B" fill-rule="evenodd" xlink:href="#path-11"></use>
            </g>
            <g id="Shape">
                <use fill="#122B63" fill-rule="evenodd" xlink:href="#path-12"></use>
                <use fill-opacity="0.7" fill="#061D3B" fill-rule="evenodd" xlink:href="#path-12"></use>
            </g>
            <g id="Shape">
                <use fill="#122B63" fill-rule="evenodd" xlink:href="#path-13"></use>
                <use fill-opacity="0.7" fill="#061D3B" fill-rule="evenodd" xlink:href="#path-13"></use>
            </g>
            <g id="Shape">
                <use fill="#122B63" fill-rule="evenodd" xlink:href="#path-14"></use>
                <use fill-opacity="0.7" fill="#061D3B" fill-rule="evenodd" xlink:href="#path-14"></use>
            </g>
        </g>
    </g>
</svg>